<mxfile host="Electron" modified="2025-03-09T07:31:48.139Z" agent="Mozilla/5.0 (Windows NT 10.0; Win64; x64) AppleWebKit/537.36 (KHTML, like Gecko) draw.io/24.6.1 Chrome/124.0.6367.207 Electron/30.0.6 Safari/537.36" etag="MCBiBqOC1U3dXgpbaeiI" version="24.6.1" type="device">
  <diagram name="第 1 页" id="L9gmbsu1yOwdnxpRqGhl">
    <mxGraphModel dx="3660" dy="2597" grid="1" gridSize="10" guides="1" tooltips="1" connect="1" arrows="1" fold="1" page="1" pageScale="1" pageWidth="3300" pageHeight="2339" math="0" shadow="0">
      <root>
        <mxCell id="0" />
        <mxCell id="1" parent="0" />
        <mxCell id="zTCvv12B_XUvZwemzXdV-1" value="" style="rounded=1;whiteSpace=wrap;html=1;strokeWidth=2;" vertex="1" parent="1">
          <mxGeometry x="880" y="1720" width="1570" height="390" as="geometry" />
        </mxCell>
        <mxCell id="zTCvv12B_XUvZwemzXdV-2" value="&lt;font size=&quot;1&quot; style=&quot;&quot;&gt;&lt;b style=&quot;font-size: 80px;&quot;&gt;Driver层：MCU驱动程序库&lt;/b&gt;&lt;/font&gt;" style="rounded=1;whiteSpace=wrap;html=1;strokeWidth=3;" vertex="1" parent="1">
          <mxGeometry x="940" y="1960" width="990" height="130" as="geometry" />
        </mxCell>
        <mxCell id="zTCvv12B_XUvZwemzXdV-4" value="&lt;font style=&quot;font-size: 80px;&quot;&gt;&lt;b&gt;Core层：MCU驱动程序&lt;/b&gt;&lt;/font&gt;" style="rounded=1;whiteSpace=wrap;html=1;strokeWidth=3;" vertex="1" parent="1">
          <mxGeometry x="940" y="1740" width="990" height="130" as="geometry" />
        </mxCell>
        <mxCell id="zTCvv12B_XUvZwemzXdV-5" value="" style="shape=image;imageAspect=0;aspect=fixed;verticalLabelPosition=bottom;verticalAlign=top;image=data:image/jpeg,/9j/4AAQSkZJRgABAQAAAQABAAD/2wBDAAsJCQcJCQcJCQkJCwkJCQkJCQsJCwsMCwsLDA0QDBEODQ4MEhkSJRodJR0ZHxwpKRYlNzU2GioyPi0pMBk7IRP/2wBDAQcICAsJCxULCxUsHRkdLCwsLCwsLCwsLCwsLCwsLCwsLCwsLCwsLCwsLCwsLCwsLCwsLCwsLCwsLCwsLCwsLCz/wAARCACfAP4DASIAAhEBAxEB/8QAGwABAAIDAQEAAAAAAAAAAAAAAAYHAQQFAwL/xABMEAABBAEBAwUJDQMLBQEAAAABAAIDBAURBhIhEzFBUXEUFSI1YXSBkbIyMzRCVXJzk5Shs9HSUoKxFiMkJUNUksHT4fBFU2Jko/H/xAAbAQEAAgMBAQAAAAAAAAAAAAAABAUCAwYBB//EADERAAICAQIDBgQGAwEAAAAAAAABAgMEBRESEzEhM0FRcYEVMlLBNGGRodHwFCIjQv/aAAwDAQACEQMRAD8AttERAEREAREQBERAEREAREQBERAEREAREQBERAEREAREQBERAEREAREQBERAEREAREQBERAEREAREQBERAEREAREQBERAEREAREQBERAEREAREQBERAEREAREQBOKKKbY5exQr06tSaSKzYeZXvicWvbDHw0BHHwiR6itldbskoLxNF90aK3ZLoiV8Vjiqg7+bQfKl769/5p382g+VL317/zU74dZ5op/jlX0st9ZUM2OzNm467Ru2JJpm6Wa75nFz3RnRj2anqOh/e8imahW1OqbhIt8e+ORWrI9GE4oi1EgcU4rm5yWaDD5aaGR8csdWRzHsOjmO62kKse/m0Hype+vepdGLK9Nplbl6hDEkoyTe5b/FOKqDv5tB8qXvr3/mnfzaD5UvfXyfmpHw6fmiF8cq+llv6lZ1VP9/NoPlS99e/81swbUbSwFul98gHxbDI5Ae0lod968enWLxRktbpfWL/YtdFEMTtnVtPjr5GNtWZ5DWTMce5nOJ4B28dW+nUeUKXa9qg2VSre0kWtGRXkR4q3uOKzxWFXm1WUy1XMzw1r1qGJtes4RxSuYwEtJJACyppd0uFGGVkxxa+ZJblh8Vniqf7+bQfKl769/wCakezO083LChlZ3yNneO5bEztXNkP9lI49B+Kejm6eEmzBshHi33INOr02zUNmtyeosArKgFyEREATVR3aXPsxMPIVy12RnaeTHAiBh4cq8eyP8goD382g+VL317/zUynDndHi6FXlanVjT4Gt3+Rb/FPSqhZnNoC+Id9L2hliB1nfoQXtBHOrSyNs0ac1hsfKygxRQRa7vKzzSNhjYT0AkjU9SxuxpUtJ+Jsxc+GSpSittvM3NSsqF27mQqz3jcuXXvpSVWTy0rsNcB9hsbwKtB0RDmt3gPCc4nT1SHHWbTn3aN0sdaouiDpY27jLEEzS6KXc1OhOjg4dbTpwK1SrcVub4ZCnLh27f7/B00RFqJIVR5/Id8srcsNdrC13c9bq5GLwQR2nV3pVhbSZDvdibkjXaTTjuWv178oILh2DU+hVR1dit9Or62M5rW7/AJaV6v7BF7VoJbVirViGstiaOFnkL3aE+gan0LZy9B2MyNymdS2J4MLjzvheN5jjp09B7FacaUuDxOe5cnDmbdm+x5467Jjr1O6zXWvKHPaPjxHwXs9I1/4FccckcscUsbg6ORjZGOHM5rhqCFSKsbYrIizj5KMjtZse4NZrzmvISWeri30BVuoVbpWLwLzRcnhm6X49qJWiBFTHVHK2h8R5nzSRVGrc2h8R5nzSRVGrvTvkfqcprnex9PuCQASeYDU9i6TcDtG9rXtxdstcA5pHJaEEagjw1y3+4k+a7+Cuyp8Fp+bwfhhbcvIlQk4+JF07ChluSm9tipZcLn4GF8uLutYOdwj39O0Rkn7lz/TwV4FVztrSr1shVsQsaw3IXvma0aAyxuDd/h0kEa9nlWrGzXbPgkiRn6XHHr5kHukRXgedWDsZmJLMM2MsPLpakbX1XOOrn1td0tJP7J0HYR1Kvl29lJHR5/GAa6S90xO8rTC53H0gFSMutWVNvwIWnXypvjs+x9haqrDbLx9Y83qeyVZ45lWG2Xj6x5vU9kqr0/vfY6DWfw3uvuR5OcaHm5jqiK/OPLA2U2i7pazGXpNbTGgVJn/27Gj3Dj+2PvHlHGYKkGuc1zXNc5rmuD2uaSHNc06gtI6R0KzdmtoGZaHuey4NyEDByg5hOwcOVYOv9odHYVR5mLwf9IdDq9L1DmJU2dfB+ZI1yM7ma+GqmVwa+zKHNqwE+7eOdztOO6On1dK2cnkqmLqS27LvBb4MbG+7lkPuY2eU/dz9CqfI5C3lLcty07V7/BYwa7kUY9zGwHoH38/StWLjO57voStRz1jR4Y/M/wBjxsWbFueazZkMk8zi+R7ucnyeQcwHRp5F5Ii6BJLsRxbbb3Z9R++Q/Sw+21XDlKs1unLFA5rbDHw2axfructXkbMxr9OO6SND5Cqej98h+lh9tqu/pVTqL2cGvzOk0SKlCxP8iF2hj7D8pNZEtPLWbFGaoJMfZms031mRMLYpIWnfDi06FrtDvLvY2O1JNkclaidXfedAyCu/d5SKtXa4M5XdJG+4uc4jU6agdC6yaKslZutkXldHDLib/v8AWOCwVla9yzFSq2rcvvdaGSZ3EDXdGoaPKeYdq1pb9iJEmkt2QDbW/wB0ZGKkx2sdGPwwOYzygOd6huj0lRVek80tiaexKdZZ5ZJpD1ve4uK8yQ0Fx5mgk9gXUU1qqCh5Hz7Jud90rH4/1Er2Iod0ZGxeeP5ujFuRn/2JgW8Oxuv+JdLbjH78FTJsHhQO7msEf9qQ6sJ7DqP3l19l8ecfh6bXt3Z7INywOkPl0IaewaD0LqXasV6pbqSgbliJ8RP7JcODh5QdCOxUtmQ1kca6LsOqpwt8Lkvq1v7lLrqYDI968rUsOdpBI7uaz1clKQN4/NOh9B61z5oZa8s0Ezd2WGR8UoPQ9h3SvPgdQeYghXsoqyOz6M5KEpU2KS6ovAf/AIs8FwtlckcjiYOUdrYqaVJ9TxJYBuPPaNPvXdXLWQcJOL8D6BVYrYKcejOVtD4jzPmkiqNW5tD4jzPmkiqNXOnfI/U5nXO9j6fcw4ateBxO67QdfBW1WzeAbWqtdk6Ic2CFrgZ2aghgBHOqmRScjGV+yb22K/DzZYm7it9y2pto9m4GF7slWfoDo2BxmeT1BsYJVeZ/MHM3RO1jo68LORrMf7sN13i9+nDUn+A6tTyEWFGHCmXF1Zsy9StyY8DSS/IKT7FUpJ8q+5oeRoQv8LoM07d1rfVqT2jrXNxOAyuYe0ws5GrvaSW5hpGAOBEbedzvu8vXZ2MxtPFVIqdVpEbCXPc7jJLI73Ukh6Sf+cy1ZuRGMXXF9rJOl4M7LFdJbRX7m6qw2y8fWPN6nslWeqw2y8fWPN6nslQtP732LTWfw3uvuR5bNajatw35q7N/uGOKaZjQS/knlzS5oHVpqfJ2LWUw2D43Mx5rWH/0erm+x11ua8DmcOlX3KuXj/BD1617FirNDYryGOeF4fG9vOHDrHUeYj81JNqdnjQkfkKcf9BldrNG0cKsjjzgD4hPN1HhzEaRZK7I3Q4l0ZjdTPFs4ZdUdLL5i7mLDZrG6xkbAyGGMnk4wQN4jXpJ4k9g6FzUXQxGJtZm2KsOrI2Br7U+mogiJ6OguPENHp5gsv8ASqPkkef9Mmzzkzxho2pql6+1ulWmYWSSO10fLK9rBGzrI11P+61VZW0dSrR2XsVKsYjghdUaxo5/f2EuJ6SeclVqtONdzk5fmb83FWLKMN+3btPqP3yH6WH22q7+lUhH75D9LD7bVd/SoOpdY+5caF8s/YcE4IiqTpDCh+3GQ5OrVxrHeHafy84B48jEfBB7Xcf3VMCqizt/vllLtlp1i3+Rr9XIxeA0jt4u9Km4VXHbv5FTq2RyqHFdZdhzFsUY6styky3KyKpyzHWXv3tBEw77m+CCdTppzdK10XQNcS2RxsZcLTLYG0+y4GnfKEDo8GX9KHafZg/9Th/wy/pVToq34dX9TLv45b9K/c7u1EuKs5HuzHWY5mWYmmwIw4FkzPA1O8BzjT1HrXCRFPrhy4qPXYp7rebY7Ntt/IkOyOR7hyrIXu0gyAFd4PMJRqYnH06t/e8is9UgC4aFpLXAhzXA6FrgdQQesK3cJkW5TG07fDlHM3LDR8WdngvHr4jtVTqNWzVi8To9FyN4ul+HQ+dofEeZ80kVRq3NovEea80kVRrfp3yP1I2ud7H0+5gnQOPPoCfUFNIthXSwwyjK6GWNkgBq6gb7Q7TXlFCn+4f8138FdlT4LT83g9gLLOunUo8D6mrScWrIcuat9tiqsvgslhnt7oDZK8h3YrEO9ybnc+64HiHeT7z0cpXPdp1r9WzUsN3op2OY7raehzfKOcKoLlSejas1Jx/O15DG7qdpxDh5CNCO1ZYeS7lwy6o16lgrFkpQ+V/szbw2ZuYay2WJznV3ub3VBr4MrOktHMHDoPo5lbNexBahgsQPD4Zo2yxuHMWuGoVJqdbD5MllnEyu4x71mpqfiOP84wdhII+cepas+hOPNj1XUk6RmOM+RJ9j6epNlWG2Xj6x5vU9kqz1WG2Xj6x5vU9kqJp/e+xY6z+G919yPKY7BfDMx5tW/EeocpjsF8MzHm1b8R6tcvuZFBpn4qH98CeyxxyxyRSNa+ORpY9jhq1zXDQghVbtDgZcNYDotXY+dx7neSSY3c/IyE9I+KekeUK1Vr3KdW/Wmq2Yw+GZu65p4EdIc0jiCOcFUeNfKmW/gdVnYccqG3iujKfpUreRtQU6jd6aUniddyOMab0khHM0f7c5Vr4nFVMRTjqV+J1355XDw5pSOL3f5DoHDoXzisHi8O2cU2SF87gZZZnb8rg3mbvaDgOgadK6a25eU7ntHoaNP09Yq4p9smcDa/xBf+fU/HYqtVpbX+IL/wBJV/HYqtVhp3dP1KbWu/XofUfvkP0sPttV39KpCP3yH6WH22q7+laNS6x9yXoXyz9giIqk6Q4m02QOPxFpzHbs1n+iQEHiHSg7zh2DUhVSpRtpkBZyTKbHDkqDN1w1GhnlAe8+gbo9ai+o6x61f4VfLq3fVnF6rfzr3FdI9n8jRx0DGlz3FrWNHEue4hrWjtJCsOHYbEclDy9i8ZuTZyxjliDOU08LdBj1015uKjOydHu7M13OGsNBpuSdRePBiB9J1/dVpqPnZEoSUIPYm6VhV2Vystjvv0It/IXA/wB4yP10P+kn8hcD/eMj9dD/AKSlSKD/AJV31Muvh+N9CIr/ACFwP94yP10P+kobnsUMRkZarC90DmMmrOkIL3Ru4EEgAaggjmVuKKba4/unHx3WN1loP3n6c5gkIa71HQ+tb8bKnzEpvdMgZ+n1chyqjs12lcqW7E5HkLs+OkdpHcbysGp4CeMcQPnN9lRLUeRfcM8taavYhdpNXlZNEdfjMO8AfIeY9quL61bW4M5rFudFsbPItnaHxHmfNJFUatPJ3Ib+zF+5CRyVjHOlbx5tQNWnyg8D2KrOHWPWoWnraMk/MtNakpWQa8vufL/cP+a7+Cuyp8Fp+bwewFSbyNyTm9w7p8iuyp8FpebwfhtWGpdIm7Qus/Y9tFBduMbuup5SNum9pUs6dfF0bj97fUp2tPJUosjRuUpNAJ4nNa4/EkHhMd6DoVW0W8qakXmZR/kUyr8fD1KaWzQuy467Tux671eUPc0fHjPgvZ6QSvCWOSCWWGUbssT3xyNPAtewlpC+dR1j1rpmlNbPozg05Vy3XY0XbDLFPFDNE4OiljZJG4cxa4Agqs9svH1jzap7JUh2JygnpzY2RwMtI78Op4urSHgB806j0hR7bLTv7Y4j4NV9kqnxK3XkOLOm1G5X4UbF4tfcjymOwXwzMebVvxHqHajrHrUw2C07szHmtb8R6n5fcyKfTPxUP74FgoiLnEdyERF4wcDa/wAQX/pKv47FVqtLa8/1Bf8ApKn47FVuo6x61e6d3T9TkNa79eh9R++Q/Sw+21Xf0qkI9OUh4j36Lp/82q71p1LrH3JmhfLP2CIiqTozRdhsG9znPxlBznElznVoSSesktXz3kwHyVjvssP6V0EWfHLzNXJrf/lfoa9ajj6fKdyVK1flN3lO54mR727rpvbgHMthEWLbfazZGKitkgnFEXh6OK+ZI45WSRysa+ORrmPY9oc1zXcC1wPDQr6RB1Of3kwHyVjvssP6U7yYD5Kx32WH9K6CLPmS8zVya/pX6Hg2lRZXdUZVrtquDg6BsTBCQ46kFgG7x6eC1+8mA+Ssd9lh/St9F4pSXRnrrg+qRz+8mA4/1VjvssP6VvtaGhrWgBrQGtAGgAHAABZRHJvqz2MIx+VbDiiIsTM0pcThp5HyzY6jJLId58kleJz3Hm1c4t1Xx3kwHyVjvssP6V0EWfHLzNTprfa4r9DUgxuKqycrWo1IJd0s34YI437p01G80A6JPjMTZkMtmhTmlIa0vmgje8hvMC5wJ4LbRecUt99zLlw24dlsc/vJgPkrHfZYf0r3rUMdTL3VKdau54DXmCFkZcAdQCWALZRHOT7GzxVQi91FDinFEWJsHFERAec9evZjdDYhimidul0czGvYSDqNWu4LU7yYD5Kx32WH9K30WSlJdGYSrhJ7ySZoDC4EEEYrHggggirDwI4j4q30ReOTfVnsYRj8q2HFOKIvDIIiIAiIgCLKwgCIiAIiIAsrCygMIiIAiIgCIiAIiygMIiIAiIgCIiAIiygMIiIAiIgCIiAIiIAiIgCIiAIiIAiIgCIiAIiIAiIgCIiAIiIAiIgCIiAIiIAiIgCIiA//2Q==;" vertex="1" parent="1">
          <mxGeometry x="2048" y="1931" width="254" height="159" as="geometry" />
        </mxCell>
        <mxCell id="zTCvv12B_XUvZwemzXdV-6" value="" style="shape=image;verticalLabelPosition=bottom;labelBackgroundColor=default;verticalAlign=top;aspect=fixed;imageAspect=0;image=data:image/jpeg,/9j/4AAQSkZJRgABAQAAAQABAAD/2wBDAAsJCQcJCQcJCQkJCwkJCQkJCQsJCwsMCwsLDA0QDBEODQ4MEhkSJRodJR0ZHxwpKRYlNzU2GioyPi0pMBk7IRP/2wBDAQcICAsJCxULCxUsHRkdLCwsLCwsLCwsLCwsLCwsLCwsLCwsLCwsLCwsLCwsLCwsLCwsLCwsLCwsLCwsLCwsLCz/wAARCABSAQYDASIAAhEBAxEB/8QAHAABAAIDAQEBAAAAAAAAAAAAAAEHAgYIAwUE/8QAQhAAAQMDAgEFDQUGBwEAAAAAAQACAwQFEQYhEgcUMUGRExUWFyJRVFVhcZOU0jJSU4HRI0JygpXUQ0RFYpKhseP/xAAZAQEAAwEBAAAAAAAAAAAAAAAAAQMEAgX/xAAjEQEAAgIBAwUBAQAAAAAAAAAAAQIDERIEE1IUISIxUTJB/9oADAMBAAIRAxEAPwC20RSghERARSoQEREBERAREQETI86dqAidvYnagInanagInanagInanb2ICJnHWiAiIgIiICKVCAiIgIiICIiAiIgIiICIiAiIgLF7msa5znBrWglznEAAAZJJPUFktM5Rbx3tsElJG7FVd3Oo2AHDhTgcU7x7MYb/ADhdVrytEQi06jbT9S8otzq5pqWxSmkoGOdGKpjRzqqA242Od9lh/dwM9ed8DUX6i1IXF0l7ufE45OayYEn3ByzsNlq9QXWmtlM4M4w+apnIy2np4yA+Th8+SGtHncOgbi77TpPTFmhjjpbdTukDW8dTUxsnqZCOlzpJAen2ABbr2x4fjrbJWtsnvtRfhBqH13dPnKj6k8IdQ+u7n85P9S6L5lQ+i03wY/pU8zofRab4Mf0qv1NfF32Z/XOfhDqL13c/nKj6k8IdReu7n85UfUujOZ0PotN8GP6VHM6H0Wm+DH+in1NfE7M/rnTwh1F67ufzk/1J4Q6h9d3P5yf6l0XzOgP+Vpvgx/onM6D0Wm+DH+ij1NfE7M+TnTwh1D67ufzk/wBSeEOoenv3c/nJ/qXRfM6D0Wm+DH9KGjoPRab4MX6KfU18Tsz+tR5OoLq6yyXK4VdXUSXOcy04qpZZO500X7NhaJCccW7s48y3YdCxY1rWta0ANaAA1owGjzABZYWS1uVploiNQIiLlIiIgIiICIiAiIgImybICJsmyAibJsgImybICIiCCqJ1/eO+uoaqON/FS2xve+HB8l0jDxTPxnG7ts9YYFb2pbu2yWW53Dbu0cXc6UfeqZfIjGCOonJ9y51yTkudxEkkuPSSdyStvSU3PJm6i2o0szkmZF3fU8hGZGxWxjTgZDHOqCQD7SN/d7FYl8qLtS2q51Nppm1Nwig4qaFwLuM8QDiGggkgZIGdyMdao7SeoHacuzKt7Xvo54zTV8ce7zE4hzZGN6C5hGR7CR+8r7paukrqeCspJo56aoY2WGWI8TXA+b29RHV0KvqazW/Kfp1hmJrpTHjJ1rv+1oBgkb0eMEdOQX9qeMrWv41B8n/9FtutNDMufdbtZowy5YL6mmbhjK7G5czqEvt6+vB3VQOa5rnsc1zXsc5j2PaWva5pwWuadwR1j2LTijFkj6U3nJT/AFuXjK1p+LQfJj608ZWtfxaD5MfWtMXpT09RWVFLR0w4qisnhpYB1GSZ4jbntz+SunDjiJnUK4yXmdbXnoa7agvdsqLldnQFktU+OhEEPcsxQjge87nOTkD3H8vfWWoJNPWh1RTiM1tRMymo2yguaHEFz3uYMZDQD19JC+xbaCntdBQW6mGIaOnip4zjd3AMFx9pOSfeqe5R7uLhfTRRPzT2iPmwwfJdVSYfM4e7yWe9pXnY6Rkya17Nl7cKsfGVrT8a3+80Y/7/AGi3jQd81NqFt1rLnJTGjp3x0tOIIBGX1GO6SEu4icNBaOjfi/270phxw1jS57iGsa0Eue9x4WtAG+Sdl0Xpm0MsdktduGO6RQh9S779TKTJK7tJA9g9iv6mtKRqI+1WG1rTuZfYARNk2WFqETZNkBE2TZARNk2QETZNkBE2RARFKCEUoghFKhARFKCEKIVEipOVK7iWrt9kifllI3ntWAf8eUFsTHfwtyf5x+dbq17lyaXG53C43GbUEXdayplnIdQPcWtc7DGZ5wNmjDRt1L8nilq/X8P9Of8A3C9LFmx0rEbYsmO1p2rNbJpbVlw01U8ID6i1zvBrKQYznoM1Pk4Eg83Q7oOMcTNo8UtX6/h/pz/7hPFLV+v4f6c/+4XVs2K0amUVx3rO4WXQV9BdKWCuoJ2T007SWPbnp6C17TuHDoIIyFX3KXp2l5u3UNLGGTxyRQ3ENG00chDGSuGPtNOAT1g7/ZGNj0jpSXS8dyY+5OrOeyRScDYe4Qx9zaW5awveeI9Zz1BYcoNVDTaVurHkcVYaakgGQOKR8ofsD5gCT7lipPHJ8PpqtG6e6iVv3JjZzWXepu0rT3C1RGOAkEA1lQ3hyOryWZ/5haA4gAuPQMnbpPs3610Doyz95NP26me0CqnZz2tOBkzzgPIO37o4Wj3Ld1N+NdfrLgru230b1c4rNarlc5MHmsD3xtdkiSZ3kRR7b+U4gfmucZJJZpJZpnl8s0j5ZXu6XyPcXOcfeSVZvKnd897LHE4H/UazGNumOFp6/vHsVX9XUANznYYHnK56WnGvKU57bnjDatBWjvrqKlfIzipbW3vhUZHkmRp4YGHIx9rf3NV8rS+TmzOtlhZVTMLau7vFdIHDDmwY4IGHf7vlfz+xbphZM9+d5acVeNRFKhULBERARSoQEUoghFKIIREQEREBERAREQEREBERAREQEREHnI4ta5wY95aCeBnDxOx1DjIb2kKrdV2flF1NVxPNpjgoKUPFHTmup3EF32pZSDgudt7ht7XWsi7peaTuHNq8o1KmLFyeakN3tj7tSwQ26nqG1NSecxymQReW2IMj38o4z0bZ9xubA/VSiZMlsk7sitIrGoUxfNIa/vF4udwfbosVNS7uWa2DDIGnucY3OcBoC+tp/kxdHPDV6gmglZE4SMoKYufFI5py3nErgMjr4Q0A9ZI2NoorJz3mvFHarvaAAOgYwABjbYKURULBERAREQEREBERAREQEWLjjG6IMkREBERAREQEREBERAREQEREBERAREQEREBERAREQEREBERAREQEREHhU/Yb/EP/AAoiKJbcP8v/2Q==;" vertex="1" parent="1">
          <mxGeometry x="1934" y="1730" width="447.32" height="140" as="geometry" />
        </mxCell>
        <mxCell id="zTCvv12B_XUvZwemzXdV-8" value="&lt;font style=&quot;font-size: 50px;&quot;&gt;BSP层：板级支持驱动程序&lt;/font&gt;" style="rounded=1;whiteSpace=wrap;html=1;strokeWidth=3;" vertex="1" parent="1">
          <mxGeometry x="1480" y="1420" width="620" height="100" as="geometry" />
        </mxCell>
        <mxCell id="zTCvv12B_XUvZwemzXdV-10" value="" style="rounded=1;whiteSpace=wrap;html=1;dashed=1;" vertex="1" parent="1">
          <mxGeometry x="860" y="1080" width="1540" height="150" as="geometry" />
        </mxCell>
        <mxCell id="zTCvv12B_XUvZwemzXdV-9" value="&lt;font size=&quot;1&quot; style=&quot;&quot;&gt;&lt;b style=&quot;font-size: 80px;&quot;&gt;操作系统层：FreeRTOS&lt;/b&gt;&lt;/font&gt;" style="rounded=1;whiteSpace=wrap;html=1;strokeWidth=3;" vertex="1" parent="1">
          <mxGeometry x="870" y="1095" width="1070" height="130" as="geometry" />
        </mxCell>
        <mxCell id="zTCvv12B_XUvZwemzXdV-11" value="" style="shape=image;verticalLabelPosition=bottom;labelBackgroundColor=default;verticalAlign=top;aspect=fixed;imageAspect=0;image=data:image/png,iVBORw0KGgoAAAANSUhEUgAAAZ0AAACdCAIAAADgyjJBAAAKq2lDQ1BJQ0MgUHJvZmlsZQAASImVlwdQU1kXgO976SGhJUQ6oYUmXSCAlNBDlw6iEpIAocQQCApiZ3EFVhQREVAXZJWi4KoUWQtiwbYoFrCgC7KIqOtiwYbK/4Ah7O4////Pf2bOu98779xzzr1z78x5AJCpHJEoFZYHIE2YKQ7xdqNHRcfQcaOAAMgADxhAk8PNELGCg/0BInPj3+V9H4Cmx9um07H+/ft/FQUeP4MLABSMcDwvg5uG8AlEX3FF4kwAULWIXXdVpmiaLyNMFSMFIjwwzYmzPD7N8TOMRs/4hIW4I6wMAJ7E4YgTASDpIXZ6FjcRiUPyQNhCyBMIEUbegXNa2koewkheYIj4iBCejs+M/0ucxL/FjJfG5HASpTy7lhnBewgyRKmc7P9zO/63pKVK5nIwECUliX1CkJGG7Nm9lJV+UhbGBwbNsYA34z/DSRKf8DnmZrjHzDGP4+EnnZsa6D/HCQIvtjROJjtsjvkZnqFzLF4ZIs2VIHZnzTFHPJ9XkhIutSfx2dL4OUlhkXOcJYgInOOMlFC/eR93qV0sCZHWzxd6u83n9ZKuPS3jL+sVsKVzM5PCfKRr58zXzxey5mNmRElr4/E9POd9wqX+okw3aS5RarDUn5/qLbVnZIVK52YiB3J+brB0D5M5vsFzDPyBJwgEdBAMrIEVEAFT5GkBQCZ/9fQZBe4rRdliQWJSJp2F3DI+nS3kmi2kW1lYWQMwfWdnj8TbezN3EaLh520bbwLg8ByB2nlbYDcA7RIA5APnbQwX5DhVA9DlyJWIs2Zt09cJYAARyAEqUAGaQBcYzlRmCxyBK1KxLwgCYSAaLAdckATSgBisArlgI8gHhWA72AUqwH5wANSBI+AYaAOnwDlwCVwDN8Fd8BAMghHwAoyD92ASgiAcRIYokAqkBelDJpAVxIScIU/IHwqBoqE4KBESQhIoF9oMFUIlUAVUDdVDP0MnoXPQFagXug8NQWPQG+gzjIJJMBXWgBmwOcyEWbAfHAYvgxPhdDgHzoO3weVwDXwYboXPwdfgu/Ag/AKeQAGUDIqG0kaZopgod1QQKgaVgBKj1qEKUGWoGlQTqgPVjbqNGkS9RH1CY9EUNB1tinZE+6DD0Vx0Onodughdga5Dt6IvoG+jh9Dj6G8YMkYdY4JxwLAxUZhEzCpMPqYMcxDTgrmIuYsZwbzHYrE0rAHWDuuDjcYmY9dgi7B7sc3YTmwvdhg7gcPhVHAmOCdcEI6Dy8Tl4/bgDuPO4m7hRnAf8TJ4LbwV3gsfgxfiN+HL8A34M/hb+FH8JEGeoE9wIAQReIRsQjGhltBBuEEYIUwSFYgGRCdiGDGZuJFYTmwiXiQOEN/KyMjoyNjLLJERyGyQKZc5KnNZZkjmE0mRZExyJ8WSJKRtpEOkTtJ90lsymcwgu5JjyJnkbeR68nnyY/JHWYqsmSxblie7XrZStlX2luwrOYKcvhxLbrlcjlyZ3HG5G3Iv5QnyDHl3eY78OvlK+ZPy/fITChQFS4UghTSFIoUGhSsKzxRxigxFT0WeYp7iAcXzisMUFEWX4k7hUjZTaikXKSNULNWAyqYmUwupR6g91HElRaVFShFKq5UqlU4rDdJQNAaNTUulFdOO0fponxdoLGAt4C/YuqBpwa0FH5TVlF2V+coFys3Kd5U/q9BVPFVSVHaotKk8UkWrGqsuUV2luk/1oupLNaqaoxpXrUDtmNoDdVjdWD1EfY36AfXr6hMamhreGiKNPRrnNV5q0jRdNZM1SzXPaI5pUbSctQRapVpntZ7Tlegseiq9nH6BPq6tru2jLdGu1u7RntQx0AnX2aTTrPNIl6jL1E3QLdXt0h3X09IL0MvVa9R7oE/QZ+on6e/W79b/wDBgRDK2MNoYzwyUDdgGOQaNBgOGZEMXw3TDGsM7RlgjplGK0V6jm8awsY1xknGl8Q0T2MTWRGCy16R3IWah/ULhwpqF/aYkU5Zplmmj6ZAZzczfbJNZm9krcz3zGPMd5t3m3yxsLFItai0eWipa+lpusuywfGNlbMW1qrS6Y0229rJeb91u/XqRySL+on2L7tlQbAJstth02Xy1tbMV2zbZjtnp2cXZVdn1M6nMYGYR87I9xt7Nfr39KftPDrYOmQ7HHP50NHVMcWxwfLbYYDF/ce3iYScdJ45TtdOgM905zvlH50EXbReOS43LE1ddV57rQddRlhErmXWY9crNwk3s1uL2wd3Bfa17pwfKw9ujwKPHU9Ez3LPC87GXjleiV6PXuLeN9xrvTh+Mj5/PDp9+tgaby65nj/va+a71veBH8gv1q/B74m/sL/bvCIADfAN2BgwE6gcKA9uCQBA7aGfQo2CD4PTgX5ZglwQvqVzyNMQyJDekO5QSuiK0IfR9mFtYcdjDcMNwSXhXhFxEbER9xIdIj8iSyMEo86i1UdeiVaMF0e0xuJiImIMxE0s9l+5aOhJrE5sf27fMYNnqZVeWqy5PXX56hdwKzorjcZi4yLiGuC+cIE4NZyKeHV8VP8515+7mvuC58kp5Y3wnfgl/NMEpoSThWaJT4s7EsSSXpLKklwJ3QYXgdbJP8v7kDylBKYdSplIjU5vT8GlxaSeFisIU4YWVmitXr+wVmYjyRYPpDum70sfFfuKDGVDGsoz2TCrSHF2XGEq+kwxlOWdVZn1cFbHq+GqF1cLV17ONs7dmj+Z45fy0Br2Gu6YrVzt3Y+7QWtba6nXQuvh1Xet11+etH9ngvaFuI3FjysZfN1lsKtn0bnPk5o48jbwNecPfeX/XmC+bL87v3+K4Zf/36O8F3/dstd66Z+u3Al7B1UKLwrLCL0Xcoqs/WP5Q/sPUtoRtPcW2xfu2Y7cLt/ftcNlRV6JQklMyvDNgZ2spvbSg9N2uFbuulC0q27+buFuye7Dcv7x9j96e7Xu+VCRV3K10q2yuUq/aWvVhL2/vrX2u+5r2a+wv3P/5R8GP96q9q1trGDVlB7AHsg48rY2o7f6J+VP9QdWDhQe/HhIeGqwLqbtQb1df36DeUNwIN0oaxw7HHr55xONIe5NpU3UzrbnwKDgqOfr857if+475Hes6zjzedEL/RFULpaWgFWrNbh1vS2obbI9u7z3pe7Krw7Gj5RezXw6d0j5VeVrpdPEZ4pm8M1Nnc85OdIo6X55LPDfctaLr4fmo83cuLLnQc9Hv4uVLXpfOd7O6z152unzqisOVk1eZV9uu2V5rvW5zveVXm19bemx7Wm/Y3Wi/aX+zo3dx75lbLrfO3fa4fekO+861u4F3e/vC++71x/YP3uPde3Y/9f7rB1kPJh9uGMAMFDySf1T2WP1xzW9GvzUP2g6eHvIYuv4k9MnDYe7wi98zfv8ykveU/LRsVGu0/pnVs1NjXmM3ny99PvJC9GLyZf4fCn9UvTJ8deJP1z+vj0eNj7wWv556U/RW5e2hd4vedU0ETzx+n/Z+8kPBR5WPdZ+Yn7o/R34enVz1Bfel/KvR145vft8GptKmpkQcMWemFUAhCickAPDmEADkaAAoSF9BXDrbU88INPsfMEPgP/Fs3z0jtgA0dQIQtAHpblwBaESUgTAJ0WCEw1wBbG0t1bn+d6ZXnxaLJuSXoWaaBorkwD9lto//S93/HIE06t/GfwHAtQS1FlwarQAAQABJREFUeAG8vVnMZdlV53nuPH7zF3NGRM62KWOwCwy0i6IaWrioakA9YOqhW41444EXVCAhIXcjWk03Lw20BIgX4AHRQhQPlNSoxNCm2uDZTjudc2YMGRFfxBffPNz53Hv79/+vc+69X2Q4cTLt+OLcc/ZZe+21115r7bXHU5hOp8k/agj0hWSaTJJkMkkiv0IhKY4nhUKalAqFYjHhdTLm9aTYKI6TdDwdQ1SpUJokkzQFToGYIiEBGlyT4jQpFnRPmIJ2Og2YQiLIyGdWukhPJtNkbIqUsGhIQ/OiKODJRHimiVCRlTId+yqUwikYpyiWfe+YqckwhYqMG6AgUfcTrpNxahQwgayCnAkFKBTKYxV+HsBFEUgpSLDxmL8HemrOzKF9J2qDqvyFYkwG5U0KKlT+RpkZD3HTxURTSpwUSi4+hAEviDyUSiVhyHBm2MTqSVYFemnMAlOgyl0tk8mMfrJISomuEYJvTkU+xE0L4kj+2s8iI/sjPl5yXQDKwaeqvEJxyjWiyChDO51KcJzRDD81IVZPS5AHJwKSt2DIsiFBTmGeBwnmt9/UXUbLAuy7Y3gn/ELSx9xm2CRXi8HqNouYIYVzxXmhnHb2DujAMovhvaVxhkc3+dt5jvmdflHKGXSQFgqbkZknzhARK8uQBZSau7OUu9YWcFoK8wTf+Bc9maH9xlB/nzeBXsWayGyoFHqYJqUihognyuI/3ReT4XRQrpeR2/FkNJqMsXSlSrlcKDuJcEX6CeYpN2REBkNCNYx/WilV0bm4V7yEF6zOQ0iESk8EJ8vkflGOlUriDs2z1JL7Qklyj0kI1nFdtGtRgaQVZ0WkfhNKUQObsgvV1J0ekQOplVHFNagqYjcDhwCDUO4UpgVsSSm/Zm/dOAhlUA110M5V6ky+UJhfLXmyAHCfXGynoQFiuI6DGuVCOv5sDvRoCp27+UZqw4ga84dXEcQhEI3VMsFVA+alBkswIQf2r2Q340DGPVErDSReaHg7J0DP5kAwUNkpCEqvKICxKSti/SaiAkgwDmZVsWArq9RRnhl5eXkFm0mF89BlFpzj7Mk3GSlKbqzvAJmb9bMJM/qd6tE3Of+y+MCd5fAOWMVb0uZvZo8LRi3eujgzfMTNQOP9Y+1IDq86CjMk6ZmnVcURsh/fZ2wj5SNhwa7NEcypEI6QhEfSvfvjP75dO5O/TFuUlzsMOTYDaaSdlamgCDknxuMUBcCA4KqNEjy2ERoyntrlKSTlBMMnDkl5MxbAtxlvwQJ6hPpMTHA+9Afhk8hjW0PxjccxOCoyYvzZNcK1KmJDwe661Fv+ImuVTLqTVZkeyRh9jii9iVwUTxn0IwEVfKbG+BE4MHlwgizReJAGZETm2aLnEzxL/k3Q7Sm+LXyaCwuWSj6gqM+sNrx1hnkJohyJfBviZc3hFvAiib9JqZzVgXg3TVIZImwLfMCxNrPEXTu9Yv20XJUFekSPgk1ZsYTaDZrJxFznVZa3K651E5mnIO+c3sX4nE/8ym11q6i4YFT2lgQw10ExOTfg2yIk73nUtWjRU9lk+yWfxKpMki5hWAgylQv1tfBGZXwH+Jn339TDGSX/RikyazLXdjN2Dv3ulMyAFwuXc1uSsBCf3c6SzPJYgI9Sv3ues3TvdhO5hCTNcoybrF0xh8l6gcJvhPCf2K65+nNaMGq06kgR2hXqhLbhpuEjYNGGybA77GHU6BqNi5N6oTZIhsNkMElk3UhF4KZkcxjGAAklJsTRqqp7hHUWyWPWvwNB/AUiGVnhgBJbOuk2N2P8F5GMu4h1Uww6yR9pS0kl0IagB6sdr1vnLtfHyUVByfoAMDQYWFkgxkGebQgdZMgjT94k5ZL8NdehkMEYFzcplyumBChZXgfhC90OvYRAOSP0/6byW41nrvxEEqOCkkr+qB4jOdZrrKYGwqTjwUkeiRqPJ6omu6rERCBe0OSVFZmEUTpVEJFQ4Pfy2tS1ld6SwULfVa8dZEmyEGl5sEulTIK8/L1+8Zpz1ulxloQbgGfwPEagHx1sEnQESCskI42GKIi8KI2LkwPplzeGjVv4JtY9EsgFJI9EvrdH5+Em4Ew6MoMFeZZ6kg02VXM4nh8b3hn/CI1RtsW0izEz4Mjvndgi4QyMx3fCLL7Ve4vMPEcz/pGEEkJcyxlkXnpQxd88+ePv/qns2qy0sxuXRP3MCZYrKZYZ2BmPpkN0pz/tDqcjPBKM2igZdpLuce/oc1/6bH/UHYz6o8kol1WGRgrlou2LTZLlM+NivV4nB2KkiQ5mACazqshSqZwH7smU9lxGjY5ZueyYYqlQxiOooMulUrVSKVcq1XKNe6uumpW4CbsWjLc5yypjZsKQQv+pqbenKVM7S4Vt5xGvzfUlrz44BCrwYw3BbGCkWZ4dZs9ZR80HDSJplIwML3DYqaJbFzANM5cwY40ZwUVZhN0RNDRAp+y+xjnRHnnHtkem3/CIJA2PmiIe4ZXz4F5FdtmDHjEDVILhv0L2i9WmvqWZmRgIf0CUyX8hOAv5pFAk7AshMgKNRmadKs9afCADEabiZ6ijtYNscTjPDnxuA/Bacz0763PCDcGY51QQNPDMlbyg/SwnDXnGrmVlgV3yHuc+0Dxd4F8olnBmXFFshsE0OD6rKUHR4kg4Am+OMv9dRHkGY/ZCcLPSSN5CTs4mO/MUMDnkPO0ZoNkDZZgVI2jy1XGkJW9dF0CyDkJG/+wFN1mUE83v55yZ5fnOm38Cu6Zi2HHJSxOkE42eIlVTdTkthBiyYT/p9OWUjQ+Gh6/efPXNO2/sHm8f9Y8by/XBZDAaDzF/SGcEJHiSCh2SFzUtTXR9T9Jx3AM5KzayZ/HOIkI/4wGDFpBWV6EPfcDIaaBKQ9Jc5RcQlKOsXh6iRNCgfpydPixlsYIRtI0sY57ABzQmBvyZ7ybCCvVqjZgy1rNSxvfEC8nkVf1E7C9IsitQkAROE6xyYnmFTXa5WKlUhN+PxJTIX10soCuLgotQoBHGIIbxZzDdBB9G6nQTqSFOYqzGWBbuKaSAueaRUtqiFGMeSIUtIIaZH4wO8MRgZz03Ij/XGFRfTqO33IA0ncgNF0P9Qr/0tvU6s2ukjSRx4xZC7iOJQlWUPNFEUxgjRYqH4hJIgJc9FW1IHhlyr4S8Crk0WmVuklB4YYZ13HCHQ+97ikC7QikWQ6RSTBTH+DMAOeBZjsLooN8cQ1CSPbmEMvzBpQw8S5On4FFVkV3BbouzCKv7GYY80wwAYEqtXDOY4MaMtoVcnAL4LGX+cxbhWfiMl+8AdZpAZXS6uLDi6gxFhtkvMhSuHoidEWGJyvF/499/bLsGQW4nkQT9zaTIFSO7hlma4CBQzDRJB0n3NDl9+ebXb9y7sb2/fX//XnfcKbZLxWpSbVVx4jzEJh+PQKGk3O5twRGNhGd1LZZhUKQl5KCLQpgk7FE86gpX8xDWyh2f3Hi5jxbxQIGHgOEgcCONWEBuNMyoZv5IPHK14slUBQLJ0mIqK4i0V3XO/6m6ge5FzjRfI0lKpfKhZBUMJyhQWLlhQY7o4S4KGATHPYDlUt12SBGAybg6CI9w6MGcyljBJA0uarVax1DiuvIWJPSQgSlWynjBvMJsEi+Ekyn+sksHVMYi8InOSgWSZK1ByCiD2gfohHd1iKc8ytjIKT15hCcLEpGU/4UQmzLzTfFyyvhDWmCAPVNyE38NjF2T8Q3uiZXJ2D6v2IrwkdxSiOTxaK4mA+OPTEGuP6jDEE8SXAkKpxaCqWuysfYPLWUury4EIdDonAulCFtzUyVTnkul8nOIsszuF+wkza5oliQ75L8uXRan/DJaQM3igQWdn4EIJh78wwUoXdHHKIev4I8n4LkhCHxWodyblCwHjd7mYfF+FpffvOPX+eBlzl4slBDO5yHe5888kTFX80QwvGFEKBr2PM3jf/+J7BpGTYygNJAZdCMq1CJu1XSILFG33VHvqHv4V1/4i9vbt7vD02KzTId0VExRhLQwOh2cyq2zKquE8u6tz6wbyEMUMbQl5uO4R7siHiglFHPtfEGLY+IqMOHLmCpQvC/bAsbnJUk5MDeEvN9EGmAlMcByFYa8/jJseR2SCkh7LkGRrrxU5Tktj5GEq4Hnj7IRxLJehA46cAi/Us2vPM6CAbOLOloEQA1MrO2LTKSi7IeGXSML1FgWYZJK/PMJzcyK0Sc0x2hRjEm0YQLwtmEBOWT5OTIooQz0WbMWSNgBxB3VeB/VQiJzPJJSImKhVeWkksVFqi4p1IrYZR5Vj7RJ8kQdwhWueWRAnqxDoaRBCUxqtcqIgVLhXUEcBcVYw1R5uHKe8XPBj/2dlGl3RUcgwDuuFAt4vlhixjFo92gFuYYqifElDe/mes6zQsRn6gbhEaN8DRn+0QxSzBKEUkWIGJXfg4+Rilcz28Q9HrQT5LBKqQhVo+4V8neKD+yLGPwWuZHo5JBOtpCRU0VSwRhyDruIzUDzVxki5ftIZIYtxC+jeQ4imYq0GXKkO3/LC9s1uTABxJuKquNvD/+Qdk1OFIuVLIJc/ZRivBgChzQ6jMgfFOGA4Cto+L8wPu2f4gLQqG7tPHj5lVf2D/dSWkrWHpQn4+J4WBimhXRUHNE/TTWhpZEdo8WxkZ7xmMYkqdBmwVnoPkqvu7kJG42TASRBHgEAYcwDHItIxWNwNA+IGRnRj3F/UIaF3D0mmGGQlbBds6emoilTCpcHfKR4TMfuPmNOlIkoJ5ALtAmt5GGeitQzu8w9kHHlBi9o9mhMUvi4IR7yuBKIIYniGbgUpzIkRIagkZ/AMnDhB0aIJPZQIqhAwo3vM709QyUgrBSR+zXHH4vioIqorLJm3BLtI+qdZKQ4Y9esR+KBaIUpvooG+tFh0lUi0kvMFVQ4LJ0yyuN5q4ojrYqiQoX5JiXtkF5KZsYYSnUPMZdF+qfAiAv6JZFcYLxUWkvQQgZZZ5aUeJhW87pF4AkQgDmsEE9wP4CM4p543XhYgGuM5VY9dItldUL5s/JkgbEqW5YKtCnCWdboBHAqmiwzpZXDG9aXN7x1N5+hCahSKQUDlHr9MYZAMhXHryheBqB6h0jnSJIIQAIAnoqcU9RP7q1ydiQwokAhy4g7tYXybZUjb0kSWcQVAOKVwjTwY7SojmrQ9a7qozILRY17MPpZK9Z4hI3jNKVwJDSPEa6sikGCOIUNEWIHYPJb/YIzHpV48cXf5x5UZAwG8dyqy5yAOgKlknuL0kCbmJE8L1Y+JENKuLV798aNW7UG3ZPi5ub5zc1N6AcAA8dYOMvZmD2Ay8RgycgizJl7FTxN+8Ne2Ds95AEaYqaVCEjC/SDoJdJcTCfTIW/TNI31cZEIxyJuuIblUhrYo67BzJ6Ks1TNIv5ZKt9k/VAhMULMMfdQKCYgFbIZESPCeEUM6sRVN04SWYRuxoibNAFJRlCK0+6gb8is1gKDOAZnbY+kvbJK2BJZNLLT6LsD+c8qnsy4B2eEwCkAmSP1GIzPWJ02y8jspxbhjK8wVO4UIAuYZWgiJpDjIUU7MSnSmLn2zWyV1CGQAxwaHsnjCv5ZCy0wsjXTYJ6RnzV5JkPUub2BMloLc13yQOtGEoQQGxc3KqYbF3CKEGM29yTDyteZBCUk0Q0SJDZmVp6EuR33+Ib9aNnbPIAHxOQuAkxz+MtWFNkXFSeEU8zGrMjUqcyuHUV5JDdqImgQmC0m3ftCCmQ2qBtvBTmZxjgAAEBGQAIpOD0ks1wiQUwVz7ZSC7MLWAwKa2DYE2tcKR1XRhMU5Tk6EkIzuYobkhLZuMiCVQLcwCBo9tguE2WMFWBnZQFt8iTXrlEnT5IqLoyUWUiABKP8aYkhD3jfWgqWDjRVWK3UGVVR7WRJRYZoWAjBASL+ge1a5DTDzqO7WVgCWTR4OS0wno8nzxX9nB6c7L3wwgtHB8cf/vBHNjcuLzWXSrSgGAdKxuI13CVBIpHIklwhq5vUBtF1cSYMkEe8uTZvN0gS8YtvPZkIFZlB4RWkziDBIBMmdinw1gFRHeNtzaSByCggMJnIOklAO6XwhzllQBA7CNrBoI++EZ/KeLG8RVcex6NsvJzkkYWuINS8IwoxGqYjYLjSZZd1qJblfTmAIpJAIaIjj8+ajCwyG6OhGtqGyQArFcHl1m3kFaXgGm9BxY3cGvBkK0XUYgc8Uk0qMFMWr5vTlXwYgs6qwiQFMNfRSEsOCeB35an00E/B0Fl026+UJpIANgsRSbxCbpSJBACxDrBZY+BI4SFQsEgSds0WSiXglVJRGgMgGYBxzzNkIJnxKNooEa/EEuRNfuZEK3z0mCXRAB5mJRt5FJLgmy1dwKgW8pCaDxgOMgqrncEr/0yQ4kYUui4iqVCJvqztySPzuoQxhARvsUb+SAh2ExiqSUaqQB9HjyEpoBI2PwIQ93oMK+86iqwzmxdGV7amVGE9uefNgmxSRUIs2CN4VKMsMgXarR5gwKgA9NOYH6vUYQCjsRWGafnLDGV1mpY3VjevX7223GovlVuIa6vYrHgRFSavklRLcum0kBV7qQVXlQp2bZa1yVFBsgKGtVVJXeB4/fe/PoLNxhl7JjtFafsoa3FEkzdJBr3ktNs7/pv/79OH+0cffP+H/vm3f2ctaeNDVQu1FFMGUypqlGA0Yoe7Mk5IqNZXtYloWSwgn2UfM7L9KnsiVQQiMZJxL4GFJ6RXm8AvfMdsoToyZzmM/GQeo73GBBNvDMrYabOrNQZdsbYIZh7CCkvm+S9wGBB52VLYRpOpk0gJgkLTZuWfE5Opk2hQdzXpjQeRjBi4LftIC4y5xP11IJIAyxWI1nRzFhPxepgBLDqzMAbn1IY4YOIKBSAeDpmJdoBXtptcgWfJNADkIDD557yFei22CHBREemC4HyYW9aExkLCIYAgnmsAZ1fysr8c8a6vALRY2OQtwvMOFkENUgLGeKVas1WSJKgOZa2AVH3oAevsNoE4IRQCMsWpFw4KhqoSKXxqb9A1iZbFK/DEVXrnOgr6dHVvFy+DJZnjIf0DGIg5ZwWibBxlF0geZqlCcsAZaHkfeCSxDuQMLap3ca9AveNGyZZhKeQbojHiKeOJc5xmr1KrilR8egDiP3xxxyVsotobB8iTTRIXC6pP+5uRkFeAmP4Zet2ITnFFmXNDQq5okBBNPbTJ8JK7zLySH81bze+XC+PGdGSMyXRtee38+sbT1566sH6+XWzXk2ojwcbB8UppGiOz0hUtNj0bhDIvY7zJns+C/d2fAvssvYRB+q6RGzyv/hTfgX2SGLXj7YN7r7/20le++KXnn37/v/ru77+4frWI75xUaZ9YUU8yeCe9kcyrcZ9hDpYZM7gzGVUC5SRuRpCNQHvziDw5bq3qWz6+AMDvFfXJGLEQx2U7cEG0/laj2JNxGdjQBN6pJEoHUdl9lhvkSmgUqzCv2iCMqJBXWy69JcjUq02zCAhANbNQBCVNZXZluoJ+9IrhBhtKwZORRonUN5IVNtbAkGVBjPN1ncfrIM4ZOcews8rL+kLroXZilkXkwhX8XMErncJy2LrJEEg/AbeWyX54fRtkO6Aw6IOZLP8CzFqIbcVLoZpOkS1wAHMVOld5xPAoIB5s/mbeBLlTcnKHg4aMXASo5C6JaNIj9atg1VX7SoiY8B+HJBK8bBbgLp1GcuVcivkjjUXIj6PZ0BqhMUPDzgWEgSdwRukQgxn+sPtsnMG3Y3W05p+ZZnEBIRLrYEjVVODhyj0QoJoFYjBegMBIIqUUWBXxHZaIkUxIU0ZCsFo2w33PwEnyRVRy6SkokWRlq8V9eL4UGch4BEb1aHYTwy5G8oXgABBbIJUes8Mso6AfVzziDSylkCqzcSVFrfBpSyCPgH6h8knaYLkDuYGWxan1SrVVb601V5+79tyF1YvXNq+dq56vJjWMbElrqGqVYjXMYuQyyyvLPVMmdWj/wcKshHn5VWFSVC6UCcVALJLJSXKyfXTvay996aWvv9But5565slaowERWp9bqbCOCWaoH0EaKRBMKdL1oRaCUOozp5jKle3jETBsVFxtkfAX8FexYVgojxPLXgUGTCSVqUSg1NCEokt22yU6dJH0DLXAwU3ZC9xgSykRKoZMEZCk479LKHw8CquI1lbqeIgsHSskUkWLr1MLlcHkAfkVV5UdZgiA+TsTGaQKt/OUTCsbeROKMwcwEALI4jNzzyvssiL9yjcZRVrezGsJnmKk1UI5bcuyCxx0lJyr5hSze8OYCiDc8UK8lZz/ziKjAV5LhbJUlE3EcQXScf5VDLlDhXxnboIG9Z5NT+RuYoRWFkHwWBx+xUbFajyCSGmKqJf9UrTZIFeDGF6BT6/IQp15BXrpYYmBMbystYLtDmI3ZpE4CBiCwOG1vROSQjKcjESnsQEbdhnsgYTrLNMgCfrIjl45gRtQqWaL0xH+r/nGPQWQQXQJEAkVRu2ByQGmoEUnKhIlZ0g4J5jX+M3DdEiT3Ky0y1WMj4RWyVkMiB+K6y1as5LxCiR0A2ekio0iRjVI+6F46ZMafRFZUTkDmEfuzU7wU1fYJ83sk1PAKJFHFUkh3ohZvFIquXysH8BLpSzMC+QOhDMppoNpFUs1LbJ+qNPp4J0f9Xd7Jyd3v3Rnrb529dyTz199/3OXnz/XOD8tlUfpAF+TiSrwi8I8BA35k37/Ie0a6GaFzBgB2yRUsgzjAm1v2k16W3tbL73x1VdvvNRLu9cvXj1/8Vy9Ua0ktXKlziBSf9RnLLNaVg0xlerhBWPIOEwmIfBSCILaQ2dsq0ZNy8LxyvJtkeW1tUcWg/+CViWqvoGG/+aRzrFQOmzKPCdQY6SIhRhpp/DATskhKLhRziSPNNROTpzMhYLz5geHVa0sKW1nAIxaIaXwYQeBZOOBvT4XUJy0ZRCFKqrLouEsnRegCOXAT1bBSLXETdEkhW7dqsikyHMzG4iX5aiXGkFDECp++I8ZMUE4P2giVwbQnHdmMITWmcdVmkPhVAr+B7LQPN7IupG58UAHr6EMjyToVC4YDnIIpQKAwP5Rtx1cBU83xNFciJHFV/Z6iH63qk+RbiJEBL0xnhWpIDvl7DK9zV4plepDj6A1xgw+Y6N99nly0wncHBiOAcrVSGQxIQzWE0LbMSrcD1mUyRiwe1pwCDeQIH8QA4vmyysaQX7cqw3GNcMexVtjE0JG00slEGZ+WZaPXxeBls0cDvu8JWuVQ+beviHclRSpcoDmhtkyVRScoTCTVP1j2VCol2MLAQAhNqTRU54wFgEILfYLBnMQDyMcQDgVdisguQYBkYXEWQn0Nmyi/TKeZgUYN2uFztFOt98rVcvNZrNSr+LIpqMBY3CH3b2TG52d7Z0HV3be/9S3XLv45GZ5Q6xyBxkkkYu5YL0U4izMhCaP+Nt/zTjp3pkA7XBfFWOuhY8TLJX1kKc27ie94/HB2we3vnbja8Npd/3SOUYf6vV2O1kepINSuQbGaVoo0hl1G67WJEQO7Pz53lphTlmkiIWgfFbMjjoungQcCqlL0tC8g0ZRYBmPhyibYuj1Rwms0bj3LoHLkZeMN6y/l2IKNEyb1pXASpLnUBmaeETQ/RyR2l4qCSuoR+l7UR7Y4IpkC2svQ6Wuugqp95JNzJlo1rNy57XIA0gWkGigM3tHNdt7yIBtnQVCEVViaYoeyEyP/lPJQ93B5KwVExyK6lX9KfhKUalBtkNIUR3tVDBeQye5CNl6ykqZA/bXKIKUwwWn+KbclZrbfZCx3XVa5p+ogwgR60BO4iQDK7kSyAuQLyw6KX8VAOQtA9cPWbBiAGaKTy6tYo1QzCQjJ9HVzNRbhnggyzESJBdQdKoO5IGglDimqisieYH/LiqDf6JYT0rICLDzAjIHAGFYdsEbQxAgSHpkxKAUhs/K7mzxB8FHXpJickUS7MOKhjCjUSJlqryUGzdcCapmxZAEwcJcYT2znjhFC1MFmO95IYMmClALx8FPWVjg5DLqQB1snhFTdOIw1TKCAeD4zGMlVWaL4XSAylu0PRQBKjIQxMQKAWEQAMMAg/LyZXpsvUF/MBoed46rjVptud4/HdWXWsmofLLT/dKXvnDn1r1v/7aPfOh933auuslsK9yjItx6q7LeGTIr/s4X3yCGhs6Ew/ZQMMPBS0qfTpnbS5mLYe2cO4+yBIVKka3FaXl0nB4Oyr0X7n3xP376T4r1SbVQmZ5M/9vv++8+cPFblourjWKLKZ0KzjTurwUQxBR+Jp3ilv5buPQjdgMQMNE6wT0ZVghjprlUGQx6nqFmAEI1xz1JaNrY6ulWalyt1Xq900azSaV0u128RGCAhPtSC7SnxGo3OQj8sx1Rdvgv4JnNeZM1jw5Bn4VMtiYTtewd6DKwgI3HEBropb8cNaSr28t4JbEK2SWevDLrsIhqfk+uwM7z9a3t2hxm/h5YBd4rRWRXRBdnCGYAAjNdunkkZECOdVZgBZ+utPuhebrKkwYoQy4bQoirb+XUwuVgJvH5K+NfKJLijV/URwlmMkGqmYYH0vwKFnJWWqzGDAZmamA7Y0HwXynAH9XHFdlxyjCg2PHsHAFjzok0/KyGszKqvdJkng2twRcueZ3mJTB/jS4yykBdUnmXc4Zkb4CV4ZOFNLOzaJVOwHZUpaU5idmvCzkvKZAWvBxK2RiBmCC5YCm8n0kixQ8ekkE4sL7RvagRMKRoKxudUOmczZn9Nd2jm2iWXTz1TEUlPWwWSGi5AeseGHlnxpBBTK0Eor3EHlaS+vHB6fbO/vbuzv3DnVql/gPf/a+fv/JcPalPxymmrVlq9Lo9+rba9+LRK2kqHT2wv8cgirLayO8oD7eW4gwZdGt1N9MENARlvBXW4hZfv//a5178TKGRHvdP1lsbaxvrS63VWrlVnmrxmgcHFpCTS24K/CtGSDyVuaohWEMyXOLRSKu6YutP/mpSq8kBdND0HKnoAgADy3sDze6Vq5VqjaE9WuUi29o1Da1ZcFp94ac+CNViBVdL27W8MBKSVG30ByXv7vsxkqu6dwfXmUltoNE8Eo+DAtPsW/GKQKuHrslTc1m4s3XzI7jxFQQoRbfkhRDnWAKF8cTFLFL3wxnrNQWGXRLTnI3uECykmd9Co4ssWNLlxLsIAeUM3/EMiQtxTieaTXlmwry6InaSBaZ4GVowu/KKAs5COMjxKHo8nBGPsDpvWWfgNgpmqzrELotLMQdw6VRNpA3G6p1kCRWYlYGaI0olUO2himpIrJwaD1EIZ9S3uuCJZ4mDx6RFQrKCgIcqVUSIwCyVb2zlXUvzeBc1LPs8Mqomvzp+hhC3VXgokcyZaOZ9vM0qWxH6rxBMcCZ5SaO8uiq1yjyLkYAytCezFGXnrWyuVpRxlUJxJ5uf4xcCjyFI+eVa2sC7vj0kCnbUK3OxgydysXHWwReocDOZVwQn2DFztaSZLk2fuTrcPt770mtfuXHr5ue+/tle2n//9WdRzNXCcnfcrbK1r1hlNZSFJivH38GuZbUWhdA1CyKFcqlqYTTssfhZbROG0sbl8Vff+Oobt964+PT60Sm7CQpPXH5itb1WT5oMJiJCrLyBqxlrc6QZRmKzbG0NMiEK1mjWmRG5mGACvtfr9ft9pKnRwKPNTNtgMAA5MPjZXNvtploOxwDv5Nj7rP4yyaRWsX1slzCkKYEImV8kBLeU7EkgIiwNiqadoUendFldy8Y5YDIFuMA82MQyLw0Ki2tyqoU9AxAl1LRzsA+ToQl0kbPxzi4GCCh5bcoLMOpABGbBumQYsstyEozBBaP2E3hAZm+JFTE2mVlk5JJVgpItBKqf3HUNKF5Z7kGbRWgYwPjNbe4zDY/IszkvIP7mb+d6OE8Dd3ngfz74kL9yTeWkUiOqFJEuvdWvWQmwiy7ByGEDgcrqu6hxP5EsLK9eqHwZCA+LdRGI4ho4clSBWokX32Ywfhm2j4ojf+THIuQXM6AQvHnWemsJNBg5CfXC1XUmG6z3cXH9mHHqqhKdCWfAKIbiZI1EAFhUVHb/xW9kAq6s7LgFOc/USsQjq19oQmwItVwfz45X+BPMhI4KnFFWaKwuH1/pHO2f3H3w9taDO5Uf/OH3X3qOveSo4XQ2EhJ0m9K/g11TwV2AuFEhZlTDF9EHwyGeDHgh887KtcGDzr17+/cqbbaPFJoscp4UL29cbleW1PHU7O+U8RvJQNbwCHnGQOeD3GRMByh0BnC4NeszEut4bBkBuaTLeXx8jIuKgcNNw1nDfkEQSXDx6HiCcGlpiVe2d/KNY+mcsw7ssT4IklXJDAmoSnDQYJu2giv4Gq/1RjZP7fyjwU2d5QaXAimwHGmULGdeVHasHSUxxFB8t8ZAK3dCyBGsjbF8+XfcW40gI+4FF9mLffGnqla09MrvYFTACLOHwrLSAICSKB+niKsfozIyTHqZVULgMbRjnURopWwOsxieuAcFaRYQZWDwZFbF5EjwVbDGkIO92+8jxDwKevZ1ELJACZVCiGuWu2nIYyjymUKJPtwPW6sgkRjbGqIpDYlJqum7rMZdbBUoWKB4RAongMrmPjNjj1L9bs8gm5EE3JxRUTt5Nc/jo1zB/cVrYAkVW4iXs4L+hqgv4ifSWWichCBhpVBERcaAhsD4rS/yA9w8ZsRQaA1dq1fHarqqfFu5Q9m2XthYY6tDoZIOOGF1VKiV1trr586d2z65f/PtG5/6/J+3f6B+rsUyt6XBmBXg2I7FMs4nm+b5v+tdJPY16mcBWi4l5TFXrJbUlbRmkAzGlfHnv/LF08nJ8vnWyelBs1zbaK5cWmFlSkMVP8E9xRbIE8oDplGcWgiSmexxsd0j1pDkiMECACMVMVg0DBz3BMxcOGjDIYNuWpO9tNTCulFrvMUCEmMAZUFMUMID/VNLPvVIRfJfsqoFJFm2YU20MIr60XrVXPRBEtRmN4wbKMaYc8EBVuZRLyQ5an2zorH+WDqh/gXAmE3ptl0+ba4Uo3W1OPFrvKrY0J/I11ckZeFpfitYPQWNc8Mxc+MCgCvB14CMRHnPA55nbw139pLrQp5J9lb+qdqHdwZH8oJKDKJtwMVP55MnCPV/HIIc4uxvQC6IVlboyITxjzw7fqXd4mZGhMhQ3tLWjI+uRKo7OCPIeCPJU4Dm4Bc3CIurUD6+SkUTryK5HdK9YoifvZ3jDFwZG7KHxZ88t5imm9VxRmTgCYlawOkSaEHAWfVZxJuX0iLpFyb2McxmZ63rK8Of8YeBLSGnlPPaF/vMckfR8MMxIYwk2lUGw0iBSMvOMU5Wp6shP1FgxWatWioMuklXU37j/rSablxd/sIrn6vUKx//3n9dbXK6THk0SjnxRzmTgmxYPb1Yqm/ufoFTeQKqENLMt1A3w0CYqJswDXowPnrx5ov92qBWTI5PDlutC09evH5+abOe1MwCpAVyICqrMEtPjj3/hRHvjJ/FcINtwiljZTxXLFrYL4wXj9yT/PT0lDUy9Em5eeaZZzB2Nm2ePCO9zV+em37Fc4hC3FkQpNkQ4lRKNj/E+H2Qq7ZL4wIKjLX5N0CRE038UD3FCjJMRYXWuJ4lRHqlRDGMphhArA2qavVE3TsmHntqnDGGRnNIHNBx5caUGt4k+iW0u5714ywz9kIJWfM/a+VURsPoAp266pJddUdGol633Gi4RFkDxS+Mi7eLV0M+5mKKA0/QFGWgeAbO31gSFEWm8eYxuN5L1AzxLB/HBOWByEKYSyDFpPZpVsKdyuotU3iX2yzKmwRpKTzxeIKodlXzpAbILhy5aTIXjGZjlJc6hoNhJWkUecjlJyiaX8MKgMpRcTU4lzP8iYozne9UF2ft+oLAM/9cj57boWNn+TDbod+eXFazFBKmKEO6JmdIyQjjLXqw8Mae6EyQInlGvX+QJYK8NkpPDFe0Aa5qwQmax8ZBSQDLZZiWZGt8WmNofFhZq/zVV/7z0vL6v/mec82kxQg+B9GKM1z48zEsevzmQ0bTmQTQ4goSQuwxVYBXo7UXZJEmTJIOX7r5cr/Y70xOcc2wJku15tMXr68WV9ErTV5SbsqlxizkhgjdhY9tjyXPz3UfDwaSu6upbK+mAbN9NM17Yst6vcHe3t6LL774qU996gtf+MKdO3c6nRM2b7CjpdFo/dZv/db3fM/3LLWXAKZhZY6ZG+RG7p76qkEDW+R7WjzAhu0iE/DM18A/H2W5oPNKyH8FWsM6XM38L6mkHQK/p35i9s2OrYw05cbuwyultB5RLTJn2R/VKyZkCF12k0XSzMwpYTDCSEicS7li+S8F009EkynINTIgzczEjVuVm1IDSJNpU8g1D8KkcakcXuDCGBlrmxFPVqdIlCUVtgUsgnIwOt2RPlPChfh4S7poHsAgHiziWfQFnDC/5ECmNI/Mf8PQ6CkHC7YYeXAnss5JikFKGzW3OoEIHhBEmwhTyNHpl3iqzHjMZ1kObx4yZKTN8DOj5sg8Oz3oPqsov8svipexcTAzFlPlUPlvEGQ7mCey5MwohUCPb9iKyZ6BDdWjviQr6K4wABMI9TarapNgJ0AAgOtNDpdBy7zzX0HIIpYrImuSsogw0EwjIMdc4TDZK0fwuXAihlVyLMxLx2l1NCz2JtVRdbk0ORgfHB8uX1p7uH/701/5zDNXn2s98ZG1Qm0hJyF57/5aTnNOILUVFSaSRJjGmARkK4VdY1315OW3Xmyfaz/cudMqL6+2l1eaq+dXLjaSluZqTYJGaXECUJgMv7mqxznBWY5nf7AKWCKCctSiG63thoN/8Rd/8cd//Md/+qd/+uDBg7B3wNBJZAM56zkgEn8No3ZweHB0dMQAHJYuwLhGDiAhb/bNQApzNIedh9v7b+8db48mPWSg1mxArfa4EXw0Lr1ENu1XklaR3R6x/Vhb9rTNVZAYDl3BXuZsvLwQWrTNfegqsRTYJYd5ZqYgQQyPwlZGI2kSJWUIZTZ8kyPkNziWa1E86TVtn0yzbnSYigA8NUFONLMwENFikl45ipDsRi0HkOyu4sdehvsI81wAJqClAntsCAi/Cqq4Rhy1l72ETC+gmSEhPoN5LM5vFOlKM6UBESoNcerE57ywrmb0PiJgOTxHxwUCi4EokXBKnQMJMTR9XHmc0SxeSYrVrEd3T7Y7IKhXHmhXfOW1DGfc+yoHXHZlRmRkr2tOtmMeBwCIcIHB0GJyPu2YpVmgU2XRWyF67DWadN4q2OrlhZdQRmlkjownM+OGNTw9D/6iGgLafFNS8o1UvsJPHhmdBFeJbZYc7GzTBl0ElIqs2BWDmRPFxenp4JDNl8PJoL2xtLt3tHT53M7O4We+9sWnzz+7Ul0RDIFM/Pfe7Vqkj+u8QiFZD+zyYPCdcXW2tB4enrbXmv2kf3P/rf3O7p2dt5cvLmsacTR56tLTm7VzEMzpfSRTJ5bGTrbNp8AIeXBVDA29wmY5z9LxyTFDY7CJ1R2sRNOyFx/YhKemvNN0e3v7537u5/7kT/6EJNg45gparRYTCPRPazVmD7Tm4xOf+MTly5fZZPjZz372x3/8x09POlevXdvf319ZWfnN3/zNH/6vf5jlKUyq1tsNWE0R0qQ/aYy+/Opn0uJpoTrs9E6a7Qaru72Jm3Nk8IO1KkQsFeHqfuQh6zCa34rDgrDdTtYw1qBrAyqnqrF1mb8qB3Kxl5AJYiav2TfXarRXlteblWW3QHjkVU4HAD8mFH7w1yg3sUqnHRbfcV4CXi+WM0RIQiOxkZxBF3NM/ZP+UbtePRjsalolKfARHLYil5Mqk+uiKqkMVRUN2xrKgY0j6JsM2GJyIyNSgR10Ej7/eT5OcFAVGcu/UhCAb7JL0KFjREEl91BNEW1eXKG1wrS4eh50yFgEXO51hpzOiy9OadEBkGcIw4MQFdIAY8/WQ4nz9rUxLnCDB1WIYfCPchGiBVUkKIEQ5kDl1VUax1cJyUt2zdxTwRxctfLeteJKeTl18IKGVQqq0TJSWcsQCcSZ/RPhiYDGxMaVVJLseUzcW4Yit7PX4O0jLBUnxUBw5XWSp+LZpWBUSszREUUxbyg9yoyA1I3gAufdhrxGSOOAXouRlMqug+DZhMbqWjromk4LiVCvgxjYzjpRxFObEZ2J6EJ0lEyOWDAyymKyRTyRcCKTHgGqCkhGYRutelrg2wCs4mKj7oC65fiyo95pc2Nl7/5J69zq//P//vm/+OC/vHjtQrXS0A4U+Enav4u/poxnIQj2I7TYrGBf6OiVypiTWndKJ25648Fb40paYZkaLBlOzrU2Ntqb2uLOoQOUPkiZofwGN+KsydZUAId48UUXBaxJiuXCfjG/SU/z1Vdf/emf/un79+8jxFBy9erVhw8fMqZG7eKSUdOrqw0ctB/6oR9iowN4rly5wiu+yHJ4eMgNVzLq94dMkoIWgmnRLJbjhwdb41JvUu6Mk86kepqWhlrSrVkHVppXwnn3kjfrg+V1LkC5JNneMbujeiN3xJoPxox1BpF607gI8uZ0Hj/RDCwz2cG8BdvMltqt1c2NC2vLFzeXL7FYsVFpcUANspAmPQxTrcFCGUStRIdaLI1saMBpRdhvzKEJE87qY8vAaOtk661br4ym/VKF9iWFRQR8DBYkY0+1D4eRwGode4oDWy5h/yCGfj3WMfxNbYEmg/ijCCG03FAiMwrhllRQEOSSOpP+8hzlVaOseCL9B7A4RQwswSYgQ9pIwLinjI+2jMulsA0SjFIJXhob1spXYXekMuE/GmwOw1K2TwJL2XgRIiQDLYPDSgI6FrHLCusAIh0ZAS2RRRihsG4LUs65Jim8Yhu7crIptH0qDdOUpaGYDxUG/SYN5OI2yH8TaJgw1Y46p6ZUkp+LgmPERqyhEn+zgS4KoLnFyPApsbkO9lhgRAQGDQnHIsEHt6kk07e9xUlVktTTT0EuXDLTMGc+dSod9nnr5pjOCId9SvSVUYg6Nk79cASSVHZRVTq9d4nF1hzUkU6OYASIewzZ+8AqQSCNWWG3B6upfQvQQJ+1MxpUllvdg3RcLXz5pRc+cu1bzd8YvgP/32VdbpClq0uETMwCTsSQntl4MGJ7RLVaORoeD6qnr958BaPbbOLg9Hh/+dITnN5RSRpa4WEUYkkWaMMfX6kGFFANl4WOYTrB9HBDdugG2n/v/tbtO29/4t/9ODaO+PMXzuO4HRwd0vHc2NhgkRqV2ut1m+0NPLWPfexjPFIxGC8klZo+OTnB0nU7HVy24aiPp0Dt9ccDetVUO8uh7925XeBQcs00nPCtu/GUNXgQBcH4iVpTbpFlttIDwxm5s4KFakMXFakZDIJEiklS9JcVzCiEPO8yaKg6JsvslAhGh2v29/dO9+88vFMtNzaWLrSry5cvP3Hp/NV6qckEVK3Y4CMG2omgJcW0fJIh4bf+gJZMGaXgSC4ovb1188bWm8PxabHCVMhQDSuWCxlm0qVYTnGmyvqIBHtiZOMolsYbCRWsrYgGLcHEwT3sJq+U1oGzutBsoOGn3+o8HCpIy50dSYe6xEwRe1CUhONj5aFywUxK/Wjz00Kt2sIIJyltTQttw7VC22WiM3nPTYEficxIEmfhtnQBX4prpapB22qpStcbkWJgFFsWNaUSqObIlhv65pgGTccTg/hp1TtH5+TDKfBSOkZRNRrAUklUjY68alaSKosC69UugEovqD3RSIuLsMi8hEXLNDgknoQEVVXc5VcVlVhV2eNDBr+gIzaSRCud6Cc3CRuYMGQ6OpUhbSyBLT1TazV9pm0eVBAldILFUSnieMfwvcbv0a8arV1kbmjqKhv3Jj9QUAuOoSWKRtUlC1Ajl2MuEokKiyG0vPE8Ces87N+IDqJtpfUe/iBP5RS9QKtwx6gZuRKl3nDYai2fHhxPa+W//sLnfvR7/+1qu+laEiPI4u/TD11gLqy0rCOjEMbcn9oGhtjL45v7N7ePtkatUa1VSTtJLak+ce76WpNOKCtW3kPuCBdMoQvAJmLda4NzGfek0+kuLy0T8/nPf/4nf/Inh4NBDftUr+OmoV2nJyeXr1yhB0qnEkOGD8Y9YO1WezAcYBkBwwGEZqyhJSO5cOFCWEwi9TFThJYp3UHn/oO77JQoMuswSutsDlPrAQ+ReDwA+lZuXZBmGSqSLgRxJhZ5AA/x1I/sDkE3zJa4ulEyYaKUEw6VS2t1uswyLSVOTmC4jgpNR71xf+e0e1xoHPTvP9i9ffXS009sXmdSm0PZ6iVO4kAfJNkEYQex7AsCpUm90TRFvncOH6YFlt0Mx2V2q0jh7TEBVSqyh4KTwiY9yqijbrSTXhQiwCj90PvTEGJVgxArkCN1TFZj0g28Jdm+Fani/C8VTSqjABjuZylpUO/glPuA+XaAZ0gOxpSvZy0116YjRkCbT159/vL56+fWrpbzrUtkHoh0NWb/qrDcgNLxOsmFgEZzioIm0TjgRq4H+8v7rISKwU1ai+6g2x90R1rIeHp6dHza61AMF00FpK8pky/XBJ2uIyT09BkrqJebkMojgcMaaEjCOWM6nIYBJxpq8XDD2GEr1Z1aDNSx9NZX4jPW+CYAuT4iP4vJ33EPjcRJ5pw8xiu5zZjBqvxo6ojxX9fzhjCP2pPI5XmFMvtRiGC1gxcSJJxtAjthsKBhDqFaktaoDZUucuN22VnkKHk/C4Gea7yMRx7UtIhLQRxX3vM3ewwVw3VDYthLqh1Wyg/ZG+KoqgZKt2++/eJLX3v2u66gfG5nhPw9WJYZje+4gbbM3FLxmA+8AOqNsXa048U3v5pyCNBkWJuWKuPixtK5C2tPNBJmIXHW8FvPItMj2B4TQk3Rc5hIGWnogaSJCKNGD/QXfuEXcMqarRZyiszhlNEh/b7v+77v+uh3/fuf/fd/9Ed/hPuGUet2p5/4xL8bjlI6m7Vq48tffoGaYeUHSaD80uWLGxtrkljJIx47udGYjw45cqB7XKvzjU7qkRc6dMgNleoFWwbj1VKqQt4RoowWmeijCYJIGwidpzbBasAh/D8ER44NNTfE6eUMl5QTmtS9YfCN70BhR8bDXlKddAYnO2+/vb17p/vch566/L5WaYMRQPpbMJTPjuA+UPVkAonalQejS9VR0mEh4cHJwYR+cwnHbIjLhgjAQ/ol5GnjgNvRhsm4bEMd1KMuG940xh0aKRtUZyWk8JLyvLL4RcVxCixzZJ2Oe9ybBppq6whJ6elNjllsCUECBRgYhIWBWbwsBo4nlXGlwG6RSnFpab2yutG2WQ71U/4gUqkgQ7QToRC9RV7hVmvRBKe2YrILQ1xMDnslsp8cno5P9w93tvceHB8fcnY85yzQkqWaZOoxgshhMjTGrEBEBhhFkQx7jBSMsuNus+XY0pqqVw7VnK5TbbeX6QqcW7+wtLSyVF6lm9DXyqlatdAsJXWOQsKULteWEBcxIrhhb4U6ISr4qS6+3uqShYzF+WP8iktALb4jBr7rUIJILt4YmJrxEKK2bZo/EU80o5jEKRp5xYFFIH14yJjTwB1P+iwLEoKWAQHlS4Fpkd0xlRlKSv5CuTguZx+pE3e8+F/w4FeQgmRBbjfozAOicrER4QtGLYfO0oFGmSOaBe3R529Ed4jspjguB6edSqPNOk8mHf7685/50e/6wczAuhf83u0aOUEtHDTNHieNahNRaDf9Ph8VM0aLTpMTPgDK0DbHobApvlGqXz13FdPGYohssoACzso+K9XjboIlsA89JOBSScAt4gyf/fzP//wbr7/eareJAfI7v/M7Gf5/9plnYxgOV25rawteYL++/du//cMf/jAsBhX5sAqE5hc55pG3H/3oRzFwtGS8Ui6l0iDhm/OnW9u3OfyOw2B0oCxOCi4XDaHdKyqVcsN5rculo8oozSP0yyWTHHmkSBWlINWQwGssCHfC/2yPmLWlc0gtjmoNjmuSgZpwGHja7eN8qMDj4eS4WmpU2rXj3vZXXvosPegPve+jzeJapaCRR0BoWLMikBFiT9dKE6Cj+3t3u8OTUmvM4sbhoMsGD4A5sMS6OtL4UrHY6alzqk5pg41ljLkwMSNnrNrUfm8RoL6cmEPrwuAm/0kFzwlhvtSwM3os8bN9xdaSE/LrcWud+iDvVZMSshdKRMvBOCL1USowzlgaDtQD1oer6ClXpQyPERHyncVT2JBHBJGhQ1jGsVgMM3cnndPh8QHfnz3dvXXnZlrku7Ss14EAHGxWsafs7as3pI3DpCdrjoen82Q07sT+YcrLgZC6UkOSFo0cnfSGdtzwFyYHB/dv7yEkOHINDN2VC9eevPrsZusyyg7lxWKtXqvTq1X31kWgdiwqFgSt81BLqEiVT3JEno8pKi/fJVByv5UtQTncSEg1MOgFmiI0kjcYd/7occNxGhD8dFWSqk2KoLrZG3aJ1JkP6pJr6B9fVcJJ4dVSCkgZKC+xgqO6dSZ3qUpbxVvKpbm1yUQzUvOgexEoY6EKXxjQXwDjZRR78YaEsMRlIzWYqR6ERxWLV1+pjEadar09Lk4YbP76yy/igOM5yfAq2ImN23+QK9lTAMpB/qNk8Mat1/lUe6EBY0rpcLTRWLm0eXmpuMo4C9+bogGIANm+XSjqAjUBlVW++nFwQYYCh4s2kyfmNJn95IZvvrBgjaGcX/3VX8WoBY5P//Wn33zzTRbCJHV9E/N//B/+J7wQZJdu7Je/8uVPf/rTdFGR2tFoQI384A/+YFhM0lp/2U9/3Bnt39m+2VipMZ+I5NA56aejeqNlOaDKqHhKTGeNYSHVjHcjRObZlYIBwtXKokiMghIhdoW++iwa22HfBZO8HFWPIdRaCuJSyR0NkMRJhJXoSicnJ/ujtHJu5UqtXTvaOXnz1is4dh/+lv9imf2/jETIKAa3lJ16VEXmczuTpHt76/WkOpxUetNSf1ruc3Y8OdG91an0DBkw5Evvs805Cngsw14X/4MjSiXbdEtPh6eimxEzyTo92qp9LTUz1AjKoXpxVcnI5F1M2T5pEPRjiHRlE7C0SSOSsmtyQBiTZGhqxJBWhXYBe19gcqu2srJ2vpI0xVl5BY82wNRyniHSI/44cAhar5f0h5Pezt6D2/du3Nu+fdo/GJdoJDgofzBhCFEf/5NuTzU/Ue6howpQAxr+bLStuyLFnhol1KCDXaBym14He4xpKDQMpznxpDycVJcaqzcfvoacrLTPXT731IXNK60mHlyrleByammpq0Rqp2pXsWFAFGFGPEB2XrKyvMvPPIl0XhUAk2W2JjJeWmKJlcFYM3FCz208HXR6p8enR73+6UlP7mqv0+32O/oqAinEPvmnoJDkqZzy0BnxVAvB9BQ9bDhVrjL02Wy2lpurnC3Wqi/RPW/WWtVKk7N5NECKMSyWRwiRRB1ribxLo2UQJYXaMGYRsX8ahRMfFAQbpUAz4pYaN8sYrmRNEgdn+MR5jZBSL3KoqxUKQlVy3T04VjEk7hI+MDwqLpHdu10ziyhyQSHCFwJsQf1orGgP8XReufPSiKfpBC83PUnx28+1z9WTBnYNIkQGJKiwbqxUHt8tIJzdWg6kEf5TtmgCo/vdXvfP/uzPyJdDh3DKOIb0//iVX3n22WcZiSMDFoKwKJcFHPTk4AXpWdVBQm5YxYZBxMtjYQU+2vFxnzr76Hd8lz574yYO4UAyuqOTzuBw9/jBE9fXD/oDTBhKMBmCgf4IKmhZogjSUOQDlrjNkD7EH5QiKBLEvD61cEn3TouWc6vmE+OCg6TPV2roVZXH5LEEj52zWm8sqML0pHPUaPO1i+L+ycPKlOH/pcp0tHu8/fDwYbJSXasxyRs1a53hVquImRrpVMrTw6OHmMX+uDeYnNJPLE0rINTAOZmhUJIKXFEmEBleZnitDoVIPAFHldZbJcIai2yEiHwAVFcdPgNjuSImAsv1LMXyqoBXfWnQgXu3eUQTYxQyTuUAAEAASURBVDSMavOWMUQUlP54Stlwk/jQXE0rTtBZlYEsTKKpzPwM6MW7UJdZA/YwmV5kYXA02H7z7Vdv3n6z0z9KyvS40/ratNqgKeox3DZmIoieNbRJeEGtvSikxzyRhU4EY0GgZMzeFL+ASkBhhNoKYFjsrhNzRxx5WmIxDvM1sofjEafpVIu1tFDt7h882H9748HFq1eefeL80zRG40Lda2U0PgAPfSVzBVC7gJaBmEaMF/Fudi+BBHRm9SCKGoA5pqqALVa/m29IMvjDCiUY0p0e7+zff/Dw3tHJbnfQGYz6DDKPOOyMZQiakFd/pcQUjpYngUazpODUqIMEWczRKlAxNbw2DuwuHA2L02MYorVBLITnVO4aoyMso2q011dWN9Y2l5srK8112idmh8pJHesmSXddi3xVosqhwI21hQIQrA66IeQMEcfBAJxKB4ksgnD/AJoYouFQi4OdLvAnnc7qpCaBFHAW6GjMwyzTedTCnSE1SCow7VyQDwJ9GdncY6flhlAHk0HSv9u7+/UHL5ZXiymefy+pj1vfcvmDTyxdJXMItWTbWOGPg6aYDIXX1kIR85BTJf+GkK1W0zyJJKrZaP7hH/4hXci1tTXsV73ReP755zE9rNjYWN8ACx1SDBmWC9H80R/9Uc7kZKKWPF95/Y1f+OQnL129fP/OFl25cxsbH/rQR77jw9/BAhId5YQxLtLuDdqVxn/8z59aWq6edHbqLBQpo+TTZqUx6cMKZIE/tyGyCqodyKviJA8ZQG4PBqNWnePbJ53uEYWmI+w9XbIHhDJVjyrS62IMT/1Ovg+dYn8RODDCZsQNtdJU6XTCyCBdDMrVqK6MsEvTYblSpZvYPz6ZFuvD7uGLb3z9v/rYdfoargYwa9iFUqRTjk4eN8rlB6dbzD329k9YtM35JwUOytNYAGNyFBYRixlAjTTBLs+K0O/W6j+6XfQPJ/S9J9h0qyJWDB0o0lRo2SQ2FxnAAuPHcfATRWMsAnMj81DUVA/STaGYYkVJLMNkLSWWI1ZEWNVvg1Sa6gIn8xXG/V7viWeuYCwaJXakRNMLkSU8SvbI4S5idmVfp8M+O1iKDONif/tb+2/fuvfm7e030yJDlaNJky9Ij/SdoOKYk2Qx0EgntSXpR0pZ5mHlgmbKYstODHYXUzlCVGA19IXjSRIRzNVGXE+6w9GUG4cPCgNrjIuwh7FIS1OapJWHp0d7r997+c0Xnr/2rc9cef9Sdb3MuTWo+hRjwqog+ulwbMhAB0yCEoQpl3OeFECnRkBE0g/gaqPm8T7RCd9L2vfi7/IwTIY4dgfJ8cFg+96Dmw927zw82GZeCCisAOzV8m2OpglrqCtaKteMAqrQ7qjKjiycA0gyVxOQVA61AEOY68PHZ8FjH/0bjbu0xsPh/ukg2d6fFG4ybFtuNVZWW5fWlp744HPfUSuslKY1NjZqRlxMg/AolloVYVepFK1yKsiq6tHcjlcSEzp/KUOivQlnBjM0TB8DxWGBFzRgmGEB0f7OLHhITlbv3V9TNq6DjBRTEReNC2swAWeNYek3H76R1lPGOPjUQnlaWW9srtU3WskSbZey18yh7Rppc1QSbU23PyYYVIVGQwgxm4mgfeWFr2DCEERWpeFFY7/eeOMNbB5G7bRz+pd/+Zfgksnb28MK/cAP/AAnFNHE375z92d+5mcYmDvc37t05dyDrZ3dnb3/5ZP/M+67T59k+TNtGsowPBjteFSBFxhDBlXkTge9CIEFMux71pbiWpWKDbpp9fIy7sK4O6rUSlV9XrBfnjTpRcvDYac9e3g72I8ByxlwE5gWqNUb42TYYbPZRIfEVU2HmkxyhOEKLBDhP0aXqTp5UmgnT1yxL4O0f9I7ajfayiGXHmQ6xKk/7u/tPjw5OsYBHA1pienvFdnhxhAKUxIWA+jH9WCAFotc5R9irI8A4IoxWsvuWCZq+ColtUuXQvXDKyoOAWOJ3IjZevZViE45d9hApkmpKi0SgW4dsqrBEfWVohuLXMuUIEsoKFaB0xexERONybNDY3VlfXP1fKPURhgYv0GsND6kKaNSo1ElX5983a/VGevXqunbhzfvP7y9vbt11N09HR9hb7SOTOnUI5Nzhc9kqYJadf3tP2qdWDzj7si2Sq01EqhzmyEVBfF7SuX6VnElnip8JgG+iVECBgzxkmCLTizgKx3FARPng1HvlVvDBzt3n7z0vmtXnl8rXqGyesNuq9okRy1tsSYhkNRUODOh1cojVwvypdkJpbAoSOmhgHJ1J12QoGJHp9u7R3ce7N3cPdrqjA75SG6ppd01yI8H86gxeSSUR6WQGmHLUo7ml4UEExXhoTNXqqixiy3rAwNNCmjC0KPgmhoXuegh5RF1lFtNM23vuN9Xmzqp9Ya9SpkmlG4+26D6aIELpPIBrquLmpU3ovRA0wM9tm7OXpBqnvVlNXUKsMJaeqVA6WSN+Agp7TQpqNYM3Tdn1wKLUXFxVeg3jzChWSzfaWVgOxkdJyev3HwV+z5gjWuRz8mULmxe4gMzjaStFSsIMvSLLOMxKspDA2Kx8WWOfn6n7oCcAJbO9peXl3nBQlzMAzsK8GiYkj86PPz93//969evf/zjH2eq9Hd/93cZcSMJvdRLly79yI/8yO7e7ssvv/y//m//+5//p//EYFGtWb2/tbOxvvIj//a/+Rff+zHoQesrNeqf2hU9t+7esJRLwymyx5WlWo8PU4adGmm32DtNWQ/AmobuSacyrleTFn58sV/qd/pMmOOTYfho4StF+neF7uCEOsGhp3ktTntqjeimh+KTI0VGUuwpca91VrAu+g8hXLhEsHlwfHS8f6lxGcKkidZLKEeaSNGbjjvHJ4gEnzIbFU5GjHJXyv1hF1GgmdFIEQKjQ+ux4UyYsZUXc8BqD+wBKqEzQWXi5HlhXFR6COZCwMxLpBnRYI9JQagIxGPMiSZHdXA05VpUz1L2Az1Bl2RexE5ZCFYvFcvVBsZw0q10e+lmvVmvLJcTVJOjt/iqB71/XEQoVI9AM9QlJnNHnaR7PNjd3r19894b2LXBuFusj9l2kdJrIEsbU1k37CsCJXqhPORUmgMigkcN8Pt5jbJqmNAQqDvQYiMwcnocy4P6qyq8xlSVgjKIRQRJppZGwzkVusB4BoBp//DB3gmtWrd38tSV/sXWE6w6GWvEDQuOVwGwzQMVKq6aTqPjYgL5NQfhIYKvCRH8ySHj1TS6rHbYOt3a2n77/oObp/293vikNzrCqFXqGuSC97BZtk2sUxn4H9QbN0zRGFFkKSHiTpyyrfMN9yo9AVZkMdjHIeVn+B75pkXA1UMplB9MHJaHaa3T7zW0ikgchq9QT5tVYUmMCyts33yA3igF7SLCz5/KogqgWBoNdKAT9gjK9+yv5bw2Hkv3GWNULHRHnXF1cnfvzt29u9Nlibj6T9PKpbXLG0vnawlfq8fJwEcwr+ALwUhhQjRKjnrMhbLQy8OX4R19OvDgF7CMlhx0Pxph6Vjk8dUXXvjZn/1ZNodyWhMzBqxoozovXrwIB377t3+budG/+qu/6vQGICFtt3e6vNTESv7Kr/zK8VFneblFPLXGoE9Pze/kzr3bjOZraRZVSR1y0qT4ilS7mUJxpbtBLX5SmeGpUlrbbG1+5EPfc2n9KVoZaQUTcL0ugsGGrSGt+ITdEcfd3hFjQLhtWNBO90QLDurTVq2VNOpAQhJNMQP0jJfSmKo61U6RE64HolJOJzryl6Iz/4KnkI46vc4Bb+FSQMJUKKVHSV+sc9rb3T7ong7a1RorttJpqb7cwHPAXNInZXEcSehvSnX4ngt+KbPZpXGxlgxGrPDqU2TtZ5ChwsJqkbqUmGqTs8XJ6ZCI16I1tDCZ+X52halSdL6zviSG4aMxp4PGvKoNjXZKmc+SdU/hJf0B84Ys/qKz1mDovVFfxXbQz8SThdNky3JvTC2ETUuyjEkyuLf/5uu3Xt45utcbHo3K/XJjygwyk4Byyaxsqhg4ZAdZrJMOyxLJJAmDAm0XZffoodhFjGycRpqYZ4DzsmPkp9IS3Ba7utFjmViKLQ8C/R1PWLxcYg0O5l9r36gXupl4OaVWs93pb3/tte2jw/2P/LOPMWE6Srr6xBzGkboU8kXBD8JgbFgUKNK9ssbxxBXmXP0Ck5cI0P7RYO/GvZd39u8dn+zRKWg0y8xfwCVqg3McIA/iM9kUCknGTFbFAXqXc+nN8hVTgLWDIXhTQWGdUM+gUDyf9pUEIJ58MITetWZP6W1Oe7hy4/X1dcYe5T45e40OR1Ilt6HUzULgbUboQqRv0Tt8eboOdHEwoCB3NaleEDZ8OH5W2kuqVRBb+kn33uzanDbVpSgxM7iYVuq6wCdCGcQd3Xxwg09PITWYIfzWpUrr/MqF5eKaKp7pdR3GjVtgBFEeTSKqDuZZnC2gpdGmGt2djNl1wJWysU4tDrwlNVaPzVIo69u3b/PH0JQcVNrgyQQzwRLcX/7lXxaTRljDdQggkpVM6xc2f/3Xf33z3DkkYcDMVp1xtRQTRUevO2bB5l6pzbI1yihxlwmVl2EZEROCen6lEyhDs7zColoW6LVKa9VkeamsFVgcDjVodVkiNW6w20auV396jFE77R0eHO8Mpp2dw62t3bcH/RPWgLKZga4KnTuWtsuw6YNDGtA1ARJDD0Kw0YoY/qCBkSxoYtCNbhexwcKAx1KxoqLE+mKWXtRKy+wnxR1MOdVqUh3iB405uK+iRbfYq0lNvQnERcKaoieILydwwj0WUcsq4U3LEaF7LXcWJ5LsYC8ZImq05/RAPQCNu1nq9/qswafJrvLPE8a0bXzSuURquzMmXl1yGTmuOGFM0BboR9fPrVxYqawXaQKZFGPJM0XRGCODRMOkwBDHaS852Tl+8Nb9197ef4uFHZVWwighjnAPO8z6Po16QibNgtoDawAFFJ1mIxxTcP9AOwLcWyYPaABW3JNB4D2OIiNSCDHFwkkkHgxmb6b2cJ/38tfUnUagdcwBTbYGDYd0xKhFCre2fI6PQFED93ZfL79W/OCz33l++SqDFeydgT568ORNwBzO1inI3GS6EC+5psOUKeouE8rY9N3uvdfefPnG1mtJrVMoD5obqoF0cjIcqbXTWIgMJn90jyWiGrWw76aWiBcWW+rMvUsiCLKttvh6MBv0yMYN41GkGyM35H4v0wdecQBhxEart0UcBGhxu3rjHsWk9lgQChnOWYgcQkwhJG7y6PmvaKCVoOTUvTsCKIIcfIqg2pAbKIFNk5WlFdnYhfDe7FpWwpwWqnyOSnRTw8wIFfaTg62dLQ5LGoz7LXYyTsrn1y5u6rS1Oqt51MypN6+5OC3ghR4QGucjxM2R+463WEmu3X6X6QINqVdL58+f58xbzlNjxoC65QYfZGNzk5kE1kzevnUrVuoy+kajgU+HEwffj49OGZyutfiuQvJLv/RLP/bf/1jn5JTlb+rtqBwaX2Nk4e79W7SNeJvqJTAO5sZfXouqjwAoHMiZgMGZlPun/eq0efny1XMrlxrJKguiUTWGbJaKcpVp3BAmlJC1ZsuNlbRx8dL6kwwM7/TvNd5qv73z2qjfZRHJEBcJewFm6bzogWbJGFm6+qhtDYqpo8Qd/VcGhsaNOiIPMUCQQlfgWWTEiMjG6qV/9vxHmN5ttCrdYSed9rAYzPSjpQSmSxEbvBOmI5GWftplnQTd5v74ZDDsQbCmLEGNdkuojF8KDln6SCUMpwcq7aetwothqoJFG0ml3Vge9vkKhzYZIYLVMisGKmOOz8IRnmjIjDJxCaECB461jmkfps2KBmFxoyq1asKUFxoHj1hppwVZg86UUfFbX3/zq53hUVrus65wUmZldYcjurCz7AtQZWHObBrENpEsVsioaexRdedBMYqgcgFCp04dNnjAjAEdxCJGXCYcAwGoBpGgQE0aAcRR+8Spw4vnIoTF6ohhP/bk4bYxPFpgVFI9YazrSXeHj6CtXbjIRyRv3HsRg1N4Zrq5dJUyqoet8Y0405RcQh9ziVJ2BGUHmd7IOz4cPri7d+vug1vb+7uD6WGp0itUYAvqjtethkD8HwwYr7WUarbDIiqe0HwYYYbT9+JMZOEbLoJBRblKFdTXzsorByHAcyBYxFQRT7SMIzioA2QnlQKLqpcwDkgVLSe+vLTW4punjqyCmJyZEecrL2YeLOkQPFaJM4sl9wy7YffWvJebjFzGkBTVHtox46M1YIbXtXc2Su/IDBJCLHgKKOIVGWmpS2Y1C9O3br2xf7TLxI9YMp4ypfj05ac22kwJlVig5I6MZNqjmOzkkuKKjSIKZFR7oHvMlVTIKK0xyzswbUDQwfyJn/iJ3/iN3yAe7wzfDXeM0zvgKZuozp0/Tx0z+oZrxpQCMQd7u2gffi3Ct766+tt/+H//mx/6OJmSFqFkFL8z7JdraDD6N7hx+00+UKV1T6iieiX0qkrsuWMkScOlGjqYBVGO5jTrK6Vh/erFa0yVyLPD/SjVmblkFFmeGu4asoCgYI40yVKu4iWVJqv15PqlHp2sO7tvjtLTKnvyi3K5NeEoOB2tLrPqdla2QKIGy9A5pilpFYuMly3z0QYLJfHWZMkN9qpUYg/b+nNPsd2S18z3qjikB5hNRXRpkQcwghDdQMFHSQ/T00uObu6+dvPOS0c9BihhJ6vwmXCAfOpb/20S5TtToe4TqLtGw4OPQk93Y/PCE+evD7rstcU0lwd9iq9P6smvdPCAiUZMbIvpZkgy2N5fGNXOrZ3HnPT7XWZX8x4Fq8RYEdk5nj58a+uVt7Ze3z66xaFbJaZqOSCG6VfMZxmjVeIYVdBrrsPuvKRFFWPnTEZNigoX2ZsBczBcVCuAGCuEk0APGrtGKpiMOlFraDKEgUF0yl1A48RYu2l4e/IcJLzYZJwLti3TuqmxYXsNsy/4b+WTY45LoOvfLzUK49Phnd3XkOD3P52cb1+rJUukt38JhTNdDpTKg/8E8FNrXNg4cXPrpVdufu2wf1ilr36xdTI6Gk60Eg0KGxyeVa3TNPR7QxjNwB96pY6yCiwTxcC25RaUua7JynMfHQJuXTTK7jLaMlKtwIgG3tIOGEIutoDI1UqgimTpCycMVJssGUck8HAthLBVJihalsCTlSrYSJTx6/dsUDMiiaVADGhokQc3iBCW1jRrsBbHDTKYLtMUTI4XNO/VXzNCmV4crmABWasZFHOSKb73tDq5dedGb0AzMq3hxw8nrDS5tH6eBYpFrcU1HA2/mkHRl9E4R3K2cPmTbTGexZA13Fiog4MD7BpLB2DnJz/5SZawMYGACcM80RVlopN0bBRlqpQVbXxJT8TxMfOlpe7pCbrXaLXf9/wHfu3X/082GGADOP/j4vlLQy1VYKwFkphZZ5USazu3Csse09G6AOSfMV/UBg8kyIIDwQTpjlx69fgYnSpsrJznOOMGXwPTtxCKNDY0Yl53T2+byvAxGzR+DKaXK71xp1ZavbT+zOngeHv/Hh24WlubDgb6QDirE9QSYNbQUMhDMYVB5p3s0CFqXtxn5XPDi9fcQEsQFdQjkZ7jjlWrqBCE9Iv0zlmHPOHsYtU+jOXbw25b9ITcF7SIt89ZLN3D4dFhdzBh0f+0wuIYDpInS40XSIVVd6JFiskjg9lsjSSwsq9bGGwuX37++rfWGfunHpKlAfPLGlqDVIRcnVgEkmBFMhrJLkJR3nlweGGJ2Y/ioNdrMdNQYoEps6vsjuCj2sc3t15/5fbXOAivtcG6aDpdA6ZZWELKeCsVQMeHz1DCGkLoG9ImzdZUBq4RusgMSFlCyDAptHCDmKrfwFo0DsVpcmUOQ6LJTEvv9KTLeGif6tKAPTac7+wg+NhQxs7Fd1ytUHuceY0vsZGUbkE6ZnMI04LM2LJ1l31aTOPWDk8Py9Nuc3W1f3J0c+tl1nI2G23W61OzSAhKpAqVAfBfJlczS6d1MCwRv7f/1p2dt07SXbre0/Jg7+RoWu4wYtCs17BYo+FgOByx1T9WNbkUVCiOqAUVsZH3yb3EQ4pnQ8+ju+dEyhXVLHHWoQSKQKUxSSD9tqEJZ1V2Td65Kl/qD3mUvwIPKytLNU5DY2KElbNsY6MZZ/RXc2XGZZS6kJgAEe8STHZmu2Td1JueuZzY66xNpDVFUIR/FhDoxwfJnDKXAnHDo3qyMv0SGMmD0jFNxlCMj9YoFHqDLntfWLl249Zb7fUGtbt/dPrMhacuLJ+/vHxRpY9ECANfFZerj3yTBfXpl1HGb0QQkNMJRo1caUYZ8lf+GOZyeW117Q/+4A9+8Rd/8Y//w3+gd4l3hiZDMLLONAICTjuMvnGvFrlUoiv6a7/2f33kI9/BlnjAKChTpVQSrFfHoVQ8GBzWa9OvfO0L9HHKrM3gPMbU7ZG+gaAVD3Qx2P2EfjLejIe43F46Oek1q41kXDk+6H33t313rcQpaQBEYTgOwe0HI61axKJIlnFbguXi1irLB51OuVVfY3FDbelksDdkGWXabbRZC8aYfgS1eJRLokmJphXybbQaDBDiPdUrdMubtXKTNc/UNZIEoBwVB+CZE4C7JOUDNsRxXylqhkR2iUAaCzrVrS4lg1jJpF1Yu337LlltrG9ubd9a2WiDRybSk5vIgRwCgDkraayzUliKng4Ke3sHlzevHfWG1y4+TTd8Odn0AE2lzbiqbBh7tpSfJEdZhnCjHIwDUgHjQTr+wNVrjKx1e6PVZaYO6NmklWbhJKWlOn1wfOflmy/sntxrrDNWqY3rCCcjkozYspuFbRFUEiKOUcGGsckXRsvhhVDm4xjG0matBt7r4FSLBZeaK5trF69sPrO6vL6xstFIOMkOZZet5YZmG3MzTMbH/cOH+zsPd7e3dx/udx6Umv1SnelIJi8Yx2b+WE4i5hKucKoKJemzdjFBUNkpQV8bC0g/Oen1Mb5y+pi5LjVKw+7R9t4NXM0PPdUqJ22W0rLSG6vKWkY8VEbJGbCC1TifVCK8Zd0W+wfuH779N1/8FHPshRrrwtn3xi58xq6pUNxKuCm5QMmoFpp/zCSjLmgHa2ftGgsPJ0g3mtQ7koES46frOCzq3K2AlsqLV3bKQEMjABt8PAf8U83TrmMGZIHFIUjTcnG6PvCZtJzSOuoUHtx7+M+//78EjYYm2O7rWSMoA0A1f8arihhHP+6ibNBehGPC6rV+nwbGDmJX2wpLnB7LFohJ2jk5PPnA+94PQSgvxpQE0PO3+GsqwELg0SogzYAo5cu0jxRIksCaNfYSffHVLwwm/WFnwEaLtdpyeVh88sI1fHu591S7eGAHUtnzwJ+4rN93DUF3n4UwrEVnpMEJWKdGIsZKP/CBD/ze7/0ey25/53d+5zOf+QxMxLqh+RqPg8YpvkeXPun3f/+/+r7v/Zc/9VM/defOPY5mC77Sb6W20HxVm8avU9ba7I/uc5gPaz5Z78X6bFW4PXqVk6FX+UpZFclfYlhDMVjn0vLS5srS+bK+R8NwEmMplC6vP3VlXE7qx0yQXut9Yam1MkpOjo46px0+8kqLC1c5IimmGjUQqeZFc2fyjCARy8V8U/90sLq0Xh6XmWa49NQ1vsQqg4ldEm1c1CyJUFWV+MUvuZ0JpgdHRiA2iLzFd6BT9qCzrzlQ1naPRjqgBe/SNAgQGUWdpfsQpsWfNMZMvLKlE4ang0mzttyurteSlZJOwaTp5phmEa+WQFQotzBp3GMFoJSeLwCcGzId0+jV6ui3BmGnrGzvJV3ahVt7b33ttb/B6LN0F/oGTDyj1NyFUYYSOnL0H9MJbRg3Ka5LOsCNrbKCGTlhpGtaSXuwL1lrX7r6zNMXL1xdaqw3k9V6qVWVkosJmH7vlhWTQFhhwK6+eu7y9fddZkcB2062vn7zM4e9e/3xUbVZaNYbTNIx10TQwlOkmAscty+Ke44AyDjQljIegNOMx0+14vKV0v3OFhV9OHx6Ew+X1dg+VAb9hwrYTNmxGdCAxabOMGr7wwdv3XuVqp4Uev5ysBYFMd5kzdFIK5roCpzVMH1CTN5k2B9g0WizWw125290eyxrxR2Rb8JcuHf+YN2QAwogyXb1agmi1gCM0wG9DwrFEFmlRqcfRSAwRQOTcS/GfYyJtl6gQ0zajDvli5tPnlu9wFHY4ieCatIolqSWILm0aOpBAfXx74xsPy1c4CWKGV6n+qRyETVQAIgmqnGSpkV2dAmv+CZ01ONZu0ZEHgCS+DooZ2OSPEOvW3n8QhKz7I5iQx0im2rkt//5Fz/LejVOoWsXV1nZ3youPXnpKXo6jH5gPmTlFSTKICW5NJ98ZlmfKbVh8wvioe6GMaiFHvrbxhg5TwjA+B9zuH2b2YJbN27cuHv3Lg45btpzzz33wQ9+8JlnnlldXabVAd+VK1eQbwrIN+EpGd0E6KHElIMxdeSRtZTdwTFLCsYp3RBaXTFA/EB2+JfXjZovAmOlbABGVsYVfK71tUtsCeREB51ZooIpJ9LDPBWO/wwG6Nf5FRCHIetD8Ed293dwT2rLrXGpw3A8CiudlW+sHAlIn08T8tbfco3FeptLF6Yd0JevXuIj2Byrqy3KZBLVZCZrtjQMmkYMvkGQTvOnZotGDxMzvv/gbXW7WGg5UvOANGu6D5qjNNInRHpIreJq4Vn0usMGG9Kwtv10Y/kK3mclWWIFXyHhzGEhh3jpuQgABYZbd8rTMQUmjXVucI35fPWqUWacJVbYlBhUOjoaPHzt5lfvbL/VWGFdGO5zj7XC7OFB+3HN3T8XMmSDeGigOENsCMuJNY/AiuJCOsA0V5rl1fPnrly//Pylc9eahRWaHw4BZOYOvliuLcrmErOT+DRus4lET2oX2s3Vdpux19sPXrr38OXh6JB9KTiJDBOzksiNDa2IapnOHIHJccqG46JFJAywTrqYNiXApeBElv7Rw8O793ZuLl+hAajKr2HpN5InZZVu0GZDA+disvJrmHTubt964/YrpfZwwIoDujrkQ0eCdgeM0k+VHl7CT57QKNsyTLnGPZi3AWbUpTfORrCmxhZxwDQ33Wg1l5rtJaSXARasKtSxoQCpxs/lP/XLyG6vx2zc6aDXp5HTqSdqf6Ycvlyu0UUotNgjWa2y3xTzg5VMtI+FkWVaEloTbd+GIoZy4qwXSUIWoBZKFyIsB/nb7JfX4qeaBNwL6Rqio+JS1ey3wLAySV4sLzUxo8BiXST4vD9r1zJs7/ajpj0zbOrqqIUhn9K4Twe0XLg/uPfg9MHyhXb/tEq7XS80nti4vl5mA3Ndx5jYyqrZZm2QH1QVeW5RxNljHp390i7QdSURg8TqTLKjiAnQPDWTsLAeqwfA+55/H3+UOLy5vf292FCFW0cqlsXjuzWabeZXeKTZIQOJIQGtLuCe9Zlb3H6ooy989oNGUoDBKAhGmikfiIBqQ60km1VahfqEfTuTZH1ls91cFkukHuptSdYZwXXxqBUw0aRnxVR7QHNHdyU97h2e9E80xlKa9tmBxbKzCZMugtbaVLd36DBJJVf4I4O0Vm5wZkWxX7l6/ll8EHwb2mHJneWFnNwGBF9VhDwIYCGIJPtPFEhgPDO9sL19XwMEFTpWg0qD89ZZpkST7tEDWOUSuBSqSpiACk7rKGidDfLnLl2qFRjKxax79ZkzC8HxrQkwXXl1z2MktqaI+TXGKtixf5ruffmlv7m/c2t5rV7m0MkCI1QdnXWG7EEG2ir6kXdWHcIctEAboZCyWq3NuhZ6+nQ8S9MGM9RYtKuXnl2rMS/RpP/EN44YDmQECPeIUtDKijyrNRMobPmwUiUaNWYMjnnOcvO5jQ+sLDc5Tv3m/a93TnEeNTOA46pBTkjwKecuoy7gtblRpx0Dp1aQ6sS5xdLhoI57W9s36LBXSqglzY+272FMtCBRKkwJ5KcjIYe93bfvv3Hc311eIS+QuIVEGNWmmHVEKeheLpUfoJk2osyoV7nBfhQaHrpqK/X1ixeuX7l8dW0FbrbZxQksPhHGnRv4yJ/8cLlFEk52mCAMeEls8qcXdnR0+HDv4fHJ/k5/pzzmCJw+c9va28QXPmv1dn3l0tq1pWQdURQxYMGbUxfCi7rcrJu02QWyKWZG/SzWWasgqlXMIgomI6uljkQh1moYNZaNd8+ix9rq6pqIXQi5XTsTufB+4RaqKKeKjm4LXgMxVnksNUMCnJgx/OqtF9PGeFAacIYra0FbzZX3X/9gecrGSr5/zJYYzLn6ev8/aXceY3mW3QX+xR7xYo/IjMh9qaqu6rZ7Mb3YHnbbg92WMTLGwyD4A4GEgGFGiH+AMWKwEAwawIDAfyABEhIggfgHhG0YecR4xo2ZURu3u7va1bV0VeWeGZmRsb2IeLHP53t+70VG1tILczPyvd/7/e7v3nPPPefcc88999xQX95UYr/iFJ4hvQ/QmYrrMouHNeXUWwjMdUwBJeZcu8PnmCDb3skxevKQet29LrHVCLWQQAXFNTB6ZPDJXJJBvrR9hdG8A06gci7LxoaYGccdjrLWliMeQBxwE3KjqMdwEYNxphQcv/iPY8EjyjoUz2hnTWnTtiK3EGjoM81Ncag1yqupW+twe39daN5Oa+3B6jtWHu1tRCd8M2KUNi5X5WQjvGc5q5i+zLwDAmouTJ/bXdubHp555YXvGWvNxU8unFmEXhJKY3oyuNfrDcFrSi8Bq7AePQxw6YI8Gdg92N3sbAkeSG0oFw1tzBBJQIfnNCIWZshg14lBJ2JEoxA4Y1NrZHFxmR4UMRHKrLrS9ojk3s9U0n/SZHBH3WF52w9kpQSaZCV02p0Hr9978Mbx8O7M9Hj32Fawfb1mmkaKZSlH3aRSuAO2zAfRRfRIqt/40MTJwfDBNjyOX5i/9srNT7x48WMO1vHG8ADNv22KrM5moMI2WDlFwbSZlU5MO3UAnS9DMsK30c3NxZErrct27B5amtzd2RAsXRhMITHjdMDips3hER8QFJlrlgIwg1tiY8RBwG1K5bC1m8drD5+sP5hZPI93xJ5SH3N1gsFFR6SGnrBJUFft93y0fmdiRrSM/SIfyKJSB51FYD1M9hDpFvwhIXwKJtMotrijsfnJxfMzl1++/pm59rnJsTiygoTpIEpWjFP1dur1O8C76QeLRCjD38DJ7Fhreen45lKXMw5Vdedo8907t8RN4ePZ2t2w8KNnFq+ZrLBsZt7gT2cglep85bno06NqQqjvJcjcfj6lO+mttR5KnKUfvGacoI4nFH/MDovzC0W8oal0WcD+DlPGyGCTlgF9pawhLbFOWwerrdWvvvPl4/bx2u4GIcrNdW5p8eq5FwcOxlk4kznYojvzBM2QRLIExiYVIgEcRu7fe883vCG7RguzP1QyP5oYn3DtWClyTZsnYxZNUpGcu92cgqzNkjmpnVUgj742MZPmxygbLdcfWoL3DFODx49WV3YPOhymRiNPmvJ8ZuwNWjUkCZwYGguMZF/cmLYMTLWnF+ZnCaxoMJnQqdbtfFXbveRGbLzFhLaSc2Wwm6lz59Gb37j72sbOqm3CrB9UNOc/JAZJxvma6cWAUw5MVLLwSqYKFu/sZ15evHJx9sZgy5ZDbv7MUume6v9q4XOk00Be9X8QVTXSwQadJ+uPbUsYECvAXC7aRjCvFRkug4QaL+3KIHBDR4NxkUkMMsGOLNdMzs+co94CsxofzAGpCvfVkHLkUO/KvYI5NAm/cazJcj6/zm6rs9q59/a7Xxsds4AzutVZjbvD4PGUbXNx5EDfGduqzHScF0OVVrcyamVNZq+zP3oyc37u8ide+awl2tFW5p5RmihHQiwCHTIKK97QwOqv4A071c8gkhCVS0Mt14rpOzzcXhy/cv3CnmX3Oytv2gQ+1R4T5QPvZc0cOMV7aV+uwGk3LjKk/RLEDCH2m9hwZyFDpJ3t+w/vXFl8JZuqQ/wRrIEojkFedz1otHvw5M7ufmdqeayzvw2TbgaeAO/CS/lVKE7/uFYP6GOo5XZ9iOCPJ0emL134yMdufOr86JVRnglZAde0ZvKRsZC2kQW8FHRK8foHNJpAZYv6Vg8MnvFu6exvTY0uv3Jt7uM3fsvu0c6jlXu3795afbLRHpvbOz4cF1mz9hTxkNEuvvBhwx5alPQsNdCn6N7Vs0fVr+kEiG3UtQIyUOh3n+ahVCqTaHE93SB5A2xKionsQ5NOCdE+nwyS6YB4uwe5BY4BM4cf31679WDrkUNBd7Z2x4YmxtsTly9d53lv8mD0Zq+AyzB2+i/V5zukfApNLAuVmpL7v/rfUKOpfqE5I3YzhfSToe327dsiRH7hC19wcf/+fV64xBwS+ZN/8k/+iT/xJ2xOIBO9u7b+lL42PTMTbynDZ8gt0onE0IE8wew0INruP7jNvlDqd8N6YZXq1nB1Q1VwU5qCUmyQtAQ2wO90fn4WiVsBGIuJgWcvsxSDRSyVTK2otCheFXph35Ere8db4lw82Hj39qM3N7cft4a5U/JU0qCuBtYwh9SoaayvBtcCQ99GsThuiw6yd3j16osvX/qkvUc0/yFCrfAKJwAttELus3HivX2pM5JVi7wW4NQgLMRRa2Pl6dvHAwIN7tiUwZOO65oBJYqatYFM3Ii6KEfFBek168XOeWkdDAlVPu+QGdeBW5n9/rW8ULzRaJTqrZflykVEoF61xhiZZIx0epaJ4NHq7v13b73e2V4dmaB7WPXrcrMxkWtUK52I73BOUJ3li5iYUTuOir1BTyG51vji7IVXXvrUlcWPWOt2cpkRlzbh0QEbndDwXH+zUBn7QmQYOICk2+hX0dJLopUA1XI0PzI8TVpi9eW5GxvLG1vbmxt7d7NUWI7cmiFP7Kbpcz1Ox47CywIvoLi2ZxxVX+YtycfN5/6ju92XO2Mjs/vHXabAEmswAunHNhujxvXNtbWtJxxC4u/pz0Nzj2IkQkM1Rtf0N+mTJgA/iCZA464SAW36PHpu8fLFpRcXRi8zwtoCHDSHPgj/5oQgREruFN8hg1Si5IxkNMdELFCikqMXewNOhmZGz0G1OPx0S+be6xc/cuH8tZ3t7tLsVcblBm+xGIKL5m1WFGD8SG+n16VSdJrLb/KZBkqcPEpJk7NZlQFKKSV5dWJkjP0tWAnBgfXb09dkB443wNWIljCZFC4K3CaV262te0/uWn7lPDPEkDU6MjvJJHoZ1icHczQcScGyQJDolXSNB15uBFXK+haJLAtSw0K0oRxuwF5GhP3Tf/pP/+2//beEmvazr9HFIJEe5yfR4I5rI6ZIRNxB5ucWi25rGCp+z2oneg1vaAXfv939gZ2VtXuHJ6LT7jtaQI2KSmeESEIK1fQQP8JNK+waimg0AvOPE3tIlK8tHktkROaNGQcUo1OavVlexLG7QmXJxmP+a29++d7jW529jZMxe47Mo7wT81At3avqABPor3hgha5rrSZkOzQ1Ns2Sde1jH7k+9yIPr8nkSkJMtk7hVERXHZROalJ6sH5V5/Xvht6a5DYhJYbXztOtJ2TU0YnlQ/oRMwMOjD999DQYCGlqX1Qw/2CBgBBUnXOoAB9tkXyF2ONl2ocomb9FCrkbXpCvjEyc+JEe9HTz9p0HbwxNHG13N3HG5PS4mtHB042N8bEpVuPEPeFyEd9f+1KhK0pW5JFAdtYDB6cGx6ZYfF5YfsXyxdSQbQzj8GO+yCDIQUSeTIwgICYlYg19p20Zu5UWpTGelkUgDXblJm9RgeXQheX5q4/nHnQerW5uPhl1bGyCAiDx5ESuPkNaObzFiikuyZDgJj3c1MEypQrGJ0dX7z3eOdiZHolroRkvEgt3gIfZqkR1Z3eLJc4qcJcbBVeWSF8EofAGq1VReKoaEvBzx4E4xDbnTWtZc+2ZixeuL81dygzR5uxDn5W/Pi27R1I1rU67cx3GDLBJpCdds67ykcHPkuj+gZjxiU3gDabecZtTp6ZnQT+81dmdnWL7rhLCZSHf+pEiP4gUCpiqoT56dOPa0IQFGq+XKoesNqlGcirqYQnrZiwh9jPfSvFq6etrLj8oFZbzIABFBkFmstK5rek7ntOAgyAEh7Hv9Vd/7VdaM4gSPwxsr2//luvfc3Px6vzgdLlgUURRiidWwgxcSomQiIzICJMBuyiqVw0NM9pZMgRQrgZeGB0ZrcNDp3GR/QZ//a//9X/yT/6JXZ/NDFQ2zpCzc3Myu7C1AvX8oT/43/NsItp+9+/8XfZ2jI23Z+YXpibGv+97P/0//Y//AyRYrDrsUgFG1jefTs6OimD1+jtf2jliDz60SmWaMOywJ4bcyBT9qdPBo5OMHda/sxTH5IQ6uwebC/PnByf2N1trQ0PtzdYKJyxLos06g1bgWA3EJ3uHnaebj1afPljfWLU0sb63ejTS5RKXII/cAcJ0WV9XAd2ES9wx+xD7nd0q8HQwMG4iPjB67+7KNb4t3/WZy/MvierVHh6LqztBQn3RpRmMIyfgpKg8bJDUfHoeCojWrCU4nG+QCJ1pV0x+xyvrjx/bFdseEdfZ1Ndmnwh9LlEU7gplVOukwQhxDeDwrkE7w+nIUff4+z/5W8da7fHBmd52hgzZxXu0JIxUCgUaOkPLzeSpdbA3QAn3A0RHrc2do5VXX/vCwETn4Hh9YPyAnBSpLrLmRGQA+qCTq7Lmw6gTZUuJYMncZ9jAN252cjRmjfnFKy9+9rt+20hrZsh51dY1UB9k0GsybVGGD6/qpUidwlVwVPghPVx7WEQKeRoht9Enh0Wo7Hhucvnm1Y99485rk1Pzx85gpD8YtFBtMA89BrwcUUVwxIqb+rKNUvlMKMo1cK5vrZy7dOU33/jywvdcaY8tmFvbBWbcU8DQGGuaZYijh2sPjJL7+5sHh1t2ljkaylhjeHYQWzqdldsAGm6KFTbaPLjNd6miw6Lt2+lhQdNO7ZOpllN38f+Yv2BfZsA2MsRoEu2EXLbLD6xwFF6tSWRandagmcDuPcAhtCw6C2jl3vREj3gSxqo1atU4Xa7xheridHwSNSpyPmVUytUZKvDr2TPoIr8j1I4tyFOtLXzgiZgry+hcJ8JRI2Hykzc+arAbHxMwU5VwoZQyHDS1fPPP1IgPvFi9axYYLFTsTSst7K+/ef83eV0VlrLzd2p4WmjcGiFJBS8VyBAe6slfviW6eBqXH2l/feWjkgsCrplyyrbyeEWcAEaN3/iN3/hbf+tv/fzP//zUlEOYBhyOt7S8bPLmkRkoILyyvrb2V37mZ8iyRjJaLeX/wShji4kg06zLB1wzy40zNRvIHMFrc+ugLUCb3YMO10cyK8o5KotYqmEdENgynJmouTRHe5HZFmGiKybp7u7W1vZrB28MnhisqE+wkykke78C5Dex1U+2XlZEDQGozXYOjqzmC3CaKKxMlAiausmpk7qHMqmkibsvLCCRNzHatiTffSoMzMFv/fTvPjd3bb59oXzEBAs1xQ/PFaE0mA02q69gse4DvknJ5q/4umQf2NwJDNmAebi2uSoqbHYm1Tmb5bSkNHQf255ivKxPU12GzfSWEjJxPzqZMTgkUKq2Y49wc5MfYP2z1J6JtgJHYb0Ua0/BbvDAEQ8fvTMwJJxmx1qK4TDLliV6QzTRmnvNDEBAyE/AhYRM/Ygw3DvbXry6dJ3DwfAJeFBlQ2hVXe8yYz3yxM+h70Ab9uthLCjspTyrCn0QcABFZYMDohS0hcmNEDiGPWVlzGt6IRQek0/BB2dBFwjDrx4o17hIPT88zgE9aM+tuPgGBfXUd117tI/FElQu7GP8sE7mAi0109LkK97UGC/RcYJT234NFKKcjk2KZOnkrd3W5hzbogBHUYDIVWI7+Mr8ySWC1fqIcm8jhpCijxCIe+oLMKk7w0DlU0l6NzSAfnyVQCzJ5fazlIZIz5DZ/H7+s5EQz/KkQ1JTWCafUgCQARoDfMyPgDo+mRhNCKSzST6gfOdJ88VZExV0SISGwz3zgNbRf3n1S/GojhmEcXXk/NTilXOXuS42I2Kvab2v1BiYKvVoufkRTKXzpDSksrmO3nt0SKiZfn7lK1/58R//cXKqsaDxvyUA/CTdFEqikWvE2ere3k/91E8pxFMlmJCWDsiHPJNhi1nO3LOKe7C3J5yzirzI+7HT3TFjtdmb15Nhr9id0TM4zlgHs6BObyeFCvmY56hReoYYsdA+aNYwJJBJMhMIEI5SvBX7jy6Je2EsQUZZC6nRrkykklEIRKDsZVcQpzrh0WIgQZRDdhLM8P7r7p7sbTHjdBdZj9uTn/jY940MEOpLtNjs4EGCGCrk9e2mIpuewwmphJ9jhWX3H9h9svqIegbajN5VboipKVyLShSmmnRQw0E5dQ1KBXAVDBom3w9JSDT9+c2SQRHfZPbeOtw52Xrn1tuQZxw44vpIqOmPpCDeoJ1ZYjpDCjMXJCFvI0o5yYtMO3r18s1Ly1eECQkPN4Kwsob0QpdKwByQ5vdzwPVqSbHvSwVDyThKQWaUY2MTewNxBFEM4LyQ60qnF+8rJXk0SrOMjXsn7BKRpzAQ4RJpGJhAGMcPhyhY+LPKMDxmURqBRG1WQBxHvNNkr44IjnMh6btY621PnrDwevR07cHDp3enF6a6VkbHs7lNh2bEtA6SMXeYEwfgM0cKNVZTUkwION9JSg5B1+DiOpQQANK1gbYwmceVSnr3rvPwvzpBFJ2NKYSRMyaBSAZ/GfYB6pNy8/7Cv3O5pmXQlwZRxR3QtG/MebDz6M7K/f1JruLDzpEcOxy5On9ZFMlRPvcRrj1J0JB281kS4v3woOwKwQx5sVVH85LJvNIqhEp/6f/4pT/2x/4Y0WOaqYV2icrQvPLCiy++/Y1v2DwggIep6Kc/8xnHuChEBvLCHQrdCIPmQFxAZqfFpIwURBo8oWJAitW19eDRg61tbmvV6bUZkEwt8qnRwTSoKFo3wjQSAJsq7O+wlxNPDh8fjE0x9sJ7dBlKPzTVAO4rt9yp5QrSghXNkMN/NOTCn5QCwE1EJhNYwwNyHs7EVOhAO5kjKuvspOkXrn3q6vLN8UE75ck7G935rGlH1Gd1JEVfCJ2puqiwSLCenP2ATDxY9JFt/ACOupVNI921zRVbIIW9KUlCXqYRTSKkU3ol72centEzs1+hKPX++fPLMdsDAmKf0XNdNjB5N8KxV8izLwSRCL12j2wNjBw/fHTPmXijs1YGFB83CyydzNjYRaH12buuUmZWjisQFsHqOK3Zm1dfsrE8owsRndxea+gOQcaQV7eoLqfjgVyppcmdzE2lXgxDBV11p6ZUEfCDzW5lJsngM9pYFVrwNVcf+okSiJAcGGSKJRaAlmYKXvlrjh/OASSJZ9HLNiymuyx30N3TCDbUEGyl0gSrz90CAY5EeIn9C3EUjb3Drced7ty0wAgTy+OX91Isojaktp3t0TTfztZCTxqQcpGDxRDkyOE8CQY0LoUXioKXypqOjnUgalpuVJKnD1v/1nf8XZpjhlsqDdEe0Rbm86ce2MY/IDH2z88JFt+rr6g6VX9ncq1QGggpE6yGgvnsOf+8dfDqrdcp/lSqkYFRE7zZ4ekb56/PDS9QRdQkf4iikp9+n/5sbp79JMv8PIWPzGqkmzt2p//ZP/tn7R8gsGxo5+khNtFHP/rR3/N7fs+LL74o/Pc//If/UH7JhNRKKK2tEYvE3+PHj+kjTquzr2Zzfc0OBLSC/UhO/NBQAyRadN892GbEIOvM96jmtu5HiUhPhZpcgSSqOy6MIsl8l+43J2V9Gxp0EJ8N3oE/FJCmIwj9UYZ8kFXrU2mGZtmQhHgUkR2MtyP2+8XFz6YfPSZwpkACh511OUbmppeu3Xj58oUX5qcW54cWO3yMR2axuo2i1mjkDAETQMFzai36q+/mo4f+Z3dwe1rTgEqAaV9MP8cb22u7+1tx48f58XBKQrSQ0BScrBIM5KLuxorL8Ja9mYuz53R6nkNKFlUykCS/9D4YmttnP60t7x/sWBO+++AdNgPaWhxo0gUh6qTov7ENpOQUCYBe0im1eOCAmvHWwcjVKzfnx5cNLsIXjQnSkS5rYABPIxKadzPqe9rQZANjMXC1sVe2nKkuKFBvSeyS8DoyW8diFk3Pguq0tZX9gz/6CIm33aA9sQxtQVdOH+vVHAgzMER5BRlSC44jTCqlLcBww8UZ2PooDhDHcTmmk9m9S9Xh5b2ycfvk3YONxfULi1emBxcULgSKPmakE2J4bISfkBIbBPjM2ORLSadcX8/A0KsxP/O4ZE09q4+I1D66Am0Rpyf1sMD/gI+mac9nUQ4Woi8QLJQARzDGryodkXzGg/TcwbFpXGpJpc/SdybXlBgOz1c+s2jDzHy8+vU7b1gGE9avLejg0cmFxQtWQsezQRL2+p2RFj6r+xSO/hiVAiWUUaIpe+nlZ/Kk6HPpePJ09ed+7ue+/tpr7E8yEFh2rf/hP/yH/+b/9jfXN9bpon/1r/7V7U5H6I6QyPHxj/zIjwj40Vy/+uqrzUoCla09Ob25sfGDv/sHbMqyP2Riug1BORSbV/fR2vr2Y/5lHDod+eGsOa4WEyMW2I3PscbCp4/88K/6LmQwZNs5qzsLP9uzYDqZcDZW0qI55BnnCHteMuEJn8etAMVhpjiAsrVXSKI4HrO3CcuZwyFs/5zkVqo5k3Mz89NLy+eun1+8NjvkJJoEkZgdmTMmGV3Ez0aLOZbhGZphsaGt58mk0Hv6UeNHjSG5lfzusDg+XL1fZ6TTKDUkJqPTFPomXvK72Mk76bysXMKHwd8S7czUPGVThurqoOcsiefXc6mIqe4Yk8O+FnqHRUd8urq+4gSYLgeassmSrLGCqT8lYvaGCpuRoykRoG7S62zesb9n6trlF0zSaS0cjNjCG9JDGiX9taL6VIF9idaHSzl6J1qIAhthF7ot/U5j9bubEKf7kIHRCaE6KzF5inqfEXbmvn7BRrBbxNCvJBoWaEMJ4EizgjB3ql0pysgWbADCgGfzsglFGURSOfaOBEzXpMl+Wrl5r0DNqAJAJIJSbAQd3j5Y27i3fvvB3Reuf/Ty0g2OZpMjQp9OCYYyPNrmZaJC1dWAp4GQnObmlpsh9zxMW9K/LlJ9Kg2OzHdBkj6qDG42DUkeqZBTBTW/v+1PL5oPMUX4i0KRoVeVCrQxyOq79fcjR2GpRt2526/kO5Vr6Q4v0zgML8xqpqLvPL7zaPvJ3vAOR0PygOHo2rkrC22MJ1XDvOCvOt4tePAb2pvr4o5kPU2ea4Lkjo53QU5ZK/iX//JfkmUPHz50h1wTuduheVZImdgsF/yH//Af5Gftck2oNVLci25yBHFhNhrHsG738uWLL774EfeHho1RrGRCuGYq+fbdrx+edIR/4UZvZhprOkgyMKb35K+UcdPP+CGlG4P4vQERDWOgUlq5W6gUmtyrC9RVsrrG3ZRhS0j2u4XqxF0Y1T2mDMwFCfZ1ODA1bhf89MzE3NTo7LmZC+cXLi+OXxb1gacCddwK1F53x7I6zAIt3VnAwWmQXKl4MkKg+fncZ7JUp5h4l+sMDGsFKWaRxiT03sPbcewIwGZGTH9Z80yPpBTNCc9XgaR47qEF6GH0aQ+3BaiZGpmuSUAEUL0VmKq+eunDP0h7MBy1+FEf3br9lqUbfmYq45PpC59pFK0tbfRN/PV4DATpiCSSWW86r+p46OLFK/MT8Q2mzybqRexrjUys/HqteKBkVA9pVUQgLbpzswG82ogemzoiKWrtFTnbr1gYQCehUgrVmRQa74F15u6ZyyLyrD+W4u5BGuXrlB2iwGmJyHrOABod39kbFoYonnkCs+J173M4g5M++CXxFZAifYHI9CTYMhcFXFRSsQmFXDn4+jtffeOd12fai9cvv7K0cHlydG56dNb+UFYjuwtSgrFlCNhaAABAAElEQVQqcj9siD2UVtio71SjfGrAs3ugRh/5H1koFdIg8BRvvXu+mtKS6QOS9/rN8dQvUPNvinEt9rXszi8cReDTnzJWHJ7MTgqLVEbBMyV+Z3IN5KnX5+DArsU6Lk02SD+9tz+4v7a9OTc7SVwNHg2dnz3PwzBzriLuIErymfb2UhFWEFcdnM/mQXPHdcxhJmbjrEtHzl759V//ddvZFUKKyfODP/iDv//3/346jsmmSr74xS/+2he/KOAt5UuvO59lanLKPgT7YYgzZx14RTc76VBcw9/5u34b85zY+boHNTGW2h/Daev2/a/zjD0+2canxJVhElcbI2KwRBXpY7OzjORIyviR0DcOM7Balema/+E+2C8hUF1rEO01mQUKGeqlzM7gwmTNdmjLDl5qFg7sr6T4TE9MXr909fql6wujORWYeUgwcevph0dOZrJtO5PimfFZIlR9tu8onzTkqdXH69lvN0MGH5bA2tghMkTlpCg7zHdW11azwhs2DaEicVjStF4hESLuUIEaxQ1BDaflXCtGHbYyNZKN7t4zgD+X+u+fvfkcbBEUJ+IzbYs7e+f+2/ZucjBxkurOXnb1ZpKtSv+CfXhG2YB7roQqmh/FsHODrixfAbatBUS34JR8cpqKi/VII0Jco9IRPW+YZ+SXjFUJWvOWv9NaXNBimpLyma6EoEqRA9HvMgpKPXouEfPsheevZGsYpLhEywwn9SoEBtAkxTOe2sshvhFhZmN8pq4R8IkgVMO2Gp/vfZ0VDCnLTmoKwNBul/1ub2R8StS2mKqGbPndWdnc3thZGxALYGTqwrkrl5evzE7Nz07MjbXExmCgVIKxA64yE/DpTiRmKKHPyGCMUumGjyw9FciBHAR1nQuE1Fx/m5/e7L8QAw5+44mZyE0adKYI2MpwdXQ8Ljjx2QeV55vJNTiGOJ86rumndASKsujMuWt0dON4c39w7zde+/L2yfb0/GQCAQ5MfuTaR5bnly32O5xFxw+zOxZXKEsrM7IF7pQJgKb9PSIogKpj4zfQ1EsY6Rl1iYjLmkbYeXFrc/OP/JE/4mZE68io0v7Fv/gX/IGJMPlnZmd/7+/9vW4C3hnVf/7P/3lvUd/i6TY5LlTg7/vxH0V+Fk5BYs7nLFAe5OtHjzZ2Hu0PbgyIv+LUkhMRaNuOWLE8yV9UozNWxMgTL7FmbCajdnd2BSLn3pHG1bYFR4WKYgLIpHB/HLtcMv66MPxS6CIXodIfnSl7k3U+YDisWUzuPlx5Z/3Jo4+98PErCy+Nqsxuzd3u3MQ85ydwITbvZRMb5IUvxKMI4VWB6Ez/5P/zKbmfiaaGUQlsG+6J4VC/1W0xxfbefPv10QlHCmkoWSnMnObnyHfCrEiHWGkKDl9VgYmfMTrcHjwaX324/kOf+6QlQjEOzBnolaBJxWfTewE7+yyqIJIxwNjExrNvbm58a2e39gIZnNnOszHIC8wCIQ+xP6upbKlzM7OiGFgQn5+cdgyOz8vnrwk6r7YiP+YBDFncBzWRhjwo9afPlFefvY+grskZnKau5CyaLazqpWiVGoaonKXYaR2iQ8fuDFOgE4wsuMvCpVRxCSOCPiiFvK0WOUptYmbj4YYTMDKXjH6cvVahETYxXDvQunnj5a03V0aHJk2FeAOxzDDCmvCftLqbG1txNNF/CW6RlSuUhpsiIg+VyF/v0Akemo/wrE7kseUBBDnB6y1+klyRtk/W3155eOvRb7CKTLenLy5d9TczI8oI6wpTEqRn8RT5mbEyuqCFrJwHk8og+vqoC26KIoPCIkgol0Kk7nxHCdbiq2ZCIuzahnPHuF4PMQia6mhDLDDEmTNSxwZHbOCnRVFb7B86JfJvJtcaQALY2WR2UisnAIXD1x++Yce7jjfDE7NwcG/g3Oz5iTEb0KLmZFiFxKZhyAQi8vl8gWcLx6z1FOxe9MRPr3zjG9948uRJbh4dEWokF62NsuYPBq0J/Pt//+/ROi2Mw8dP/uRPOtkAUmwd/ZVf+ZV/9I/+Eeub2Ss/1te+/trLLy//oT/03+HK7l6r7ZzPEb7/O0dD+0/W7h6K+DMkxj5eDiOHIvm5Bfj0XiRamLnYAB2ZpTqReLS9tW6Pg21Po+SvqYTdyyQX4E14zcvdrFX5nGCOSrUlDTRgoIh0dUyh2pV2Gh0jN5x6fLR70L1z79bJ3tALF6em4/ZICcqiXqRrMhfKfAaZBc97RuxnKEV0leHZnf5VwEhJ6ZH4i0a4dw+3d50+W5ObAlVlvD8jeJvXavqRAg2eljOUQJHKXOpkeN7UeZiDZiL/MDrJBGW9ynrfudevvvlu7vSANPdhHlvdWtl18CCDN3+6WNZhSjZ6ilIgMGXh2367gg/YBm3O08pJTIMMkhEQEf4+Ca8zlebtprqzlK/85n59n/ko8svv9Fo6LEyqRjhLTKEqS7xyxGDRLsp6QA1PNq8UbvP6N0lhEHvUUng2gmWK0GOTVCoY3OT47NLiFQe17B+Q8oNTI47m3Ftbfcrwy9XJtjESvzaKRI9VUWg3E8nY/pSpN4Fd45JsKCwMGY07mIQtwsDPnDRj1rvXXVu7/eCN218dG51emDt3bmbp5oWbk6Mz43YfD41xhCLqhf7LKlGNzRpOlNenUy4zMBWWvklzv4NHmmBaQnvwx75mYY5IMVNQI4D5viTK+sDAHNeI0w7CCNWes737bVcZFuMJbXX76Ne+/EWyMnzsTGK70IcneAxNjAgWmt1bNiEYt0qHyDCCmYs+Qh3VkToTdkMfp6mXocSZm3heCYxrhiniaWFx0dkF/Dwcl/fpT3/a4QYa+R//43900rsJ6ZPHj73yO37H7yDR7Hgny2wO1fcEnyntG2+8MT8/9TM/8zOQsNPddX9zqzXKNTq7rLv3Hr1zcCLYdMwmYGhmltijJ8h0V8m1AjyWJQyDuNvD04Ta2MnU2KAYbkIEd3cPN9tjHCEHD3LgEMEY12LhWeEo3CApFMXmgpTMaFf8X87S1T3WKw739u4+uNvtDCxMXp2cuWAxPpiiJpT8Si96HdPUiSEpM9RURdZncyecIuV2LyHwkPRzKbSOD3Xp7nHHyco26wyOUyWyDkUs6x69FmmhpKbAXrnFwMWEUT+PBpYXL00MidpCmsiYWnGAr7zlr8AormhAyOtnAHEzK/rY8NGjew5UHZoahAWmPQYlOwrKbdSG+AiKEFKFJCoUxNKKQgj88fGJw+2jsZPBC+cviFERZS5CTQOq9md48Ps9aPDzzJ3TnNXeIsim5ZWnGmVBVr02SLEhGErN9brsgAVbaDujV6M39Vt+pqnNZbUkE3waHokMgLwYBQi20EoMFilvcGR6dP7i0s2Ha7d2VzsWi6fmp4bGRtf2dpHJyPgEjiLVcR//BLldKJnBj1ir8SB6WaG69OtqWqoBRDrGsNpEYajpS8ZchH+8s3ewtb2+uvXo1sCbb7316mzbMdXL589dmp9Zbo/OZRMWcUaRj5E9HqOkKqGWFim1SLt3gWqqrrp5itYGAd/i03v+YEHkTvMG+qdYXgzYuIjZh/oZvUFA45OhcwuUmGIMqKveUfS3kGunUMqa3kIltRhyNGTxs/t47/E799+duDpysnNk3ZC/lXOnlhculpGFEOfhbW02oaulFBVgQ/P92nP/Pen92HHHVgEdhoDo/HNzc2ScaanPv/gX/6IwRP/sn/0zYcHJO1NR8SP/wB/4AyIU/YN/8A/+zt/5O7wwiLzmjFGuITdu3Pypn/qDPGiF9mBRs+VrPEAePOk8eLL2KK7YMVKmA/AqXZcbMKIAbk8tCingVr2VI2GZqEnB6ZH5TDaxZGvsYPuQA+3wgfOnCMiR7GOLMkN9H+Prm3dTVPysYKP0LrYSVywlBAmdxBCbyRY6NaXe2Np88nT90oxhnNaSFT1SUgr5+Gg0tfw6pZiQUdLpjfp19qOG8f7ztC3aRxmJj7d21p37J9bxhNrSc5kISKUiNSX2kOGt8IZ7PqEsEbyHluZztFr0u8iIYOo5KN77+yxQPagLt0ePnz46Os6+LoxbxsqILctzGeFIYMUGpOYz+ERnUa8tyI60O5zEB0fPLy6njyIp4LgsYs+B8lzVJdEKEe+5/exno4ZUnmZcgbE4CQk3yiBxtL3TGZ4cxm1RpnUQpcKQoC91K0Cb1OusfqEpp6SkNh8fiwAershf72bzooELiodb7fn2shPj7bF/+PT2gXNCp9rzU+f3Dtb3dg5s4wdfehEOiLUMQzU11Hleh5dGATzFQG42/BcSKvg0LYH7LHydHO2PDB+NTbZPJkaE3T7c33nqmNvO44erd2dW3q2YqRcW55ZmJucS5YnBIbPFNiXK0Eui6otIGI0N5M9SNecUgmf3v8lVwCfCEiXFqTzcxYuATDXrzLAQw/4RUmNvpJ4bhKuoQkKtTXxruQYmlNRAQGcRQEdl3biTHr9+580Edi//klhnt09uvHJjbnBecNEhg5DzL4Pv0k6qhAadiir51iu2YZD3t/C0Uo80wyd9jVwjnjjfktYOOf7Zv/23P/6JT7z61a96unzhgrkqCfhDP/RDNDXWNFiGDZqaFdL5+XmzVAsIBhhO/NpuFJieHTlyIGNr/879N7sHNt8Z4ogYGDTpiQkMSWB6Mie8n29U4lMmxlTiR/Sl6Revf2zgaLS7fWCfU6ez6WhBTq2OetjcXtvuCuLm8I7ByVlxdkzgFRnliFhUnMvM+FgqssWH9T2/c/qFuNUCwTps9KC18nTt4AbDqWXQVN6MEBpbstd3UkgzQ0au+v2U+0kNhX0YRRGvxnZnhEW9P3y6vrKz12Fsj5IaONWXN6sjQjG51nacmCvsAV1lVEYUQ6MLs+e5+GtA8PdM/sp6mvJen3Vdy/ccZLDNw2Vzez0rBqODnR0nVGFTLlZ5MQbIcIuKU7XucBNOQp5EWHg5f6TbdFuUQTM7QIhCcLYKNZI0Z8EIQH2Qmuuzn6eUr4poYXl2BmpduScoy97uxFRy+hmjWYldGV3gjT7rnC0WSJXfR/KLHc+zVEZGlUJ4zUS1iBZsjmmP/cTA7NXljzhHRj8JZuUsmdHxkfbg1P7+DkoQyU0rheHE/kW5rLR2EWTcLNEWWNLGnmw1J4WopD695FHWieDYArR1sDiM2zwUe9qEtatI6t3VrinEnbGHE/ZBn1tYvnbp+tT43OSAUALx3TWsO7alOr6hxV4VTUX/dZ8gSpOIlyyGZq8gtoyaaDYR75nMhAiEtvmF3TEaFfOaXkg3fTO5Vj3U69pepyrdjNf54Scde8/euPV6e2bcadtBy/7h5CjsX3cEkUWDiLaK2heR1O9bBaqyiCt1R3D0H/nZpNM7jSwDujvcaAkp00+KjP1PzjDObLQUNDLLuVPMbeSdAUcSBHz1yZOU5ug86wKtFqHm6T/+x//4+rWb+wfb3VgEnH9MuBiT1o+G1p5uPOS0RaM2RNGYABYjblyWIsh6gIUMSqjpPVM0LH0ytjx76aOXPz7WmkEWEwMzHJXpPlyBtrZT5uP1uw9Wb213V3c7Qs6y9VjC4atWGNB8alEOA9ZN7sQSp/+sicqmg6yBQdbT9cfd450260YsTfLpuAac3mfw2KSw+vOpD7nSvacZMtfbvRaFuXo8LYDG9pPVFasHOQ0SX2CpMLKUd7zuAqipIKItikpJlrAlbhA7f2ZqLhxjOZL62mfRHkD9ins/P+QLSh1p6nh5qr8RFCnrdB3K5KQ7yIhGXoIJSRRkCmKmYNMUf5nDIZIfnZy0xb1hMKSfid4piRXyGjQ0GHgfxj4EsCoCqtLmoofoZRhBX291NkleoQoMnwlylfpU+sG0fbb4mvhE9rERZz4RKRzFUB0UgTzIJv7E+CajLN3MDCy9fO0TfDnffOc3Bam3h6A96birBN2NJweERDSVZSO4Cs9ltSNlNik6FPFX6mvfYBrZBxV6F4KtI+n7UDj4OVBk0Gi1Ooc7djqY5IoDwmCzIxBqZ3N97/5q5/bC1NJL175LaPWFgSv7R92JoXHSQcfUGNOr9dv56kNYec+QCkDItehrpk7BbMCUSWPNw4C+u3+4NMXJo7omCEtLmho/VK411BP06s9QdxJqSzAfq4gDe++u3Xm8+SSuWyeHE6MjJpzXr149Py0qEy9XpxAIgBUERV9rUrBV/RUC6RXYe/S+L0R8Ktf05Wc/+1lHRjGTuSmZWlK+uIBYTrp79663QWh9qqz0w5xCGu9cXKHNPpX2sz/7s3/8j/9x+hRDgG3lWM9G9aHRo/bQ0GuP3urae0kviJqig+U384vNmSJcvKqzG00tlrWhRMRxTgkryMiV8wLMzZBrBJE9d4mX2RIcxznvO0vTVy5duDL/aP7te68+3Xhg2TPT1pKUobboRWGBzD9zvDyhAVFM5XtCA3EjygLB8OjGBqVPLDmxKrviV9ijFj0xqfqld0Fvqt/14NlH0WX9/BAGxgzlDSsW2Xa3s7r+OC7EwgY6QT1TCuINo4IyKliPZs70W+abpW6ognFzcnwyhxGmFbLLFwi/rVR5vUKubW6tO26POVjP6lO+/HsHOTuRiLN0q9RGaoSMenJ8UPCB9tiorZBMm+PcfqbgSnuh1ycuk7eRwGCBJ5X59Cim/bqo796HR2eTzNG/mlups1dcJr/sy2A2vnoK2tH2KO0JpSFCtVTy5EORkNKizUVmCIsIvQ1TuNurEBYbQPW5ffsDY7ND51+4hK+G+YGvbjzMnrfYCkyKBSmQtzRUvZdKlRdBVnc9yUWJsJjdcx0M+EsVvSRIS7xfHWidKY41/ez2ToRqLoSiD5iFDIhtM5bJtWOzd+44nWvjYXevszR74+T86OTQOfVBKm2qQVLTCtf99Oyqf+fDvvVCBrEwBg+PSgScsdbNBrGma7rAcj2VxYSqN+KeKU8ffGgCyPPdElyAvtvqspi+fvdrewOba1sPF8/NjA62BzpD9i22W8Sn7YF8Bwu3wbD/uizpPcV9YMXJlmb15Jqf+p6+Rq7R19jUGjmFkuwugH5PCThr/LaFUnmiqRVGHbjH3MZHzG7Qv/bX/tqf+lN/Cn4ExMiAqEcHTsaFiRM7/+TJeuexbmOiprqrTscUEulmYQvVe6GGegNgFo/8RerQEo7Hr5x/SQhWMXDopzHMximcRhwVTMwQ2/QPFg4Eg9/e3nSMkMeFDASbkVlmQwLRprHm8uQIUk/8EHXGXCPymsFKqL7OUlsHi7xMcUnP9rslZNck4iTNalLhu4i48vZv+05LeqnJrirsjYaMf93O7ubgJLRTOMkno3eiJmVtoxYRahDOW/2JHfpVPn9iLwjOSJgLa0EbYFjMEkt/rtOvMN812nrrDBzFXXlWUqu1tbNlRfg4wop8pzqPcIPnMgpjPDl6PqJ0yWAvMsGL8WNiwB7IOQwT44NjE21FVVi1jDGR7WdovD8Jdfd0uE3tfZCg1KMPTSEeXRjSMEHcc9LCdnfd0fX8q9vC+9iuERQooSTgaTHRiQCaWV6/pkydK9YcdyMH4ibwKpDSdY1UCG6TG5LDzSEq5lqrXOc+sjw5NTb/jXdfX3lyZ3v3YLjd3jMqDxyIpgMjMfujZKNmQI1oLE09EMFqta4R6FiyOikB/ao/cn6DBUZeU4xmR07Y4MWkOUR4ln4zlPMCVALKzNGafBJ2OmtfeePXbizvMB1/1wufyzGGQ21aZi0y9fu6IPBWH7F9tAcjH5ZC2KgKiJmBGnuJ3Iorifi0CYvY8J3h9viYbUo2WkGZJKohwVkWmIN0aE4lapeaZgYpqEdJ0Yvpgp7aOClkjH2zin/t7pd2Wo/bMyKbP52duzrdPnf13CsTLTHQ28RGzo6BMZ9IvakuPJ3xU8o8pa7QiJRbpwlz69zM8w+4ivPEr0AZrV/91V+1CdSsk9CwlKlJXnXtFDVMYGslSbcjzhQL87BT3/dsb6Gqfep7vucv/+W//MP/7Q8FrYyi3YOsmllEGT3a3H0yOMEfbP9rb3xlcp5jAuejbmbuBEr2gUNrdDWqGgjtntvpbHCg29ncmmkLhzC+trLzme/+/qlB3rOxJ2qDM39oX4XIwcMjLj9joh0uTFz59EfH7t695bxdh4QOjVvfG6kWKRUuoiWG3y1CGHsZD9KozBVQp0FktD324PGD6wsvU534mzq9NwNZr4vAFz4sBAZj/RSu78kLF4XwwNUj8D7rJvaaPjoRnoua9o133picmVjf28AefL7sHYQB+m7IyFHldN6IbEHisv4F1aJQDFGnBseO7bg9Gf3Exz7jEPnRAs8uUb1TglbdBVZ9RGtoLgKoR1pSs6IGQpGvW0fm3YLZib5LvFolzBlX7Wl6BGaN8u0V0T2K/zF6KOgEMcyIPTU5PeNYPb5OC4vnKA3ojqxnN+QYYSENb6oaiorOSSW/y0hXVffA6cEGyEIxhHkltAjPlYXALvtZghKIKjywvdl9/Ma7rwpTJKbZRmcD4hSM6U0S6NqBLvUxm2ZdL1/GuyJaxdm3CV1mNo8ePl3+/ivkhyN4rIuaKpBNmA44aSBYC0kmQAMnU9yVxUa+Njd97ruv2Mt8/8lb7zz6dRGJRCrPBCBHRlICc36NOAz7NnHnZCI7oAEsmJvAIGYG7MKmC/HLdGGo4NKGjfZzGh9RB3h/NcvK8AwVLHwx/IKFRAiZEX/DvKOy+WH+wqzjXB0au9lZ+64XPnVh5vpJoryZvuWsBnhDruDPIB2zSm70KLMoo9SGwnvoLCI5IDG4ZCIj0NXwjomEQzuPbAGKnZs8MRCzs4kqem/9oYWKq9duMAjypz3e2x8U+jh21RRzZixL31VtRXQQXUOFRsVgx26CFIEguJtV3q9vvLYjhrW4KcHU4NDhkGX+ySGaCyyWslYNCN81ROG75Bfgm3pS1XskWj1gqmBxsBBp1+fc7ByV2Eb35tSCX/iFX/gzf+bP2Fqge5RjYZQjLrdM5egds5VzS0sePX64Qqh98pMf/4Ef+IH/+S/8BcYLvatsbMkQ1/C5X3wntObxzgMDIY8x1FCcVipV2cbTkdVm7cao6ADsTB25OB7iwTg7dV5MRzKO7T/DBU45djpkoBH60aujOXvYgLCzMLO8cXDfsR3hlVBN6DvF4c2mW4sIYEvKIJsP5j+fNvZy3OWqA49gK6DClpI3/fRSXijg6zv3m5IA1L/vouHpeq3J5xUFgmjfGWzCcXDNFX4KbjFUFB2gEU8RRn4rsRBksKZARNIxyJgXD59MzIzPMWmV2ZjbWll7QiqRDhHzKmgArN/9qj/gW7EM3g6ip314x3tAjjNhkJMSy26kbwASngzmwGcEyEfJ9+wIQf5eLQwU8CnnDAjPkPMBICi4EWof+KwoNgWDgBjvrm89OhzEdQ4wC9ehi4DU9GiQ+6wQ0gkMkeNROBg7NAiaKSVDF85dtOKZc6FM8mQJZWhL8AaWBnOamglrFpcy0EJBXKqW2rPTc4tL0yvrt1ae3hFSWC+NjjjqhXplP76Flx3GGac4kmJWoRhszS7FZCtIUGHEWEJlOBMihF32jRBYIAvoyQdgXVoIT8tqtGpQRC+1g/Bkx95bUnBl49bI3Vbr+vH5yRujA7OWoUiMhkyVZCyMxEzJaWL1TVPDWRxFU8mfyn1XLmhtgsInt9vhAGjW3UDKwDZqF3G1J6DVRV5W45mCmztVQO+jFgc1VSXF6mHvkPfJV1798p64jLoj7mnB2PVLN2ZGrRjUMBr4wufpwqqmh0s1ND1aFwG0B8qzShtXWxURatw1xIEhsOJsfnLyyiuv/OIv/iJvtb//9/8+6ca0Qep58+bNm/ce3DfxZHcz6/z8j/3YT/zET3z+8z986dIlWFAgKxUN49y5BT2TMNCxEjqJ2jz08Padd4Sl297b4eQREZw+g5IGKw1RudaD6g9KxVsz8zreHzg3v3R+4XyDffitFxqWCNL85OgoYhZ6JesvX7y68c6DUcdbVXgi8yaUahCLMepDUoMotXJ4zmBbYiKE8V+TUMwpLXnftU5Mggo/uvud9c7aAXyMGKe65dyipmgY2ElflvZqIEVJMkSfoNPRIPf2jpwOIOaatW82Dq2OFexsVU01H/Ap73vyhbSwmT88QIsIdYAgf/DpZwYD101hpqtFPFlUMJ54y33EVhZlt1K4zOGR6pu0tcFhDxid1QdAhl4eMJyVa6USejMDADTIBJM0Bs4Ah7uHWyur97mkGB3BlT/yIG8H1MDc1B1282ZAiqTLTVQWxJPJ9nq88MJHRrIxUwiZrBLw6e5ZG4ivvNoHsgd2tGb+HLaLTY3NChJ7fm7x4vKNx2v3V9cfMXitbT3eWesIfUGlGhqdXJxetJCzvbO+t7slaofipidnmOEP+aLHAwvYYIo7dA6XUF+Uzd6SkcGrVyfMAaMh8qYJaYffWnk4NpZt4esbD1VhWXzsxvT5sUkogoSej3FhV0+oylsKeH+qTn3uiaLjQVSJlta81vSnTwpwEHzUmpmaThMUHoJJUoob79XXqoImQ+8zBRRRpBk6ZPB47fCpqAAiFheJxzmLP8uV5cuTotpHrnlR/6Rboa1qea7AQmVorrk4+8xNQJFBeToyINK3kETXr18n2l566SWf0o/+6I9+/vOff/vtt5nbvvSlL925dZvKdvX6NVJs+eJF2ebmFvS3wEFwstPpWGFg1caToNrcXJsYn9UedAkywQvv3H93aGJgvytqiF5ElXCV5choAyFmAKU9NTXIEp3ICE7YdezR3Ox5sSuMcyFZZRVnVC2l0GG7vYNsmYquOHr5wo1X3/p1u/tswmEdyDb3vBKyreKh1q/Unru58AgOVHu4t79DZYuXZTSVdEa9Whm/5QdGCau9hzdSvPuRXKENjnLr29tbA1OZgJu9hLVYyWLXwT9Bi2E2yqOXwERnSKscxDN0tNcdmxxfXljmFh+VDU8Uwqpnm7b0QTwF+vnbeexRnuZNXRZ/l9BpsGHikR9J6EorcFdyVT32SKjQI/wTEzKxR1HpdvnK6uzIg3RhhYBIeVVcH5r+d1UNojwN2v09SwGjKnjWWVFdeIfSoPc3tlZJE2ssGQYi9KqsoBrYkOan8vCLG+hC11dZSIlGGbpxxp9Xx69efMGKEwRy9uF7ZFGxaAINZukoc6qkUlUViSa9DQjG4ExVTTr4Vd2cPX/hyvmtta1Hj57cf7LxaGdvh7Nbd7dr+wjb4/CwwGuTOQny5NCev4hgljR6lp7O0d8Ge7PUVBMBlxlraszvpN6FyqIcB0XuADI9UyF8XR8M8t3sPr314OumJnMXF3UBFmOZgBU4qPlSuq7BSlNuH9unFZ3isJ6H20weLCOhqd4w7IH+DpEw2hh2D4/mzcYaJkqfF87r7ca+mF49WyXY6wbExukhtBSgMspYBnr3wTtm1xShLo/n1vD46PTFc5cXxhftGeX51NN4qNix/El9qV/1fcsPVdHC0Mkv/OIvCPYtyJoFJh2wvLzMV+NP/+k//ef+3J9zfePGDbz1mU9/xrwVSdHdaGqknjabFm9udWanJynhlL7oes0xX8fZOiqiV02poWp/df3J+tbqwtQ4nTzzKq3UCZEoYZiMAK6bDtcMqnyilo7ZWW/v4fzM+fFW4rgXTWtWtbV+NitaCNLuIkeB8jeZHhGVbAwPlBE4g3lI6CwuCFLscCaFp23fG3SQTMc0eTL7EXSLDo6K+h2mhhZPXwolkWgKRKbWu5yqhwq5S9nzJZBv027aUwgm3Zlx/ZQ+airhAcohBRkApxfnzse2XLp/CeizpFSVPteyUzCeXVQd9dHca2ioRNuzTCkV5FBXqI59MAoIycH+mUNFhyZhcacjbEEyVO4SEb0iXMdq8xws9RwSircAIKVrfOX/ad/36nWjdndRClvdR2v3trtrxwOOPcfB2bYcEeQIqowE/ZROPh2/VWLIVBby4jOQQHsz4+fmx5aRvKbJyyBeMrFZ0wxQIcISjSkGEbK7RZzVGBOKYBeZ4OFltXR6YGp6+vzF6Re3jze6+92Hjx+ub646Q2Ozs9rd3drdPiQHsWR7Yv54UHD5fYZ4Uy3thEOVEHlAFQheNak4KPQdNLjAGxrnCeNUDTm5C3n4I6fJCN82Mz403nq8ce/Oo2/MzS5faI/pHkNd7CdlOssLZ0psfn7QZ0BK0Rm+ONDYpm+CgKvDmCrEohFI5dDm08mh7GBVdANqLmUsfS1tSPLd9G2uoznlZuRiFJIINTV1Tjqv33nLvtmjk26s9kdDc+Nz15au87HSbNIgQPWT0kIbKerZzeLq5HBx9r47zU8vPF17+nf/7t81LSfjyGwK1907d5zJwmRm0UDTbXc3Sx0SdHBgwKIv+eV1e6fsoFKpVZKmvo3NHLhH2JGJiwsVOsmgkzikZMzuw5V7nDoYWI0nUf5jmiGMCgmIptBVKEFzCGjAoSRspdxop9oL83POfzW3zzQtbcm7aa66qvsSNosOwwzjXWduT4xM2QTDkQMNyRW9S3uDm6RScs+iPzeDH0ui+zm04oR3lFNgSNymYXn+7aV+ft8qSOXVQ8DWLdqKLp88fSTkXHfg0CAGPDQU81pp3IEQKSGCBh3hWg/ieQeRTPtTE3OT43EZK3bA3YWwdHfTnB4SC9YeZgqCJp+RozLmsSqi2EiF0rxuoI5/FyXFnChTIeRKsmf0hhlvZoBARHSSOrIVMdBHmg6sGuvjFAMZrsDQ//0sR4/sC9Y8bdrSPH+eRAFkwnvwZNt5xnedlCiANspx7lMWWzJXYeQvuQZjzWI3+PJXg1mGEm1kEW+GgfGLS9c5CTG0JyJRmIdwaYiiAbK6KL3Un4+mG4DpVowj6mJPY8Y/FsWvZbfZAb1vZrA9PX44c2VZr4ngYCnm/oNbj9ce7PKiPNxywAaU0TiOeGgpaYQaYI+LWP7u1ww0aNcFECWlT4K00EWTet/Znp/WWDnl3XIiTLRJyOHmzsr63TsP3lp80cHYgGRSyKEnKS3DD6j7xfRKO/slQz2Vq1JcQf2zWtXX15Si0sg2+pr5xOGRkAdFQ16A9pCDItRj1O3f75WWL4+fCbVIuJgVNJsGvtbdePvRLbbyna3u4sJsa+Nwfnz+0sLl2kNTblnJr4yMJv2iy9xQJRYlVhUl1Px8nm6CSGTNK82W9czhhNzocqTNiuf3fd/3ff5HPh/9q8SHm7sncfsQP9JNOSPUiIwKte2nY0OtlkIrvwBRN8h+biKDCXwMzQf6Q7Dp8YmRbncLQcZs0YgbcgiosZxj4sCn27TIzItFTHQDDkezM0tiPWJ9YRgIMis4aQjYwxBIj2zIqlHaGROmE0V32uPTwiVWOfbWZelTN+ugwlWTsfkM8ytLE4NDcSOcx3OUcz0yBejh9mz+b3ndkEmKPc1aQgpdsKYcbO2uP376YGQyEYFE8oBPemLkblJ6UcoVt4TalZmTOQ9ZecQmFxdsYmpiWjyPZpM5ahMEvKjntKpcNBAUpz4HxnOZ1FLOhgAgMQkFttBiVBOzejU3XTStqHvxH5Ywpq4r67cgU9vbmbnUho7ImcjAQACGtCLcVaW52f92WYWeGTLC8UXyDej1WE2YifjgHvTuvTdXNx+dDO0NjpoBi20VjQkkEUDx6C61QrVRBULP+JHUagY/nMTwZGMc76jrl1+y9DQ4IPQITcgZlT1dL/BWX/dgLJhRBBgAJrnI6oI1zj3ng2b9FeElFr3xlafF8OhUjPexJ8wsXriyaD29u7PT2dx9/MUv/99HQx0HDQlzcDhgyRSEkcFOOSitFR+lDb0+ayprUNG/br6xOu1PMswRi1Z7XI9NDx8ed+49fOe7XvwUV5vjVjvCpsoqUZBOeL6Y5341bZMj8ovySuXgvpaA39FPkY6k4WEdgVQNvkfHs5M0GNCiaHj15V+Q9V77Wt6s95v6tRpp8A9JZQmTs792tLmy/YTLjWXKly5e3W3tzA7NLA4vWIAhMgO4vFimujGqaD+ddkn/RvVNddjpHRdhoNaJPQOQ2/igOcbY1oL5hQWGNoGJ3IdBC6YUseZFahrfXYj2Yj5RV6b0BLplxCGyDJl5xYI3Kbbd3avJv/DLuxubqxNzw+t84kY99za8MFijb4o3pT0YdCN4DulT7YT5NtK2xeRz3jMSirNbSb0MKXCkORlzemjIWxYPnI5srWvEcegZsSL0WAwQerqDKPRarwoE9vw0yZyaw/W+wGQl16rHmjZ/x58NVRSD9t/NeNfa3z7YWu+snpubZAmn9YvmiGG0KX4VESUhJQBGpJTaYGYBM0gOA3MQFdcXixoBIC1ErsMZRtI2NPBcdf1qn/8OqlKyv6hkVIfBsYEjDmuNzIqekF5IgXkxoi3jDkQ2P9WVd4P6YJLU6ZLLIdoeIxQYeV4vBNVefQ6wZpGh97wpV14XzQDdq9ktIuDgwGEbra27K+9u8Ylpd0dHWvs7Ji5x+Ycj3a00EiyVFWB13bQwk6i0hBzmYkAcDU0sTV6iMmWXfjWxVktSbVj3LPYQhtE8KVpPRk8tQKl1C9dnXOcYIaDX0Jh8OohIqFEzeeORMzA9PrkgRu7v+6HLq7sP7j969+7K7ScbK8IRmvQYq/acwXbC7Yk2+oxnU3xa0Ut9FKXaEED8YfmB8ta1gmQ/2d7C9PJA9+Tp1sp+a3ewZdMrqA9iCawhQxOrU06Rj7qKC1K8m/2KGmyFjDL0pitDhengiDd3ItPzZzgT6qZ8UnrvFt56xeWrCvUsj73qTz3+lGUGBho7hA4HnMe4/b9/4ZcOx+2i2r54bunJ3UcXJ8/9N5/8XNSWmFSDFbI2soAqaP4V0k4Z709VaTG2bjg6In3csWLg03EEkgsGA0oZoSZgpDsvvvii6SentuZdIiwXJiFOlqqWK6eWCyLUjI17u1H0arEhQYSIOdBhxO5Jl/T/6le/FLNBgvRB3LFThZBFHJDKcqRcnYZ8SPbSIFoUAcsjtkBaSv34K59GjqODTsOrhQHDHdUyZKar9EEYAnRY28hcLDLQHCIDD2CMYSjKR+Z6TVuefUZTCIc0/Cs42ujE0Otvvlaj3+Fp25/lV3q1vbmj/ObCzSb5iTIE6PXpGbRwcM0dSj4fwdb+19/46nhbOIru0KhR34aZiXhsBAlYiATBpcEzdoqdc8hEb0PJaa8JfPfgu176OIW0ImeQSTVMwkMm473UsGP9KAIDRGAMrnKz2MYLfnA3u3njpfW1Ttz4ToZ2t3cmxsYRhslOw8KnDY3QCupTY6H0aHxCML49vg5j7ZHX3np1r7XdPXFevR2mx7ZNU2RUVa9Hg/KrbDZhnV4q0EL+7jR/cHRAyTEPQgLoypFRpmq76/sr/9cXf2nnYNMxy0aF3f1tphLYMGEitvpwNnwYAYXGCABsDytMtE6Vmhyb2t60pWTsc7/l+ykWgQwuwjGBxjuQSVA2Q0UPS77QV5FYVIVgLqpD749cpKLpnWA2ErJujAmZhURFjhoTpL+Vv/bwwnjr/NLEix+/8dt++Ht/8od/+0+8dOWTYycLnVX8PTw+PCV+MwlJzmmzdvmsSmJj8Rd26f1plvpMvXN0vHCgtYt13Lbo/SPukDmewhigRUoITgr1UaWazk+Lk/SdfpTo2/a3QoWMNDQE5jJD1LE+5SqYYBQarDTsjM2z6q31+ycLM3yMQk+421vN8OBn0ZbvPGpS8OxuQZKKlUZZ0KnmLLef3t4e2HHkpS3ickwNtxfb89OD7XHT9DBk6lJ9CvIiWAroptz3fDYUQMa7jyxY/V1kalkRhBzFIhIklRBybf9E3JcvXzYzzfEoeE6w9p1tY1SU4Vo3YITxuvs4H8ybmx2NVya6V3g1OIYa73LcJ1bW9p+INcbBknHEWFsKvocKEW0S/JRaDYxqW6MBDlcBaZ3oeguzfHEdkZmQe7IFRWl3kVMw1zS/MFF90dyxVJdcYR1IqR5sUFxdcFZNC+U03RFc6mNcrNX+QmPvQeO385POCciM3qmXwM0VyYAgOvtrB9zKzRhqsazGeFUwGmo+bOjB4MFbSMor1IaoxumCBEibJeiTGTVUw882ozq/15BvB8qwrfhtk1MWrAXLOMluoUBb7xahu0K4Et1QiyqkVARcZcl9zCWw6t6j1fuh9QFTtC3zr7hujWbiHPNz2CjNSXZXWlK90dRS6Kn+cRN7jw4Ql6jF0SfHcQM62Dvu3Hrw5sbuY8Evc9iKheMU45WU2ft0EWHd+zN+YNXxCbvHgx0O3vvb8DW5vHCtPTbLDQgCvREKrCICHsybF5Z6p+FNykOpSDWztKSqooikfoKh96f7Qro1Iqk0vRlu1Fxm0MnxFum2MNJaWJy4+YmP/NbPfeJ3fvylz00Mzm+t7lIhrZTGjbBSw6RV+NmPKjK04a/0gDQhpFJdEdxZuCi8BGA9oQmFk6YQYJ8mojjtJvqbW3IXHvw0HjA5Udt7+lploKLJgVUTK6c9OsY8eFpWvQiOpGd3m8cNYgJ4sVFugir62p6Fs9fe/s0uJ9bBRJKD25nxqSuLF2ZHpuhrznhUmqKhPBU0xfe5oin8PZ+wRvq6qdnQ6IIYcrPxWfujf/SPstcQfOabJNS9u3f/03/6T7/8y79sywHp3qwGuCCt0Nbe4UFnl4FoL2IulrXsr5IsKSg2JB3Ugo1FCcaPHq7c2d3nxxhlmpYWvT3DJZR5u2yODaUGP5FF0F+eyXAxdPnCVYNtRt+SF00/VNP0YIPPIjivVW9VzSa3NVUpjAOs8hfGXFZdejT1PPsrsgmE+MryQ20eytNvlqquZOhXEdrXcD/xtFaG+dOhBqocy7Ky/nD3aPtk0Jm+Rsvi+1CgWlBqNI2CJxA2JdNb+NBAFtWBXFtaukCo1epTT/wVNoLOBkoYeQ+4gAl5JNUroRCZMvc3wE2MTs9MLrDf+ROxokw94CWNTueb0RzMbOAqPleMI0SA0SmQ8g1qbeyubh08fbB7a7e1dTCwG+t4TqsQKraRiYEolfX7Sq3pjQZMP5q/iPQaVIYPmKJao1Z7DjpHT249eP2d21/v7D8lPRNO1ZsZUKPYNp0YJk2nezetRF1MIKh7wt5enp4CX52MdjtHs+2lqxdecrAAoUYEBycYNUtXzeB6CkcuwsiBEMQNlAVt/zJd8wyTFF+9WnIkudIRnDD8FV/a8sYXgA3PhpkpJ2bYlbU8cvOFxY+/cvWT15Y+MgRM5xS1zH5iEAjB9BIw0ijNCZ4rnaHV9EcUfPBF0idPjD8FsRoDu7/IEw09LTNkEBx9UFJC2ddsAqBYJ+Jl4TR4yNDEPKOiw+PpySnn0QSiwswpzbsB4iadXlQXh9SS0JOLMjAfbba23rz9VvSdKB6Z089PzV0+d3lyhOku6oweCtVU/no5vZKLD0pUM7fJR58cMgggk1DaGeAsYp5bPPc3/te/8dN/6S/R2jw1B6S1efpjP/ZjjtqjuFnfbPRkWpumUtOsHlgoUCwSSfSuXcuIB6Rknlax0XW5qThOsdV5sHpnB6GKcupkPFpXFncwD3SFYTJUVvvRGdWgZisEUyhmbGj0wnk2kZiTih7htMF5r5Eh8aRQdiE6fSdzNt+ZXPR7ssrvUaTrpjo5+9foI6iLDMr2l0SFanDr5neSmi5IY2rco1+UFhryinFt5cl9M6kIh0iiuExkglcJEvrdV7hICRl+LAxnmOA2cDK8tEiuIWjOWYE2b+Sv6jjTqKbAb/Wpbh73bbs4Wkejoj054Cp+ez1KBDDlGmyZpEi6gHtEVGaeKZFx4Tp+xd2jrePh7v/7pV/Z6D5OkDxbKQ47h8ddqlz+Gj4rnmpKUVIK6/2d/rCOZ+5jnr1xNMRCYlDfvPf0G6+9/etrOw8GrIGaoqWLwRyF5VQNrDaGHsr8o9CwhHFSNxoFh46H9redl9G+dP6F5fmrVkKTASF5I6k/NjS/ep+9Z82vlNi7ano20rpB+tnPCJH8ByH+zZ9z5esvSjjx2XJ2yLFNqeM8oNiLFycufOzmJ29cemnwyG7ABNGz4NaMTk3P9ilB3fAcfb9SAzBIQqyYp7mL7Kkj2hVk99ih90Ih2tv9Aup270f/9SarnjDdZEKIIEt/RzUhQIP3/BdC92Bxdg6cye9R8PAsIcpeKpRhnoyf+asUZoiZCJnt3V+//3jz8bFIYjrN7raBQY7m8/O1YhAlIKTdgFjtS0t7pXzQVzM9BCsoXdPUmmsXnNQEyH355Zfdv3btmoNB6WsUNCY2d8RQ+1f/6l9Z3xTs+/z587Pz88SWOEU+F+fnzZIuLF1kzILUz33uc5x1CTjbWgk4gsvex53W4fr+Y7FADeYOXdmza8fexxyGBDUhMiiQUGzIvVIWnhQHc8cDdq4IyJPr8JubeQ/ZJmOvY9JqWevVfObN2IIisutmRFQJME9KCMocHb7Xv005jfroFRc2pfOQatDpTlOKr1MIm2Lf85l3k0MtPqvwVNH7qRCxida2VrksNWKdAkp4syWhqEiTEvTK7JWTG37RpBAX0TYwMTYzN3O+NDuFKbZSsVPa1/udivvPmlvvu5Hb8EuE4bEJ0/yJkemdw93oOof2spBGRYONsEiLIuIpzrFARQsOnVvIiPWJt8Xs0O7J5sOH9688vty+OjHbWrSEzSOHEOeMUnhA4Ul9IAMdcR4gtDAdqwqDrh82YPB+ONxord1deef2/Xced+4cj3brpM0Y5lFJkKT7vd3rF1fuNwjPNROzkq0tmNQKjnWwM7gwuXxz+WOTQ4smodl1UOCE72JzyOhZQPoMjZyODoFPIkAazKZX6k7zWZfPkF5tS0lViAKbBvrZ4BKVm8El4th+NjwJ9GRr6ne/9Mkv/Je7HA8s76bPysKTMnvEmVvVmc2nwhqgoh/WtQtsJptWlMTXI8UU7tMnSgPwVjPwu0hSROBMFSklBVWrkX2c19B+7SPMo7TB8EtiZNRgYltYWrTDQX2h88JU02SlFNrdqjrqo4D2vGCGPUKNTtg52Xzrzlt0b8t/CEq5NkieO3e+PWo/vVEBVcXKGPpsUg/IXkXPiu9f9bhFPWULdNuFm//5//nP/+bf/Bvyi6sHsfXOO++4BrdDBCyMCplLZSD7hJAk5l577TWOu2PtdkJ67OxMtds+NZ3Wdv784t/7e3/PwVRKbqxvXtw7YSjZu7dyu7O/ngOzbJkXpMD45cCUqM+6JXYNsPgIKg10J6MxkWAjsm1gYHlpaYxWUAgLb6R9Te/Ce9quA1FnHhW+3anErIu7msJ1QRaOs9zPbAzBNfHrYSoU4FINLkLGBA25po9TdNWrwKq3V3TzVcD0ynj2oIqqHg3fSQSxngldtI7Wd9e7gjUZnpFLdrlnOY7mf8oD1bQ8rRpz2xFce90jYRuOdk7OLS2P51Q9bZGHdoqUK4Xj0v3A76GmB5Bsz9/o3U8NZcG0+nRIrvF53t/Y4Fdixa1a2tg2vBtTQeRPVGFqUFWbaYLhO4O4jZAs6Hvd7bnl9pu3vra/3f3Ey59bHLzE0azsoZQHOK9BK68WqwTSQKXbCOy61vt0HAU6sqzbaT1949Zrr7/z1Z29zePRXU47lveaWAwggU2WU7wWwZRS9GZpvjUdC6yBOKc9x3J/Mj4xPn3z4keW5q/QkjjKVKADvZo+idqrTlyvkPR+oHK3SQHTk1BAocRPfz2MV5bTrH4VDdcLTZYoutXtaZ/3Y2kWDmDAtHOS7Nk/6UDKpZkrJqFHg3uxSsR4j5v1ZbhdTQimqnFdsKUKqd9ql7IGZC0YmhiLN6unaVmTsdeAZHDjLLDupLDnb6mOcS2hk54t7uRd/VxdnWmMk0PNQ1Nw/quu4cdke6av5ddpStb8iLdEBq+D9a2N1x1W1B7hXDo0bkI1OLswL76jMRbbx0dSwyMXAmEaAnmF/9Mi33PR8GFxWuxfmMq0kbntX//rf829Q2Ya2jtvv22Pvamolph4+qSUNQsi1DcyLrsRLIaKUWMa2+XBkTCEGRxarQtLy9//vd8nWx4dZkLq0dDE4G5r9/bDt4mz4XFHEJw4R5pmZpynuTGYBb3agXpcGYzLiuB5Fg3siRxyMOVFD4o9GjERMkt7C2FFM0po7qT7M55n+CIU81n5UnQIN2thAbWus+JT8i03GhT6Qo9KALkkeFFIsx5/+x9KBWJ4NkOO79CrQnjMP1593N3fTWgZUs1owRlAk8VpAEf1fnZM9euLnd7Eb3iku7U/NXF+6+hoceFCdldn3UCudH+TZOtfvve7/6h4o58736klIzxmmJtdFMh7vXP/aF9oMyVjdNKDZVAmDB+jQTFmxvf8167wUw6CQuwJSzkyNjE+tb6y+u59J723r53fm5u8ME6x64+6VVEqVWIxbbFjyfrqxqwdd0+2eXKsbN57vP7g1sobj7fu21cwOGI1Iet1FrUtGrKao0kL8la5+5JIUfUXfFSxJvdMgCx/+4zQo1cv3bx5+aPtgbmjA6tcSNfKbwBJr2R8MLPWRvqfAn0Gk0rxsKEiA2PIyM/+EFf9U79d+W7+cl3Nzc9kKQugHxm4opjjOWvyOfkoGWwnjao7YF7DuKY5pQNT3jM6F4lWW6qkalRuKg3+A10+I4v1S2bnbkxOGvBCcI321QO3JHWuS2VrCpLlA5Pi0KQEw41wxCypoJmWMoQcHk61xQdLXCyMmniPaWgl+pqBSfX9O00b6plbsTLB4fFOa2+zu3nnyb2pC+3Dnd2JAatEIwvjZn3k2phZC59RSMC86sgb0VUa1khR/cKr2P5Hw+QgBrpriR0N0A4/ZkrLrPPpU34eVDO72QXCvXL16r1799JCHhYjI4JH6m37orr1VnracsGYTU4Ho8MKGL1+88aNF26yTNFHRMjTCr4Oda6eAIoPHKGYeWEwlvmEAqPCpFvMssCrLbqKMU5rCKSIvgrL014YWSaPKlpWNSvMpm5gpdl+1G+d0mAyqNUZPtFQVr5iXs2j1BWMeVY0wYof4vBEXTktJYQSOBTOpL8PzrxFZPrK/2+eejQjI2aJPiAIS5FZ+L8W4LcPN9c27u8ddZxtnwhX7C8whbnCXVKvjqovpUU0wvDw2M7B/vjM5M7R3uyUg4cpe/krsDWq4cRCR5rWFHW2uBo6mtvVZQ2+5EjTYj8TyW9mdnJxeKB9uLc9yPeEyQNia57iKxLXQoEu4U0QpVP1hptAyCeAwEHuQ+NDPI0F4z/ZPXj1jf8iHOlv/94fhG8B3x0+Z7oak1cvpYOguZQRHaUPmNih6Ghj/+ndR2+/fus3n3YeiVnZnnO88kBnzxGT+9HeAZFgVgm3EoEPfrvKq6/ScXoWpKnI9MtzMfGdZosExq8s3VyevYJrbAVFR8ER2H15V+OjTYY2avk7TggggZjy/CZuPDaQoFVEEmoLHKlVEWlIU0yKSHIngMXrQ0rWpNA40NAzpnBp7BK1IjE5RrZt8yx7dJxMSNzBAe6iwxX3JsWkvpRU1TWfTW9m6K5K031K1lkTiccHAGLUtASsNvikjwoqvz2q/9HAn0tVTpPTq1lzQVJpYa9V6ff42UPwUY76DIMWG2tMcVOVpoN1o07OcbtNaY2AbkqpsUzQC3n/zy/+yvDc6E6rMyzG4X53cXju09c/PXeyODWw4EjtodGR2N01oTXQ3eMKkFVOoMQVIyjNOL+2vjY/J/B8brpDnJFZxqzu/t7cBEewk8npqX/37/7do4cPhTmzUACRna0ts33SijPIo0ePSB+gS951UyFmnaDmkWUqyut5r8vte1gY+O2dk//lZ/6KMwfxMi0L9jrdLSdj8it+8+2vtAZ3Rbved9zT6PEYh3ELezl4wqGEtO8scg0P2VNt0N7Xb3Sq4UGup2PbG0ef/sxnT+wJbU1y+C1my0iHvtNYbFWY1NwQnc6EfX1HHtY610R7SrsHM+j73snnkQMox/j+xE1zRHSm2MhJ9ljli9l0xX53f3x4iL/27AAAQABJREFUcGlp4a233rj4iY+m4HS3T4Wnw0CbuiIUinzdCvWhpiAmPyKXHUM60t3dGx93WtNgJhqtrfHh4zdvf3li+rizuzo8TmKYvbPiZeKXbVJFdSVomnIic+lyB7zKHY1y3LYz7OLitdFEdMFp0bMa0g5X18hQPACqANRPz7S/3CnBXY9C5dUQbED+Dr9w+eWtztrr38BU9jaYKQ+LwKWTbBUxOjllDkadp5mnxm1rP4QL7EX3yJK6SZ9pf/do2y6/o/HWw61v/PwvP5qfXr64fPXKhRvCYPQEcdoYYY/0iTMXxNTuYefh4zsrTx+8e/utY9WKcdKmmrFCifJ3JEZc1liILYdR8UPkkOIMVtFdov8cTE3Zsdfa2NgCxvRcwitsr28d7w05EODBnbUXr3zPx1747I3zH+MIOjI8Oi7UWhlequEEVcY1r5A3kZatzpu3Xn3j7a8IAvXxj39yduwcf3THIWUvXe11H8yW0pikQ2JphU7H49X5IY8SBoqrG2mahwjBb/3JUbCqi39pui7eDvwE1vaebO9u7Q93EZQpiRXCiYkEN8zaRGgu5fb7M7pImDgOCVk5NSdiaZkYnhwdaB9sH91YetEsO6OOcJvZpaPWjACh1agFTTm1cljPDDYloAM22QoDCG53T0g9g3DZ+K19kFycsmgGuZuIkFevXxFiyzFDg2iQhA4GqO4xiKgw1B+Y/UXPqlQIqtIzdt3p3Nuxv3X4ICs/RydTQyPLMxcWRubbrUkhVlA/9HhQOo59RtlJ4+wHYy2xpcQYP06OCTXCK/OpSpw5tjpbNnLa2sk/w1KmZdCf+7mf44KLNBn7RfiVsXFhI8jspspcrsaTzA/xcSU45e0YPzie+a1971pkcCqVpQOjkLPago4BkaesRw51BNk4qPPQclSJ9jWjRrxA0XpoK/PompXFzCRmAEbCOAmxvzR3YW76wnhLyGZHw+ZUiwyW6SoITHf3h7PeT0WHEMI8SUgwAy/ahYCskwgyZ6GzOzY6wVX28EDQjr2Md0bPwXacV7xeSQRHcRn2bdlBFLHrN+X1vpqS61ZDclVnfsuQPDVsukhfB0RUUmz89GBFcDOLBhG8vbHUGwqRSYdG6oQoUipsa6sJZ5TyeGDtHs7PLHHHraDksAdwqJA1NT6fmjt9ujp9FmLzI4A190LQA+gz7vLjrZlL566tP1198PRtLKNgEMoAgUbQCY76DoWnwoaRVVtMjXbTn2m+RkTiDZgrJj6cUTS+ZvtHG7efvH7rq1QeRqWZmfmpyRnUwiWI06wA8Vud9QShc3arQLhiGQ7zL91PGJWhg9iNmFqgMIK0aVEgr2Gm1yQD7fr6Jmjm5hYRpjDH9ihNji/aALC+snvj0ndfu/TS4ixLn63V07iW3lEYg4eMBBkBqh3YTZTtw8Gd7YOV1Z073Y3O6va99sTs1UsvLi1cXpxYosqRaEODjpSlygYY7S5CDTrRz2gcrHuDXOgNYwTqnmJkHCCAKMI8ojDD8cHe4DjZdPj04NE79950BEoz08NxxjGu+NVB1UcZrlwYfVWq3JAzQkGqKki9IxPGcqbguWmbQ4laI37pxRqIbENB/hRymtJZZxJdHH7TfSpQPbADRMwk6Wsv59ucHiRZ2Y6+BhIZGvhobiGJyslDvGryw0OfqNqn77ApSZughl976zc7B50DkR4wx8nw1MjUzYvXZ9vTjllOSZX0JQkSQmtMvQEws1PloldZOtsds0t9SdhxvoW46anpRqJ5l+Ajm0xFZRCcwyeDmrcIMgYyywI2vRNJmWXU4mkj4KK4OVdeaKP9o6n5+T3xWba3qXiOELVa6m0QFc1wirVR/2htbevpo63DnUEjS5nLVTch4ld4xqps5mqsRSjA2g2mPaCLD55MHB3YljyyfOHK9AShJrDVsElIuqhw2DRfu6uX0t66EwEpjx4q5QsAFp2AqqUc0oRMZswYU7V9eaQVasc0OFOGeGFlEhDSyM6//WH+8ibUFKqWLfoDzhJtqkg9erq6rYHigz7Tz6GOZo6TNZAs/GcHLkxG5jMa0Vh1NxkQgvXQG2AJ+OGLdJ9X0K6IJgNsV1wFr794EdU2Wd9fqx4pwN7/pH8nVTyX8B3Moi+nZwy1Ji4tvtC51HE21ZPdnVpxAViGGOCEqIxmAVQ3cAgHZsQCcjcahMV1jgnpoB080Wngx7C4fbRuFSLejSfDnaPxtcPHx0/iYHR02BVt0ZYBvEfnqik/QXY0MTlGAzS3jENAGKwRDhmVg31YUXD6uv4yFzJSTfra72IAs2cnqvuacLgPLL988xPL527Mjpx3UoE5QPjT3CaoTSnernIUTX7vHra29k+2VjfvH7a2hyYOVzbuttYfceW///AeNUCggbmpc7Mz58aHp1GHyByI1DYGkWaQTLDUspu4JoBBMHjVko/qrLh1xLga2hY4RxAPBxjs7LS23r7/tde+8RsDE9YfPY1RxpEd/ocmA6MO640fWdrILVNLLU0kKwHdDPw0ByEajg8mLl+9Bu/yS3Kd4ZIA9CzBQcM01fhUciZBOXmSIKYxHyU1pB57W+Y0WbKfmRLItrR0NIAqqoiGsuL+kSv/3S9J6alfJfCxg3NCd1+/80b0tcEDS55jxyNzo7PXlq9ND8zEhS/DWCx2+gQyyJ2IBnaXxmKFWQB3ePiFL3zBiZ8Nrd+4cYOckn76p3+amtYEj9zZ3Vk6v/TP//k/FwV3anKKECTOWEYePHiA+FjTCDUB16yBknrNhZuuxV82ad3a3MalKmWSc1jyZz/zvcbPNAtYvbHLtoy9zbXO9oYpRXvY/NjEk+NHWICPDMTgUjgKfZv/xYExu8Jga2LA+sLx2PnZi9RsMi9Sh7pL10HSzzqmoZvUiSR8JTU4zhUgeCyMDJrAcmDKyUUQlW6jSkR+2cUb1zlw6E+GFdwEwAEx6zFWCfT98Cy67ZedUj8oBcmnAPQzuBlu178IAtO1Du7fv4tmjYeIzwSrwObMnTg7eQkzG2NVV1ynvCohBy44cXV37wCSa8WgeFzhWv//L0GCWsKZumbkeLQ1dWnpBatV2w9so9kpb+p0Eg03GhNhn0iWGkTk+ukrgpfIBmeggSwm52yZJG5iCeMEOTQyJg67piWKd8s2UqdICSR7iClpAGFCG3mJeH8MF/s59554j4hu1KnkIJKi1VfNjURrronIQxMFS2g0NQ/aEzNmmZtPu5dnL3zklRcvL788ObhQW9wjfWy8iqkg6bQ7SRI8x6tzj6lg73Dzydp9s9FzSwudnT02/o2DJw/WH7CCTk8tzM8uTk/5WzDduTAvBJbQ/AHDqMAsQI8W1SPqYK+CVKFFRTp6mn2QZTJDNkh2Whsra3dWNx/cXXlrbffhzGTbCTlIURsTeVyhaKQPZIbycITf7Fu6i2qFNaIb45aYgXf3Z0bbFVFutGbKGVDTrDMJNH0p7u5Zskkv9lMkV4YZjuCZnaE/T8MdJdayr02rrYeefT9SSOl1K3uImit38XFzHyRR3nPo0v7KweOVrUf7Uwfx8zo5mRgYOz+1vDS9NBqfe2NchllJzfSd5IglPsINNKAwlkhcNyTZwOuAFZmEhyS5aHDkkftogmizWcrE0wXRhoquXr36sY9+jMKsZJNWNNqk1Beo0wKUGHHgFA3TCWdMbW9vrK9/6lOfJB10CjioxDpAdnLPWPfCpVe6xxeFObXfYGd/ixSxUMp5ZXh4nPKCc4zuMXXFOBkmgddh22nG5s7NXBprTVLDM4SlZfjPv1PE5sID71f39+4X54UaArCxmlHbRnFGmUETwAFB8+ivMGbYi9Yf9en/Y+/Ofj3Lsjqx33mMe2O4N4aMjMihsgqqygxN09CtBiM3IMDdWJag/WQwL/CERItnxAMvIPEf0JZbKlkCGyNLSFiNLaDUFkYlKBrMTFHUQGblnBEZw50nf75rnd+5vxgyK4GCbkvsuHF+5+xx7bXX/u615yyJVJ+0KLiLodGZD44PFy3NdTityFNtq6BE+aThRMSLinJUIqSzwrAlZVq/U4tX791/26Ku6tREP8UpqAKps9+fIaTJAfnHOi4ZkFHcWgDI73iii5sW8RUjwrIYvOqX93+2p4E7U17ZRH5VFKOeBmQWFy6t3vjQ7Y/vne2//vCvXM1LhyIp+lgGOax6qaP+gr3JlZA4RvASe+atxaZtYJ/JyKjO2OzIoxy8EQXAENnsvK3GVGj6C134sO8UB0up0wGwLKwRWwlEch+dR6zuXYsmUoRjjl+8Tao4eWicZmZxdWXFRWU5zex4dn3x4odu/6OPvfA1K7O2FmT4gr6W1c8hKIHLRPNMva0Rtiqgozv333hwcHfn6N7a8fzesUHkhbX1i4umYo/Odufe3Ln/zvE79rK7KXXD2gQ72jc3L13a3Fpb3SBdRvo1iNrRks4xmVST0GRWRA991kji7t37b33prZdfef3zd++/sbG1vLY1fzJvNjw5ymh/lLW0q0WeDEaMk+VIuXfMBS7p5VrpgmnGggns1SvPXr3wjNMGy2s8AdDi0iSzrTLlK5G0bT8r7sFCq5NzfT2GASOORmaM+qVMVEu4tn35SoGAahPKstcxRREpqkVAXieamteQnx8ZOt6d2f2zV/58b975X5kAMkN4afny7cu3L87Y2pah8TCBMqr25SihDBpJVj20AhZHk6OZ089//gu/8Au/ANFMCDCULFCsqxi32irwypdeufXsLRsG6G59lUGUOPKBWWZkMkZ7rNPKfxv5KlHOV+0gO1uxm3BhERpatra7c1VT3XBJfOUNa4jr8sLCM45subY1Lz5a0jxdKbd1iQ0ftIlHzgNyzfrhgX1LJ0d7R8e7NM0cLTrrnkbHjIHyVaOYWqnwWLwEOjpb8bIoU7crxcEGuyPz+JCydPPDspt71KpUTvMV2dsKT3FMfOYihc36YaIf4ot1pAowz5qTso3/eG9x4Wh+VvVoNjzyRNcowqNDsCZajCKShL+Mr+PZW2+/psPkL41s1EBJg+ooaxnJ4pHJUw4kZuAjkJOpKEhyPHv18nW385QX+Qqh02aqxk5bv9f7pFZzB+c5OnbRuDA13xUxVy/efumFg5Mvzezt2o6iUE9t5oYA0WlNDmgdUv0CLWCtcijHumClpRPyHLaqzechyw9VbHUsO4aVodWe5ptcLLdnWiDLwpfpzDS0AKXw2bAs1MTgDv5IScHk3pOockH8Xmsq6RzzAiCTg7SZB3zcvP7Cizc/+qFnvnZldksREADzQ66gcSK/4x3qBPvwBO2JHA6DkzQqsw/Odj77hc9RF1aXnHB1UPslZubX5mdX59L49i02K3P7xw92H75m32omnEKYAWKHctt1s2aIwxCkLMtabXQB1SJOK3VsQdPsieHvfdccHe4cGMs721+4eKKfvrGx+nDXabrYkzIVbUk4AarWTPDQG6Yz6Z4dSXXBKJ3L3o29Oql4a/Pqczfc0HahTihZHFCL7MlfirdkKqHbPC45bHEyUwDRf3KoZBblKsUEL6HE+Vr5AW4sGqCvpXtVulxijK/ylm6w1BI/ya5o485DZPtgZv/t4zu//9nfP13K8mSN4PzRzPUrV29v3TJjYJAvS4jTcZPjrKsRijjiZiqJBs8ElgOaz04/+clP2tRpQkDMAbXj49vPPfeDP/iDuoqUM4CVs3DrlhYDgSKxsMP+ga4e2lTqG8gTFrqRU/aksHRDeXQbRXUeTsyd6VcSrRzgofORXBTmVvay/UIpry9tLuQieoPAVp/bEWahnPWJ6W8uww7a90razYhpeoJRbQ7CikUHpLpqi+gUo9IBGqCnGF7swrAup/PigyiABES5IckEi7FwpO0e3jNaf3jm9kmoeai2UQ74ci0QgnHS2aupibNGEsVpsM15JQ5jMYa4b+avhhNk7suapoeIZlCpERiEIdEy+ldfe9lRX7suZKOkO3xJGabMAxMlfom8M+MzWiQRL9xYhKqHszdftKyUOqDnfr4z7MsS9GU8RIUp4c2EmSXviCbiS1c3bh/dtLVn8dW3v3B399XTfUeeITrHbGSUGasYIteSSJtkm2oBg41RJt+gDS+ipdFUwg8DsDmCQ17BnbUrpStF2zMgocuP9fRn+18ScYRZ5FUSoU8dL8YMoEaXMQ0VjAP60NGXxd+Wqty48fxHXvza56581dLM5cMjI5E5oiPLHit0iWcIl4ZCz1sZb3oZe0eHX3rjtYV1C8CXVSC3hlgm6/ZxXgpzzxZtN3Uikf7k7sFaAA+F6R9pmk8d7WiKWzedIId+LAh5+gT+NLMaTiqIYcVjSdnY5RT/tbnFlfV33nXz02zWdbpdCPMTlORXk5bMVuJgv1W2ilqVt/zAPSdOKLAkwkkezz/7sRtXnzMS7FNSqXSYlrXukAI9/VeRDY9iR72nqMjgxNEMhPxlCk9fDJgU41JBiKn/elEz85dcbhD/6lnFPQau4b3ibrkrZCaLgfQvs4/y8J2Ddz7zpc/ObpOCHBBtfvHK8tb2ugMtlmymSddkYiANwSAXlhpHaKLARme8d+++nU+QyHWfNgzgpxkAO5yAGmgAaqCQMP3wD//wm2++adWr66MsxP3Gb/xGdyHbRAW/GH4a0QikBMMsGale5sHJgUXw7tqKpuOgRxcgns64XrB8ksnQR6T0NDSHMMYMgIWUZq8t5INdeh2LRNUQabqUxFfMEM2ZM4iHdxlNswPmVFsb17osVq6UgTymTcBjX1qFkFTPcLdaqCIybiijlS1/5IWPf3zlY0DNEMbByX4PH9gZq9StXrBugKpoIbuS9N84MQL2d/cMhsydrswerrn2iHbnaNVEHxFpaZPak2Z0TV0MteUFpZimmO6+fcd5cLtGuKkmlkxUaw5Tc/KqxrJihmORl5LpFLR1wdZZnK2eHrsrxIpcBZFifjLtD2zTYSsXUkEajqq4pbggKY3k8ezK0tqtzRc31zZUlaO/Mop1f3mRkMMzJ/9AKVXQaFFWGEFfrHY61uEBrSsbD7RvCCQY6qeoiRAHHMmoZvZdyZZ82dqeLcYGB8wk+lOITMONqo2yPCXRY0rVkQ+LoB9RizFSStwXRTVztHJpeftDt/6LD7/wdRcXtvWWNGmrC6Cnpqmy7mFmb+do1aFBE4PHqa4kNc+Zhyeu6160jAE97z64f7Z/uLyurizKeYAJ0GSdgzG3zAdrAFxLHg0jA39pbgk0rKlOg1Y67FSCJQFmPCKZ6SyvLW6oJsLaY3lyuGPmwNH2a6uOZVZraF6pEMnZsWyDgzAWkQOoDXnuolezTNDQLBeyYX7h2asvXpq/tvPwdHYdzyndPapfVQSX0ngORvRj8XvheXQqHwFiiKarmza+AwVtKLSZRkARmFpeTGVIDRtiPf/JFFRcRJIi19VMM6nimS6Q3V/7nU8uXVk5XIDis6fvHtxYf+b57dsXly45KzGCaBkY6k3q1UVjisfqDUP79sN3Wqh79dVXf+M3fgM22Sigl6dNM6z2Iz/yIySpqaBhffKTn3SHHuiBaGYD9EBpczqqQE0jq2kikWLgXxKMF2SWvNqIbuDXIRMmqCN/OpM1f2DmkToEZx2slnsJ4pkBUgtLejRO5ea/xtLd/VhXPVbdB22kQ5500NJK5OT5LFXLsKj2p5qUaKJMICHVKdGKuMomICLswOguL14Sp1K4tnnTul9/gU56GkVT4VoyHSM5ASNALOvJNcqIOPV9bLtxcWTIKbfYBwaah6mERUICTxuEKVhqhBqhYiwupxf69ht311auvPrOnYXlDSfeLc+vak0VxyJNxMBWxC3RpkYnw8msXC3YZH64uHvv6MPPffVGloAtGGDFQ4TwwH+x4UkBmybnqe/Skxx9VHIJHoyNCXitLa2asDNStrmw9TUv/ePr29f/8ot/8levf3Zn78wCMQq6YdVUeANaKuSiCn9mDaNihcFqQQArfe10NbCXBFDkE321x0msyipYBgrCdVnBKgCTJZZkJhN+Pk2XYH2G+ynWunI5/KsE0lgGRDPPvWqJiEMybl558aMvfF1dpHtp9iwnLiZraTIjXt3KrlocFRpiVaks7B3sLVpaGBDKWtDf/L1PwSigs+RIoejnWacJQbyohuAlQtf7vXGNaqpe63VE68+wElJLp0n8payFxMpqSZfFT9YewP6IacYcsIf06JJH0NBg/M+4TSLNtGoVr7qqEsRrlzRisEkTYgZqfeXiw3vH25vr/+wb/vkzFz4MxzdXLwhA4gNkoSGqbI3udbaT9YgM4Wq+IE6q7jOqtq0A9FS7vmcaQqcbHmUILGImr5o9aADurl6+smJ3hMZPKbb0F6ZQi8lTGjTspGkpcMVp0TkGxWLm5JW9V+4d3js42eE6f7LinLVnLlzb3rBBMuc+l/aeAlIN5SJMrznktZXVUturqswv/PzP/3xN50VQGDcVuLz9m7/5m2lqBtHocTSsn/u5nwNqxMht7ddv3LD38/u///tvXL8hbnGmf0ANFK00ohtHINsEm7JAI5AX0EwPNZKLa9pmlqbwPVNps5uXZMstV8UtNXWYfOZ4a5MI9jgQbRUAs6OpJB3yAPBZEOeGxchK7ENCE5JURInIKquhgSpnYhS5KFnQBzE2RUizBTIcb9+JLqpgOkixHHAtJOdT+KIj3b06Aj8cKBqS6HsZPmSrkCLJh1bGC+bpEF25fP2l5z5249mbFkm56J7meGBtdBb2JRMWXUtd6WMsrccfUMTlg52D9ZULF5eWNpfdqgdhowacHBxSz6vqdiJy8cEMj6GrhC8hio3FqanwKQ1dYwBaHfmFhYsLyx9auXRh6+17r738ymfm1hZW1pftTbGY1oLHY/OGdvBc2KKNRdOTWyNFVl1bHlijE5iCbG0FMCgoTlLpQXpGO2ylu0qBfJu71q8rS501AmE+/XjPGpQQTnU1KGFljPb/5HD+8HTpox/6x1cvPnv76oe2l2/aCjrjurZc5ZjR20dEdpK9sJd0nZ3koHpKEvGwPtYqkdkdI1+Q1mYDGr0FGVZKmqiRqYwSFB6ke+idCUDrMEdWsSrcT7HkmWzWCxHS9yqAS/ZbxmBYXgcDfkAlzUW0CR6pzfkfzNkhhSktM+lVSMH/6AgzcwaiDeEZajo7WtzauP7VL3zds9e+yhm5Fg9TfEMYAURA6Kpi7CKeJPllf8k/MCVlIRjAdH4N+kGpTNSfrWs1km15R5OaCqjPsxSAT9pp5IRQie0cMK2sOp/+2Rc/88BlqzrhmHB4sjm3+dyVW9ubOVUxDIq+ECObNLtEL94zQ5c5DpDRergG5xOf+ASskbSnrihlDbTRyHggbfSsv/zcX/7Kr/yK5WYqFukEapZ6fP3Xf71CsMjD6lyIxif/gEkFk9yYgeTQpXeTRW3aOujGkooXX5VjkpCMp6hSUriVGIoDxus4pfexviSFhCgTdFHMMKpyGWvUYLOGIoKVSqgmCJsi9pPhMRLcfI1rv05kp+NVS8OxWssqhfZWVMUhJTdEnSKJjTTJWclF5t079sQt9s5Af6S9StZK5gciBpd4rRjUg0J/XelLK9eWnl1Bb50VSn8MDezrjyjaU9W6KiddPCrPUdo9K3jO5q27cO7j5splGtISAaiNJedpTd6KS5OPD/6LT8nDxCAwSim+LWdF2RmV9eJqVnBt3X3w5tWL119784tvvPOKxdhL686oWski0IW5HYtQahzWxKLCyaJES8WzO0W3sWLGV+VQumEJb2YcUisKFgIOeB113fr4GpPTj7EXSi/AidcrG6umay2NO5w92l04O9JH3Lrx7HPXrty+efX5S6tX1mY2jPuAHZO3oV0OSuhkJCU/GugjY1Lq0bqUtYY401l3HrxhdtI+v2x3SbMW4cl9oRrXeE69TkbKOtiUIcLKTTAuSZwnU0UfhSZauCdciiRPGQnEeyILKdoCksCn4bCSeLFlzbr9KnPhqh4rxSczEZB2wwFXp/vzmytbLzzz0RdvfXxzZitTO/YnSqJSKfJEnEG5AiZJSE5mwVDSbCOlfimpLsf0iYw+q29G1oJYvAuikDL3AfOOz65cNcWMKYYDJMgTL4PGIbZscChG+MUgWE3PsUTCYbK7n/vS5w+P91ecGqkkd2c2ltafvfzs+nwO8FAIYix6wi8xqKgkL6uB2UMhq1fnF/7oj/7k1S+9ZhcnwGpZBw1Wn/3Wb/3Wd3z7dzS6ATWQZ/qJsoaxFKuf/MmfvH7tutzefMZJZzoX2Q+vsykGprCstCcpJTEZzm0dWbCmoi0vS0IoiMOnTkqhWHjR9kJkIWxxNXMOyC9jKKbNIzVLkcutPzxLGx4ZiknwScgiwHdYH2YWO+PpCcN5MAiYeBssB9gq+eOpi0M6ISeg9mUM/0OmKgD6iGxIUug0SQ0LYfRmaFxdX5+/DNSOVLvo5nxl7Z6yq0gk6I/wATjCkq2jDnQyiqOtWJs7NvW8MrOWFW9lcLWZ2UVRT4mm1/BlSB6cO2vnzAwQD/ltgdcKWZk7u5fyT39iY+bK8sbK9Y2bN6/efu2tL7oM+M7OO+/ef9feEhM8dtSZnMvSK33EY9rGgdphIhU6DSpMShJjB5bS3buN4aPLFDu8aCwN3+hkkR/vlNljt9OZ69w9Wpm7sLJ86fKFrYtrN7Yu3b6+9fz2elY2BKmgkc1XkNNCi0QD2IZ8JvLz91hiENRVOjJMwVSBdf12XWBs/5/BD/1Bow7gNq9ZSxGMVCzngqe7oc8VPsONAag5VypRQEtOIwOFCBGJ+h8PCdQmvb96g2h8hsjIvFIILOpNuIo3fQxY5oz4LGx26ZWxjfmV44OzzdWtr3rh6+CaLSLGKtKf79hqSK7oEgdRnHQVO03P81IerIbyKMnRkuiBGkMgsJ3BiARxyOozU6RpAq5ecdATQVOaIXwQmpZF8CML/krvKJXNbsu5072Zw9d33njz7hsGuVcWFo5yZPnZlUtXrE2N+p3oMjMQDpf4Vo32meU/Kos1J47PBa6/9uu/jmpigSBhTIkCoN/99Kd/9Ed/lIL20ksvmRn4xV/8RU62f/JJO9Mh9fyTP/0TG6E0kiDPGjdgN3Qhg/7R2gRJnTUucHyQdUg0pvl563P515yUBrdMVtQ6k4liFiprysvgz2FdpGCbXprEaitHgJMFmk0xq3yXlKSJSXOWmKTufzoCEyZm/CmmK+dQQLGosHlh2ku/P/k52k/q2xBU+zkAxET5eyye84DDG6Ie84LgJjVO6aNZI5dBZdMQ8ZtjzCwWDUOZ5DQvqoNo5EjNzJPyAvlXluVJBoPKNdpuaDVjrB/cDPkafjpccyzcK0wZGF1MzWbatENzLiq0pCFbwdXxpdl1uuRzGy/d3nju/oxzAV1E8uqde3fSUTzccVZd9sDTcgyzQXtTpGnMMDJlJ5XITbUr4UVUiSQtg01NVUlLJqzyOj28H4XVqNeCsT7zqHOWim27/WT70jM3rr24dfFZs+RnM4tZK0nh1aHEnWVohGkZ5spoTWWpY370mQkctTgVkhSmzkYjsrAQhKWZqQNNhda21BLZGvmJHNEf8sMECutFGSUfZXo19QTdBstRFovLo+UIhrEpUJvEUkwJ5EFMU/dZaWw+cM2NZUf7YHLRDpnrm9sfeeFrXrr5sbWZSxBIR2S1FiQlqqGZJk0pXGURgtMHqoLHn5bqiFpsgoY8BFqTlhqqDy6pTB2kN8ouDKJTeqjdhhZubF9TB2W/BZd9PE1M+stMxlmtPDDVksspTndmDj7z+c9WA4iCeScPri9deMaMwYaN6xInZyWLISOMQm6omljyIBVq5O/+/u9Zllstoc0au9QunVBkuW7q9ddf/8xnPkN3M7RjSkEntHdKwbWf+qmf0hsVrelRCz50Xd3ZbskuXQzGWWNtzhT2MT6vXLnk6Y6Pb/3Wb20FUD6Tovkh1yZkliDdWzbiL35lCoIJ2ZV3L+mtFOiNNsE6zUIaLUImbxgvgxWmGAkZ/dZpkQNnw4YqRd4ZDAl76pnv/sjb08zjYFTs5TGFlfQn8uurkn9aHI/aNTFVOpR5dSfRmJc1wZuXtEtZz6DeEomARQ2j5ZaktO6Fpp7lWe0xz2gZTbxGuMIwBwVo3DqVCbVN6qMSlsQeMUga/Y8ObaOaSdK/+qwnPDLIp3Lr6ltuGg/asDTjuiRq0+na7JWvunr1patft3u6d3/33Zdf+Yud3bsPHt6zGNE0km3qx6fGDg8t/wtE1YQAJkZNiwFAsE0ZR4MOa5nUsTz1KJ1bQ5ldXVwxS391a9sGJufcOmtkYdZ0j8vx3E5gonMp+FVdt0F+cLYSEhllc8zk+NK1HTVQVb114gy8VpO1+p/73OdVWxNxFnO4LEoTTJAz6p1OkT8SiecFbR3dAMdV92segFI3wJWM8Bs2VpEX2xXuhIzIVik6EyFrXxE2DpEX9NkzqBJZwmkFyIN7B4d7bhW4eGlj+9kbL968dvvm5RecfUA9Xc1OjuWjwywwkeuUYSAhEQXU2oh3ksRgU1niT0ngfqQ9f2bVuvZlnNffhP4Ekv9UzKPjq1tbyZhkEmvKMpF3JOmApLNBTjNfZirBkUR7M2cPj3f/6M//mIjTfTCcXn31yvatZ1+04k4iSyoFWlHADFxOvySHTIkrNa/c9V4UHc1IZUqnPIst4At0c0gkOHPCGq8OIDKFiiPWuEEuL5/7y7+0HQpKfu5zn4NKDUOf/vSnK71oXvIgIHt+YI0xNScxObjtW77lW+Agb7ElmdHBTv7Df/jk7/zO7/B86Yodo9Tp2T5rF1ZubFxElckd6QooVPA6qCigmmQpiG09qcTJUeVN3fCWGYAaNMy7DMcNVXgTGWTJdPVVI6tU65FIYup3FK+2i4fRqnzHviQsv/US9+otxmliOp3JV/2mcLt0qiYMckYiuIq6yO3hp0K7IEmGVCIgQmYGqopwiHMQGTHqfVTuZDWkcEindiR28P++P8L1n1CjhtEhhnhSI4rKzgGKfFoEI9Es01HuUWdSTsaCDRLSyaPQzC1cMPq2ftl8pDO7Dyx+P957eHjfnedvvfsWvANzaf9ViBQuIgbFX6nReggBtZUkZOrJ8gnDMYdk/trN689fubi1kgtS6biuo6XYqitUVOsbTq0onDXGtmSjZa5vV98IfDIThARVxqtPV8wYDTLS2RzqTXzF4GIYktVkM2lxF+fWrl6+ef/gNVBrxSxPIkUjQUozg3BLXGo1tQ8lmWUYiXgiIQVbWAmS4jyAWut6RVuJxEBK1qxgaZ5DW1IOHaOmPJhBO15w9oiKqWe/sHXh0jOOWtq69dLtj6zMbMAyw5nkZTFaak52loF0x5Mp5DrrOMWXVCrmPLqtrNrUORhdxhfB0+fPX9E2OERZi9DhxemZk6vlsOU8urE3UFxM8QiuRdIWMNHyG8OV+wezJ7snO3/12he2Xthw0ZSCB39XN65dvWLMS2OAzjR2ITRCJ3xilZhCohnVxGJc5EZnMxty5+bY09TgGtgCIkvuNKrxL5D0yssvOy/tytbWnXfeoYi9ub/vuErLd1uPQ26v/Ka1de6ITMRBoq2Rnh5T0yT01V/91bBJQtnFXMvcRP5wZ+eXfumX/u2//R/5d+BRqutpzjgqETx2BlKBplswV0xWoOrChl1e6xsb6z4vb2/Bvs31TRrilUuXNy/JAbO+vnmRhriynB1gkcMqMRWrOmdNYzjKTD9D8cSEZVWkNSoyVO/2zEl83kf/8RzhILDnslER9GNIf7CZeJFRBa1w1PnUsrRe1bSJl1hYqaCjE1HAR3W8g3mmQKv+xAaHE212LCQi2A3hRaOmyTmXsLNgIowtr/X8ijxQnzjTk6lNCKb4kwfp0QgQEUiGcdZehIEZTg6cGNR/uOCYmYU14HNx9eq1i7c/8hyRTV3QF4laVL3RshIXk63sDTJZyWFuMosNQZthC5htHwhO5bo1i8yrFICM9LLQdqWXoemaHNl+ZD+vrQx0AAmEtOhpNYHp40mOpL6E3ZKoJVrHZ2sL6wsbc9/0td80s7T/h3/2OwfH71rDshgt2Wi9UjHWghc0NeiOZiNreHMyn5PGS3awBr6noJJaJqEGg10tXL5FkfcCgPSA5WQYEc57UQTOlHn8pJdydjiftf3HznG59MKtF164/dHrV24tz7qjftEImDGbtVyvY52J0Y35lbX1s9Nc14uQSgs5KsZAk48pTiS54GZRO1Ca9EEWBlPTsnGw84JVyqtMVqEluxqMmntsAZEFakg8lDeZBORhC0mFR45Xs+5rZ2bv1/7vX7l048LD3ftuyDzdPbmysHV7+/kLs5sWl1qUnuqQVjrRI7lId9uBmGqwRSJzMzu7+8try//tv/ze/+1//l/cfrG0uHL/3Qe0MPCkJXVZ5/7+buTJZX0bG85ZU4VWV5bffvMNShxQ01el47EkK9CQT4O4cAoewZTGNSLZfVsy923f9l89//yL8rW6uu4cXdjkcBBLAO7df/jv//3/ifuURHAmcfJpDEZYcZKYHHh8unfvwbtv33lLfqTYhisZpc3xGRsJVyXPas9FQ46m3pdQ0lA3do29XLhgmsTS4kvesN7ToryCw9zAIBTixYfUrIYiqxOpbEv2LZClzUc8fKa1JgVVk5U0m5rkYhejJNL2FAr49FItdZzEmfl5he2hXbYYlUd6CR2j4qTyizfrWyp4xWPIleIhqHTShMTgVa6hyCwTO2sRuaYKeVbMgidAiaF3hkes02Pw3n38osdX5K8Sr7U2kSIMIYBWokbvEtJkBT/JSv2JVyEkZKROzy1FQpmWvBY9tUgKXAv05h1rYf4ubFRjHfYShkX/mjnOQQgBQAJblVtXPB1paBWSJibvSUati1PymwjyxqRAkFnzbUNJaQncK8ytqm9oLgQq7x5DwMnnxCJZySYwUacOLjs7F0jNzH3k2a9288SHrr64f/bw3sO3nQT3+jtv3He4w95OFllYMWbV08mukXXQy2Ypd63rw7ZqkwG7SrB124gS3ibXEwnRLMhX6FK2cW3QMzsB0ZfTHtATD6LZRuVz2+HZqqnnW8+8cOP689qJRYcP0nUchTe/kmtz7GuORpVIxZVGUZd5mDQIIdGDQkXa1mZFvgLN54zxinXNbMVERvdOd3ZPdnfcCmG3nNXg5io0SSSVZOwdLM0u3tnbu3Hz+rGakaX1ihsc0swy/4UYVAD7wJAX4MZOAm8/fH33+P7h7F6u5DkzC7a8vXHV6bh1Q1fG7yeFrLngLjMhq4DCCjrLxEI4g9zv+Bf/4r/71//amtu7775LKdOplD2VGx45nZKaRDtiCcIMlr3x2us1gRxXwKGoGlngmpcoYoVNKoAg0gUr8MuQBKXKQl8p6s9WvzJMhGJw8Jd/+ZcdCiIqNj4ZHOYHxFStIw2pXeKnHuphMFxF1a7SkhAbAVQb6VoqeLjrWmzirSTSEQ4LVNOqqexphWWROh0m6NtUM46AhjkYh2D6IIN+2igb2OcTCHoHi501RAoi116aMFHZkBCgiUxGHGJgQaRk4DvK1XvWgsRbyiblBLu6F8nJbR3usklQ/1PoGa+qukEpDENkeBQ8soPj8ZyqwMCUcFiijMTyU66sJNTxoLk8h06mqEoLwbXtvVvgzqn5I4sSshqzbUiCF1TBfgQWv4F50hIwCTXEGgRrOoqAjIRMNBXU8ZUZRD7tBpi1zm5gkUhQVCAV8U/te9JIexLzuWPoqGx3TK0onTufvxVyJtrpJM+d26HbgU6dv0xvnC3nsm3KlpsxV9c2Ll3beP6jzzvm13bOgzvvvvXGO6/d23nXsUtZ6eZcPgM6x8YNAH76RTCO2qq4dJE12CIu9ZpwygwpNZeYdekYiJGeUUQUhsnjLM2dOz2Y3Xcn9cmpVevGnW5cv7V96erW+nZdF58hNpe7O79r2fpwLVVYW/ITWIJTKY9IYYvUhKX9JV9xG83IlLLzaItgbOQ4cwUBuEKkCkiIq6LxF03bAb8xia92qchOxDHaagwfwbWmoRqoNEdffOXlB3v3j2YP7NKzvfjC4ubNq89sX7y6YsWdtqW1hshWxeGBP+nIRrXRkmXUc35OhRT44ubFn/mZn3n++ef/p3/374AOmdYPXVlfaVALaTmBb0d14SQSFf7h7h5r0KZaQjRwY7c8JzjlyRvTmhdvQAGumTn92q/9WkGAIz9VbKevvPKKbae/+qu/iiqQAaGAGv+2s/EgEoyQBNNBzNXyqeHjk43i5sQPS58I6ZfaNp1QjdFdRVPNSlnoZwdHXgfn090LLAmhQ+X4CQh6piSKUcHAJBzLwsGu6lIRCU6CP5xpvNu4uCn7gA8IXtzY1AF3uw003L5yJRC5fsFTcIR1JGiQtMrtblVJsxcnUENUKCkjoWQkSke4wTNy2qmDi8pLzEQ6+engGrnmDEdxePLMSQyeDFeWkmAvzk6rI+fCA5v+NDS5upKNwAweDTGUmHXKBWiS8ZWAsRyKO4XO1GdKtk0yVUyWpxTjIPZVByL0Hdxz4EMSbltWslpJt+VX/pkKPFI00J/yr/UGOEMZs01KVa1B69kLi2cXr16/sf1SVufY43i051zo3d2HlFxHdd27c/few/vgDgJmX6AOmPK2AwGfHBikeVPC0dqs3smzTWQEtM0vZ+vV/PzFDL3cuHx5+8LKJSKSMI4nmVnJjvr0yqlFoETHOGVKwgb+hH/R1IpFhW7noFYcfJyPJfkThk7zGFWkCYZVbdCR6tjOsZKHjIYc58pzRhxKuGMiRQp9iLVHN6MS13Jm2GeV48tf+uLO4cOjpQMnOeGUK3RubF27LKtWpJk1izQUa8DmGJFspc7UqpFkm7A6xdvmj7lnn33mJ37iJ37s3/ybT33qU7/5m7/5h3/4h2+8/Qaafvu3f3v3wQNKHPVN1X37rbcMXcGUzhKEUvFkTAz6lXSWw/207QzPKrMlu+YZGB6+53u+R4QCtgcvCLOCxJSre5TBGSBodY9niCBahuemn3+f8NGn0uWn42EpU2pje+DYTo1TPc/bINj+p9GKz07CS/qeKyt8Yj3DMydxipzRNeaHvW5tuzYTcnlNCApjIzdMf9q5U3prkrCoL1MzycuJsRhLWjC0DChkvKIfrIP+hkX4iHvecRhbWkP05DOD5o7ZXFmNSl7dpJA6GZpBp6iawpBUCDXW/eaVTCVI8U2uvU8bpDIi8ZzEEJa2fzEbSbJxO3vf0uedR94Io5N4hqLpz44EzQpt4gGrgqoFeoUbYV5MWu/oEny2IjbUAdI6hu2XdhDtY/Z/H59UYbUqXV8KlAJHtznBavHUr9mVC7OWlWSW8MLi6bYO3+bZ3szO7PbZ3As1p5IjAw/3j3fdx4uHOX/J0ToUupiSN11d6raubw2kqHmKyVH4LIyXedYqLiN3YZTuqmM5/HlX6623wYE4ZMCxGD5wKGAUrpYpp3D+g7ELYTKcmFNEFUiJ2bVKSFowiniFlHKKTTrcx+t1NNB0EgSmWoqBjIXTeSe7Z9EZEdZa37l/5637bxzbpT+/n0MInGu8tmnv1Ko7ouVHMzJtwmud2Vg6fcqmYW2QreF7TuDQSVxdK6UAEi0tr1z5ru/6rn/5r76HuGCDuw6A0Wc/+9mH9+8TX3nQmv/Yj/0YTeLuvfsg5vOf/7wnMLIQxPQl/DpeXqE0qTmenORQ2YjtxRdf/L7v+z4B1RB1T4qUl+bFJz7xCfoRdYb/DiiIA7f5LAU9zQLKfTIdQ+clzJ4AX2UBy4MqvHky4JYfL23TruXiCJrEHz/dIZC38icxnXCx8Dz657NzITbaXJCRQQxpAzRlOqqUaBmxKSnrWuKZLBQNPAoiKKUVx3hMPJW13DJVibKU346nhCgeLP3Df6BGvlEiHrdMKDtQCPg8dZC9gEhshIk+YWL7FxDTAojy6y/xKf8sN/Nia5YUOzkEiDzLDBVZJPicvcIWtWzYQyj5GAARtfr90JaHYmHSwcFGKm2wl8qR2bAJrhk2kd8aM+KqngjokaiNeoGLVJ2J57gUV4cyqQzwUcwrqgab8edRj6P13/AFaSGyUgyZA2UqkXqeDmVxJPtCC1Hc4qC6G2eSl1y2UiFON3O5cnScjopyZwWKM/3kzSSJA2Pkh7jXtg1JiNRxuBGzDpJQISFjiISxOm3GtcVt4UAAsIlKyCo0bNToYWTBUI1Vhl/NM/E0NPE+YXLs2jTitH2xeOLQv2F4igpGZlF0jHbbUESYlIIDbKgHQVa2Bdcm+5rEK+hEGykCaqAte6Ez6Gqn18zRF1774sPjB6dOKrdYaWbuwtL6M5dvbK26/LhW0KBHBTN8B8FjqvRLdCiuvp3UrYLgEKpqiCRH4RnzW11bAVLOpOR078EDsPXnf/7n1GdB5lZXOTm948d//MepEhKlhdir0CevYa5zilQP6xWF5dOxH/DLOl4V2DtN7aMf/Sj5Btie6k+TxQMNUa3jjX+VE8Z1hUR0Jtcmxqf4fQmujQjzMER0ZWRkkCC91EMykSEzLoKgh+ngHQOfPhn26qexCPYpIdyo6tpRtR9PKUpbbecZbSLnn+EkSH96LyFKuoJL2rNSHtBTAuIRihOUwoEmr5LN2h0FwIikExJWzFJMfg+zuA8aipOJvaW3RYYgPaxmbFGciaHKm6oJLYCa9gPeIc87jQ/qYbIS9ISMBgF48M4+jVxmmTcUlu3DyGsaOqedo2QzixasCwr/5TJzzZMuKpsyoZBpUr2Ip+jGE5blJJrSNFK1Bu+xaACJj9E2SVZNKtvx0fEUPaPde7yob1FVJNPV4T28va+1hEJEZYrwT1Sf5CfkZZCJF8Oj+bcG5QsZOj06GHxrqBBDBGWYH0g/1sRKLTYOP9mXaKuVynegtlinW69NinZS8wmFIKUTKgs76a3T1Hqp1Forf4MwFmnEpGJGel4qWvLfTE8SYzGV6/s9+JRcYi+MhuB1c+jQlle+Kukoa9Zcn6ytbJIlATrvljEW1oYDzcz0K6O/5cLz4wcnD//05T/bmdk5cZLqIT9zW6uZCb28cNkNg01lWFwkIzv89omYRBY9AnHI6yY31aamWfHFLpSVVU1pmmIibiZBdbK+tkGEv+/93u+lHJBFlcn2JkPIxF1wkXQfk/ZHiH1aoKuadcVQIcWj8vQn+w4iFWt6f/Znf/anf/qnza6aOuDBHfIqGLzTsYVxnsJyvfNuzhb3KS+VsxSMhPZs7a0DSNQuMTNt30l0+UOmhMKECdaANB6yn0EJFwLim2FEcOClASkiW2CqmMAZyNhz/1Zk97zCSwsHcNKz08VZVInDM7McaVUHgJM77zxA8M6FIG0yAW+RZ90CwYPtKZlAp0/tZ5RAppZWdEASJzLA4/HD4QaJLK83AcpYc1oFMU0Paw0GPVrheueBQZKs8cawHKnqd/AnO7KuQM2OwDuG9sew2boSfRAsegYHL6xublzyVLjQS4QyiOyimWoJrIcdctJEOyd+KO0aLB7LbzNgrMT5rBKe2POqwIXomjhYp9MVw/JR+4l7/yr/rsz9OXrtitbPOI0O7W/62TLApgmQwdRED4KWYMo03iN2lhfawc3NIJlZQN0MY/XztjYH/Jjkq+pgAsdmTreGG54o5EQMeoJM7Tn1VOo4J0oSW7jvG9mhXLKErtsUlx8NSIXOynEik3x18YqDA052ARXJQ/Yn3J4esBJF8zeUxMj8Obe4ZqOGAiVOWZHDd3cvc9IeCkk/XlgUsZIdwagvHiUv8eqBgd6MiFFQioH7M0f3Tt79wttf2F3c16smn06Zv7h0+cb6zTWbv0zomiJLbpw+KEIcqgQrNp5hU9d+VUuFIO6qSusgKoB5PioYzYsES10PUX/SEUJOH6MU2AnwQz/0Q8oAAG1d3Uacpgm0EWLxyHuKp+qe8mhFQyXkpAIwIpSWdEXus7iVHtlHPvIR9sKCLbXlO7/zO4XtEuWna50Xun3q5MyM7qrJDZ67xr5z9y6w01NmnJ6kDvPQTqwN2wnlSYA6uBhQwkaKaMNxn4wUObH00loPJ6kzYEXY9j/65NrB+W+44dRB4r/1xNL+Wh54Y3iQSoOvFya24WTmL72GlIpH4ytF7yyljiS8FVBhIak0yMFenDFZljyLse1Zfnkb4q8Y4sXWjtUoYqLlDdki9GR4lp2K+QTfBMXD119/s4kR1gujEfXenyG8C33OnYB7qzVtQt2jFVbXeNs7o4H06aVHCeFjPGxsSs4pI8tOm7UiZylry6PSRORJNTTSs9FHyUpydSY1k8OU6dqIkim7p76KVGjMC7V/XdO5TsbLDMmNvflhX0Rqfc01NrKnzk30psBBg1pyEASoWl5Ui9Ya0YEk5KUvl0rbSXlCOETXiGOzYOK3mRHWJHMxPBWj8KP7epVaZiQ6TGdhwi48iWw8ZviZeHjM5SmfaafMXD1SKkOcSYsgO8ZOd8hNeBhQxdQ0xGFSao7ZpNk6FdbxNAf/12//+umFk92jvdUzErE2v7f0Nc9//aWlK3Rb21wPzxzaAVai3lYDEVqLXACXlgEl8Gd1VX9KQumLIVHtsZgBk7BDn1jaf/THf/CD/8N//x9/9/fVkLvvvEN1+u7v/m5wIIuGbwoWjdHlRFxBJoWR/EsiqUy9xLaKkz0p789+NsC1f6DGEqh5dp2c9kkx8aeUDJlvb21PO43vIyVU0q6u4ADNkA6AMrCvdUDI2J+FhwFEe8JgososazRE1R7TmoywqfDFU1r9bLgJ9yaY6F0Qn4EJJTeRkmJ+pFnY4amkp6Jiic46XVwciZDNGJsXEBD/RmNLua4kUnD4xqlJShe3ELntO6GE4s2aOE0C2rI4LqcaNcfgHD02HxKlSBbICiKT6THmMw2JYTdxMnmvxVzxE1mKDshQfK2bkQU8ZLrO8JAYtAeZTs/gg3owyVeW/tPmcxC2G0ZX1l0BcNmAYEZ7V62gsfnmAvRbdcfeutPxL1xMd0ajaxCRkNAowTF6RCsNhE7X0RZFVLVQVS7SNlQO4hFhGmMvUYAmJcID2hg2o0kW2AQpSoNKWoMHJ1jAq7QlhSuJid9EThHNl3DJf4IMugnhpGTGTOLJsFJ8pQTirQiqAnENaoQgI/+G4VoTk1KVW9MYOjqBIs0Ql/LJQr44MCoyUBu+gAwBoPRzpuwbARH4scwq8w44PCeAmM9qzMJECvfAiSRerW26S1am5DP0ERzKk9soj+1NvXE952LQsQy34WE0u3C06UrWa11uVi2eOvL77f07FuXahJcG+GTx6uq1K8tX12cvOm+LCB7WKtyal0BRcaIofY/H4EGpkzuaB+IZzcg3fsM3fvjDH3ZvZmRoZkbNJ09uERWPhCOXtVQ7nxNevkcSf0/WJSJ4FZDNYITmv4bPQGd6SUU2oWo9peFARiLuOVZl0H1UTnwA5Y2GQBAC0l+Ecu653jGb1gcxBCbCQT7hoKeAQ4TD2RIG+g6DblUDk04NzEeyc45ePlHVDF9fXyMcUslgWZXJcc4gfMSoRMqCEdCawiZSuuITG4Wn+o8l8IWt6BGejPDfKrC0eJ5OV0B+QlKq22B4IKv257Uib2Q4sFu8OjoY7oflPyfDiL/0WVntbCKPhYTCSYdtrK52TgVvna9oQFrmbfZmc37Mm6dviidZqA5+FIEyTRJLhm4ZD5XWOFCoZOEdTXDrElTMcsIeQNR2utvNu3JnX6sPVxsNi7wkVFmNgsx01jrzow0/7OVBuiSkXVNLa5DUWE3eLeGq8ayuBJgbWcKXlDmjpqQsAzEBksKnTP+1XqaimuNLu9KQlRUelQwt1a4o9lIt19iKARWetJVU01JBMz1QtU8VVYDRSgLZFqiWbbDG+WvY6hCjjL0qyklDGDlpiKw0P8ijyWmfwc3wqmWnIuMQ2oLVWedhanZ9yc62GkEo+MfPx5Kp/aGonDl++e2X33r41qjZyMIAAEAASURBVMHcQUaOj2ZWTlZubd26fuH6xrxDxPXxo3yp2I9oUJVHzUEifTzm84QiRgArOpFzLnOW1cUN09UItd940XQnDxq6g719cjNVCwIlFfF7R32eyN/2rdM4r4KT+GIffnZNy1fQrZvZabrwqI6mIZ3T0kw4ctHb0pwdrC3ZiWGir/U7e/FPqkTwCLKw4c07fAF5eugmSYAdNGy86y4yEOQEB4EjPbG1QtGmypQxq9yf9jbCIPZdt9Xb0GMUtlKvhIK8Ow93VSFYpjIjiT2ptciGYPlUez1Rxr6N6hjB7zQKPnhgUvvKcBl8ypJMuXhFb13DK91WZUqnW7kw8AdTF5YDEMgX1jgvqqxY8JdcJV+hI8jOVdJV1yuvIaS+64RVBWXYPGCQ5TAdm+DGE72zDz7u53Rz6l6dwX7siry7d8xlfUnMjddJu0BcwNIEMSD9627DWEbdu7AGpqGbIKZPQF5PnnghzzeuXcdJIAgleQ5irq81gIYzzYLgAEJydBuTE4vs13cLYHSUOlygTm9X1+UGOGdjRmYu1bsAWQoASalNwUI3kZBQ9oVfNSvYsxtybdp9f89UUg4tKDBzAhGDG+aq0+fFGrlSN3Nci4zCxwgSu6j7qeTm3CIzzjrEVvxXr80Z6h0nO4Gfblnz+QGNPEhCwaG6Iui1PrWWWJwUTn9Oz6tlu+lrnpwabYgeWlUpTwNnJYMlMamw2sDk30zo63de39l/cLLmYNblg4d7F5Y3nrvy/OWVK7ZqCChwEn4/Sp/uKOdEIRdl1iynDDiD2LMUCOcphx8KO4sAaiGuGlUJJZ+dWr8o+PdL/O/SLUyvqtvPTkrRsvfO0nt/ts8IxoTjXuTLU37H4NPeOPEvuIpKjjipHuoJm/avDqgVL774Ip+j4eq9ZC1Vzyfh4t+7eOh9em2W7wHEB3UTKxDUF4aJ1Z97G/x54dP9Car3mFBeHCMJyDLsFk1qNK6Pk0oknQm0DBjHsv1w6hrCHWFUzaqtYwRD8bU4Ci5f1ETBhWJ00gNLFbOsdUb8aBZEAVTE6YVT5NuJ80WPgE1Au5I082i8sCyfaRvaqUtBBW/TRM6tqN7B7sIHIVKaklZBvQirzqKTPT8YEh22OS+6GkzEakOwXCUtSHXfg5sIw15B8BMBjEg8U7hreLkiuCCtFfZ6GqW8vLp+cfPKzZs3bz93a3PTPUeJVgeZk5iFsuq6eBBAjIqQYfToffP63YVjlI/cKjJj4WmtiSik5C8UAMLZObsV1asjV9hWUwo2cwsEhgMMeU9WbU1CbsKE91h27Ejl3TCktNqMEQ19xjiXKkfIUzRKIxyMQRqLv4bpAMJbwFir10i1rIg+fWz2gJsBas5A2L6yjcKUcfStgvgBLTpFneysXUsrcPfeHdmxQ23BbbF7x1cvXX/2yu21OUfjZldDhkeD3CmexDBN9FSMw+uUq/4Z3uGTUk646jHZnOBFoUq+8C4jXwQoIjUxf1dA1iROUThJ8P1+U9BlsNhvP9smTJuUc9tMe0iRVCXpGKZLuyMh/Sy5kvgxuCBjiinMApR29d5Voj+F9empyrHxgo3aCVrwxz/+cUmwGaOdfuHEdPWDetS9N99+66Hu7737aiPVj+W79+/1+KD31998QxJWuOsad43lDRjpMkl1/JOcaCHt6sYFHlRuH4jIyGvx0Bp6ZCjo3X13DpZkFhhkcL88cIK3WIytC0tZKCNOxgtqG1bEcOzcGbKUJqCnOwYdSqXOmEwqQl5HwqLuNZ0T+xrCnTsCAMgItFFTY0CJ+GEYeqB4ZLIKHcZFYktfkzX2AvKjBFh6YXl4mFUzzWf5ERvE5NoeDANpMHbv5NQscfIgQvTjTzPTOZgraxcO3K3i9AyrJBfOJ8RrDW0yaypw02Hn25e3t7OWUBc54GhtwSVXPly5oud8acvxDRc3Ly+vuMzUiGFENwmCrrq1A6lmU5pIPEpOes+iexpSsatJKPalrtOPHEbnlPyq8/zruaOfKTXNrnjqfE5+tRZEGchywSPkGwWvSrnTAzcplGmbeFS+nviQkksvQhufG5E7UFS21KP8BX6Pjq9tXx3iKzgaUxoto7raOo98E/94p2QoaBfmFm9dunnt4tW6/kCSNGMNZ282EPZRssbIxpehsxpvqT1FK4VC+4wLdjK5I4T6Kl5OeKq15tNH5CABUhtLzU6M/CTT/4lMEzMmngIoQziK0nOYUx5sZMELL8nCRMXoIFzVTPn1yYlPptUBSAEv2pIrn977xVNUfHbSnYpq0KnzhrEV09CGdqj25r1xcySGf6bjZNlVLt2lGzc+Vqw2zl/ikyLQHo2xIde7/qMIAVwPBaKZPsjQBOmGo0pIH9Q75q3HB1Hb7wm7syszaLZxTQroxBOGOiR+mZEXVYQ9RvHPMoYQFfQIyzWyNJelDK5lMCfdXoSVHVCTuc4SmvShcgJJGvRUk5wFkVJRhKmatlnu2bQX1Yl1R4KrYwE1cyTUxLDvjPDTnpt+nzywSabW14uGEM9GzEd1yAI+xE8lEgJo5bW2UcOgCeEzBSxrK0sOPTT+SJFjSSfDHgxScbB0ZuZBkZ8xrnTZ4mpNgaMpaumPrnrx0Hw3SjAcJXjliHQrZrYdunT1BuyLVshm3eUqmT2hKvbaGpQTRRC5lLmTc6N/in2UJNUUSXGwz3wia9iMP8Zwm38lWtqhiM0HMeGHkMXO/hUhnM0ChYynxfDiCV17iB4dYO/a9jZoOqr5DF5qPgVyh2WJEJ1UPbcZIESA1QWrWO8573/74uUbl29uzm+QpmAofHVmAd1KyIjJI2bonT5uXWqxww/02+smPcVGrzUpcOauztwMbyldICAyWmfvtWTV1EZlqIby5JMZxe6RhP82H01tJzkVT1s8kZUpH1OvqJomTAbbsV8qD8NDNtvSk2BMh1JVSAP5m4o4r0qWPZ+egjNjhCLBtNG/GJRd++SZ4dRJCLK6vPp4oxDtBE/D2Y4kivgQ3fDbaRGTjlaKvAYrqpusAqge3hlJiQ8B0s1YUBq9dNlkk6VcNBa0Aqh6k1mjgdRAUOgFGnpXaeFTdMY332QDsORXQMZLYi51T3KJM1BWWFYqj71jXNljA5xTq7PRB9ZEVDOi5L82XgNeikkqZ2KzrkXPfSmKEhvB5SHoKYOYW4vyOKV3XJVZkMpswKv5lswX25pX3pFaUJv5FoZNFUaerVQ2z5NW+YyrAwZKbNgka+ZDViyQOtzf026lhvrz4gIpU/aAUavYMZdanEwe7GXZTSBpZWlmZWgPKA+apCD62cn+7s7uw51XXv58DyFEriDTwjK+1PhYgElhdbSyKYMZEKT91bkMllNTCY1n+VToOsXGEGXH0gVt0NXtbb1mG0+Ur3h4kItmC769p6nRpwjOxBQjyWkoblbk6b9RMiI2bHrnlBbJ36XNi5OgPUkykd+J7ULdVENoLWRTdPMUQD3OKxuX4bkVIjqopJUkDOAFNidQ3TEMkwbUy5A0xB4Epnzli1BpJB2AEi3dra046MR0zunsC6MhJU+OV6pBTe81vVACVgmkZDvTE4rPf1FdCQZ8e+7i3O093oaK/B6uZf1eXrQZAYOG6zwxouChnuSMepNcVNMtpiZbYXsnLp5EhyvTTj6ZFinS1p+cugqxL3KGR9vXhwToFJZp1n6WmkEmi9Oe+71TqUYsZc+STcjJ8oIwripO3PM+ZhvH4UiR/QggVkWt1luGA7LAMC1eyhcpobbARHWaXVnMFXwOi6B52GAwW9fXsmF4Cwe80DQ1b5QBIJ4xbyd81xC/yI9PHu7tPrx3/4FDEWo7HQSkDII8xtA+SyDIEjjSFsElAMoBWNH70ldVJWQ2iCgj1FLbG3WRwGOdYpIyOHbTcM08KB28xu1aSzhSGP/VCLFpxKnIBiU9MUw6yOylxfDGUllAGaGAL+XW4iHvIYwpZrfn1knhVJSsQsDGFCWLr93O4WfRkxCGl6RDpWMT9QXf2tQmDXEPWM+hJM1ThdOjF7Y9Voc0CAvg0JOYS9j4LPJEmAEnoYCUBqYSyoQeB61CfYaS4lZvwlVbY6RikuQHfuAHbIU0ABJPj9RZJXwOYaHv3HQ9qu9UlAyW6SwjMEq36deMrqU5heAEkLi4qlXu5SKCE2TMBUcpAbkRQVTF/DrV04+bLE2RrL79+t21i6tnC0ebW+vP3LhOA16e2zA1LErrpiKSpNdPspjApf8FntLSEfR2KNENganwklzyIzETKNiY4ElSR5/ksQ7TUYf42M5rDIOQiT05SSJtnqLblqtxUz0nSQs98ZvfAemmYoitz466cbBdp8KN3rscwqRQmS+ce7S0+B1t+MmnP9kZI+kEk26b1P9Hm4WyF+2AIxOPj/2Kc2Jj6MhfGpvq1aS4M7//uGnyyxbjwoshk9O08STk4LXcE9G0j6n3CXvjvVYzDVnW1zv39Yg0V4yP2fRnFmcNRSFF76qNpwsCLPPJLNXSjIVnN7asUXo/00BJxlRLqNZ9XtUb6gX+7t6FfeM8iZU0lCk1FhpSD/nhswOKgbKnFKhOnh0hJ0DD+GwivIAP1Xi0Yc8/ExkuJzZcEePJQEydw373bJ/i5D/NuSxLcaK/s0nTjxvZlj20kXBPzMKW3iL26JtJVVUWoUSr8CNARXlcy4hNkSl5YbVq4ihYzBl8oIpOHalgNQFqGJ4TB7IasZsD8UV3QqBUNTXJRRaLyWngj+HT+WiuD0DOK69+yWjs9rWrPExImP4dLBuR+ec2KdzkyH7X6AO1T33HTp958eZGrtWlxYfubjY/7xCEhy4gPHQm+8nC8s2bt6CT6SQRuddPDjMDSYhEmkznXFDPrF+Dy3Egc0uzl65etI9fLQwcZho+3gc66j15DW0hF6h5BjADbRllDM7ENfqYZzjEeB+iSJ6y3yxuXoPIEQe+7IcrDbBDTGNZyEsq588kgd4Ex5JyiGPeiun18dRHfDzVYbBM3Z0YHsOnJFEEf6Bn0dCU/I2ek8T7t5MeCWgKWnzOheg8/wnUBOetmNOU53PaTOfn3P59mBOmVSOZ8i1EZTEBvPMYPthbE/xln+9bUCloBlIYHtJ7AgFdZ9SumIkAES9kUi0bO8AHA7l8QjeaoL4wKIR3nt5hH3vISG3xDhBBFcUQGgrYiUqIkSKf6DCr0PlGDOzzzonhByFsQs5kGYCkqXVcEcCAD/5bbQRjuoeGMcXJUmA9nIbXjsqzQ4kk4YVlVaYJS6gJxoUJZTihXD9dhDy0YdkU8g/UkLS4NkzmipifzoiXjpnnBKFMFehb4tDBaZd86pBmfKnraSXStXVI7Gk/pYwE77s+yjCpoq8ZGXMvj6/oRQLq1fEUjQeUOyw028yDppM4h5dEVzpR4CXQFR+KHaNyfNz62qXtLTOkhzNHizOHAM514IkzdTvHsBfNAaQU6yTqWE6lVNaFbol6Ckc6ABsvwnimTWlyxJYjlI+0GJNox1+NnPcCvYQLFJbJLiGxNVFtVfnv18efIaYo6OfjzsP3JPUmsfWRid2jQdDdzOxncpoMpc5jzns+iyXls/3LzyP+B9QYiCyCi/kVpCipBiOB39MMBIeMSdjH/T41krDocY+Pfnej1c9HXf7ev0gcEZ+G1i6QxwgpecdiIGGE19W9cW8R6rqtfopnXBDewek1XAMLxuaOj+AadQ+KUQy9A8HuCMNBn+O+YygJ/vhkAGJD5DhJ2uAFQKAS4gEWUOh605SsFj5O24CYTOYimLbTg4DE3UBYRvDTLeXUiOMluag1hl4ScGqeqhNCktS9t4fG94anhu/GU1HhVpPhORr2DP9i9oJ+sekVCvvSSy9pOUoJKE8f8BF8yrAEo0RMYPb8bOeLpTLggYoJoMCD8VnrolMmTEnqAASVXKphvTSuOawji7kVj11386vLO6cHu/NH8zP72oJcXBgjFhiotjQMPl7PaW3iLE2wRCt1iR91W0pIMJQbDZ+XRBYZawwIdb7rQwYESDUeALyyGv8x6OcrronSU4bDCQr5FIDGZxHbL+OzEshX6xpN2/BkO1DLVyczPscInvoyoTuO/Y6kUNeQ9F7PJ+N6T5/Jb+d6eLo0jJHKBzGdn/f0OeR6KCncaDIGbozBHi/r0eE/+cso3CjpUb9GqNiXYLGfiPrgoWnm2tpcqmKBo4AHJ8NaGdWGt2mYU4F7HRnP8KJTaQ9iUMn7TIeO3JMlXIOADQENhRAQ/FlXCPsaFtk0DoJCCFhguCt+RiQSbdN601jVvfDQ+hdvAIi3ppn9wXgTSGEcDyxpdl4YXn1KqPFLWMDUA4KyxojKM/HU3mefQo1J97tPoWSNkbX0u09PTanjg/P6hyqU1D6AmVS5Kq5oNpLO+WsalSyOi7HW2PyTtIz2GY68tLmdmyhKN1MPAipPpGN/aCrh8uzixvrmwwf7p5uz26enf/Hy5y6+sHX/YM8qXaeJW3KEa27cct75olGIDO8MjaTyL7xLnQiuVRIc0zdPt9ZdN66DMSgcgC1Qyyw19qIS+4RGFtInhBkTjP7Z0xMCxGvQhx8FQ9zCeqE4JRoJHletazTpaNiPZvI+JpDQFeGjz9GyMpBMxXiOAcviAzzC0Aaj0XNROH49/tKujwXhKeNoTcD4PA/a9J1/v8/b+6aeNGp8oJ8pxlrX+XgWxP/0eP4ahLwPje/t9D7xk4BULIIWyehZFG+ph2U9sLTrhnrYUvNYUnaDEL8sogw4JOxo2KtjnomcU5GCYd7ZsK8GPPgI1Ch07Vnw1pguWMmy7hLx9PUYcisgmttGDO0/sdV2AloFdHMUDHSAKd51ii2XYYAgV0bXuHGw0YSWZFSrxxbBXCdBF0MD6iQqCU+flpXggLSaEqnz3B4EFEPnOqEKAeGdeOyRYM8bk/yWEZZhIzZ+vIgBNN6+fXsA9/cps05mSKwkKorAucmcUc2EZ50HEFEEJqZw2/he1nrkwuRLNy6Z4Uw3bxIumDB+lCVci4WSeGb7uknnu/cevO1ysgcPF45XV23Ccx5Xds4QfueQLlkz4nRNEpCVMb1so4qcjbRzgH5M8J4hC8bvSMWivTOEoTZj1R0/4CnTGtJtTGyJqVzqgaJxrELtp54qXurW6FTkezwiioUEExe/CVlG2XbItnmC8+04NQLYwTAy+BLtevIcseZJG2GGulSpjWl2XPVsbXHsAE6qSheSr0kqQ9imdvpZ/Ur+ugWZivnx10nqIwse91DfzYjp51O9/edq2ZL2GHVd/SKBpXa1a1d7NuzZtB8vbNRML11127XtPYn+aNMYofvHvi07oHdGDUoPd8oAXKkYcuLalFRTTH7y2U9xIswn49B8f5GBybAXy6n4QuGYNERrfVDnGQh6b42PAsjAQQgIrVgyPk2hwEeYyMBN6Yqqkk0S/VL5GB48MJC0CUBSJ80ZTxgEjP45WeFhfNNL0Zg6XP7z/CAm/gNNOCbZzBLr6eqJUXD0yuhUbPEFB44PDi1BIf1Rhyb1u5ObTqiuMU2cc7duPn99++Yfv/Wnb9+9n1XGR3+yfDrvcOhlutn8sURd4R7dzWxVFt1McE0HG8xV4UU5jIF+MY4+dSb6opPZ57JK28gG+rKfwRCHmYxMj0LdGk+tAA2H6fcHOsK0GnXKeCHTzWXX6rLpIu95WrhT2nKyOpgpcIwN+3Zq2ZqWlyqCSbD+HWMBhu40S1BJ9DM+Okg6zefvHTJCmfEAXeThWSUQaipQHsNrB0iksRqfkWWq7lhmQ7z5aZ2qQjyF6HOPIatoy2+1B3mZmOm8T+z8TqjQSkZmphOQItMdmenQ/DTDK8Hy9AEe0zF8AO/v4YWIk5QISRlyzwbvWXphOJFFnymRmltgw4zxtX078cleJKNPL6PnVKrCuPY2xCCqiiw+U/3UOh4H/SjVoLZQJGCmjIuHo3iqvnUMVw6SKYNgfSyem/KiNHEyHaeuIlefnjLlk66ka+yzbUZqffLWn8J655+ld4iGqsZEYNeTJCAPfnmCPNPHnj7b1YvecUcoLAgWSWhzfcviknisOubKwqXRTsWOQPh+P9OlP+2LMjFW1rAhUO+iEa1CZC6TuYrZGuRoYLjhsNzVbH44L8gQII7u/w1pp/GhQ5kluLZx7ebVW3/82p/v7u7PLs298fDu0pnN6s71BphmDg4Xa0GSRXHKCTBJLJcZkphUnXQnqyyDSxasZQw210QLvbw0v2IdYKAtly4Kuwja6q5Gap7zBaIQVi/APl87PEzRZsY9N4rH8AzxGjoTd2yknpnc8KgQjZYXuSxBS36LeT2A13zsZ+Rw6NXyFDNwZ1QD5akdnnhOl8ToOPHc2hMvSTw+CxZMh4w+H31pnx3lpEynCfWeyvIU0wUaHKmBSB4bjx73aoJF+E6h3AboYfk0EIpdbRQuKqJOdsyPR/v00E/6+ru3IQkS6Xrb1ZispMpVkaofXPu9X7zzxoykselIeGb603P85NknI2bv7D29jzH0Cw+dBKdpV57bVBznpcmSjdogQvR3WJ9eOInBs2P2jMRXTkcKO87200l3wLb3zlIQMOTZ9LRn/VCGB2nRrRzs7r0NDx1Vp8KSDRRjvLOk+sG7xj66IbJfffXV1gppi9DQsjUrdflsaod4/9o/wis5THE8kiJBhiiCNJ070AbmIXpkO0Rz9nfO2zHBbJQ6PdRXdPHM2jd8/Bs+9ZlPf+mV1zeubZyuzVy8sH48d/xw9nB1jf7gSr89SoiLnaM6GdQ4taY0LVEpj8Qi9WLWZAMOWacWLSfYlxUm5n6rsXfAZ+GXBTq6qOndRmagZPgfHBSfFjbPtsjvBNcofLYDZs8tf+aCajONxeEzJn2jDCautEzRBBOMVug1Q3sFu4EaKartXtCHrNTe0p08U0l4GABugLvY8RnmtYiXGqXwfAbKRcStx58jT10MOcSPh5HFBqYze1LcR2PiTqihRNqtPQ+gynfBkueo1XfRxUO0xLQiIY6pXJyndQ5l8VsQ1puHE6BBsagb5JhNh22SSY37N9PzThIBgrhmxJA5R4qBPfUTTjzNhLQyHcn4GSqm7Pt9fE55G+2e/tLRTtciNm06wBhVv3gyPHD19D7G653AjDaPxam4p32On6P/0dXLtGW/T9u0z9FmOqFzJ6PgU7SN5TlIWcbIQ/m5n/N8dBzDs4HyPNopx/OwE8vRZiSJDZWQaS8UQ8g18f6ev2Pw9/IxSaiJDihk2ByaZMF/cIyy5iRR++5ULt3R/eMzO4BNQgtIxfXnZo+XXngx9Rf+zFv6mqEiIu5G60o0Sp1KsUBcXVq0e3QKGT7y3Ff906/7p7/8//wf9968P7fl7LAz16QCvKx9PXPj5Pza8lproqmXxvdMWaDLQMJ8hstCdDYmQLNojyoJRFt0Rc6c3iJhYu03I3X0vwKUIE6QsaRNcO9gLi/sg4rBvvRe85XtR9HU6jO4B+P0c3MmQ3bScHBCCy3PGnegJi1PtyWew5yiLsBMPHwzzjfJikbPWGQQEBSWTfrShYmlD4akAoWq27XEBU+Kj4EPK7JTOHIx6+JCBrc9eynzMBQWqBBHPIUVxkHjsXo3NIF+59J+SnLDqygHyq2NEAV5eBBvlahYo0hY3A/VA05DHJy9hmgdsQaqfKVWoDI2aIxFniyTQpx7hLHtpVJElmOR0J8jtRUokTwd2irI39WjiS92Dkm0zZPpPWk/2owvT4ZiMx25z/b8mOVTA/6D5d+IAyCJyuCErpxQFN0h8kh67U6tHqkBt9Mz21esVaQVEc6S5BLzcxEdUjauH3kO7p3M3l549jv+ybf/0V/86R/85R8cr5i93nFdlYrquk81ftUdCCZrjjIPEkyAYIEhaCB9sXfl73Yvq+YQRhXL+g9XwlTCY3cvVc34Ahwp+6qarXWembBBmlVpLUCphQVzJVeDnlWYCHjg2mSEjicgYFwKcjldZs6V1HqqUQzhGjRsdKPsUcULwsBn+r9OLI8ddy86B949AGIUw7LJpVzVuRZ142G4HQ7EZAFg+IdmFGS/jkXk3n3hS+ECwnwqqvJS/eWUlvyxwZ3Sp+q9QAVf4zR/2v0dkYi/3ouJmCoMzBtNd2TDqCJitB9e9NFtjpzYhoi0LlrJjjM0PGJkhe8hQP2EgILJR/y14Cn0R2wf++g8JnSatfY6wuITSSfwk9G9H2hO4jzHoNHmMUr6k+tI0nv5HD0I0u+jz/HlqZF/ZSyfZMBXJt7/DGNJyRILz0mmdeysSqYU5Q5niJAqHqyIsNnuDvGcdXf5onmDbpxVmwaDx3OX1WkcaXGO2DieP/3opY/81//su/Z39l996zXQtqhf4uro5SOno0AE98qDLzBQfUjQpjtt5CvtvRdp63NlfjY6l9lrahaK6ACZ2pByn7bWJEBlUgIePK26izpZ1RzpKiKASm7TIUqe1cIGuMz9YkUwwm8mts9mhuMckq5oojuhznI5FTfPAG7eC4zyTMzVG+TQSxiDX+kHUwejytUgoIkRjsb1ogyGPdEPA23ynv63jjAb44aeFTy/S9kIZnYl70G9jHj6SITplUfnNPGCF5W7KlGlFm5VycZW1oTJ+mfAJiMgCQCxCBwpxejZll8XB8p/siS4oc4AqPxWQ1bRVKTcolOWKbblzaAouyDMwMuyzFfil4KiFNBblUtWeXMgQok/0fpQbNIs72O8iaZNZWLy8Xf/+8GTe8ynjD5GXdu0ty/r+bGw//D5t+EAWTJypx9ow0Vt1iJsztqILAa9qEKHxw41uHihNr2rUFEXUhMI5GOmxtdyKubs6pkFezMX5le+/R99m37i//or//ubD97aO9if2Zw7XT2ZvWCBh0sQzlTnUzMIOd8B2tTSEtGDg8LH1IIae5JmqpuanX7vsKWua2PXp1bVAB+CGte8qP0iFlvCslfpUr+6/qVClcY3dMzEC0HxYRRMzlFvIEBoS24z0Fj6T9EYdS9746SjSgo+kBqcavhLqOByQFB/FhJFiQsiBaFK+4VMcHDOssGM8eVUvgAiION/ac6+ZMN7LKPitX7XCEh5ZJOTFMwmF3SKkBEVq2iRok8dMy1jtibKVAF0cE2uiysyhIyMGIb44Hs/ow/2v6jPgR/ZYUKwt4CRGKoCFzviqlEUadsjI74TPV7bIZi5KI4Vf7gtKAbEJs8Ey3++89Zp5fUx0ymOlkm6EhptPtBLldRTfP4NonpKLM2cRxyavZ3DRxzqI0z/B/OV44BiJF0krqSsQM0StVLWsk3LiBZUSk3QA9NvPNKfc09PCWCqTwsnGa3+UJ6Kz+Zph52b8pg7O6KYzGwurL29d+eZ1a3v+qbvcJH0b/6/n/q9v/rDB3d2zCGc7R8dz2Rh8eJqenpgy6FPoUlFqw5N1/xoLhnFVwvoPhxOc+8otGspVHe5BHvgHVsqCTJkiQd1pg4dpkupvQlRqJY9/YlHBopivzAvSKc++ZmdX05mUueGVGiuQ3L6ojnPre2pgWiV1SIXJwN4LaQnaGFSnfG46r8YAkPBGi1HDaEVnCJcLFHEspNWNU8/VDwMDS0a4rH/WFSTua24Ve+1sawxDvowgohfJCbszZrDO5kqTTDLaCSRWWMvOSvDE1cLGYdJldIHg0X+cMwfhohCMWJMmhROPkmA5LwHpeLkf7+lLxymTkzPAOAtrvCDt8Vh8Yx1PJ4z9tBilWfKfxLB3+9vFVOSfIyA0f69yBn9t8/x8zH/066TOCMe7+X/seD/8PnX4YC6oCD14azwSFWcGJtrooek8cyxvRZ56AxZLZzKW/FX+9pvJDxfLdXOXzvRlJ8eUcEWKE/rZ2tu6r6+tP3ffNu/2t6+vv0n1z/z5uffPng3qpYl2TM7Lt4Apha4Zdlh6TYZzStEUM2DeBQcNRmhFAK1ZB7+EYbCAb2fwrW4SEzd5SkVPDplkNVBSdDKO7sSIHlVg1UxtVBY6gJ7rjIQHw6yr21eQSm3uMYePhXqdR+0FDPxBxnjGs00pBS4FR/KM4fiFLcQPai3CEmEceNaC3eK0kQWLQ0t5pLJOshDXo3EO/pKCnPOGkBs5QPYFUTEBrVxrWcAkTnN1H4miMv4SS8fA6MhUY5XapTQiXVUumXzHgqaf5PBY6jCPoxJB9lukKAx3Mw4QBoYKxC7UEJPsJdzRV4Yh0KcbKQrLS8oxqImPrAnankELuLi2eMD/ckmTnJeQfIxbcKWJ0zYmFL4ipoxoYr5qemO6SX1xqYx1Oj2qM1Aantumpv4Cf3vn9AY6z+8fHAOYClAg15ZlFvFQVxTo2t8LT3U01P3SWR8jcLRxV2xPylSaoKh/Vw5Hg+HM+urK4e7R8ez+xcXL/yXH//nL7744u9+5g/+8LN//GB/d/5sef9of+fgrdNZR/E7u/2Aupgpz+yXzyEHST8b0bItBdQFELKJPReHpWJUwx+kCxrmYhvopq7Bn1J44BdbExXLbpmOHlfIBeyqvudT3VWZ5TRwAB2iH0XnDKyUBpf51DgQwABlVhfDNdW5gTU5BFlOQHTJaoCXQzBJfUVjwUzqfXyJKDO6qF6qM/iDW7rsjdeJ5CznLQTNg3pR2jIOX0Suw4L0xod+eiKPDhT0gH1yMMla54Pvs8PSEyu/sov2ig0lyIGeAsosjDOil3UzGInMZNS4qvu7a9UL8KIS0gdbrTMwV8CnSxutjSnW5ekM6LCusTVBcrQhm+RuRqdYBgL+IgxFgTa554pDhdTR1+S3+JdMoi9tw2jCBSZKX/GyP8+fg3u3rhPriWUxpyyHsBnai5E0VuPZ8KSFs03RlsHjtG1jNNVQlcsQT7RTcSgHfjwrIaUUnMv/UvkTaogi3JWyrzHOTus8hk75b/cMJY+aMblHrf9/9NUc+oAEq30p4YIIChBxctixZ4wytXtzzulJkbP0hI5nNhbXNlfcqMktAlEleM6yErkIzMKsFcgcCWqVIpS6uH5BAGevqBLLq7ee+fqtb/3wP3n9zddeefX1d+6+fWf30s7+fTrdzBIUMoBdp6rk/j9Bg2xyJTXgajnyoZMIZo9zQFyaerU7kMubcUG5CQg6ZykgGBCRQ6IELjNYb1oytQ+dAQ8govq56DoJYEP3Zy39rfEe3qrS0jKSpYwp5ZTkUx1eGgun4ANL4JCbtaxyC+C1ocUBmuhbx/Qge/agbFCm5JvH+X0o20pWQclQkQIqJZLp5zJDfLIAElrdTEXCWL07JSdx+lSqclEYFkkzg/FWyCRO/4Bs2gmsSA1l4hD9hnPWcFgwk6uKEn/ZJQM1vl8jUCzFL+fJq3fDAf6Hlbq0gTNGxxYbM/wXdKtJ3tLg2jV958hRtEW+SoX0jrvwzvSw9dW1aMZxx8FVumD1i6sspJssZj4i5GXUNiCUrSeBjmS3iE5emDCBDx68yHpxOwDUmeY1wuIr2S68Coe8R7jiRGAqPuwRKgH7NwyLQ0kTZvPcjZ3qEjrqfweoZ8qAZynFRXLCh/MJN3ion8l7eWq35FawiemcZfkMZyLTwSeuw+/gvaS9G1AOiSRFOvE7SMjk0+8AzVM2ee3IhmA+QtvTno8FG9N51H6UzEeth6TPA3Wq05463bZJIaV0n05x+Rl5FiHm21+NoKkMzsB8eGrNmsK1ImHFtQP7jng7thB35eh4d3VmeX9//vqlizZ3HpxadZz+HR2KpIvTX1UWjFQnM/6ScvAghkWSok7Xz4I8FpzXZzaurK8/9+K1r7/9MZedvbtvC+ndd+/debibi373j/acCppesXON7N2ytcKWB7EFjsyDuhDCgeXH+/zQ6pKDAj9oaJMaaSwNM5whUuBt5mxxadWVmdY0u9fDcufYplrlepfgFXCx+z4HZxKOk0PwW5VE8MRAoXPQuCqZE1wWxeYuZwcDBG3JWhneoo0wqr0KqrZX5U2rES3P0b0YklqTHqF1xc4jhTDU0NAonirY4MkAPIk1tblM7oXMsGP+usyqXgV0xFWoZxQvTr1B1vrlOT31mICuqZuKOOgVNVRHuLKXsfygrRIKTlR5ecpxbDLexZ98oY4yWpqMpYUCJdYM1QlbngBk0DtMFJ5zQXZe2AUE55ZqViSDpNAuA3xBw6hyueDCp+3C1s1kEbX+Ly8SFsw9xGIICNpmh6c5pnTJp5II/EWganQiw7KBwGiI+U1rk0FJYBhx8+XJhH+FEPzY74L4tBwpGT7CXq8FWtkqE6nWcCaDmFOlkR+2/IXbok3Y+u9nYhKPptJayuBQTBilmimfFAOLECWkb8lV+5E2sCIWy4hAKYoqnYHLkxT8lnW++Zk8k1SsYlCM+iRY6YTwzno7f9Bnx/fk88nwqBhSSuLjewctgka75LpY8GQsUzbJ1sRUhF2EE6vp2Oo9UprS6jIJF1PUaUrciuean6yQrS1fBsioRLF3rcb+kQVRuhqXLmRzKJ2Fff5asMXlQ27q6YVOVnmLXFTR8BdEUrOypiDtbGrGwvLM3NrC8snCyaWVleNLV89uZ+yJaJp2iMrmXq+TvYzruQQrp8wf7ew5nGBvF0C52dex7/aWFb5At73DPZ8QsFS3qq7Z6ZoDkQ9OTq0tXptfvnFlS8XRv7NkhWc3P5N/nV+bNsRfCJQc5PbDE0cRRMDIN6wMsrpZ7vjo7sE+7cRBU3QPuEOseMImVTGLgoWJxJHktOeemojUzFLuaC6pHoUAsha+k7woJob6WYPDqECByzCID7UufykxGFcNB9kdAAvpJckpunivFiT8ln51yVPBMrSfKltFxRPxzjO+k1O/4vDqxD0Bvae0qnooCEbMqfCFYeU966W9zM4cJlZ/IVZkUVYVnPU0CQZVRJ0AMcG2YE0sk1bIwpUaoau+sE92/AA+878wD3A4TDBd4Kz4SfcWolGKA4KuXddH5tRrZdKChDvRBnt9DHpNm9Acw9Zof2mEmRqXrNSXejKENwZJCoEWHvpT5fgMF/uvmIF0X15RUu4DMlUINuFaINJvYpRZIoDRXsMjrCquJtbUgUiHMkpZ8NR8UzLldzLy4EvQFGx+85NIEkFqL5lRt2LKib9KN2nxkD4FU0TLUnKDsBYQ9nydm0pg+BS2EWfa8tzr+dsjMZS1yIu2J56hhwknEnm954H8wansHn2E5rYZ8j9JMBRWHhM8la+fyWKBfwIqoHxnpaZ1DZoYOFDIlrVqsASSVU9InXZ+iVMxhbh+/bpgYhQBlhZjHyWpvnRf65e8DXmpjHUtT5G0iSfAgYaV2dWgyelh6S+GqbKDicxvzq9QzZDP59l6cqeI1C21jk8voiIcRy5IA1MiMPTmpS43cu2ue3ncZVka2ukepXP3YUGYVcB1GBMlLwgi8ihPGAMH4aMTQGfm7XrgK6s9SIxo8UJXF5pBeetUGHc5NmFcdYPR1nmVy5p+AUi520c+eEvkZxkutF5WVJSNKqGUi2pXY1PUnQxZld6VusAeYGBhRhLNMEdyY6IZFT7mXQ0RfaaAQ4Cv2CjkqqyDuFeoKvagbPCUz4pPMVUk2qkUqUpLs+MqeRFwSg0tPA29QpW4RbjOjjNFGr2JCKWpkiZ5odomlNolWJkEY3Lt0HFph/Jf5e+QePSqoJoFxZoaGkIzCDB7tig9vWdGyZjD1cMFZ7UuetYlJ62vwS4aHknJJxOAMw7YkWQhdEYDq4+s90Gxk5m0IZKYX6DBL9hfHFcploOo4soEZ1lNBgqSmaBEWh6RBERlPc+gXEye8B57ZC3aooXZvViSg6yJzj+M6lKwq6TaNDwVAXakd57gZXBiiFV8BVBDTY51lV28KTpF2NXMZ5dPagcfQ0QdWz7kJzXnaSaFObHvl+nnxOXpvx12pOHpngbbpI4xqkI9ffX7UwOhNq6Vk5aWwusJqUVhWF3e8pMKmq+856E1JoxhLoao5Zk0SFesB7hVTOWrskOD4719wHPr1q1wTiFJuKpASqGiS5QToxYm1ciIXJc/KXQ6KSy4VIDCRoFHSEL9otnWxJBchcpui0Q1CkEwIXKC5tYYBfMnbDonZ4t6VsdnK51DA3lKU0TZD+QiWc8WGGi4d0zlewie9En1TF2X5UYPShlkLDA7ur/zzpHupm5qCCOzFJEcOyBl6+xmVsMXBsug/v7J4ezCmf6y8UGf6TAjXtpgApvC167kPZJXFk42zm/GBPUXnD3ovKnohhKi/+Eo9SYaTPBFl9I8SYMmp66cnlKJT4VIbwgXKYOpkN5ABP/lmmeCdB9R7R6MYk918DTMppdH3PyFZ0y3S+LgHHam/fOMn8SVUsg4BAvAPZRK+BvHMrJfRdVhQ5GwVbwhK7ayFdGw47f4VVb9KOE6yinNiSK1NxNCOax+IZIp5UQUwr1AGWOMlnXHczIUAgFT/pKzWg8ICcsgDVeJnPE+CuBKXZtdJQkOoz9y5DGTJDlhIUAZpS9bTVy33E5UxUBePuiI5V+0ETXQlxY3a3TsL0ZtgDLUIzVX6ko8vgZTbA0aYrBTYm0nUaBxJSwNFfFctTN5jMkzeZT3E7fk8Z7a1UWGhPZTBcBfUsXZjqoLMSkLJY6RilgNXvI6mMdLpKyf8BaEEtvEvmOeRPH03/acgJVEP58koHkTIpX+02OK05TpBoNFyZ16l1ayhsNIkCpWWlAYZvuULhz3ujz78Ijes3Bw/MLtF6IiZZA86eFd2D0I6nkyC0SSbQQ3hVNey3u84HnUpOBMQyOfsDPjUd0WlqesKlHcLFNds0oh1hp+SlTwJSQyam/2QUgjVMwuRz5ivBe/EVuykL5tELDK1AK7jdPNK5rNiH70Ptb++KFXnB6eHugJHc1QHjNg19iXobnDPUnv7Oe85t19Z/Vl7I+r3wd79+dW55ZWcswL4mhzD3d3PHV7xcATCKN+Igy/RHtgeJACmC9Uxa4G7KJvBuySx8BcXkOTe5X0nVu4U+Z5zahi1XwFXK11og9OUYDSzRr1BVxqFE7NaqVBPWPJs59UGlyLW9fqYGT1quJbQkKnBINx0AKWJOjs0mFmpxlOISlgwqQkUjbJVtXGOEUSoojBzlCI4xHouiyk9ofwI6hnNZa0GrnQAY1OlOAVvdSOvOgsRnpilXJLwAjGvHt8tMhYImtZplOoz0GBGxA8COt8JbtM8oFH0ozAxT4tdRS3ikrKhWjlGcqBvIVZ1yQTigBZxllrfNDTrPF5nIVxPg30LZ06EjtKYnbO4T7wiUCmVyxjtZ0uZIRjIYDg9Yx08oIIfXqew0oKcDyAclnlgt24qGzD3gEdiv/lJO3iTFc7cZWR9bZtHleOJ271K24exmeRwEESbcKWMpPO5uR7GtQSgyieaqZj7/eUKlkJuWO65+/VmE7sRz9B8omfJ8NyYcIW/yfCXzg6QIYVW1lEcXh8livGTuaO9k+N0Fs24Jy0F557XuAISWWhpXHgZcXbD3MOlA7sSLH5X1IV7hisisilyRxWgiWA/NUz70STyaCJBjWvDIUGxIooMmQE2mBOXSXdroq6cpKFxBKKYCVpOceFVFveSJVIYhqGNcNVCpCOUio2HSu1vIReHc/K46NgnOyfzhgFXJ2buyybAzJ2umII8FmuDHjmZilr0QGdX3yUkwNieXpiGgTwVd9WDkofdI6om3Pn9HWbnOAa/IqeeGIzfyDeeyppCM4sjsdsLuqO6jdAofNeMqlCfZEhLEtUdc9ZVugkwqOloFsXVfgQY7GcF/pVYCfqW01o4C7iMxMEwNKJAyrxXZWOpRc1LK74X80MO8YnU7/Fcz40hhnoqSIPvV4SKqAWNA+0pVeZepsGtSIxFKtN5rV0w8IswKefWIlwqSaUH9+aBm4JmbBMCEg+kIcH4Dn4RXqVXXkUa/xXfirAQHbYUMwDxOUh6k2pfvbbhejwoU0QkM534tS/WBYaWs6XkT75TS+YpZc8RoO5K6BWLzcNcmmCXjKymz5zdofoAlckkbgKFi0wmnaiklBCmWY3ShhtsSZVgAh77gG8sAWDg4OexQ6kJVcpuWAip/CATTeofMZH/A/8mMBdsTauActme4nMyLYKFT5JN89Bnuq1H5XQGHbKoV4F4mH6yVqJpkgrxac9R9eBqkf9jK5jDEVf5S6NSCEuFmRDqF4X3UKHy1VUZ3O0FV0qc4d71l88PFw6Wbi8vnnrmVt4m7YvdSN3RKhDZVPDQsl2ct7L5ft9yGQUNxxutQuNaUSKFBRGSeFUsSnQxBDHgGrox83gGWuVuOZFY6f2R4jTf0pARJAY1TvKRIhIsyYNZRvnKraK7RHNlr4XwbVPSc1R59Q3OxHQE6hdXEnKCRt6i2Lv1c7Et9eEEXkWpszZ9zq7EuATgJ8g5syhRV7HMwAoWlcNIDqL2Yzs4UN3ibmnFhYemKc92D3Y96T9ZSDTRjZX8+iWMrKbD+dxJlm5a9iKYq2J4CHRgox81mHHfIDCWdPYnU/+CyPTofaeJYEBzdx/HaoSI0BHsI4Nrgkqi8lDmBrsU4ECWw0oImtmxq3VGbVs0kcWMJxOoNRy9uUrYLiQlYVtmSjDo3iWjIKvUF27dTfDeX6XotZiwEwWeAccEmdYLrMVKjiYJFCN/hPHw0KC1HNZkq3CYcmkkz7ETZkhPzG1RqjKm3/5Zo83Cp8yFqKyW0ZaOtzakYrgZD+QXKYlqtBH+omgniGaKZwCNPA67CNS/19759Zi2XbV8V21697d1d2nz8k5pxPiIUYhIcKJ5JAQRSEgiBBvgSjigyJGERHxRfDNB30KEb+BX0Dws/goiB6jOemkr1W7qvatdvn7/cdaq9auW1cdg2io2dVzzzXXmGOOOeac/zXmZc1FJIshfO4I404aF4G8hVogLtsNLQYZGboSl7OwwC8WeHPaQvZRA6OZCtTmgwhxKC1Bws4SUnrC62ucwqjALbSlfHRIu7qgzLXla5wKVQGnl4YkTZ34q6P5U8giC5J2DHIbFlK0foKNV2mqUfX9Pk0XLuJl3yv+9/n3w13aVlRobYPI38w4uwvMT1yxnnh0ssJC4exkdT5bnR+dTEazxeExb6s/2N59ePehY1C6L44miTp7rLug1dNdWPVNXm2ciZJ7RSBF+IRSTeuAi/UgaK5sv9xAu1FPP9uip8VA2Gz5T5LwIFmlj7ogpXqaDIwXt4JooSMMtZRK3yOrKjEuqFY3IZVffEa/qKSrgPZJmEWCgWYnIKLCaOZ8KH3bhBDH6lWVUSeXltLu7KZagC7LE36YN8DnefFc8OFDBrZT9ri4iXnupyiwBDXf+I4aaxl8gxrz00eA1hzMcYRjDzpwJjdgRbhrcW0OLDA/yLoRUJkHBz5m5oz3gf1crI88UqEcAqACOdLHjv2zRnDKrZ0H9CA/SqoRIo+aWCyrm3O/GGnPlTj4oFjUJt+fpV7FEp/f8rIKFkFUKqGpDu5KIqUPY0aBjmfZewITEqK5uVuTseSl8V5VHqCWflhPmUgVoKHNa0UCBGSHrW4+8k8ZRNpy3Ca5piDfHjUPnqOU0TLzsHIViHZOHA8XwqUL0Aoa8m/Auzjx3KuDFIoDhlubOxLSmFkbywwm4oJrDFVqwdft04A1DsMQBarOWvNVA+KUuOYaMdDmKYSgJbsWWBemgriLIz42o5tjIEiRfUjIkFTuucIpL3kJyxoESGQ14Kclq49gpQEiISAQrREqbWFV+UBRRdan6oUGs6GLIZIYXHQlIx5YPqJikXvduqJEoyo1jqRdmIiWk0IQT6tNCzRdqsL98Z5X4ao6H0/ZxFh7hQ2xGBwyIlrd4fH+4gevVo5WhpPVw2ejr//e72PJIBXKIUP2O8C1EAaOp2L5eOg5bpR4rZBNESq+u0vzLFzo+9ylE5KbGUJwyiIZcImae3l9nCBqxfV9L5c4UVWdc0Kuu2gDfYJ0iwjF8Eta/PQ9yuK8MgLTfEtqQDbjbviowJOp3+XOF9JW7w23VxYiIADEHyYEZlsGkvLRugCqaIEAGUsXkxl/bHUB9xjtTg+PRvh+GTwOiMQsDGxp5AmCeaeEQTSXbMebuGsPe11LDjujhqIFi64uw5PvI6J/WrT/V7Atg3eNXTlzDkCblIVoyya+qBoWQ46YoDzmc+XbCBvAzaA165BYGtQoLQiWZiogpG357GFTB1mVM9PCnKAROvEEVNWgpDY91kTpIUdOwTnnqMUSl3qBBvsFeh3UKt90LDIDW8TT97BD7e2AJJ51BFO7tbDoldObilAcCBImI7DNpgNM6WxI9lO/+kMW1uxSU0GacBgMJunbAjyIbellV807iz7M1pScAIM4Yr6qx0jXrtdXGWHEclM1NesHFMqmtgcCgibUmhMT2a3H1A/jX6dxMsXj1B8j49BLo7mnxVcLyjX+LYuSOPLloZSxbRRouLBPeYJ0niiDhEia7mTRKS1lIm3JTxSuNIhajCR7rSMwXT3WzRCHKpXgHRuTWKq6DJvSn6iX7KqWkIM79GMaogrlJ2Ly2VBfT+Kk8mMWDYaHR9NXTw+3T7ZePn25OecJsP3l9z8AZWwqyYoG0fFP+0lO8ZZwrYtuWlZ7jUDEtFog4OjETpPIxldRbSHahDYW/nxQ38TBCIdv2iv9C7kmecdjmaTGfI08oemKVYTNpVspKsJnFBhCPNLoUn2cV25PS4NoYqud2FVs0+xrtu2QJg8jLbvFcHuxfedkG2XCA+DjockKKm3Au7SDVBIPL9myvRmMy1qwn6FkOUjH0ohLspiHIKNLulqCjIuDZVYJLTbvWhCtycjHxjeVXixLLdApAUFyBIxAT0w9UBUJcJCwGO1sY0puQ/YFByAuazKgnRDBgifGV+hViLumlbxabww8yoJGgpioREOK3uhkVeanSImZQUe1bxnD8BWn5DLN4xy/dIryIAZFrJVgeKMjNQUeUWIoJbZ6SMufK8zN1mvKHT4So2p8+j8OkE48tYNSZqmlU6MtZUFF/JpMSspudeIw11JeounkdEgrk0BpC83VAasRiikHxQGF/SoIHCylDcsZAff54NtURBPDgSu6u5uIFFPdxfQT17QYmCsE8cQ7Ia9wbZM3gPl2lEjoIkni4QyFGMelqVJqUJV5w42TTQ/iFytpwTY+JDP3PJ04mbX6seX1D69gkXjKjLxRSKvAUOGhT3iYCJVGV3gJpZMQjgbQqfGOsiBHb0zzsuWdT4gMGXjO9nhNczHjTaej+eLw6HjvxXjycraOsTY+mb8cf/XzP/vFL7zPU9KqaXgXt9RyIxgZKOdZXKvoIu/8ah34im9r1yUgtCV86huqshvCIUh+lyITc96D3XmOV8e08pxndlFMCd+KYp1WsaCttt4kqjy9sI9R+4zvGlfXNCZBrVzuoFhY+Fhtlq2dZavCOzSwCVGTNmmaSJNZ6ierBGQDY2oNvIOT78hyPNTx1ptaKLTwRELBKjA8wQ65EXA5VlNub+8lkDQeOwk4HbO72b2A2Il7h/tgk3N/Wa+AZpb1a/viBvzSpQA7+DicnXBgAijJ0on0KXwFGG9lHA3sOZ+YuUWYzrA0QRzwgjZPMRFJcw/BOGxGKHIF3EKRneVscrS/Zc4JkijPw0pbYdzMZq8W7bDoSKttaN+zpxtfYequOlPhgmGxm0jhFB8VFU8ua8aCShArU2ogA3PcpwtKteJqnG3NkxXxkoEJpGjqT6bADj6RVmhAnsoiJ0bJBjzlBiSDh+X1TyuPcZ8VnmtCzglabkigSFiOaZtkAHttK3MpYeAXu1rrFkGRQFBCD9puTu0RBPkapakg9q9wSkLgrEilB9cGbLDf2nCbdECwnTcEEykiUQbEfVmZMMCrOuuy7EosQkoPTSaBIKZkFIJMLZMXViWuoBAdeDtdgIQBOAnYTElrmXKK95Dvrw9Hg+nzyf7zycFoOh2NZ3uvjsb7s43Z8MV/Pbs/vwv6/fqv/OoWI6ToJMztbtGZeZ06MvM9qupiKvDUdQnUY8+1VMgT8SjH1U5b4TzFGa49AoijjF7Ua4J169k0AAAYSUlEQVQR6YLSXZKsss5jvi1MQ3lezghjDWqmUA4qSFrT8d/9XAmnsRUTuNN265Fly6dZ2OLj5NLgEd2vyc2Xuk73u6RBUBbafFMikhTqkV/EidFlxZk3/YmDpo6HYM3xu+88TqMhmqYDsfASq9B5wOkiK7wsNvFGivuZwSOMwUM+vYHPHCBQJVoN5qPZPqNdwnQ6JAGVXM1gFs+F7iwox8BCRukXPGkXnIaQf1OQgdbOAIp+JzsAI2sfwhwzJZlKRHDQFgFAV3u19pWFwSGtYMC7aIEnYkVDdsJpgtG5gmt2KO6AOPFNR49JJ3SwzKYfgETHDcxH/Apj45hdoATGRBZy0IntdHpKAKCZRP3axO3fRArPRNlDA5HWkB2UvM3cB5VQ6kdHKBSVR/VRcwJr0AaEMTdShLG5oQ63a8m15jc09ATIgIiyw1BqhGNaNUM7bmZSCj3zF9BBVFAmupBX2pzARG4tAYwQVseb4Ey18tWTxhzkB+yqbyqRFxR1mlbpE2SsvS9KHsqYikwLaus5ZBbgKJiLwjAnVdVRPXxMxX9Mc4QJCFbAxxl0tlOfJ2Pfe2aWYfb0eP/J4bOnBy9fMEgZHRztHQ7Hq8f7i+MXPCHHP/fFD37xq7+Aap38IWXr0LwdsxdTd87aay19VbVXpzyi5ea6iyVA/Bm/4ZLOWZQ2kqBhl8GPMnA5UF6Qi40WTZff3K8icEGg7xC+5E+k+uuSNeWy8dYfjVgThT3LRWw744mXJpZWjsfsSbXtpiawZbS63DZMp8MCg4lroUllU9TQwGix6XMBr3QWiaChQSGf/ZEmY//AcnNRgccYz94dbI3m9UkSLwYbK4sNOhxkHKXn5lvks8Vb1WLOjC8QMXfHQUjs0Zv7Si9rvrwNt38wcszLyxvTI16PY34QyMKm0zBkRu94OtxZWb/vucFIxfyeb85NpmwYAx2BQlDMkuGAyNiYxADERFgNfkGNwotxMRFZWOWtYqIyADZEby+QRU8AiyoyDqHDFg50nzgYcnw68OKVOIVvN3JEpirpf47+VCuR4IUUtR6iHkU0FWznQS2FfaGFBzWrtolUctsQ3QmyppsSzxI/BQU91Se30gooIvvdzLealqXOQ0tZfLxSkMqUluJolpmJWGyR0lyoMVzmAdMUiErjRRNKwjyGTwrbD7mbJxKbe7aKUr/kgLTE6MiAE8mCa1ylFACz+jFzlaFhaMD130zwIX+cKmN+kFFts77hGJk4FjSk9dHS7hDUGhT7TJ8lFAxMT9CCbd44rnlGuDIFcbDCe43Mq00/ev7ku8+ffP/ls+evXu7vHbCxY3u6Pn0xebBx562Nh9/8tW+8ee+RNR9nSdVCCmyvpWAqso3AXmv0L3lDlZSSVaCLDa/EtTgSPsWt71fNtWxCLK80jDb2/G/lA2FPovNUxnQSJdwKc42ElRbd2PTit42s0Vebd5cDCmRH1zL62zR1XUuihkgIwHiwgBAmQUpBWDzHNVrgTpCpCkHLop8hQ0YusJBP/VGD3omjT8kTC8xOaZWBhvR4qtlS8PDmiKnZmFa0zTkobiY0S2b6IKJJUef2ogAZN9y9wGDMZVYY0Ldp0Dx11++sbNPClRe7cp0VhJMB54k+QgplZ/WDfTAYdGAK1Q4Oan4xjmApJN/fxe4T6XyLQ1uN3c4srfgiMKNaB7YOcrXUnOBzWUwJ7X3zLKDEQqQLUqbgEuXV4MP+EefSa0X3SoudAw6KeJAJgYWNThY4YdnEUzqLxh9ZpeELWnRAujPfPhJQECBJFMbej3MB1mlsHPgCRATYmikqUlNlha1WOokEER/adRlDqdko1+ALRzcEViBG2vQ/9QmEwNraM9/CQWuN4aB3A90kpK7JkBjMIVJr5yBCegCWbkrIqFaG3k1Ggj+iNe3HtGWlRkIWyFnvIoECU1BSRSw4+1iqLTI+7XJwF0WoQ6vMwGxUhoNf4bSGq45GPTMGF6uNtLTDWs+FMmFfpzPEXu18cgRkLILF2vrBcDhbWR2/Ovzo6fc/fP697z198sNXT9lOf3wwWR3P16crj+48/O2vf/MrX/ogRW+7ROQhJohWkZa0c00nrOv+nYZBP4owsXai6NU0Vd5K3ffT39StVUeCy+j6aSq8JPj524npC9UnOZWZUEl7zici8jQSJrklaqHecFxJTVNpxolpXd5RB1DbHuDF/0TaTAzUQzMtshFHSWBWV4RNmRohAZGxxUxovHqSUW5BS4vELsvCkT4du6ORLN3PXHVKjuFDLwdzuJvRCPMMlUt6O4gV60YkSwJ6SJUTvvJAesETMFQSRAI5yjii4YOskGFiZIRbpUIqFpEtWwntSIntyUhq5yv4A59c3OAQBBeC2QzIKzGZB2RQDCrykhyw5xIIi5Z5H06gyjYYFzH8sI3GCP8ZDoNoMMd3cGy2lLaBNnAQSnAKPs4nAowks6Z0DRNYw0WcFE/QJzgrkFFYSgxssCpinxUhMkD2FoMt+60Oe5yYoif7VIA1EVDIaFjESiWGXD3z0CIMFVoNLT7PB7ozVp5WZ0qREwFVY1glCyqBhLE2ARKKityY2u5M7LZtUZXyTI74DnfLpT6JwbWjb0N5mdy1flxM9TwzeXRzjoP6soZhUBBJhbv4nWYpHx6wycjJMttCIB0l+KisnBGeUIoJf7UYk433hcnC8sfEc+lDoFsMN45W2Te6Mno+evbshy8P957uP3/y8hmPytW94+Ho5M3hozeGD/7pH/4RoL+zssGm+HXOjiYHc6smi1ypKAvUOURCkNe6Pok6fL0jBYR9//Vp/rcozkmVtns2dyLb2j97q7nuVEdANbeuH25J23v8qvDSTS/yomCh3xn/IsImLvKcLQtNjPxSliqRBGd4QtGTuUrd8mx+G5DiCvzK6MkbNu1Yf0XFpZGqg6ZWChE3GyCw5MBQ7MSk5QYQaRJpCAlGYB8g6DkIY6b9JvuEay0421/Yy+KeGBY//Cq441yBHLByjzRj3hk79YjXmIVfKqWGtZp9cVp/GeTqAxOcgR9zL8vEvhwibsKZxWG6N8adpz/EcjSrOZsygodgAjoTqjTT2fIRVUAMruUG2EPAF7Ps5wFG7wJY+lAHrDFO7eDmAiXQzbHIhBoOPNRwVkjA1kkuqjPaqia3CsCD76EKdBbuJKJpkxSaksIinMAVBt66xIQmDy8tTSSwoSgkfEgI2LOrTANel2MP5BNWVnaAMPIAu8nU9eK0gKpSuMBJEzd4zSh3k2k7kJlzeXxib2yOUMNg9eD5yCOAXuyPXu7PeP97fzocD97aevCpB4+/8zfffnz/rene4Zu7D5loJSEqYn0DUXmSKXAKrrQpI76Buq6LW/+mGriO9qjvPtvrJOnTf4zwdbLoS9UPX5bd5Twt3XIR5dHS23tPedKZHWLZqQIE9I0KA2kuSqZvCJ1yiLnHPEC9/6sVShyTSTTnE04xGINfhXFZBuGEP77BMfeFkBl7AN0VAw0WH65ATczCZZuu74nk39Gcb++KjWI9iJ0zbJRtbTVsxVAIEIz+g3kFT4wmV6BrmCwYYUuugC9OEdDHNHWdMEXOgg98nestfMeRIZkT7ltbW5RCCK6ldubsGai5xWMNlUmO8UWkjrg1BNda5D8uBqYoBAWTqFGLyiElpUAk9RdMjELxHA9mrROIrhqp5x2+FYLEjl4LGpr6wpQ02i/ixqy0josnj0ELRITJg4agnrlT1+06mDxFHJAYpFMnHDEGEHHEH0vNc85aY+mIF7RnKy9e7A0nJyyCPv3wo3ur2+sA13Tl8cN3Rz988Xd/+533P/OFncEa7/fsbu0AhWza7XAtMlhC8qpCEajL5Zkjom/dTTSAEjuFko7L0nWfRxGUuvvxV4dvSn9GjKuZf4y7XUm7jEpCjJ7csuy4M5ztZ+2z07sahlnkIJaWLrrp6EKsxBEIliUqY16iINsaMPaz++LoShyHRc9bXXtITy769GVYAQaej0AAUyJri2CGWMYI1XlAF0I4DcYJPff/+Xrw+PBkwlILEOYSR14WrvDB+JDVQXdPeCAVbwrOTczxz3dZvxMHS0p8wjjUAo1sWjjjFjJwoldQxoIjNRDpsvJkOhu9ACnZ2J3j39QDIzSgBZRtT3Pi8GbMxonIt+DIkWZWHrBgRp602HngDZ/SKLgBghrDEBwhDEqqT00q/mfEna+RYzwxeRZXNdZanijYQkkb55gcibUPGSNr2QXIrE9r0ghEhSijTpdBAEijyREHD+ubGgA5Ab+FZ6a6Qj9D3+hqkDN6FqNX0xc/eMnW9icf/ue7Dz6xdbz+7HtPdod3Hn5q9+//+tvvvfEpjXI04wtBzsR0g1z5xxGoHJWvdUvdso28/b2ZBlBrp9Oq0fPpX0twJklHfyb+tZdnBLiMT0d2GcH5jEhSqfBJVQnp0hXo+6QNbeNx2d2tyawupvoS/YlxEH6ZcvbHOFonHaJGRloiDFNzq5CiiOAc7QsbwhzzVlgIGgkxJHz9A4ybBe8Y58YuEy35s89NASnnOLmBhQUwueEZhAL7OAmGteDR0cgIVoDnnLAw32efTBBQgy07lrEZa28zImOgxEhhX0jeIOEjR2uObaFsVOdSibBLYfXZQVIDanfg0N859ZjzXTDY7JgUJO84KC3DY2K4VKfNDAnR0GZhIhoO5DkKJqW4pjDRfIbMiOdO4uEx+FdDZFGxdaYqMCp0CEpSWdlzDKKIcrLJygi0pNNOzTQCjItNsna6SyHLmSXQ71IRg1By4CUpFsynbC5nGYnTcvYXq5OTZ//+H1/4/Pv/+s//8sbm3XurO1/+mS/9+R/92eN7b6/M57trd2ufoVkJusgfJK0WEmkrKyIQAGeAqBDceh9fA+iwtAmLTp9dzBm+HcGZ+P/hZT+7fhY0wQs592VeJshIZzmqrkiC6+40Daj3kOxuESjKpDBJR9xxWBLYKRxArWHOLUDMVPxnxMKPHZTuA0FovO9NG3C/EzEPlU/bxmRruTUpHW6FLVy0LIoVvc4+aQYUHJzwHTjwBRFKHrJxbsjlYIeNvDnB6gZjXo60AuxYAAYHxy7q+mrw/sHe/iFTgp7qrJ14Mj+YjGJvaeDBE0SOecct1kZYLAblfMcu1cQCJxEMex3CQoAD/1zxYLca+6LzfiXxYqS2T+Ow5lhWdtAbs5FYJCeV6gmiFbo5u6dJ5Ydj2VAH+oD1NNyCpDwqpOYSHYJ8jJYBQRaO2ZZnI8ru65oohGH07DIOmXa4hhFJKgw0HJkrZB36enzCs4Gj97hknZyTdBjeE7MYH2/N1oaz1fsb2x/923d/8u33FqPJb/7y17/1O3/ATt37g7tWycwzB92eMlydHBxs7u7EhlQ7ZhNXirA1JF/jiLL8t+7jaqCvwFLr1Zz69FdT3uhul/U5/mnf53h19OfuXIprUMK8+HfJu0Dxqbv4YkXoO/5F2W9uDTR1FD3+cLDDaL6QTltNdAKQxCM5V7PmgttaEYUaA18ykxq6+HZsUzCiYwux65pQhokcAUvsD/Iq+twinmuCuugOg7FSEWEAB8ZJJivWF7AHNfqc30IufSxBzTv2uJi1I1R68YyBrAbgaMTcny+6sR+aAPDHOh+D07HnxPCaHMdYiKRZ0yMeAHWdxLVg8Ctr4rlVkIfJl5UQV2NKNiUR2pBJIxPHcge3qlDgGsYppqxwicjOfKkfLgW6hPFi8oKDg+N1Jw+lKLMYDTpr5sPA1SFDWoWJRJ8g4nrxVAZAGfBmHlPHCJwjIig3cqHzFUw4PsqydrjYnK8+2Lq3fbL+YH3nr/7iL7/yU1+aTA8ebbwBxPMxdobqrgAhP59Q8pNBVkKYWznkq8zcTcNSnmoSdZ1bt96NNXC19krLZ5henaQjvjBtd/d84HK2P0pcI98zGfFILlG7+EKFtsG1CNFJXL2vF52mCN9QnLurvWBLFmLwHYfSK1vcLK6VYytAzjvKqLbo3Qg3ONn0+9mNg0URu7roGZgOWenWZpLxF76JQKjWUcYa/nSYR1LskoI+sEziQAaBQszCVYa6zKjXzpiM2lwxLaAkXmssQjEcZujLdzywb9wHw6n4OSaaXdAzkM39gCNQ0kUMXvxgxdYzUMdgJUUT71jCTaG4bAw35gQZWWe5mHm6KjmloVwZ0AqROhQFVmr9Ed0scCYmdiUjZfctU7Sqgab2azEX5BXOmpFp1SjrDOvt+ikDcOV0gRk7jbdAWXhmy7nvg7BNhXXlk7XpYHew+c69R5O9g1/6+a/9ye/+4clktsNxeIM1vnvLwHd7bUPDdX4yOTza2thc215D/MqxasZ6SQNC5gokwsopxVbBb/0baKBTHYHS6RWJO4Iu1RXE3Ororybr7l7Ilsj2edYRvjZAC76Wa3Ps4KJJ1UeZsqQ6dpFH+6mDta71kSthCHBN0yQZzdPzlOyWwEGQrWN2GqgWTHLsDabgMmT1bumw0yQETm218ZVeaYzRl8BZ7pg2mCladykNXZ7s46ARghv6ruz04Cn0zP03vJxGIzfRkMWSSG5OFtFRsMUBRgBEczSNHKHAEiSmKGMSAou8H+L8oEuIrHJghGHJLOp9jyyCzDMWzs6YIwCAyStPzz8s467BO2xG3kpwRpHTnBpM4xYycmxWA3a8wZAYxDImtqEmJGPnTJkRA6pyy8EnLtVlEYKUqToUyOZ0HUWQP9ILm6Iv+uMLAE6kcoPR8GC4PVh/b/cdtnH86bf++N2Hn9gZrN8ZbHmu04J1JBCNLToOeJlPgxtaGY8nKNijodKsyaUqNxk24aqmW1xTYz/Wrut71yzldXGt2PGkP8dXDtXgzt2yyyLQ+TzScltyO0XrvHGmCEndp2lpL/69gpLuupyGSzLEpyt14YqB0AAodSaNHPpRy9JqXSznEWp6esXG1msIMIsYcvV5JQxDoACfK8P89ZJ7LBWwCAGiZUTsk0AkYe3R14Ed7R5NjgAFdlYw/QdU6VgjaZeJXQIGRVjrcO3YIS1Y5RspGkGrIhkGlyiCBMTFvgsZWYOBCMcok/uE2efM+JppR0ee4pGVxa3x0RQw2hhuIub8aAZYPX7nk599973f+tpvfHL37Te27m94CAeDWF7OZxaQfDMotmz10CF0A3eLazdQ1v9PUrrBjdx5zLkq+Y1wrXpsJ1A/p6W+3+/ZdNgzrqaEusg+MZFLjEJ0hqBLGGJuNhYa80e9f9hd3IJZ3zdpLL6GBx29c71g4ipdC+F9LgmfsiEfLbb4Aa266hhXJj32jpibcbNEsDtVkZYQqASoLcQ74DmsTZ1b7K0V+wC+IsNmZA4O+49c3A2Tt4DBQb6RmRfj+FLSPqCW7SvN+Bc0TIRzdjDR9/2QgCXbCvliCpnmbQ0QkPURMXPBVyQ24M7Q8u7OnXcevf0Tn/705376c5/d/QwHrT0a7rKVh7E5sAm0Mc3HwNXdzlwjbmqUElZr6emBnC91t7h2qWp+XG6cNvrrlaiPNtdLcW0qO4EdbEmkNr/29yw0LRGbvrgYKsdgsQ3S6mNntdev/00/qV5DxwfNlv3zDKAlu6Z7dUPe03w7cUuoa/RDII6yNzI4V9/24X7mS3xKgK7U5+goA3AQSfSKEODkAlDjskC0CCAG3Rj/4jOX1RaNS+M33DwIDmpmaak5BMZzoYNlkFcjz4PBOtPiY33jZDaaHeJzWD5WG2DHVruNTd3G+vrd7btvPXrz8duP37rzaMcDCsn/5P5gd2PAB2eBM+ZNKSV/7FNzolM5rU2LTrg0EPjrF/ji8C2uXayXH6PYtN4blOcUX26Q6NqkDmR6xL3MToPVgntU/RS96C7Yt+BujGuvY97lUgHBARdpS1DR0KiCj45d1xXpwPRG0PyMn45twi5JKIuTHFs9JK8qY+VhomXXkhJbJOJELnyKBK9Z8KxpsgzsqAVHlpjbmn/sHxwqIWNPokyXzX++cuA8A9hSQ0oksfow95jvy5jXS8qVTBn5Mp/mXXxGwW5W8fxez/wgkoOVc/oJb1y7Eq2Axyc7wzvsP+aSYzLzcCCLCMBt5vWMEuDKIektrrXKuP39v6QBp+ZPnb3late16R5Zn0MvuoBgGeNy+1L6pcTXu0gvb0j7tlVTkL64hI11yfECS7AvZ5d1M+huUjboeYaynwUJe9Zqx4YA1hYQhdkCmjGmC8oFH3POB6AiDcDCkkAusL+Y/2KFk4TFp+w1tvsTVxxiA2LHIaUrHhQtNAIk4MiqKT445/63AafBiEegG5Tc4ZBe5s6wy9j0tzpfcJwvu9KStaYVAbIwZ1RF9r7f0DWUEpZYHgxoNKUoES/3/xv2AvenV+PNrQAAAABJRU5ErkJggg==;" vertex="1" parent="1">
          <mxGeometry x="1970" y="1090" width="355.13" height="135" as="geometry" />
        </mxCell>
        <mxCell id="zTCvv12B_XUvZwemzXdV-13" value="" style="rounded=1;whiteSpace=wrap;html=1;dashed=1;" vertex="1" parent="1">
          <mxGeometry x="1450" y="750" width="960" height="170" as="geometry" />
        </mxCell>
        <mxCell id="zTCvv12B_XUvZwemzXdV-12" value="&lt;font size=&quot;1&quot; style=&quot;&quot;&gt;&lt;b style=&quot;font-size: 60px;&quot;&gt;中间件层：MQTT&lt;/b&gt;&lt;/font&gt;" style="rounded=1;whiteSpace=wrap;html=1;strokeWidth=3;" vertex="1" parent="1">
          <mxGeometry x="1472.57" y="775" width="550" height="120" as="geometry" />
        </mxCell>
        <mxCell id="zTCvv12B_XUvZwemzXdV-14" value="&lt;font size=&quot;1&quot; style=&quot;&quot;&gt;&lt;b style=&quot;font-size: 80px;&quot;&gt;APP层&lt;/b&gt;&lt;/font&gt;" style="rounded=1;whiteSpace=wrap;html=1;strokeWidth=3;" vertex="1" parent="1">
          <mxGeometry x="890" y="430" width="1050" height="130" as="geometry" />
        </mxCell>
        <mxCell id="zTCvv12B_XUvZwemzXdV-16" value="" style="shape=image;verticalLabelPosition=bottom;labelBackgroundColor=default;verticalAlign=top;aspect=fixed;imageAspect=0;image=data:image/jpeg,/9j/4AAQSkZJRgABAQAAAQABAAD/2wBDAAsJCQcJCQcJCQkJCwkJCQkJCQsJCwsMCwsLDA0QDBEODQ4MEhkSJRodJR0ZHxwpKRYlNzU2GioyPi0pMBk7IRP/2wBDAQcICAsJCxULCxUsHRkdLCwsLCwsLCwsLCwsLCwsLCwsLCwsLCwsLCwsLCwsLCwsLCwsLCwsLCwsLCwsLCwsLCz/wAARCACeAJYDASIAAhEBAxEB/8QAGwABAAIDAQEAAAAAAAAAAAAAAAEGAwUHAgT/xABGEAABAwIDAwUOBAMGBwAAAAABAAIDBBEFBiESFDETQWGRsQcWNlFSU1RxcnSTlNHSFSIygSOhsiQzNGJ1kkJVZGWCo7P/xAAaAQEAAwEBAQAAAAAAAAAAAAAAAQQFBgMC/8QAJxEAAgIBAQkBAQEBAQAAAAAAAAECAwQRBRMUITEyM1FSEkGBIkL/2gAMAwEAAhEDEQA/AOtoii/qQEovPHh/JT19RQEoo16eopr09RQEoo16eopr09RQEoo16eopr09SAlFGvT1FNenqKAlFGvT1FNenqKAlFGvT1FNfEUBKKAdOnpS6AlERAFp8fxdmD0D6kND53uEVNG6+y6Qi93W5gNStuVRe6A47GCtubcpWEjmJAi17V741astjFnvjQVlsYsp9XiuL10jpamtqXuLiQBI5rG9DWMsB1L5+XqvPz/Fk+qxIus3Va5KKOrVUFySMu8VXn5viyfVN4qvPzfFk+qxIp3cPSG7h6Mu8VXn5viyfVN4qvPzfFk+qxIm7h6Q3cPRl3iq8/N8WT6pvFV5+b4sn1WJE3cPSG7h6Mu8VXn5viyfVN4qvPzfFk+qxIm7h6Q3cPRl3iq8/N8WT6pvFV5+b4sn1WJE3cPSG7h6Mu8VXn5viyfVOXqvPz/Ff9ViRN3D0hu4ejeYTmbFcMlj5SeWej2hy0Mri8hnAujLjcEetdYgliniimjcHRysbJG4c7XAOBXCyuv5YJOAYESbk0MNyfUsTadMI6TitDG2lVCOkoo3KIixjGIKondA4YJ7Vb2Qq9lUTugcME9qt7IVbwvPEuYXniUNSoUrrDqiEREAREQBSoUoCEREAREQBSoUoCF17K/g/gPuUPYuQrr2V/B/AfcYexY+1eyJj7U7Ym6REWAYJBVE7oHDBPareyFXsqid0HhgntVvZCreF54lzC88ShoijbYTbbbcmw1C6w6nVEoigua3VxAB0BJtqobSH81JRQHsdwcD6jdTfj0C59Slc+hIReRJGeD2H1OC9L5/S/hCeoReS+MXBe0EcQSLpykXls/3BfWqGqPSKNuPy2/sQo5SIXG2y/OLhBqj0i88pH5bP9wUh7CQA9tzwsQo1Q1RK69lfwfwH3KHsXISuv5X8H8B9xh7FkbW7ImRtTtiblERYBgkFUTugcME9qt7IVeyqJ3QOGCe1W9kKuYXniXMLzxKIOLfabx6XBdm/DMJdEWOo6UbcZY4iGIGzm7JsbLjGt2+0z+oLruNV34dBhFUXWjGKUcNQTwEM7XwknoFwf2WjtP8AX6iomhtL9axUTlNZTPoaysopP1Us8kN9fzNYbNdr4xYq3ZGwunqG4jiFTFFKzbbR04lY17fy2e9wDtOJA/ZfLnyhMFfTYhG38lZCIn24meHQdGot1Lf2OA4Bl/Dmm1VWVeH0j7aOL5ZWzTu06Lj90vyd5jxS6sXZDnRGK6s1ufKakpqbBzBBDEX1FSHclG1lwI2nXZCx5Vy3RVNK3GMUY18LtqWlglsIWRMv/GlB4k62voB619HdFvueEnUfxqs9P9006LZ46NzyhURw/lDaKgptOAZI+KJw06CQq8bZqiFafVnhG2e4jWnzbPl76slOk3M0xFOSIhK6kjFNsnS9v1Af+K1mact0lJB+KYa0Npw5u8QsN42B5AbJH4h4x0hUg6rqeH/2vJkYlJdtYLOx21qTyUbmg6+oL1tg8SUZwfJ9T1sg8WUZRfJ9TSYRmDKtHhtDTVtG6SpiiDZXCkikBdcm4c43VrpHZfrcObicNBTbq6GWcbdLCH7Md7/ltx0POuPB1wL84HHrXUsA8Dof9Prz69ZVGbQq0ppvmz5zaFWlJN6tmulzRkp8UwjoSHuikaw7jCPzOaQDcFfPhuYso02H4dBU0RkqIKSCKZ25RP2pGMAc7aJub2Koo4D1BTzK2sGOnVltYUdOrOwNfl92GfiwoKbdd1NZ/hYuU5MN2v024/uq5XZkydNR10VPQuZNLTTxwu3KFuzI5hDTcG/FbOEDvGJP/IXn/wBRXL+ZU8THVspNt8mVMWhWOWrfJnpuoAPNouv5X8H8C9xh7Fx5dhyvrl/AT/0MPYvbavbE9dp9kTdIiLBMIgqid0HhgntVvZCr2VRO6BwwT2q3shVvC88S5heeJQ+dvtM/qXTc7NDsuyX4Coozpx/VZczHEEjQFpt47G9lYcYzbU4tQOw+Sghha58MnKMme8/wztAbLmAa+tbmVVOyyDiuSNnKpnOcGlyRbMMZTZlwPA31R2pKKpppZra3no3bLgb8zhqfWtRjtcKrN+XqIG8VBV0rHAHTl5Dyr7/sGjrWhwHMlXgUVVFHTx1Ec8rJg2WR7OTeG7JLdlp46dXStdFiMzMUjxWRolmbWGtc1zi0PeXF1iQCefxKpHEmrJPTlz0/0qwxJRnJ6cuen+l17ogDqTBweBqKodcbVsodjMWVDAx45aSkbC65tsVVPskB3i1A/Yqk49mSbHY6OOSjipxTSSSBzJXSF220NIs5oXyYRjWJYNK+Sle0xy25eCQExSbPC9tQRzEKI4tjpitP+kyY4s3RFdJJmAYXjJqNzbh1Yaov5MM5CTZBvbaLyNjZ573XR8QczAcpmle5plbQigjt/wAdRMwtcW+q7itXD3QIiYxUYY9jSQ2V0M4fsjnc1jmgn1XXvN0OGYphtNjEWJtDIWltPG5xdFO51iWsjH5hJ49PXoLj4tlbZZCN0dEedsrLJxjdHRHPl1PL5vk6n/06v7ZVyxWahzZPQ4VHhTaGF7GU81Pypne1xEu3d2yGW51ezaZ2RSgteZdzKp2xSiv6VkcB6gpUDSw8VlPG6vroXUuWh1GLwHt/2F3/AMiuXKytzZUNwb8H3GHk9xNFy3Lv29kt2Nst2LfzVaVDDqnX+v0urKWJVKv9fpdWBxC7DlbwewD3CHsXHhxC7DlbwewD3CHsVbavZEr7T7Im6REWEYRBVE7oPDBPareyFXsqid0DhgntVvZCreF54lzC88ShoRcWRF1eh1JjIt6lCykA6LGQQV86HxoEREJ1CnXQXNgSQOYE8SoUqCNAiIvpEhERAERTZSBZdgyt4PYB7hD2Lj44j9l2DK3g/gHuMPYsfanbEyNp9sTdIiLBMMgqid0DhgntVvZCr2VRO6DwwT2q3shVvC88S5heeJQ1KhF1h1QQi6IoaIZ4IIULIQCvNrXUaEEIiKCAiIgCIpC+gBwREQkc67BlfwfwH3GHsXHxxC7BlfwfwH3GHsWPtTtiZG0+2JukRFgmEQqN3QI3uiwiQfpZLUsJ/wAz2sI/pKvS1mM4dDidHNTTAlrwCHNttse3Vr2k84Xvj2KuxTZ749irsUmcaU6rd1GVsdhkc2JsE8YP5XiVsLrf5mS2/kSsPe3mL0OL5qn+5dMsuprX9HTLKqf/AKNTqmq23e5mP0OL5qn+5O9zMfocXzVP9yniqvoniavo1OqWvxW2728xehxfNU/3J3t5i9Di+ap/uTiqvocRV9GnIULc97eYvRI/mqf7l572sx+iR/NU33KOJq+j54mr6NQi2/e1mP0OP5qm+5T3tZj9Dj+apvuTiavocTV9GosNEW3728xehx/NU33p3t5i9Ej+apvuTiqvocTV9GoRbfvbzF6JH81Tfcne1mL0SP5qm+5OKq+hxNX0ai4FyeDQXE9A1XY8txviwLA43ghzaGC4PS0FUfCcn1k08T8SMTYGOa808Ti8ykahsj7WDfGBe/jXTI2hjGN4bItpoFkbRyIW6Rj/AAyNoZELNIx/h7REWSZQUWHBSiAxOghcbloUbtB5KzIgMO7QeSm7QeSsyIDDu0Hkpu0HkrMiAw7tB5ATdoPICzIgMO7QeSm7QeSsyIDDu0Hkpu1P5AWZEBh3an8gJu0HkrMiA8NjjZwbb1L2iIAiIgP/2Q==;" vertex="1" parent="1">
          <mxGeometry x="2040" y="756" width="150" height="158" as="geometry" />
        </mxCell>
        <mxCell id="zTCvv12B_XUvZwemzXdV-17" value="" style="shape=image;verticalLabelPosition=bottom;labelBackgroundColor=default;verticalAlign=top;aspect=fixed;imageAspect=0;image=data:image/png,iVBORw0KGgoAAAANSUhEUgAAAMgAAADICAYAAACtWK6eAAAAAXNSR0IArs4c6QAAC4JJREFUeF7tnb2LHVUYh2fWYpGIaCxsUtoEsdldwXIXVAiCWkiSRkijiLHQv2B3/wItVEQLBZsYLEQQQYTcdEL2biNqY6mFhR+ESEiho7PcSW42c2fe8znnvOfZJpB7vt7f+z5zfmfuvXPrij8UQIGVCtRogwIosFoBAKE6UGBAAQChPFAAQKgBFLBTgB3ETjd6FaIAgBSSaMK0UwBA7HSjVyEKAEghiSZMOwUAxE43ehWiAIAUkmjCtFMAQOx0o1chCgBIIYkmTDsFAMRON3oVogCAFJJowrRTAECWdHvpzKU3H1h/YvfE+umHuv/+7ucn7ZSll6kCs6ZpZmtra1cPDg5mpp1DtQeQhbLnn/vmyiMPPL3dJ/Qvf3xY/fLHR6FywLg9CjRNs3d4eLg/tTgAUlXVhRd/+PjE+ukLQ8kAkmlKdWpQigfk9bP/7NZ1vTeW/us359WPv7421ozXAygwJSRFAyKFg/NIgKo3H3I2n893zLu59SgWEFM4Wpk5sLsVm2vvKXaSIgGxgQNAXMvbT/+6rndi3uUqDhBbOADET4H7GGU+n0er22gT+RDGdQwXOADEVX1//WPuIsUA4goHgPgrcB8jxdpFigDEBxxtUt/7bK0IvXwUsMkYW1tb203T7FZV1ftGbd9YAGKi8EBbX3AAiKeEDAyzsbEhek+qHSLWHS3VV0SfcABIeEDaGTY3NxvpTDF2EbWA+IYDQKRl695OCgmAWGodAg4AsUyGRTcAsRBN2iUUHAAizYB7OwBx17B3hJBwAEigpPUMCyABtLaFo70bIvk0L4AESNqKIQHEs9YucLx/+b79i+f+Fd054X0Qz4kDkPCCusLRrhBAwufJZAZ2EBO1Btr6gANAPCXD4zAA4kFMX3AAiIdkeB4CQBwF9QkHgDgmI0B3AHEQ1TccAOKQjEBdAcRS2BBwAIhlMgJ2AxALcUPBASAWyQjcBUAMBQ4JB4AYJiNCcwAxEDk0HABikIxITQFEKHQMOABEmIyIzQBEIHYsOABEkIzITQBkRPCYcABI5OoXTAcgAyLFhgNABBUbuQmArBB8CjgAJHL1C6YDkB6RpoIDQAQVG7kJgBwTfEo4ACRy9QumA5AlkaaGA0AEFRu5CYAsBE8BDgCJXP2C6QCkqqpU4AAQQcVGblI8ICnBASCRq18wXdGApAYHgAgqNnKTYgGR/Jps5FwYTcdTTYzksm5cJCBDv0NurWTkjgASR/DiAHnpzKU3H33w7Ntx5A03C4CE03Z55OIAufDiD3+eWD/9UBx5w80CIOG0LRoQ6YPZ4shvPwuA2Gtn0rO4HUQDINdvzqtPv3xS7e+pmBRw6LbFAfLy89eaB+/fDK1r0PH/vvXTX5988fjDQSdh8CMFigPkhWc+aE6dfDXr9P92/fJbn399/p2sg8hk8cUB0gZ86uQrVa6Q/H7j29mlr57dyaS+sl9mkYB0WXvqsWvZJLC1VTdufb/PzhE3ZUUDMiR1jB9ljJtqZrNRAEBWqAYgNuWkrw+AAIi+qvYYEYAAiMdy0jcUgACIvqr2GBGAAIjHctI3FIAAiL6q9hgRgACIx3LSNxSAAIi+qvYYEYAAiMdy0jcUgBQCyBvnm+2maXarqtruQuY7JeNAA0gBgAw9vaVpmr33L9+3P14qZbYAEOWALHaOK0PlzU6yWh0AUQ7IxXP/tnDctlUrwp2999kaH6HvEQdAFAMi2T04jwxbRwBRDIjJkyM5i/QXAoAoBkRorzoFsFlYrLS+hB/yvpCJvcJmcUi/rUBKW2ZIQEzsVbcObNa9GUmpXqI85ymlgEMCYmivsFkrkpFSvQCIJ2Js7BU2i0P6kQIpXRE88XDPMDb2CpsFIMUAYmmvsFncxdK/g7jYK2wWh3T1FsvFXmGzAEQ9II72Cpt1jJGUzqzcxXI8tfuwV9isu5MAICuKMscnK/qwV9gsAGkkF+ocAfFkr7BZSwXCDqJkB/Fpr7BZd4oCQJQA4tNeYbMAZNRl5WaxDOzVTPANQ2zWQgF2EAU7iIm9aj+x24Zc1/XRv2N/pX9fHUAUAGJir7qCl/7ab+kfgQcQBYCY2Kvu4QxSQP63Y0V/0xBAMgfE1F51z8Cy2XXG7JjG1wEkc0BcCl26i5RsswAkc0Bs7FUXshSQkm0WgGQMiK296kJ22X002qm+mAAkY0B8FLh0FynVZgFIZED6nrIe4Wq88k6UFBBbmxUj3pDv1QBIREBMrvg+oRm6+pusybQQTcZ2jTfUDgcgkQAxOS+4Fsvx/mOFLd1FTIpwinjH4rTRFUAiAWJwt8kmj0N9Rt/okwJiYrMminc0VlNxASQeIKLvoZgmcKy95KpvYoUkV+kpdo9OB8n6xjRbfh1AlAMiLRjpLuIbOJNiFbRlBxGINNhkqitC6pZDCojEZk0Ua5t3AMkVkClsR13XO+9eqtvvf4z++bJZU8TZBWcS76ggiwZTXVD71qf+qSYmRShN4Kp2Eit0vK90F/F129g1xuX+NvFK5geQSGeQ5WmkhShJYE+bWV3X+9Kdw3JdQ288Sn4T0TK03m7W8UoWASATACJJzBRtTHa4vsO/ib0KdcX3rRuAAMhdCkh3t74CdwXMd3H7GA9AAMQKkL47RgZ3r7zfbfIBQ98YAAIgdylguwtotFetMAACIPcoYGOzbMEKdeX3NS6AAIg1IMs2S6O9YgcZuMzk9uA4X1fMdhzT3UCrvQIQAFmpgInNagfR+iA6LBYWq1cBKSCtzVoMsC3YxbK5e9XFAiAA0quAic0SgHHUJJc3B5fjARAAcbZZUkCkH72XjhejHYAASCxAsrNXHNI5pA9ehH3arBztFYAAyKhLMTisD46Vo70CEACJBUiW9gpAAGQUEB82K1d7BSAAMgpI28DVZuVqrwAEQGIAkq29AhAAEQHiYrNytlcAAiAiQFxsVs72CkAAJDQgWdsrAAEQMSA2Nit3ewUgACIGxMZm5W6vAARAQgKSvb0CEAAxAsTEZmmwVwACIEaAmNgsDfYKQAAkFCAq7BWAAIgxIJIHNIR4yrrxQj114AtTK4Qs+akmY7U1dBbRcvboNAAQABnjYeXrxz7EGPQp69aLdOwIIADiWEK6uwMIgOiucMfoAARAHEtId3cAARDdFe4YHYAAiGMJ6e4OIACiu8IdowMQAHEsId3dAQRAdFe4Y3QAAiCOJaS7O4AAiO4Kd4wOQADEsYR0dwcQANFd4Y7RAQiAOJaQ7u4AAiC6K9wxOgABEMcS0t0dQABEd4U7RgcgAOJYQrq7AwiA6K5wx+gABEAcS0h3dwABEN0V7hgdgACIYwnp7g4gAKK7wh2jAxAAcSwh3d0BBEB0V7hjdAACII4lpLs7gACI7gp3jA5AAMSxhPR239ra2m6a5ookwhjPcq4lC3FtI70itPPECNo1HvqHU2Bzc7OFY1syQ4xaiQLIxsbGbl3Xe5Kg2yeVHx4e7kva0kaXAiZ18j9Es/l8vhNagSiAtEGY7CJt+/b3Lg4ODmahBWD8aRVoLVW7gqZpdqU7R8z6SBaQadPG7KkrEMNeHYEYSwiTw1esNTFPngrEdBfRALGxWXmmj1WHViDW7hF1B2knYxcJXTr6x4+5e0QHpJ3Q8E6F/owToViBKe5wRrVYnRJAIq4JGt5RIMpt3eOCTwIIOwl1b6LAFDtHt77JAOFMYlIixbY9+hXfKd8PmxQQLFexhT8W+KxpmlkKn6hIApBltRbnk+6zOKLP5IypzetJK3D70xItFGtra1en3DGSOYMknTIWhwILBZLbQcgMCqSkAICklA3WkpwCAJJcSlhQSgoASErZYC3JKQAgyaWEBaWkAICklA3WkpwCAJJcSlhQSgoASErZYC3JKQAgyaWEBaWkAICklA3WkpwCAJJcSlhQSgoASErZYC3JKQAgyaWEBaWkAICklA3WkpwC/wFsRdZBdBwCDwAAAABJRU5ErkJggg==;" vertex="1" parent="1">
          <mxGeometry x="2200" y="750" width="170" height="170" as="geometry" />
        </mxCell>
        <mxCell id="zTCvv12B_XUvZwemzXdV-18" value="" style="endArrow=classic;startArrow=classic;html=1;rounded=0;strokeWidth=5;" edge="1" parent="1">
          <mxGeometry width="50" height="50" relative="1" as="geometry">
            <mxPoint x="970" y="1710" as="sourcePoint" />
            <mxPoint x="970" y="1240" as="targetPoint" />
          </mxGeometry>
        </mxCell>
        <mxCell id="zTCvv12B_XUvZwemzXdV-19" value="" style="endArrow=classic;startArrow=classic;html=1;rounded=0;strokeWidth=5;" edge="1" parent="1">
          <mxGeometry width="50" height="50" relative="1" as="geometry">
            <mxPoint x="1090" y="1710" as="sourcePoint" />
            <mxPoint x="1090" y="1240" as="targetPoint" />
          </mxGeometry>
        </mxCell>
        <mxCell id="zTCvv12B_XUvZwemzXdV-20" value="" style="endArrow=classic;html=1;rounded=0;strokeWidth=5;" edge="1" parent="1">
          <mxGeometry width="50" height="50" relative="1" as="geometry">
            <mxPoint x="1640" y="1710" as="sourcePoint" />
            <mxPoint x="1640" y="1530" as="targetPoint" />
          </mxGeometry>
        </mxCell>
        <mxCell id="zTCvv12B_XUvZwemzXdV-21" value="" style="endArrow=classic;startArrow=classic;html=1;rounded=0;strokeWidth=5;" edge="1" parent="1">
          <mxGeometry width="50" height="50" relative="1" as="geometry">
            <mxPoint x="1640" y="1410" as="sourcePoint" />
            <mxPoint x="1640.41" y="1240" as="targetPoint" />
          </mxGeometry>
        </mxCell>
        <mxCell id="zTCvv12B_XUvZwemzXdV-23" value="" style="shape=flexArrow;endArrow=classic;startArrow=classic;html=1;rounded=0;strokeWidth=3;" edge="1" parent="1">
          <mxGeometry width="100" height="100" relative="1" as="geometry">
            <mxPoint x="2107.66" y="1470" as="sourcePoint" />
            <mxPoint x="2460" y="1470" as="targetPoint" />
          </mxGeometry>
        </mxCell>
        <mxCell id="zTCvv12B_XUvZwemzXdV-24" value="" style="rounded=1;whiteSpace=wrap;html=1;strokeWidth=4;dashed=1;dashPattern=8 8;" vertex="1" parent="1">
          <mxGeometry x="2470" y="1230" width="750" height="510" as="geometry" />
        </mxCell>
        <mxCell id="zTCvv12B_XUvZwemzXdV-25" value="" style="shape=image;verticalLabelPosition=bottom;labelBackgroundColor=default;verticalAlign=top;aspect=fixed;imageAspect=0;image=data:image/jpeg,/9j/4AAQSkZJRgABAQAAAQABAAD/2wBDAAsJCQcJCQcJCQkJCwkJCQkJCQsJCwsMCwsLDA0QDBEODQ4MEhkSJRodJR0ZHxwpKRYlNzU2GioyPi0pMBk7IRP/2wBDAQcICAsJCxULCxUsHRkdLCwsLCwsLCwsLCwsLCwsLCwsLCwsLCwsLCwsLCwsLCwsLCwsLCwsLCwsLCwsLCwsLCz/wAARCAC0AKQDASIAAhEBAxEB/8QAHAABAAIDAQEBAAAAAAAAAAAAAAQFAgMGBwEI/8QAPRAAAQMCBAQEBAQDBgcAAAAAAQACAwQRBRIhMQYTQVEiYXGBFDJCoQcjYpEzUoIVcpKxwdElQ1Njc4PC/8QAFwEBAQEBAAAAAAAAAAAAAAAAAAIBA//EABwRAQEAAgIDAAAAAAAAAAAAAAABAjERQSGh0f/aAAwDAQACEQMRAD8A9bREQEREBERAREQEREBERAREQEREBERAREQEREBERAREQEREBERAREQEREBERAREQEREBERAREQEREBERAREQERa3zQR6Pe0HsNXfsNUGxFCfXdI4/eQ2+w/3UaaebKHTzNiY7bO9kLD6FxF/wB0Fk+aCPR8jQe17u/YarGOogkOVr/F0DgWk+l1VNDS0PYWuYTo6NzXNJ/vNJH3X210F0iroqqWOzX3kZ3+sf7qdHJHI3MxwI69x6hBmiIgIiICIiAiIgIiICLXNKyCKWZ/yxtLj59gqlta+qBJeWg/Q02aB201KC1fPBHo6Rt/5Rq79hqo767pHH7yH/5b/uoVrL6gylqZCySSaYRxMaXSOc4RRMb3cSR/mqCs4pwKka8xOkqi0G7oQIacH9U89h+zSpGPYbW4ph76ajqYqepa/mROnYZIXHKW2e0X1/lNjbtrp5638N+KqyXNimKUYjB3ZLLO4j9LSwALnlcutKnHaRin4jVHjjpJYoBsBQM5knvUz6f4WrkPjuI8YqS+mpKqrmeRZzmTVkp9XPv/AJL1HC/w+4Yw/I+aJ9bM2xLqk+C/kwLq4YKenYI6eGOKMD5IWNY33DVExt37+Ktk04Tg/A+MaWrhrcT5NDSiOVslKxwM9VmbZglijcYwAfFc63G2q76y0/F0nNZAyRsszi7wQfmFobbM5zh4QB11v5LCWoq4Q+Uww5G1UUEcRLjLO18rYmua5pygm9wC3YanqO0kniIt5SrEWJGh2Nl9aXNIcwlru4/1Vaxkg5oikfPJE+QMq6Wdj3udfMGVUcruWel7E/0lT4+cY4nSta2UsZzRGS5jZCNWtJ1tfZaxOiqxo2YBp2zj5T69lKFjYg6Hayqh1B+62xvli/hkFvVjvl9uyCxRaYp45NPlf/K7f27rcgIiICIiAiKNWV2HYfCZ66qp6aG9g+okbG0usTlbmOp8gg14oM1FO07Exg/4guYDpIH7m1/sk3G2AYjUjCqD4iYytkf8S6PlQflWdZoks83/ALoWZLHix9vJBZU9QyVoF9VvsqEOfC4EHTf2VtTVTJQATqgkL6vtksgjfGUmedjpCzkSGKR8zHMiDwAbcw+DqLXIvdR5Zat4ipZQyCaYh1PWRzSNgkc03Bpw3Uv6ljnW83Dbe6ijkq3VDg1zJIGMkheCWOljPglIvluBdpu09Nra7Ww09MJSyFsTTeWQRsOpa0m4Y3r2sEGlsL5WGCrijIic10M9OeUCTfxxtaczHjrY210NjYZSsgEEcda4TtMkbRzYgXzS3JYBHENXadB0JWkVE1XC6KMS0dcY45uRMcshiDmudkkZ0I8JcNW31A6xyZzFldBLndUsJo3MqjLCOYGiSCtL3NBaPEHXtodBdBLkndHE0wR5YoeZ8V+V+bSxxtLrimzNPrr6A30iSOkqG0j5I2NqZ45oqESiGajnbfm3LLvLXloJvqBtc7KRHh4jNKGysDaV7HxyRwMjqXht/DJK02Id9fh1+6lx08DHF0UMTHu0JjjY0kHW12hBHpmVUbo47SiljgyAVb4ZJ+YCA3K+HcWvmue1lNaStjKeR2+g+63ZYIhdxGm5JQahE59tPQ7WPcFbw98IHNeHMuAXfU2+mvcKtrMco6e7WuD3DYNVFLiuI1r2tYMkZcBYHSx01KDuEWuG/Jgubnlsue5yhbEBERAXL8cYXUYpgb200HOnpKiOsbG3+I5jWuY8R/qsbgdbex6hEH59wSqo6Oud8UQ2KojEUdQdoXh2YOd+k7O7aHYLvYKl7HcqXRw2P8wUfjnhCwqcbwyK7DmlxKmjGrT1qYmj95B791y2C4uGiLDa+QBmjaGpcdI/5YpHH6T9J6bbfKHfh7Xix1C+Bz4nAtOirYKh7HmGYEPaba6XsrBrw4eRQXNLVtkAa46qbb9lzQLo3ZmlW1HWNeA11r6IJc0EVRDNTy35c0bonkbgOFsw8xuPRVtDT4hkLueaV0Jkp5IGxukhlliOUzZZzlDXfMMmUa76aXAsRcbLIMc7Ye6CGYRKyEVLYnyRPErXRtexrZB9Ud3Fw8/F9lvDXu2BKlNhaNXWWE1XS07SXPa0Adwg+MpibF5sOwWbpKaBtyWiw3JXP1nEbASymaXHa52VLLPiFYbyyODTra5A/ZB0dZxDTRXZD+Y/y2VFPXYlWk3cWRm+g0FlpZDEzW2Y9ytuYIMWU8bdXXc7z2UiMgOjA2zDb1UV0zW3uQoj652YNhBdKSBGACSX9AANUHpVNLDLDG6KRkjWjlkxua4B7PC5pI6g3BC3LwpmNYtw9jWJSYdV5g+pL6uJ55lNUSmzpBI0G1wSRmBB03XrPDXEEPEeHvrGU8lPJDO6lqI3kOYJWsa88t43bYjoPTTULxERAREQF5HxxwgMPdLiuHRf8NlcTVQsGlFI4/M0f9J329D4fXFi9jJGPjka17Htcx7HgOa5rhYtcDpY9UHhuC4vzeVhtfJaZuVlDUvPzW0bDK49ejD7Hounp6l7XGKW4e02N+tlRcZ8JOwSb4qka52E1EmWI6k0crv+TIT9J+g+x1F36cGxY1gjoK19q1gy0k7jrUAbRvJ+vsevqPEHaMeHCx2K+gujIc0+eirKapcCY5NHjQ+asWPBt5oLmhxGAWbM8A7C5U+bFqCFhdzWadAQTdcNWRSEkseQT5rTT0shuZJCRbvdB0FXxHLIXMpW2Gwcd1Uu+MqXZ55HWPQn/RbGsjj+UD16oXBB8ZFFHsLnuVmXWWh8zW7myhS1nRlyToPX0QT3zNbuVDlrdcrBcnQW3J7AKDVTw0wzYhUckkBzYGjPVPB7RAi3q4hUlVxBPZ8dAz4SMggyB2eqePOWwt6NA9Sgvaupgpbur6jlOtcU8YD6p3/ruA3+oj3VFV8QTubJHRtFHAQQ57XZqh7euecgEDyaB7qPhGB8QcQy2w2ldJEXkS1k5MdJGepdKQbnuGhxXp2Bfh1geHcqoxMjE61pDgJm5aOJ2/5cFyDbu4n0CDznBOGOIeICx9FTcqjJ1rqwOjprf9oWzP8AYW8wvZuHMDh4ewyLD453zu5stRPM9gYZJZTdxDBew2A1OytwA0BrQAAAABoAB0AC+oCIiAiIgIiINNTTU1ZBPS1MTJqeeN0U0cgu17HaEFeIcWcLVHD9WMhfJh1Q8mgqDfMwjxciVw+tu4PUC+4IHuqiYhh9DilHUUNbEJKeduV7b2cCNQ5jtw4HUFB45hGK/wBohtJVOy4lEPyZDp8W1ovr05gG/ffe66ClqTcMfo8aHz8wuO4j4er+Hq8U8jnOicTNh9Wzwc5jSCNW7SN0uPfYq0wnFBijRFMQ3E4W3uAAKprd3tA0zD6h7jTRodBUP2SJwAPoqmqrXtIDgbjsjK67PDudEFq+ZrQSSoU1b0buodRKyBokrpxTtcMzIyC6okH6IRr7mw81S1OPvbdmHx/DjUc95D6t3mH2yt/pHugu6mWKnAkr6gQAjM2EDPUvB2yxA3APdxAVJU8QSjNHh8fwrCC0ykh9W8f+S1m/0gepVbR0mLYxVOp8PpqitqnHNII/Flv9U0rzlA8y5ejYH+GNOzl1HENQKh+jhQ0jnMpm+U0uj3eYGUeqDz7DcMxvHah0WGUk1U/N+fLfLBETread/hB8rk+S9LwP8NMMpeXUY5KMQqAQ4UzA5lAwjWzmnxv97D9K7umpqSjhipqSCGCniGWOKBjY42Dya0ALcgwjjihjjiijZHHG0NYyNrWsY0bBrW6ALNEQEREBERAREQEREBERBXYxhFBjdDNQVjLsf4o5G/xIJQPDLGT1H32OhXhOM4PiWBYg6kqgWzRES088V2snjB8M0Tt/UXuDp5n9Dqm4hwCh4hoXUtQAyaMmSjqQ0F9PLa1x3adnDr6gEB4k3Hq8tDamOnqSBYPmYWyH+86Itv7hfDjtY0H4eOnpnWtnhYXSgfpfKXEe1lpr8KxSixJ+Ey0kz8RD8rYKdj5XTA/LJCGi5adwf3sRp2GBfhniNVy6jHpzRwGzvg6VzX1bx2llF2N9BmPmEHDwx4hidUKelhqKytmOYxwtdLK7u55Ow7kkL0HAvwxlk5dRxFUZGmzv7PoX6nynqR9w3/EvRcMwfCMGpxTYZRw00Whdy2+OQj6pZHXe4+ZJU9BFocPw7DKeOkoKWGmp2fLHAwNbfu62pPckkqUiICIiAiIgIiICIiAiIgIiICIiAiIgw5UXM5vLZzcnL5mUZ8l82XNva+trrNEQEREBERAREQEREBERAREQEREBERAREQEREBEXw3tpvog+osMzgdR9ihc7trfsUGaLAOd223Nimc66agXtrp6oM0WBc7t9ivuZ1ttfdBki15n9l9DjcXtvbqgzRYEuubbW06p4tf6en7oM0WF3XNiN+oP+iIM18REBERAREQEREBERAREQEREBERAREQEREBERB//Z;" vertex="1" parent="1">
          <mxGeometry x="2520" y="1388.29" width="120" height="131.71" as="geometry" />
        </mxCell>
        <mxCell id="zTCvv12B_XUvZwemzXdV-26" value="" style="shape=image;verticalLabelPosition=bottom;labelBackgroundColor=default;verticalAlign=top;aspect=fixed;imageAspect=0;image=data:image/jpeg,/9j/4AAQSkZJRgABAQAAAQABAAD/2wBDAAsJCQcJCQcJCQkJCwkJCQkJCQsJCwsMCwsLDA0QDBEODQ4MEhkSJRodJR0ZHxwpKRYlNzU2GioyPi0pMBk7IRP/2wBDAQcICAsJCxULCxUsHRkdLCwsLCwsLCwsLCwsLCwsLCwsLCwsLCwsLCwsLCwsLCwsLCwsLCwsLCwsLCwsLCwsLCz/wAARCAC3ARMDASIAAhEBAxEB/8QAHAABAQEAAwEBAQAAAAAAAAAAAAECAwUGBAcI/8QATRAAAQQBAgUCAgYECQURAAAAAQACAxEEEiEFBjFBURNhInEHFDKBkaEWU7HBFSMzQkRSkpTRJHOy0/AlNGJjZXKCg5Ois7TCw9Lh8f/EABkBAQEBAQEBAAAAAAAAAAAAAAABAgMEBf/EACERAQEAAgIBBAMAAAAAAAAAAAABAhEDIRIEMUFxFDLx/9oADAMBAAIRAxEAPwD9RJNncpqPkoepUW0Wz5KtnyVEQWz5KWfJURBbPkpZ8lRVAs+SlnyURAs+SrZ8qIgWfJVs+SoiBZ8lWz5KiILZ8lWz5KiboFnyVbPkqbpugtnylnyoiBZ8lLPkoiBZ8lWz5KiIFnyUs+SiIFnyUs+SiILZ8lSz5KIgWfJSz5KKINWfJRREGD1KKnqVEBUKIgtooiCologIiIKiiILsmyiqAiIgJal9lUC0UVQXypaIgWiIgJaIgBERAS0RAtLREBERBUREGD1KKnqVEBFE3QW1LRFRUUtLQVFEtBUtS1LQatLWNSmpEbtLXHqTUg5L+SWuLV7q6vdByWlri1e6upBy2rYXEHLQcitosh1q2VBUUv3S/dUVL7KX7ooKilpZ8oKrazZVtBUREFtFEQZPUqKnqVEBFCp4VFsqWVLUtEatW18+Vl4mFjT5eZMyHGgaHSyvumjoAANyT0AHVeHyvpMwmSPbh8ImmiBIbJk5Ihc/3EbGOr+0g/QLXBJlRMlEFPdIWB5oANAJoAuJ6/cvz0/Se/twOL+/Sf6pdvi8Xk4zhYfFWwjFfN649NshlDBDI6K9RAu6vp3ViPWete+l34hDIf6p/EL5ofUdHEbvWxj+46i/ktAuJNWQPB6fNVHKXu8fmpqee35rPx97HgHv37KDX5G23fe+nVBv4/8AYqfH7Khri0nVQHffr9yga8CyT9x7Iuz4/I/NX4/I/NQB5o2etddldD/IrzZv/BBPi8j81RqO4Ir71NL9xZsC+4BTSdrd1HXtq8XaDXxX1H5q2/2WKf1v4e/XYIWus0RQG5PTp80HIHvHj80MzuwafvK4w1xIqtxfX9tqOY6nAEA7Ad9z7WnQ3JlCNutwaBsOp3PgbLkgnZkRCVjZGgvlYWyABwMb3Rm9JI6jbddTmjTkuYLLYzGG24bW0ONCl92EagI7/WMo/jM8rKx9lqrCWitoshUKDSKKhBVVAiCoiIMnqVEPUqKgSsqlZKIySs6lXfuWCqjwX0k5UwZwLDa5wgeMrLkaOj5WuETb+Quv+cuXlrk/gr+G4mZxGH61PlxNna1z3Niijdu0NDSN66m+/wCPcc1cBdx3AjZAWNzsNz5cQyGmSB4AfC53a6BB7Ee+3gMbmPnHl2L+DHAxsgJbHDnYrZDELJ0xuO+nxuR4Vg9VzLyry7DwXieZjYzcWfCh9eJ7Hvp5D2t9N4cTeq6HuuDlrbl3hLQGl0jM2r6W7KlqwvIcW5l5i41E3HzZ2/V2uEno48LIYnPHRzw0Wa7WV7Tln1YeXeBZDMOXIkbHK2ItZccZ9aXUX1ve+2ySq92MeRseOABbYWAhtWKaOy4qFkDt3cO9dV5tuTn48omfJlxSk/amY9sZJ7b/AA/cvUwyjOxI8lrWtlG0rW7tsHcb9u4U3ocTrAsCwbvrf5KM+E0RddjQJ96VAsuA6Ebnsd/ZaFPDRQu9x079N1US2/COm/zu/NLVNca23AA7bdei43Dc1tuA1vmtv/xbpu9myDdnavkguon4aFF1A307rjNAu2NuJ6kncUO5Whe5rUbB28ey0Qw3069Otbd7UGKc0OAroXEHc/IWqapgNEE6j+7960WijQHtdmvZShZuy3d2n3+5BNydhu7SDf2TfhRofbNhpBHXqT7hbppO3U3V3Q61sUGwbe5G/SigydP2gOu3tRPTda2PYAft6bKFrCNgBdjcbbe3RajDtQ73QDR0HuoOs4hYzJwGjrHd12aDsvtxP5HpVyzn8ZHFfHxEOGbKSBQLSK6kaQBuV9eMf4of5yX/AEir8K+lUKBUKKoVWVVBoKqBVBVQVEQaRSyiDJ6lRaPUrKohWStHup4RGD+5YPdbPdZKsRlYeyN4AkYx9dNbWur+0FolYJ6rSOMw436mH/so/wDBcTnOjZ6cLAAZpnENBaAGQteGjQOproAuYlcD3WzIYGeodesMDtLt2t3BPyUo42yPcJPVdDKxwxo3xRslAkM1h0bmvJGqhfUEUrwGV0TcyIEmMA6HEE3pe9gP4UviEHEJnPEUH1YP1B0j365GtNA6QO67fFx48ZjWNv7Ib8PUACgiTpzkXVE+T4QtvSel3bhtfzQECx70SequxNV1H/RaPBRorodiffe0a1z3MoEkmgCd7s9lRsdhttYO+xXV8yZM2Jy/zFkwmpWcPmEbgPib6hbEXfMAmlB5HmD6Rm4eRPh8Cgx5jE50cudkgvje8GiMeJpFgf1id+wrc9LifSZzNHK05kWDlwahrjEP1eTT30SRmr+bSvDHx4RZV/Q/B+L8O43hQ5+C53pOJZNG+hLBMPtRSgbWNt+4IPdfcS4CzQNuIA3dS/LPovmnHEOO42/oPwsfIcL+ESslMbTXkgn8PZfqfvRJ2017qpWfi2dfQjtZ6+Oi0XNskEkHbstAN6XvQ7L805o5y5m4fxrOweGOx4MXh5EbmSQQymYtAc587n24A9QARtR902afpkMfquIvYbl1dQfC6ziXEJWO9LDeyKKIkPmcRqe4bENK+zh+Y7I4FjcRMRily8GPIcy/sOkYK0m+m9j2XVY4xzFJmzsMsxMogjADjFFE8R/Cw7anHqUnZemGcThynRw5UjRI6xFML0vd9kNeB9y7XGv0xfXW+/na48SSZksDJoBE8SNZKAI3RnWbbpczv1B2XJj3o/6yQ/mqTvt9IKoWQqEVoFVQLSir2VUVUFVUVQVERBg9SotHqVlUQrJWislEZK4yuQ/uXGVYjBKwStFYK0MldblveybWyw5rC40CbA8gLsium4/gR5PCOL5RnyonY3D82drYZ5I2SPiD9OtrCLGwUo9AyN7WxiQ04tYX11tzQaC1pA6XQs7g/D7lfkvB8n6QZuEvm4RkZs2LhZMfD4oIQZJTbDK5zHO/mt2Dt/5wXYsH0qSegJHcRAfgz5Dy7HJ9OZnqaMcgvrW+m7/8LpssXONTF+kCnanDcb73sR7LkDJLB0uvTvRJ6eSvzSNv0oSOwBI/icYnxsybJJxdX1eSL1vTgd8e5fpZRsVrH9Xfp+NZHPkPCdfGMrMx4M7JkwPqmQNM0jGxtldIasaO3XqFJnDxfsY2LgKB6bna+triyIIsqDJxMga4MuGXGmGw/i5G6T1777f/AEs4WJFhYeHhwOkdFj4uPBG+Z2qQtYwAOc7YEn5Lnpw66a1X7rbL8D4/y5xXl/IkZkxSSYZeRjZrGH0JmdtRH2XeQa+8brqMeGfLmjx8SKTInkNMix2GR7vuba/pQgOaWHSWuABDhYI9wVxxxY8W0MUcbXbO9GNjL+egBTS7eY5K5bl5fwMiTLaz+E88skyWscHiCOMHRAHDYkWS4jue+mz6lgou7aiD3PsFvxfYj37KfCR02232/eiM6HCwHUBWkAkmrtdZm8B4BxPIhy87h2Lk5EYEYkl1BzmMumyBpAcB2BBXa6RtR3G4+fuE8t3sEHYDYKg4epDLjkkB7NLaqhW4ArZdE5uXw9zqZIYi90sb4/ifE54p4LDsWld5QDRvv2PQq7vqwDe1+6To93UcLmjMrNLpS1rvUMbo3taDY+IGqF/7dF9mK/UJm1XpzPZd3ezXX+a+bPmnbM7Gb8ADWk6dgQTuHL6MFryMqmOr6x2B/VsQj6gtdlRHJ/Ud+BUII2III7EUUVQtbrKqitBaWQtBQVVRVBUREGT1KirupUQQjqslaUroqjjI91xu6LmK4yFYOErBXI4LjK0jK+LjQJ5a5hd/yZxPf7yF9q+HjdjlnmEdL4bxI183HopSPMcg8VhxOCcdidj5Mp4fNNxB4x2iR84mbGwRxtG+oV+YX6KNw09LANHqLF0vy3k7mTl/gXD8iDObOzLlzJpXSxRamPieGaA4tOq20QNu/uvanm3l5vpiSWaJzzGAyeJ8UjdYlcPUjkAc3ZjuoHb+uL+fyY25bkenGzTt8zIjwsTMy3xyysxoXzOjx265ZA3+bG3yV+ffSU+fIxeFtGO4QY2S6QzOdGATLFGSzRq123uarf2Xp2848vOZjSMdnuGS5zcZrMLJMk2loeXRsDNRbR+1Vdd9tvJc4cwcA4u3D4dCJXOZxANyZpARDGNbGOcwsskbEbebF3s48bMt2GVmn6XTjRP2dEY77fCEcfY/42uli5k4Z6bDMJ4pXMbriMZf6T6ALdW1gfIfJch5i4Of5+QQSN2wkb3f84r3PM7S6uvfURuRdLQ6nfb9g911B5i4OBqvI76R6TRW3T7Sh5l4NZOrJsgbeldeQRdKjuCSAa7d+u/ilAGuBZfTc6uvyXT/AKRcJJOl049/R6eARayeYuEAm/rBGpp/k22R3oEoO6AF6r6UG9b39lQ2r7E7b9+9ArpBzLwoWCMiyO0YG1+zlf0l4Ua/3zXeoht4O5QdyBpaaO/S/K2Ou+34Lov0m4Od6n2N/wAmBt08rI5q4UdNjIaQCCTGNI61ZsoPt4ltmSV19KJzyegptUF+Vc2ySs49xhrZHgCXFrQ9zRX1WLoAV+o5E2PntZn4shfDI1jH1YMcjdqd4X5VzeD+kHG/89jf+ViT4X5cXDOAczcWgdlYUUhgDi1kkk5jEjh19PUd6XccD5j45wDiTOGcZfkOw/VZBkRZZL5MMvoCaJ7rOkXZF0R7jf0vKnMXAHcF4fiz52Jh5OBjsxposqQQg+mKEkZdsQ7rsbu/v8fzVnY/MXH4Y+FtMgezF4XjyBpByJNTrkAO+kWavs21B+weVQo1ulrW2Tpa1t+dIAtaAKK0Oy0oAtKBSqBEFREQZPUqKnqUQRQjoqiowQskLkpQ91UfO5q4nNK+otXGWK7HylfDmyYuVh8W4W7IbG6eCbFmc1rZXwDIYHh2jUDdGxdLtHRryfPGLkHgzsrFjuWDIi+tOY3U4YpDhZFdGmt+1pSOoh5L4dDPjzs47ludBLFMz/c2DTqY4OFh8xFL7G8q8Oa7L0cTmHryNlbeFA8wStjdDridLkOO7XOHxF3W9i0Fv5n9Zlv+W/0VPrMn6782rKv01/KnCZMnHyJOKZDpIomRlv1aJrJNDQ0OeGZIo7DZpaPbrfA7k3hD8k5T+OcQMzsj6y4jGw2/xuv1L+B9AX4X5z9Yf+u/Nqn1h367/vNTQ/WJeHSule6PJxdJIIL5Y2E130tO3yXGeF5B/pmGDZ+1kRr8sE7j0ms+xaf2K+rJ+sPTtSu0fqLuFyuBH1zBHuciMGvCweF0d8/hwFUB9Zjab+d0vy/1v+OH9pqhlBBuQH72lNmn6o3hEr26m5mI4XsY5Q9hod3Cxt4T+B8g/wBIwwRVH1a/ELwWBxni3B4hFHESzJAyI45onmmn4Q4NFH4v3L7v0o47JWnh+MdhuYpgfzlAWLnJ7u/H6fk5P0xt+o9d/A+Qb/yrEs1t6m3ubQcGl6Oy8U9jUlA+9krocfjHFJqB4dZoCoyLv2DS5d7hx5+UWtHDc6Mk0XPaxsI9y55H7Ck5JepXbl9Dz8OPlnjr7U8Gef6ZiCunxB2/zWf4Fvc5+N1Njbt8za+yXgfMbpD9Wn4UyGm0MiHJfJdb2Y3tb8tkHL3NR65fA/7tmn/3lvbx6bwsd2AXelnQaJGlk0Tzqie3ySDsR2K6bL5WyuZcziHF8bMZjwZWU9jGZOPKJCMdrcfXpNbOLSR7Luxy/wA0gGs3gf8AdM3/AFy9Lw7CkxMSGGaUSzC3zSNbpY6R27vTabIb4FlQfnbfo1zyRfFsf+7yH/1L1HL/ACdwvgcn1ovflZ5aWCeUBrYmkfEIWDYX3PVeoDVaQZ0oAt0lIJSoCUigIqiAiIgyepRD1KICAIiCUlKoqM0ppW0pBx6FDGDYIBBBBBFgg7EEFcybIPKZHI/L080krTmwB51GPGmDYgT10hzSR+K4f0C4EOmRxX+9V+xi9gQiDzcHKvCMeMRNbJIAXHXkiOaU2b3e9t/Jcv6O8M7QR/L0of8A4rvqCUg83kcr8NyInxFgY11EmONjXCjezmaXfmuudyHgkkjKmogCnHII/wDHC9rQV2UbxzuLzkfLjGgB88TgAANOFjt6e5tfU3gWEOoLjtvpjB/Jq7lEMsvL+R0ruXOBySunmwo5ZnBoc+UveSGigKJr8l9MfCOExVowcRtdKgj/AHhdiop4z306fkcvj4+V19uFkETNmMa0eGtDf2Bb0DwuRFXHdrAaFoNGybKqotKqWmygqKIgqiIgqIiAiIgIiIMnqUQ9SiAiIgIiICqiIKiiIKSpalogIlogIpaloNIpaWgqKWloKilpaCooqgqKKoAKqieEFREQFVEQVFEQVERALXWdlNLvCIgaXeE0u8IiBpd4TS7wiIGl3hKd4REDS7wppd4RECj4Sj4REE0u8JR8IiCaXeE0u8IiBpd4TS7wiIGl3hNLvCIgaXeFdLvCIgaT4V0nwiIGl3hXS7wiIGl3hNLvCIgoa7wlHwiILpd4TS7wiIJpd4TS7wiILpd4REQf/9k=;" vertex="1" parent="1">
          <mxGeometry x="2720" y="1399.15" width="165.3" height="110" as="geometry" />
        </mxCell>
        <mxCell id="zTCvv12B_XUvZwemzXdV-27" value="" style="shape=image;verticalLabelPosition=bottom;labelBackgroundColor=default;verticalAlign=top;aspect=fixed;imageAspect=0;image=data:image/jpeg,/9j/4AAQSkZJRgABAQAAAQABAAD/2wBDAAsJCQcJCQcJCQkJCwkJCQkJCQsJCwsMCwsLDA0QDBEODQ4MEhkSJRodJR0ZHxwpKRYlNzU2GioyPi0pMBk7IRP/2wBDAQcICAsJCxULCxUsHRkdLCwsLCwsLCwsLCwsLCwsLCwsLCwsLCwsLCwsLCwsLCwsLCwsLCwsLCwsLCwsLCwsLCz/wAARCADWANYDASIAAhEBAxEB/8QAGwABAAIDAQEAAAAAAAAAAAAAAAECAwQHBgX/xABJEAABAwIEAgYECAoJBQAAAAABAAIDBBEFEiExUWEGE0FxgZEUIpKhIzJCUlOxs9EVFiQlNERUosHwB2JydIKTwtLhM0Nkc9P/xAAZAQEBAQEBAQAAAAAAAAAAAAAAAQIDBAX/xAAnEQEBAAIBAwQCAQUAAAAAAAAAAQIRAwQSMRMhQVEyoUIUIlJh4f/aAAwDAQACEQMRAD8A6QSbnU7pc8Sh3PeoWkWuVFzxPmihBNzxKm54nzVUQWueKXPEqECCbniUueJREC54lLnifNEQTcqLlEQTc8SlzxKhEC54nzS54oiCbniUueKhEE3PEpc8VCIJueJS54qEQTc8SlzxKhEFmk33OyI3fwRBQ7nvUIdz3ooJUIiCVCIgIiIJRQiotpoihNUDVAiBBKIouglFF1KAiIoCIiAiIgIiKiW7+CI3fwRBQ7nvRDue9FAREQEREBERAREQSoREEooRBKKEQSFKhEEooUoCKFKCOKlFF0EoiIJadfBEbue5EFDue9EO571CCUREBPLx0HjdFo4wSMJxggEn0GpsB2nIbBWeUrdL4ha8sIvoLyxi55espBadnxns9WRh+orzOEYDFS00XUimErmg1NVNTxzTzSWBIYZAcrB2AW/iceOdH4J6WZ7I4W1ccUkkE8EbIi50bS/q5WtABDrW20+vesO7W/ZmXLW7Pd6ux5eYQNdwK4Y2Z+hB3AOw71kbUuBjbnykkBznAFo10IAXqvSam+79f9cZz7utO4ZH/Nd5J1cvYx/slcUqKmKNgMdRO6ZpDXB4Y5kj8zjeMxt0FsumY779gp6Xmgg6upqTPK+cuvYQvZHbSMNGcEakkkg8u3lOHG/y/Tffl9O39XL9G/2SnVy/Rv8AZcuIsrR1UzXVdUyoAa5jwLUgytu6Bxy5+sJtbUDe6luIVIY4Sz1Ub42hrDC13Vslc8gCsc43uey23cno4+e79HqZfTtvVy/Rv9l33KMkg+Q/2SuLwYlLJ6T1lfVNjgp5Hj0dpDi8ABplJdbKCdbG5t4KWYzViTPUVtXFTtEYlbQOe2Z4c1xa5jX3FtASbdvPR6OP+Sepfp2fJJ8x/slMr/mu8iuMMxnEBI2CXFJY2A53zdZJI4tGuWKzrlx7ATa++ys/G8WbI8Q4pXyRf9p0lRLmLDq3O1rrZh227VqdP3XUyS81k3Y7Jld813kUs7gfJcZGOY7p+cq7v9Jn/wB69X0cZi+JxurKiuxGSN0kjKanFdUxRZY3ZHzTPY7ORfRrQRsSeTk6b053ZVcObvupHuzfgi+DVUFeWEemVtPoA2ekrKk9WdgXse8gjivoYT6UMOom1chlqWRmOeQuLs72OLS7MddV5tTW9uu7vWm9dQiLLSbooRBZu57kRu/giCh3Ki6k7lUJ1QXuououFFwgtdaWL64TjI40FT22+QVt3WhjBP4Ixog2Iw+qII7CGE3ViXw+Hg3SvDxTRw4k/wBGqI2Nzl4IY51rXaeB3sduarjvS3DfRJoMOl6+pljfG17R8HFnBYXlzu0AmwF/C2vOsWe70+ptsC0Af4QtHM++66andvTM3Y3spAAHYOIV4IopJ4mT2ETnWfmdlb8UkBzhsCbAns+r5+Z/AJmfwC9d6nKzWnH0Jve3oJMOwCCFz6erdLKwwj1Z5QQA5mYRMcScpu43vpbzwzYbgzDOad8b/Vt1rqmz3kSFsjxER2AAsHys3bl0+Nnk4BM8nJcZyWfDd432X4bheeZ+aNlqerMLY6lsodUseGwteRrZzdTpvp2abLsJ6PD0d0VUZS4+uTUMiDHFxDWOY8C4G7nX+Rb5YB88JJOyydbJ5cyl5LfgnG+2zC8IkivM/wCGDI3sjEzQ2T8lEha88M+hF+XYsbcNw6aoiZNM5sbqMTmQzRudHPYNOcm7TbV2UG9gBvoPkdbLw95TrZf5JV9S/Sen/t9KTD6R9YIH5xCAXseJ4i6XIwuZ8KBkbnIG40uolpo6ZtKyMEh0DHyZnse/rCSHB5i03Gmp0se2w+f103YT4E/esD6qqa5wD3AA6esVvHlu96S8W5rb6VjwPkvbdDsap6WI4fVOERY6V8L3nKx8b3GQtzO0u0k7nUHkubCsq9s7vaKyRVVW+SNjnus5wv6x2805eW8mPbYYcXZdx3KpxnBooJXuraZzchvllY73NNyeACYHVMrcMpqpjS1kr6gtaTchrZnNFyO5cibUzAWDyLbAL3Ix2pwbBOjMtPDTytqziIqWzZ9XRStsWOYRYm5vuvJ2/DpnnMJ3Xw9si8pS9N8Klytq6appnHd0RbURf6X+4r0lLVUlbBHU0srZoJL5HsuAS05SCHAG42Oilxs8phzYcn43bOiqCrLLqs3fwRQ3fwRBV25WNxV3blYnlBN1F1S6glEXzBaGLvvhWMtFrnD6sC+3/ScVtErRxQg4dio01oavf/1OWkrj2JkmuqT/AFhttsFrhZ8Q/S5jxyHX+yOCwDZdMPKzwlTqiLoooUqETQiIgIiIotaT47r8VsrFJG57iQRbT7lqXSMCsHFrmOG4II8FbqX8QnVP0va9lq2D6LJGyNzNO4PeOS9RXuEnRrou6+rKvFGeDureLrwzWzMLsrgLgg676L3kNLWYn0YwmKihdPNRV9UZ2sLW5RJBGQWh5F/Bef8Ak4dRjvjsjz9yukdDHfmNg4VlYP3wf4rnU8FVSuyVUE0DuE8b479xcAF0HoW78zPHCvqveIytZ/i+Z0c1yvUAq6xAq4K877S7d/BFDd/BEVU7lYnrKdz3rE8IjFdVJQlVVBxWhiRPoGJ20/Iav7Fy3CtHED+RYj/cqv7JysRySvA9Km/w79y1xsFs4gPyqbnkP7oWsFvBZ4SpNlCldFERQqJRQiCVCIgIiIIQk2t2XvsN9t90UFEVJ1XUehbmjCXba1Lr/wCWxctO66R0Nd+a3jhUH7Ni4XyV7FxjkaWSNa9h0LXgOaRzDtFFPDSUsfVU0EUMRe5+SFjWNzONy6zRa5WBpK2GrKanlnBWQG6wtWVqisrd/BFDdz3IioO571RwVzue9VKDWeFjKzvCwlVFHLQr/wBDxAf+HV/YuW+5aFfb0Wv/ALpVfZOViOTYkLVUn9mM+bAtYbLaxAk1Lzt6kXuYAtUELeKzwtZSouOKZgt7iiKLjRLhXcQRLjilxxTcBEuOKXCbgIouFFxxV3BKhLhRcJuCp3XRehPr4fUtHyZ2HzZb+C50TquhdAnA0uIN4SQnzDwuFK9kyMrM1tlDVkCwLtCyBVaFcILN38ERu/giKqdyoKk7nvUFBRwWs7dbbgtaQaojE7ZaNcPyWuv+y1X2TlvHtWnW/o1adrUtURy+CdqrEckrX0zp5PXJLcjTYaaMF/JYW+hHRz5m8w1rvdooqHZZpYS7LE+Vj3nKCRYWve1+3a6wSCFrgIpDI21y4sLNbnSxUs91nh9COnwySw/CDGnhLG9nvIt71tNwaGQXiroX3+YWv9zTdfCutzDZImV+HvdkY1kj873OsDdjrFxcbDgueUy1uVqMlbROopWRvla/PGJAWNLbAuLdb34LExtMbh75Wcwxrx5XBX0cakp5ZKWSKWN7sj43Bj2uGVpzC4b3lfIv5fUtYW5Y7qX2rdFNh5DT+EGC/Y6Ga/uaqmGiBsK1lr/Ry7cfirV3/iOPcmun1/wKur9m202nojvXRt4fBSm/7qq+GjaLisDzwZDJf96wWtr/AMfclzf+de9NX7NrERk2a4jb47f9t19Cmweoqoo52SRZJL5b5s2ji3UW5L5v8PML79NPAMEmidLEJPRaoBpkYHEkvIABN1jkuUnsRpy4SIb9bXUTLdj5Wg+VyfctGWOij2rWSHt6mORw8C4Ae9aTi05crcpDbOsScxudf54Kisl+au2dzo7+q644kW+q66B0AcwxYoGuuWupwQDt8cg23XOdNLDXnqD4L339H5LqjHHkNBkZTOIYA1uj5DYNGltV0ZrobVkasbVlaFBlFrKygdilFWbv4Ijd/BEFTue9QpO571CAsMg0WZVcL3QaZG61atuanqxxpqkecTlvuboVpVYIp6o3tanqDfh8G7VVHJBR1OKukmo6Ose1lhPJmgbTseGgW6x7QL8rkrUqcMrqRgknp52xEholaYpIwSbAFzLgX7L2Xt56Gd+HYRDTBwpY6OIhkdw0vc0Oc91tydzfiqYZh1fHUmGdjn0VVHJFUxSAljmOG5v/ADryVuU34Zk9ngMjeMv7iZB2GXyYt97GNfIxpzNY97Gu+cGuLQfFVyhe+dNjZtwvLY0HZ2WsXEa6ENH1JJ1ghZOJQQ5/VOZlLXtda5v2ELefFnytA1N7LHVUxMEDRIPVOrcp00Xg6iennMY9PF/fjcq+b10nEqeuk4nzWT0V3zxy0Kj0V3z2+RWVY+uk+cfNOuk4rJ6I7X1x5FPRDp8I23bodEFiZmsgd1lzK0vAa25a25b6xNhfRSGOIBLz/lA/6lttp3tpqducOLXOzANIIBPaSrtYA3uJHkbLt02E5d7+HPly7Gj1Z+ld/kD/AOidWACTMQALkmDT7Rb+VvBfV6PU1NPi1P17WvZTwzVUcbwC187C1rMwO9r37wOC9OfT44Y3Jyx5bldPkQ4Tic7BJFS4g5gbmztw+Qhw3uAXgkdwXs+grqeOpxKnbI903Uxve19N1BYGOykOu9zr3O2ix9Xis1SZ6h9QJHuLrse4Fuuze5elwykLKxtTOA6qNNJTunDQ01EIc2RhkA7R968cynvNO1lffGyysCo0aLM0WWGlgpREVZu/giN38EQVO571Ck7nvUICJoiChatCsbaGpFjrFKBbmwhfR0VXMa697FEctwrHMQwhvo0rI54G+q1pksWAfJsRZZsT6V1tVA6CnhZBmGVz+sFwCLEsytvfmTpw7R0F+GYe8kup4iTqbtCocIww/q0PsBbuW8u6xnWppxezx2R8PjH7kGf+p7a7P+BsKP6rD7IUfgbCv2WH2Qu/9Tm5+jjXM+j9E+pxGEPax0bYpnPsQ4DQAEhe2HRyglYS9jSXG/xQvuw0FHT6RQsZ/ZFvNbIYBouHJneS7rphj2TUeVPRTDPo4/YCj8U8M+jj9kL1eUJlCw08n+KWG/Rx+yFLeiWGgg9XHob/ABV6vKmUIPITdH6WHrQ1jCH+t8XZc7likjfI0hmj36mRgv63eu4PiY/4wWhLgeETEufSxFxNycu552XXi5Lxfixnh3+XGfX+aPbZ96zU1RUUtRDURNYZInEgPcxzHA+q5jxfYjQ/8Lrf4uYH+xxeSj8W8C/ZIvJdr1WVmrGJwye7z0HTCjdEwzUUokaBcWifrwD2vFxzsCsmDYxX4pjpLoepomUlQI2AsOuZmUusTzX3h0cwMfqcXktykwvD6MuNPAyMuFiWixI4XXm7ve+zpq/baYNFkCAW0UrLYiIgs3fwRG7+CIKnc96hDue9EBERAREQEREBQpRERZFKIIRSiKhFKICIiAiIgKVCIJREQEREEt38ERu/giCp3PeiHc96KgiIoCIiAiIgIiICIiAiIgIiICIiAiIgKVCICnRQiCUUaIgs3fwRQ3fwRALTc7JlPJEVDKeSZTyRFAynkmU8kRUMp5JlPJEUDKeSFp5IioZTyTKeSIoGU8kynkiIGU8kynkiIGU8kynkiIGU8kynkiKhlPJMp5IigZTyTKeSIgZTyTKeSIgs1pv2IiIP/9k=;" vertex="1" parent="1">
          <mxGeometry x="3000" y="1290" width="150" height="150" as="geometry" />
        </mxCell>
        <mxCell id="zTCvv12B_XUvZwemzXdV-28" value="" style="shape=image;verticalLabelPosition=bottom;labelBackgroundColor=default;verticalAlign=top;aspect=fixed;imageAspect=0;image=data:image/jpeg,/9j/4AAQSkZJRgABAQAAAQABAAD/2wBDAAsJCQcJCQcJCQkJCwkJCQkJCQsJCwsMCwsLDA0QDBEODQ4MEhkSJRodJR0ZHxwpKRYlNzU2GioyPi0pMBk7IRP/2wBDAQcICAsJCxULCxUsHRkdLCwsLCwsLCwsLCwsLCwsLCwsLCwsLCwsLCwsLCwsLCwsLCwsLCwsLCwsLCwsLCwsLCz/wAARCAC/AMADASIAAhEBAxEB/8QAGwABAAMBAQEBAAAAAAAAAAAAAAUGBwQCAwH/xABKEAACAQMDAwEFBQMGCA8AAAABAgMABBEFEiEGEzFBBxQiUWEVMnGBkUJSoSMkVHKxwRYXJTWDstHhJjM0NkRFYmNzkpSis/Dx/8QAGAEBAQEBAQAAAAAAAAAAAAAAAAMCAQT/xAAjEQEBAAICAgICAwEAAAAAAAAAAQIRAzESIUGBEyJRocEy/9oADAMBAAIRAxEAPwDW6UpQKUpQKUpQKUpQKUpQKUpQKUpQKUpQKUpQKUpQKUpQKUpQKUpQKUpQKUpQKUpQKUpQKUpQKUpQKUpQKUpQKUpQKUpQKUpQKUpQKUpQKUpQKUpQKUpQKUpQKUpQKUpQKUpQKUpQKUpQKUpQKUpQKUpQKUpQKVBXvV3SmnyyQXGpxd6M4dIElnKkeVYwqyg/MZrjHXvRZGff5B9DaXef9SgtNKrKdddGSMijUtpc7cyW10ij6szJgCp2zvrDUIlnsriOeFhlZIjlSMkZB/I0HTSuG81bRtPKi+v7S2LFgvvEqR5KgEgbj6ZH611pJHKoeNgynOGXwcVzcHulcb6po8c6Wz6hYrcvt2QtcRCZtwJG1C27n8K6tyhdxYBcA5JAGD9abg9Urlj1DS5pXghvrOSdCQ8UU8TyLhtp3IrZ88eK+7yRxqWkdEUAks7BVAAyeTTY90qMbX+mkzu1nSgRwR77b5H5Bq8jqLpc+Na0v/1cP97V0StK5LbUdKvG2Wl/ZXDgElba4ilbA+iMTXXQKUpQKUpQKUpQKUpQKz72g9Rz2UUWj2MjxzXSGS8mTKlYMlREjA5yxzux6cevGg1jftGx9vxgellH/wDLIaCmZr1FHPPLBBbxmS4uJY4II18vLIwRVFfgSRkeRUkMaHa8io5jQ/JnA2g/nX7FLLbywXELsk0Esc0Lr95JI2Dqw/AitCc1fpLqDRLWK8vURoSVWUxMrrEzHABKn+7H1+clo3XH2NYWVl7izC2h7JlW7EZk+JmBKPGR6/OubWutdc1zT1064S1ihZo2uDbo4a4MZDKG3sQBkA4HqPlxU97PdD0i+sry+nSKS+W6kgJkRJDBEEG1VWQEDdkknHOfpUs569t4XSs9RdRHXksl90NubeSeRmM/eMplCDn4F8Y+vmrDF7RlijaIadOm4ABUvIyGPry0WR+VQfWem2Gl6x2LNY0WS2jnlhiwEjkLOvwqPAYANj6/Wrr010voE3T9nP2ba4lvbSOW5eaJJGldhuK7m+IAHgAYxj581Pxx8ZqN7u7uqNc9Qx3HUNhrfubpHaiBTb95WZxHG6HEm0DnOfu+lWf/ABkWjRLE2nXm0EZT3i3I2jkfFsz/AAqk6rZWtprN9p8ExFtFqHuqyMdxjjMiq2SfVMkH+rWo3PRfTg0kwJb26RrG798KBPG+z/ju+fjJGMtk4+mPDKYST18f0S3ag6N1FZ6drGuanNb3DLqBdokgMe+MtcGYbi5A4zjirJde0HSbuKWOS11E7oZo1BW1CgyRsmTh/rVM6a0601XWtPsrth7u4mkkXJUSmJNwjJHOD5PPgGr91X0roltpF7cw29tby2luZ4ZLeNYclGVe24Tghs4GR5x+bPHHevZjbpnul6Fr+rxTzafZySwWx7ckoHwmQKCUQZySOM4+dcDrLE7xyqVkRirr8iPx5q1dLdZTdN211ZPZi7t5ZmuYgJey8UrqFYbtjAqcA+OOfngV7Ur6XU7+/wBQlREku5mlZIxhEz4UZ/8Av616Pe0nKrujB0ZlcHKshKup+asvINbD0X1eNZUabf4XU4IQySfs3cSYUvz4cftD18j5LjmVztyN3yyM/pVp6CO3qnS/k0N6pH+iyP412uNvpSlZClKUClKUClKUCsZ9pBP28xAwRp8ZH5PIc1stY37SM/bpJPJ00foJJAKfI0DRdOsB09pKCBQnudqrJ+w6yIu8Mvg7tx3fPNZjp9t0yml3lzqUatMmvpaptkk7wsVRSwjiRhnnjx6+eONZ0f8AzDpef6LZ/wCrHWGduxb7VeeScXCy7LOKFU2uzPIWeZ3H3VwvA5O76VLCe/pTJIBuh37+feC/aYQIrXKFpd67VLsdo4zya5rmd9K1XU00a8uIIUuJooJLedstEjYCmRGwwGcA5OfPrXfZv0otiUu7Em8XR7i3WVRIWOpkOyzFduzH3VBznjxjxC3UenxxWrW010ZnWRbiO5jjUROoXBjaM4KnJxnkY+tbxxkmt7cyy3dvlJJNNI8s0kkssjFpJJWZ3dj6szHJrqtdV1mxikgs9QvLeGTO+OCZ0Qk+TgHg/hUjqNlocOlw3tqkqzXL2faQzzy9pHid37hkQIScDGPH1FQyxiX3ZIhL3WWVpiwAj+FzgxeuAMA/Wtbljllj5lidxYliSSSxySTyck1IvrmvyWa6fJqV21mEEXZMnwlB4Qn7xH0Jr6yaNLEzo8kRdGhUlZ0YHuqGGCFx681wSwdhnEoYo0cwjZf30yPI4xnGfoa5PHIssfOKSaGWOaGR45YmEkUkbFXRhyGUjmpG/wBf6g1OFLe+vpZoEKt29saIzL4LiNRkj0zUjoUnTUlpAl9pVtJPFPcxSTSKzyXchUzIvwyKRgHAwD9368erFOmZNCa4msYfeo9OvY2fbIZDdRrIiTFg3nOD8vp81uO/bsl+FZwa8uSqOR5CsRn5gVbbgdJHRvtKPS7eMOmnvGiyTd4Dvx90NukwdwDA/CB8VfDqCPp9dKeWx063t55rlHjeAXCmO2aF27TCV2UnOORjxXfOdOeNaBY9MaAdC0+FrSIpcRQCYsimR5JEGZe5jfvycg5/hxVE6JAi6u0pOSFOoQk49RC+P7K1TTz/AJF0Y/NLL+KrWWdI/D1jYAZ/zhqCZ+nYuajx9t59NtpX5X7VkilKUClKUClKUCsZ9pGBrrc5P2aCfkMySYFbLWL+0nH29Jjx9nIDn575c0Gn6Rj7B03HP82tP7I+awjtXLyXkiAdmG4/lZGDsqPI7iNdsQZ8sRgfDjPGeed20g56f07zgW9qPrx26xCK+mt49WtIYpX96uYZ5mh37hHavKVVtin4ctu8+VHy4jx/5Fcv9cdxJqNtLJbz2UsUw2lopVZZgXAZVKE5BORx9a93MN5GiTTwSJE7MiyGKZIzIqgvGpmUMWXPxcf7pGTU9Sv9bj16KwuZpYbuxuSIoZ507tqkYUPIiHk7Qfz/AF/L3VtV1Szitpbe4dY9Qvb4TLFPIWlmA7ibtpGByWAPrVtJvvqRkXSYdNbTLuOfS2tFvLprmOS34R4lwiqPvEjGD/bUdYTOGgKyiQwWt1/JSZCQIJO4VU553ZLYHzrk2TuuUjnZCSMhZWjOOT8QGOPUVI2hMcdk7XFo4fTNZRYwi9y3DPIu2UgEl2PxJn0I+VZ14z9Wt3K+0w0GrI2xre0D/Dx3D6gEc5xUZqhnV0juDHDJEL2J+3uYbgu0x5P73jj51c5tO1CaR5EiBWVYmQl18BF55NVfXJTHqN1sW3SRJ9ZVmmZiNskciFWBOM4J2Y9SKnhnnldZR6ebi48cZcLuuDSXMcMiNp4uN109zFMb5bftMsQQfDnyMHGfOcV12cjQaHJaPpdtJ3LDUJ1u3vQkpDtIwZYifK+Nvk4/7VR1hpVxqKPJFPao0UqxCOX3hpW3qDvCwRP8PgZOOeK+9rp9jBq8+n6pPbGG3llSeeG67UO+Ngx2TFCTkblX4fJHjFVuMvbyy2Ouc3A6dbSjpVqDFDYxvqK3iu26SVXTAzt53YI9B5+7Xw1e4eSwMBtoE90kjiM0N6s4d+yw2qnnHGdwyPT1rz2+nhpurSqP5+Lto9PBuZO60BlDAtBs7ZXbkE7gc+lfDV4dIgS1Gmy93faM10wleULMxJCDfFGRgYBGD481zwx275XXbbtMJOhaN/4Vhn/yJWW9Kg/4ZWIBAxql6efpFdcVqWmYGhaUE5AisQDkcjanORWWdMkDrKyycf5Yux+ey64qXH39NZ9fbb6UpV0ilKUClKUClKUCsV9o5zr83GMaeg/HDyjNbVWJ+0Yn7duM/wBBAHzx3JRT5Gn6Rz09p4yeILUeef2DWO6Pe61Zy6uNNmsou9GUuTfNbJvUNIFERuCBv5bgHPPg+mxaQf8Ag9p/pm3tvzzs5rE7O40+D7XS8QubiJ4rYra2lwyy7n5LXI3KORyhz+lQ45L6v8RbK66/l1aRqc9jZXpt2iCxETNvN1uLNgKf5KVAPuqAcH+GD+6Zq15DFc7PdgbbvTo8gPcLzO8jbSJAQDz4U84z9eOyvFtUjXnJuDJKPdLKcFMIAUa4UtuHxeePH1r9t71bdYYUkfsSPc++L7lYSSIjEhOzLMpYsRjdkgD0+dXSdFpqFyNHvrXZEYLaOTYzPOrh5XLtgRyqvqMfAfr8qjo3WJbVnRESSO5XuJgvLmRlLOM548DjwK+0N3GkNtbOsXaImW6YWFlJOgdmwYJpRvzjHJIx6eKjHh7hBYYOAPhb9a6NDi61sVjhQWq4SNUOboAnaAM8x1VNUvYb68uJoVBEr3M5QHITeC33sDOPPioUW0fAOc/1jXtIY0O4AjH1PrxRxPdMPcrd3Yguo7VjFbkvJci2DYlO0BieefSou73HUL2LLTXD3l0u2HM7SN3GPwGPO7PJyK9RTWq2zW81jBOWuVuO67ukoUJ2zEGTnafP413w27e+JfTD7GtdQjkudOkHcWIx+8RjZDIgL7QMnwCcD97NZ8fdrW/WkQrkxyzKjmGJlSWQRuYo3c/CrvjAJxwM16l4ik7iSo8kSTwB0ZO5C4b4xuHg8YNSQstITTtRA1CIzEXjRwNLMHnmju1SBuzjbgoWYknIrxq8OnQpaR2N+LyIQXO7HcIhzKwRSZOcldpYeAa1O3G16Oc9PaMT/R7Dx/UjrLenMDrKyyP+urk/M8LdCtQ0Uk9N6Qcf9GsD/wC2Osv6aLHrLT8DltVvG58cLcf7ahx9/SmfX23ClKVZIpSlApSlApSlArFPaF/zgfx/yVfA/wC/mra6yD2j6ZfQ6jBqbIDZ3Ce7K6tnbIrNIA4xxkHj8KCEtusOprTTPsqG6QW4jMUbmNTcRx4xtSQ/wOMj58cV8lVGTgAZOT6fnT8a6LF7OK+06a8h79pBeW81zBwe7EjhmTB4P4evj1pJJ07bb25FZWBxnDkkEjg854NaL0T0tpWrafLf3ccE8zTzRKlwvcjhSNtgCx5AyfJJz5GMev0611novUtIt4tOMM18JYjbtBA0Jt4h98SFlXgjgD54PpVZ0WbrbTIzPpNpfe73arKMW4lhlBGBIob5/MVjk6aw7e+r9HtNG1KGK1UJHcW5mMKszLE6SNEwTcSdpxkcn1HpVn0DoXR73Q7S/ulFxc3duLhmMsylN67tkXbYKMePB/uFG1YdQSTNfazDeLLOdiyXUXbDdsfcjAwoAHoB/bUlp2r9c6bZyWllHqUdtg4D2MrmHec5iLocZ/Pz+dYsvjJv+2t/tfSK1PT1sdUvNNhl3rDdLbRySAAkuVAL7eOM8/h+mizez3So9MULu94Ch/ei8hm7jDAZxnt7c+VCjHzzycyljvDMyzxXJuZm3MkscvfkeQk5KsN5J8+Knm6h64fTfs921D3VswmQ2k3eZNuDH3dufH0z9aZS2SbMbN26RWkWH2rqmn6eZO2tzKVkdSNwRVLkITxk4wDj1z6VeOpei7Gw0ma5Se4UafbtJArXE00eAwBi2zE4zngrjn0+Wewm7gnje3E6XMD9xDCj92NkOM7VGRj14qe1jqDq/U7OC01CK6S2wrEJZTxd/Zhg8hYeB54wPXHHGs5d+q5jrXStlsYB385wMiv0cg+DuJJ+XPmr50Cejexq8WtJpwvZZlaOTU+0I2tO2o2RNN8IIO4kcHnP4VXWl0tdW1MaW27TxOfdm5wVwM4Lc4zkAnyBn1qyaesOvNXsdITS1tbeR4kEdvcyF90arjbujHBK8Y5HjkH14+jmZuqNBLElmuJiSeSWMMhyartWroXT7+81+xu7eBmtNPlZrybcqrF3InCLzySfOB/+58ZOnbbW3UpSjhSlKBSlKBSlKBXLf2FlqdpPZXkQlt512up8/QqfQiuqlBmN57LAZWbT9VMcRJIjuYi5UfIMvNch9lmr/s6vZn8YZP8AZWs0oMjb2W66PuatYHH70co/uq76F09PZWNrZ6k8MptLeG3ia1eQKwQEF2DKMHxjk1ZaVnLCZ/8ATUyuPTP+o+kNf1tLSCCWwt4baa5kBllmlZ1kCquQI1wcDnz5/WzQ6TJ7o5uADe7X2LFO/aUjhQG2jzxk7T+eOZqlT/DhqTXTX5c972zu76Q6iutesNZzYrHbLb5gNxIZGMSMuQ/bxzn5VaZ9KlS1jaBWlvMx9wNcGOM/vAEqRgenFTdKXhws1Y7OXOXcrOtM6S6itNe1DVJfdOxetcDbHOe5Es86SknKYOAKs2o6ZdLGyWEby96C4hl71wECl0KK2GH155/3T9KXhwy7jk5cp1WLL7N+sRgF9O4wOJm8fpX6fZv1h+9px/0rVtFKsmxy19mfVEsyLdXVhbW+R3JIy00gX12JwM/LJrUdF0XTdBsY7CwRhGrGSWSQ7pZ5mxullb1Y8foAMAVJUoFKUoFKUoFKUoFKUoFKUoFKUoFKUoFKUoFKUoFKUoFKUoFKUoFKUoFKUoFKUoFKUoFKUoFKUoFKUoFKUoFKUoFKUoFKUoFKUoFKUoFKUoP/2Q==;" vertex="1" parent="1">
          <mxGeometry x="2510" y="1545" width="172" height="171.1" as="geometry" />
        </mxCell>
        <mxCell id="zTCvv12B_XUvZwemzXdV-29" value="" style="shape=image;verticalLabelPosition=bottom;labelBackgroundColor=default;verticalAlign=top;aspect=fixed;imageAspect=0;image=data:image/jpeg,/9j/4AAQSkZJRgABAQAAAQABAAD/2wBDAAsJCQcJCQcJCQkJCwkJCQkJCQsJCwsMCwsLDA0QDBEODQ4MEhkSJRodJR0ZHxwpKRYlNzU2GioyPi0pMBk7IRP/2wBDAQcICAsJCxULCxUsHRkdLCwsLCwsLCwsLCwsLCwsLCwsLCwsLCwsLCwsLCwsLCwsLCwsLCwsLCwsLCwsLCwsLCz/wAARCADJAMkDASIAAhEBAxEB/8QAHAABAAIDAQEBAAAAAAAAAAAAAAYHAwQFAQII/8QAQBAAAgICAQIEAwUGAggHAQAAAQIAAwQRBRIhBhMxQSJRYTJxgaGxBxQjM3KRUsEVQoOSorLC0TRDRFNic9Lw/8QAGQEBAAMBAQAAAAAAAAAAAAAAAAECBAMF/8QAJhEBAAICAgIBBAIDAAAAAAAAAAECAxESIQRBMRMyUWEicYGR8P/aAAwDAQACEQMRAD8AtuIiAiIgIiICIiAiIgIiICIiAiIgIiICIiAiIgIiICIiAiIgIjvEBERAREQEREBERAREQEREBERAREQEREBERAREQEREBE0+Ty7cHDuya6ksasp8FjsikFgCepVJ/KRA+PbR68YgHfv+8k/kUE60w3yRusbccmfHimIvOtp3EhdHjkWgE8Tkkd+pqXLp9NHpm5T424FgBk/vGPbvRR6mbXft3H/aR9K+9aWjLSY3tKInEr8U+GLDocgi/wD2Jan5ldTcr5ngrdeXyWESfQecgP5mVmto+YWi0S34mJMjFs/l30v/AEWI36GZfX0/KVWIiICIiAiIgIiICIiAiIgIiICIiAiIgcnxC3RxWUfqn67lacZiV5BsyshQ9VTdNVbfZstHcl/oJYvilunh8k/NgP8AhYyD8KRZhJWPVXtDfeW6p2tlti8e009zEOMYqZfIrF/UTLfC22622gB8Kp8IUD2AHaYMvExchGS0dQI1sjViH5hhOgtDINic3OtXH/iWtpdlQPdj8lE8aa2pPKm9vZ/jaON46Q7MpyMHJtod22h+EgkBlPownzX+/ProW1t9wSNj+7Tfz+Rx7rxc1StaqCtADsqq+nUxmhZyOYwAVxXokny+3Y9tbPee7TyLTSOUdvFt49eU6npvYuNn22BbLVx00S1j9tAewCdyZ3akroHTXyHI70PjrvZR94VZDf3vLHcX2/7xmSvks1Okl+tfk3r/AHHecct8t/tnTrjx4q/dG0ws5HxJiJ5uPyuTdQp+Lqclk/qVtzueFed5nkeQbGyrxbSMay09SIGDAgAgqB85DuO5ei2xUtGmYdLKf9YHtr6yT+Dakq5zk0rINaYZ6CPTpawETphyTfHamWsco9s+bDwy1vjtPGZ+FhRETO1EREBERAREQEREBERAREQERECOeMX6eHt+th/JGlYcbypwr2Fm/Jcjq6fVSPRgJZPjduniQPm7fpqU++y5A9S2h+M3YqVvhmtviZY8l5pmravzC0MTl+NyKWZnXpSs2O6kFVUDe2+Ur3luWs5DLstHw1KSmOn+Cv5n6n1MxWrfTg2MpPlPd+7qRsCxvtsfrOYCe/z9Jgrg+nae9t85pyR8aZCTv/M+s90O2/zmMHsJs7ox6le34rGG0QeonVRh32PrPj/+7T5GRt9lAVJ7jZHb75JsjJ8McjxzWpV+659KqoVQNtoaG9diPr6xs1tGwW2CPY7GvUGTfwXzdWJnhckDdyDHew+vR1bVvwPrIVqZqbGqsrsUnaEH7x7iJQ/RQicTwxyB5Disd2bqsp/guSe5AAKk/hqduc0kREBERAREQEREBERAREQERECIeO21xtK79TZ2/FJV2DQ2RldCoGYKxAY6ALHo6iPfW9yzPHzaw8Vf6z6/NlkC8OojZeTYV21aDobYAXZII7+pPtqb8U8cG/2yXjeaGTxPUuLh8PjVDSI9+z82CqNn75FhJl4nqNuDTYB3ov769lsHSf0Ehp7HXvuZN7lrfa66l+WxPMks7se/YAfcJ8jc2EZSD7E9zA0dz1WKsDv31+Ey20nqZlHwk9vqffU+a6LX2Qp6V9T7QhsAk9/nPpfWfKjpAHrPpR3hK0f2d3FqM2rfby6X/EMyf9pPZAv2eUsK86zR0KsdO/8AiYs+v0k9lJCJ8uelHPfspPYFj/YSJ28r4tNlq0YpKB3VGXFILKPRiHMgSfMubHxMy9V6mpoutVfmUUkSr7f2gc2T8JRdBhoV162ffuCZIrn8cZFF6PVaiPTar9Qor+Eqd795Utz9NjgnZDMNj0Oj6iTAmuL415y3MxFe5yhuq616lUMAdleyj1lo42Wl2NjZFvTSbqksKO6/AWG9b3Pz/g21jLxesHRtRff1b4QTr5S18DwquRi4t1ufduytW6VrX4fbW2O4mEpS/IcbX9vMxl/2qb/IzXfm+ET1zaj/AEhm/QTnp4T4kaL25bn33Yqg/gomwnhrgU1vGZ9f+5bYf89Sp0N4l4Nd6usb+ms/9Wps8fy2DyTWrjebusdR8xQARvXbRM9Th+GTWsHG7enUgb/mm3VRj0AimqusfKtFUflB0yRESUERECC/tAYCnFHzUf26jK/4O6qvPZbCiiyq0I9gJCMPiB7d9n07CTn9oTf+FHyRPzLmVktllF1d1RKvW62IwJBBB2CCJvpXeCI/tkm2su05dqM7HyMdyB5iNW4PZkYH3Hr2MgmTjX0XWVWqRZWdMB32PXqH0m7dyQa1LqBbW7jd4LFh5m9ko3r3+s3sB8XJvqOe4C2aR7NbcIe2mPrqZZjUNUW2j4Hzno2NyYc54TvrAy+JXzcdlDPQG3Yg19qo+4+nrIgVdCysCGU6IYEEEexB7yISzJcBrqQNr03PbMl2HQoVV16LMK6O+0+un7oQ8BM2cao3WKv+r9pyPZRMVdNljdKLs70T7D7zJv4S4EZuWhsUHExCtuQxHax/Va/x9T9B9YlKc+FcBsHiaPMXpuymOTYpHdQwART9w1O7ETmETHa5rrtcAfAhbR9DrvIhlX+Mbb7xinKFK/Y60rrJPvo6EJ0mNhKpYwHdUcjfpsD3n56z38zKyHs7sbG2VVFHY+wUalmDA8ZZJCvkWjq2G868hfT5KT+kq3PDV5eTUe5S112N6Yg6Oty0IfWN5fn4/Y9rqz3bQ11CXjxfKcVXx2CtmZjqyVBSGsHV2JGz7yh6XZHrbpJ6XU6+feXBxHhbisnBxsi63JZnDbFbhEABIGgO/wCcWTDvPz/A1jvm1n+hXb9BNd/FPArvVtzf01H/AKiJ6nhbw8mt4zP6fzLbD+hmynBcDXorx+Lsf4k6v+bcodOY3jHiB9irIc/7Nf8AqM2+L55OUvNVeJbWgRn8xmDL29iAPedJMHj6/wCXiYy69OmpB+gmcKq+iqPuAH6QdPYiJKCIiBXH7QWHm0j5Ig/srH/OVoxlo+LqK8vl8bFsOldLANEAsy4/Uirv3J0PxkNfhcevDqNq5a8hY/HVPXtFSqzMscadSvVsAA637z0qTrHVhtEzktMI6Qfb1/Wb2OHsQKigd9F22O/yGpu5nA2Yt2DUl6uudm3Y+PZ0noNKFdX7Ht3Ox9Js08JyVWmxba76jZQP4lT1driy+YB3+Ea2dE+v0nG9YnuHakzDb4fk8qrSG+zy0b+Xad1KR6lT6ifXNZvFcn5KY2KGyhZ/GfpHWVHoFceu5o8lhHDxbbfMxzbX5CXV47u1lFto6x5gZQCCPcbnuNw2Wi49hZPPsQXNV51S9KNX5oNjE6Ua77P5TPwn5d+XpxrKLKnKvWyMD9g+v3dpkGLcnx3VMlexrrOid99Ab3+U3uQpvxLcXdPln+bt9OGsRjsq/uvpqYbsflsg032Y2W/7x/JfyX1YAN/wwBrU0VwzMblxtliJ1DzzgF6aV7Agb1rufkJafgPq/wBCOHO7Bm3hzrvvS63KmZLVtdOghkcKwIIKn00wPpLb8CJanBDzd7bLyCpP+sOw2NS+akVxzpzx3m1+0q7RPNCezA1vCFYaP0P9juCVHroff2/WfL6CPod+kgffIVynG8/m5VlqVv0MKz0m09HWB0swBbt+AhKYNmYCaL5WMo6unZtT13069fnKL5Oqts3kG8x2Iuv6BsfZ6i/b6d5N08Mc5ZoMuOm9767GI/HQMgfMYhw8/Mx77CtlVprban4m99e+paCXPXoJXtvuD3Y/OXTwHM8LjcVjVXZdaMhcBT1ltE9XsJR6Fw/ZSd+mzoesuHw34f4XO4+vKyabHsZu6GxlVQVU66UOveJHbfxT4fQ6F9j/ANFT/wCeprWeMuFT7KZL/eqL+rTfr8OeHK/s8fQT836nP/EZuJx3F1/y8PFX+mlP+0qdI6fGeOw/g8fe59vj/wDypm1xvP52flVVNxllNLE9VjC3ajXY/EoEkC11L9lEX+lQP0n1B0REQgiIgVb48c/6QbpOigGiDoghUAIM43H4XKZdbEZOWzXWjKKI7EvZWfhtct7j2M6/jdXfPtKqTotr66IB1POB5BcVATX1/wANUtq6gr9u4ZNzdnm9PHrNP9/hiwTS3kWraf8ACP8AIU8rgW4Z8+4/udztjizW6bLW62Oj/iPrOjiPz1n7vYllVKVultVOPjDoRel1O0Ttpuokj6zLzWXTk2NY69JdqwtYPUQqe7kTucVn4ePj2GxbClmmWytQ2iFA6GmDJlyxgraY1M+9f98t9MeO2WYieo9ITy+RmWM1d9GPWbLEseyhXVr2rTylZ+piNgfQTo43JZF+NRiHBrNCVW02v5tgbosrFZWpn6un5kDY3MPiFhfYTWCHe220J2BRWGhvXzkg8Oji6scLkmpXNSGtrtdGunuAT7zve96ePTJruzlStbZ7UieoRvPu4+yirGOPlY74i3JjKLFtqZLH6t2M/wAf9p08bk6cmmqpf37zxj20WX11jprBo8lCwR9Nr2OgR9Zq86Maxi9Cha/PcU6/wdI3r31v0kh4HjcC3CYv3sQb6Fbp0ugertJt5ExgreI7lFcO81q76hzMrmeLsTKxFqJa/Hdbr76yttmTUqV1MwGxs6J2fTf1k78HqF8P8b2+0b2/E2tK45uilLsexPX94sqDe7ouiCZZvhZengOIHzpZv7uxl5tF8EXj3LnqYzzWfTtRETK0E8JA9SB95A/WeyM5/hi/Oyr7/wDSDoljFghV31s713bX5Ql37MvBqBNuVjoAe5e2tf1MozxPbVk8zy9iM1qNmX+U7t1bXq18Ou2vlLNXwVi+tmdcfX7NaD9dyu/EvFDA5bKxka1qls6aiE6mJ6QwXtrZ7+wkwhG0Q9S6RSB6+ugPrsy2/DHP8Pg8aKL3sFgdSVStm79Cg95WiYmTsFaMtmBDD+C42R+EtDwpxnF5uG9+XiI9+6yy3KQa20QR0/hJlMOk/jDhV+ymU3y+BV3/ALzTXbxrgf8Al4d7ffZWP03O8nE8PXrowcUa9P4SnX9xM642ImujHpXXp01oP0Ep2dIsfGN7EinirG+Xx2N/ypNrB53m8zJprbijXS7AO5W4dI33PUwA/KSQKo9AB92p7ARESUEREDWtwOPv352LTZtmc+YgbbN6nvNSzw/4fs+1xuN96r0n+4nUiXi9o6iVJx1mdzDht4U8NN/6FV/pdx/nMTeEeB7+WuTVv18q9wD94MkMSfq3/KsYccTuIRG7wLxVh3Xk5SH/AOXQ/f6kiYF8EW1ApTyfwb6ui3HVgG+Y7yaxLTnvaONp3ClfGx1tyrGp/SAX+BeStYs2djOQNL1I6gD5ADtFXhXxFjJ5athWqo0h82xG18t69JP4i+ab14WiJgrgiludZmJ/tWGX4U8T5FtdtlNZWrYRKrUKgevYE7k/4bGtxOL43GtXpspoVXU6Om7kjtOhEXyzasU1qITTDFbzfczMkRE4u5ERATTy+N4zOah8vFqufHLNQzr8VZYaJUj3m5EDmjg+DVur9xpLeu26ifzM3KMXFxgwx6UqDkFggA2QNd5miAiIgIiICIiAiIgIiICIiAiIgIiICIiAiIgIiICIiAiIgIiICIiAiIgIiICIiAiIgIiICIiAiIgIiICIiAiIgIiICIiAiIgIiICIiAiIgIiICIiAiIgIiICIiAiIgIiICIiAiIgIiICIiB//2Q==;" vertex="1" parent="1">
          <mxGeometry x="2725.3" y="1550.55" width="160" height="160" as="geometry" />
        </mxCell>
        <mxCell id="zTCvv12B_XUvZwemzXdV-30" value="" style="shape=image;verticalLabelPosition=bottom;labelBackgroundColor=default;verticalAlign=top;aspect=fixed;imageAspect=0;image=data:image/jpeg,/9j/4AAQSkZJRgABAQAAAQABAAD/2wBDAAsJCQcJCQcJCQkJCwkJCQkJCQsJCwsMCwsLDA0QDBEODQ4MEhkSJRodJR0ZHxwpKRYlNzU2GioyPi0pMBk7IRP/2wBDAQcICAsJCxULCxUsHRkdLCwsLCwsLCwsLCwsLCwsLCwsLCwsLCwsLCwsLCwsLCwsLCwsLCwsLCwsLCwsLCwsLCz/wAARCADOAM4DASIAAhEBAxEB/8QAGwABAAIDAQEAAAAAAAAAAAAAAAUGAwQHAgH/xABSEAACAQMDAQQFBgoHBQMNAAABAgMABBEFEiExBhNBURQWImFxFTJTgZHTIyRCVJKTlKGx8DNSs8HR0uEXNUNjdESC1AclNHJ1g4WVoqO0wvH/xAAbAQEAAwEBAQEAAAAAAAAAAAAAAwQFAgEGB//EADIRAAEDAgQBCgYDAQAAAAAAAAEAAgMEEQUSITETFUFRUmFxgaHh8BQyU5HB0TOSsUL/2gAMAwEAAhEDEQA/AOt0pXwkAEnHFESvtVTUu0Opb3h0uyYqpK+kzqCH98Ue4ceRP2VATXva6ZgHnv8AcxwqQsI9xJ6KkJB/dWrDhkkozOcG951WNPjEUTsrWl3cNF0rn305rmDWfap/n2+rtn+t6Qf4mvB03tH+Zan+hN/jVkYQz6w9+Kq8tv8AoO9+C6lzSqRpXZe/m2T6nPPBHwRbRyt3zD/mODhR7hz7xVziijhjiiiXbHGoRFyThR72JNZdTDHC7Kx+bw0WvSzyzNzPZl8df8WSlKVVVxKUpREpSlESlKURKUpREpSlESlKURKUpREpSlESta+hmuLO8ghaNZJoXjUyqWT2hghlHgelbNQuq9otO0zdHn0i7H/AiYewf+a/IHw5PuqaGOSR4EYuVBUSxxRkymwVbstGa5vhZzRW0PdKZpw+lmNmjVgpETuxTJyOef3VMapPpnZmKB7HS7YT3LOqy7MIm3B9uT52T4DI8fLnRHbd8DOmLn3XRA+zuqN20Dgq+lIynqGucj7DFW++CtkeDJHdvOMwF/svm2VNDFG5sclnHY5SbeSi37Xa85JW4tox5RwxkD9ZuP76+p2s7QKQWmgkHlJAmD+rwf31kue1V9IpW2s7K28nEYlkX4FwF/8ApqGihv8AUZ2EEU1zcSMWcqNxyT1dz7I+sitSOliLSZYWtHgfx+VkS1c2YCCZzz4j8/hX3Qe0A1YzQSwiK6iQSnuyTHImdpZd3IwccZPX7J+oLs/og0mGR5mV724C98y/MjReRGhPgPE+P1VO18hV8HjO4Hyr7ai43Ab8R8yUpSqquJSlKIlKUoiUpSiJSlKIlKUoiUpSiJSlKIlKUoi1L+SCO0uHuDKsCqO+aF2R0jLAM+9CGAA5OD0FVQ2/YxUSR7C+RHLjmWbIaPAlBAl/IJVW958aupAPBGR76bU/qjx8PPmrUFQYRYX8DZUamlE7gTbxF1ULfT+x89wbb0G5jlUN3vf3EqpEUIRlLCXGQxC/E1gWDsoRCF0x2dzahy93MkaiV4lduZSwA3jbkc+HTm67EPVR9nvzTu4ufYTkAH2RyB0B+HhU/wAe+9yXf2KrnDWWsA3+oVUaPshazPGNKV3RImQ3HAcyYPtC7cbQMjJYD943Sz6rplksMccQWNoDcFYBAojXGdoQMMt5hc469DzKmOM7sop3ABsgHIHQHNNkeQdq5BJBwMgngkVC+cSWz3PeVYjpnR3yWHc2yhW7RWaqzejztsVjJse3ZQVWVzhhJgjEbnIz5dek2p3AEdCAR9fNfAkYGAigAYAAGMeVeqgeWH5RZWI2yN+d1/CyUpSo1MlKUoiUpSiJSlKIlKUoiUpSiJSlKIlKUoiUpSiJSlKIlKUoiUpSiJSlKIlKVrX7mOy1BwWBS0uGBXO4ERkgrjnPlRcudlaXdC2aVzm41a/spDCk8z3aezM8kkkiQSdDFDGxKFh0ZiDzwMAZbO8nbeK3a7cagIgpdt5ViFxyXhOWx5+xXGdZbMSzD5D221t3q/8A20+2uUtqd/NE0sN3dI8JQXUQubgpiQkLNFlydpPssMnaSMHDgJjXVNTPW8uT7u+l/wA1M4Xj8Tazdq619tPtrlSajqrnZHcXTNtdgqyykkIpkbjd4AE/VU5LE4t7qYahcL3V7Lad208pkXZerZ94fA/OU4/x49DrqSGv4oJa3ZXn7afbXPTO+yd2a7Vlgt5UR5nbbuupbZg+4AknaCPifPjSNzqbXERjnZYAwZg2TkArkdc9N3h4g5G3B8LgF06uDTYtXT/tp9tcqa+v2vUDXeYVeUlVZvYjCufbCtk5x7PH5DcnPHxr/wBILmGaRlXBGHbaQRkMuGxg9RzTOo34kG65V1b7afbXFZ7zUXurOztZJmubyaKKICV1y7uEUbs8DOcnyFWDUdF7RaRbJdT6h38ZIWYQPOvdsRkfPbkHpnj4c8M3YvRXvcwvbHcDtXSqVA9k5nn0eGR2ZmNxdjLMWPEh8TU9XQNwr8MnFjD7WulKUr1SpSlKIlKVGXOtWFsQHkhUEkK080UKyYOCYwx3EDz2495rprHPNmi64fI1gu42UnSoT1k0v84sf2yL/CnrJpf5xZftkX+WpvhZuqVD8XD1gpulQnrJpf5xZftkX+WnrHpfH4xZdfzyL+8U+Fm6pT4uHrBTdeXCFSH2leMhunuzWK3uoblSY8ggKSrbchWGVYFSVIPgQSD58cY9Sz8naocnIsrogjggiJjkGoCCNCpi4ZS4Kkdm44ZdaU3GDJGtxKgf6cAc4PiPaP1e6ug1ysvcS3K3tg+L3csk0ClUk77qZbfcQGVupXOQSeCDkSc2vdtLiCSBbKeEhSss62ctu6qRglppyIl+PFRNNljUNQ2GPLYnXcc6ib1IE1rtAlttFuItTXCAbQFMbYHhjftA/nEeDjNb9jZLLL8nR3EHpV1lrm4CySxRxw/hBbwBMFufaY8ZKjHCbn+3+k3VionJE1oVRvSEUqEDDgToSSp8OSR788DkgnULPqGPeM7RoL+HZ4LR78WwFwZu57pgyybyhVuoKlec+WK+pcrNENk2+F8nhyUbJDHIPv56VrXWFez3Jk+lJlWUjhhz5EHyNeEly9/IFKk3bIB1wEGAST4+Z8a55lAABHmvr0KT9IdmLPK7M2wOzuzFguANxYknHh8K2FnhHG8dP6wqIE7jox/RFehM/HtNklRgRg5JOABjknyFcrgSrfIs2kMhJJIb2e8YAFgQSADx1OPLJ6Z51wLeEP3Z+dyS7kk8YAqStuz3ae7QyR2ZiVvmtetHbs2PKPl/tUV5uuynaqFdwS1mwCdsFwm/jyEyoP313lKt8CZ7b5Sq/cd4J7a6tpdlzbPHNEysAyvG29WXdxkHz65qfu+0msaxZ+jXqWsEalTJJCCGfHskiPc3Jz1JAGfE4xXpo7yCc29zFLbzjkx3Sd0QuPne1xt94JrwJC67UkOwurNtyAxXOM9D4ml7BcCeWJpj2C6n2Ix8hRgHIW9v1BPXAmI5qzVV+w3GhKPK/wBRH/3jVoqYbL6am/hb3BKUpXqsJSlKIte8JW0vWUkMttOVI6g7DgiuV607tq2q7ukd1LBGBwFihbu0QDyAAArrTqjo6MAVdWRh5qwwRVQ1Psobu4e4R5hI+O8eFYZFlwNod0kkjIc/lYYg9cDOK2cJqYqeQmTS4WHjFLLURgRa2VV0+CN7e/uPRDezwyWccVt+HKhJi4eVktyHOMKo5wN2a3bCxt5F08SWDTemahd216+6cHTo4imACrbQQCXJYHO3HnUgnZC9jbdHdXqNgjdHBbK2D1GVvM19Xsheqrqt1fKsgxIqwWwDjycC8wa2pK2BxOWW1+/ot6rGjop2AAxXt3dPsKrPAyQ28+4FJ2mVPZdT+CIBPtAAjnqCfEeFYc1bj2PvCqKbm9KpnYpt7Yqueu0G7wK+eplx4z3WP+mtR/G7qy3E6YDV6qOwuqJ0YVudjJJDCFZiVSe9iQf1YylvNt+GSx/7x86tt1D6RbXdvuKd/BNCWABKh0K5APFR2jaTHpkSqowAHCqWDvmQqzvK4ABZsKOBgBQB5tLHGD8D/Cvjq2Vs07ns2K+yooXRQCN65K40TJzNq3IB/obHk/p18Y6Q21TPrDL5FLI4+A34rXisr+9eWO0lDSx2puipjiQbAUThz45YAe8+AGajpPlW2m1KKXaDpsgS8xs3I5JTap5UjPXn/XPtdYUcD3sztAt4qes00s3lksF1rEU8lzDFDKqWQMbyOIwxKtnjPNWHRtXtbtpH1J4Lc2sG2Ry0McN2p3LsaA85AzkKCDnoDwaZok8j6tpUTneVvrFwwABGLlFIyOvx/wAeN3TYYZ7mVJlDqlne3AUx3Mi74lBUtHZkTMB5KeaXIUsMskLg1ttTbsOy1u0F7HqGqemImyOa/g7tScEIiCNSwHiQAT8fdzGxH/0zwxez+P8A6tbWtRR22ovbRg93b6v3KBjuO1HdRlq1IOTfjyvp/D3LXJ2VCZzi1xdvc/6vecZJzwPPJPwFdL7M9motPjhvr2PdqTruVX5WzVx8xB034+e31Dge1Tuy9ml7rmnJIMxwGS9cY4PcAFM/94qfqroOv3ZtrIxIT3lwwjCjdl16suVGRnoeQcE456exjnWnhFO1wMzvD9r3da9p1vlUdZXDMowxCEq21sEAsQPEhSPDOeK0Tr2nzECaAqWx7UMpEy5x83eqZPmAcnwDVWi3eFnY7mfG4gD2sDaMBQBgYwBgYGBxjFeQqMTgZA4Ocnr555x9vSpd19EpC+S01FltLxkntLlmaxuNoh9rn2SfyZV8WAAPiCARHSL7T5tLupbaTJCYZJCNveRklQ2D0OQQw8CPLk2e4JaCVlLnDxo2FXbuVS0TEgDrtYMc88Z6ndp9oQL/AEzSdRK5kQYmY53FhIbV8/ErGx+PvqMhUK6nbLGXc4Vw7C4+QV/6/Uf7Y1aKq3YTjQE/6/UP7Y1aakbsFYpv4m9wSlKV6p0pSlEXxiACSQAMkk4AAHJJJquX/aizspRExIYqrd2kBmlCMNytLmWNVJGCFyTgjOM4E5e59Dv/AD9FuP7Nq5VrO75W1jdnPptwRn+qXJU/ZjFa+F0cdVIRJsFjYrWSUrAY9yrb662X/O/Yk/8AF09drHj+m56fiSc/D8bqr6QbF3uLe9eJIGNtd75SBzaSd40Sk+LqXUDxOK3rG5ilW2lMllFHLqN5ca5HOYFMltJtZVVHG9lxuVQo4b7a1ZaCnjJGQ6dvZ3eHfbpWTFX1MgBzjX30+Pcpr11scgfhsnw9CTP/AOXT10sj9OPf6Cv913VaV3+SoUs5rWNNl58pRyvAs8knekx8Se23s7Qm3oQenUxFTx4XTPvodO309hQS4rUx21vce+ddc03UoNQjV42Vtyl0ZM7XUHaSA3tAg8MD046ggnfOcH4H+FUvsUH7pjztNzfFfLAitQ2PrxV0PQ/A/wAK+XrIRBM6NuwX1VFM6eFsjtyuIyT38IDgzIrRlSyFYztZVC7HQbvA5BBBzzjGajDPdB5baOScQyo3fJKT3MrnGcrgQ5IxyR7hjORNpfW9vIriKOVwkCtFeKvo8iI6SmM4PiVA54IyPHB0RftHZanY/J/dQajcNcyTq88iLMJAVEIDLB7I4IwTx4dVotGioUn8Wuh1WfQCvyrpiuCLlb/TyQQFUQtcRkCML7OOhOPMfXtW63UtzbRWrOtzNMkMJSQxnfIdvzl5A8/dWroivJrOkTYxCl/ZRJnAZ3e4QnCjgAf3+6tiC5ks5vSYdvfRx3Cwsyhu6kkjaIShSCCVySARio3brMntcZjYX17NlHXauslsGByl8u7kZBiyXB9/xrxb/Pvwcgi9lYjx2uqMp+vwravpfTbmSd90bSTyXKrC+O7kkO5zHuyOTknjx91YI40iD4Ls0jmSWSVi0kjngljXJcLWVSV8QjLWXv6qz9jZFi1yEN/2i0uoVyfyvYlA+xTVp7UbmSAqnEDCSQgbm7txtyB5ZAH2fXzq1uJbW4trmFgJbeVJoyc43Kc4OPA9D8a6bJJba7YW17ZOgmXvAiS8jeyYe2lAI58vgD0Oa7jNxZbWCTgxmI7j/FU06Lhhk8g5yM9eCea9AAc8YzwOccfz4GvLxxpJKrSS2jq2wwywNMu8Fd4jZGVxjwBB48OeRk0uICWe/Z0BIMVrbSw87iv4Sa4xxwc7Y89eRjNSXut+y9uFgsLqZ9hEkyLHuzki3WR5X8OASo+OfLjDrO227M6dCykS3TLIPAhZLjvf4R/vrZgik1FUu7lWt9HQFCscR3XmCHjtrJG5PQksPMnJySK3ruqvqV2CWQRQnbEkT7oU4CiOJuhVQAoOBk7j0YY8cqlZKI4Tfn0XQOwv+4V/6/UP7Y1aaq/Yb/cQ/wDaGo/2xq0V0NlJTfwt7glKUr1TpSlKIvhGRioG97NafeSB3jjbaoVSzTRyKo4Cd5C4yo6LlSR0zgYE67rGjyOcIis7HyVRkmqbqnal7W5kt1jleSMgSrHMsMcLYz3e4IzMw/KOQM8AcZN2jjnfJan3VCtkgYy9Rstr1P0v6GP9pvf89PU/TPoY/wBpvP8APUXB2p1O6cxW2n3k8gUuUgupZGCjA3ELCeK+etWocfiN3ykko/Gpf6OMlXb+h6Aggnwx7q1uDiN7Zj/b1WRxsOtfL5eilfU/TPoY/wBpvP8APT1P0v6CL67i9I+sBx/GoyHtPqlwJmt9OvZlhUNKYbmVxGDk5YrCceP2Vi9cbjj8Wmx7r1v74sfupwMSJtmP9vVDPhwsS3y9FdbCwt7GNUjCDCCNQi7I0QEtsjTJwMkk5JJJySfDdPj8D/CofRdWTU4lcEnIfG8KJFaPaHjkCezkblIIABDdAQRUx/P7qwZmva8iTdfQQOY5gMey42ltpb5N5KLeMwxossMSzSJI5T8JIiNvKAbsgckgfA6ltBoDaLq03pm7XTK4tola4w0MbIu3Y/4LBXOd2eRweOPfyZdX886WkRaVIVlRIgq7lTYjHJOdxLAKOMnPIrSa0vvQrm+Mcz2UMpt55XgeMx3Ckr3S73ZD7WAxDf61ws2kFodNVtaKSNb0lF+aL6xMoG0KrLcoq52+znw49/1bVstrJeWaXTFbdruFZSArDaZVBD7nUbT+Ud3Ayea86SkcF7oKKioTf6ZuCr1fv4wc7fGvkMMdxK4d2WFILm6maNA8ndQruKxIxALMcKuT4+6ozqsl54hFhfX77LdHoS2GtRRFO49IleG4kktUu3dBCsVsbbDybG9tgyyYAUk4+a0GGVslTxms1zEILqeAM7CKV4w0sTwuQDj24pfaU+YP+tacPCkbdvPTHT3VwVUqHZ9xYt0Wwp/nNb9hql7pspktnG18CaGXLQTKOgkTI5HgQQR5+caD/OK9E/ziuBcHRU2OdG8OYbFXey7QWerzWmn3NmpuLh2hT0tRcxABGchZ1ZJgOPEN8eKx3eo6Lp4infS4EleW4WEmzedzJCUEhRrmUKMFgM88g9cVToZ57eaK4gkaKaJt8cicMjYIyP316vdQ1LUTEb26luDCHERlIOwPgsBgDrgfZUok0X0EWLu4RDtXc3QtvVu0N9qe5QHjjKshLuJJnRuqFlVVVT4qqqD47qiI8HBbz43cVinmSDA2hpGG7B4VV82/n/Xwk8khQPGoU4Ze7DoSOOVLHBFe6u1VR7ppxneuv9h/9x//ABDUf7Y1Z6q/YfHyHwCAb6+I3dcGTPNWipm7L6el/hZ3BKUpXqspSlKIsF4rPaXiKCzPbzKoHUsUOAK5VrSMmq6kW6TXElzEfB4Z2MiOp8iD/OK63WhcaRYXJ9tFK5ZgjxW80asxySi3EbAZ6nGP31p4dWikeSRcFZWJUJrGANNiFzKzmtfRr2znuHthcTWc6zpG0o/F+8zG6owbndlfev1jZj1Gzjt47cJGxXS9TtO+aIifvZ5ZnRQwYgKQw3cHqetXz1e0r6G3/YdO+4p6vaV9Db/sOm/cVpvxOneSSDrr5W6FlswuoYAARpp536VSIbvSENoguJoI7LUY9RU28MhF0e6hV1VXfKtlCFySMN14wYWWQSyzShVQSSSSBQfZQMxbaPcK6j6vaV9Db/sOnfcV99X9K+ht/qsdOz/YV1Fi0MZuAT77lzLhM8oDSQLe+lQfYyKVYVdlwskl3cIT+VEUghDfAlWA89p8quf8/urDBbRW4YRhstguzHLuQMDJ93QDoPACsjqzI6qzIzKVDrgspIxuAYEZHwrAqp+PKZLWuvoaWD4eIR72XFZWnR2MMyxsTG+7B7xHRdoZHVgw+2sbm+Yt3N0kUbxPDJGqsI3WQHfvTfsJOSckeXlkdTfs7bv0uQPP/wA36Q2f0rWvHq1D+dj/AOW6N/4Wqlis9lLOwWafIftc60xI/T9BQ7W7rUdMCnOfaSeMAgGsSSS28geLbuUSx7XVJI2R1Mbo6OCpUgkEEGulr2bjRkdLzZIjK6Oum6OGVlOQVItuo8K0PUbTuvyhqGfEgW3X9XXOUqB9BPYZTre653NNLc3Estw7STSyGSZjjczMck8cfVWsocBgxJIPPGPrxXSR2A0sP3i6hfhs7j7Npgnx4MWOa8/7PtKCFF1DUAhUqw22ZyCen9F0rksKgdhk7r351zdt+AVz1GTz0rKAxx1xwM84z8a6Gf8Ayf6YRj5S1DGQeVtOuCM/0VD2A08kH5Tv+MgexaY5xngR+4fZXnDKjOEzkW0XOTndtyeg8OepBx/d/pz9QMVG4Yb4/uron+z7TQ2/5Rvdx8e7tPD/AN3Xo9gbHw1O9z74bQ//AKV5wyjsKqLWAH3XNLcW0esWk15F3tpHe2s08eAwkgQqSu08H4eOMeNdF7Wat2fv9Lhht5Yrq4eWGW2aMc26g+0WyMjIyuPf7qyHsBYkqzajdEqCB+BtxxnPOBWZew9kuPx644/5UNdEPtYK3wqxkRiawG4tuFudjF26Kgxj8auiP0hVjrS0ywTTLUWscjSKJJJNzhVOXOcYXit2pWiwstikY6OBjH7gJSlK9VlKUpREpSlESlKURKUpRErBLd2ULbJrm3jfAbbLLGjYPQ4Y5rPVO7RPpj6iVc2SzRQxpMbrsjqGsMxOXUrdQYTABHAJwc/AEVtSaCSMSxyRvEQxEiMrJheD7QOOPHmkM9vcxQz28scsEyLJFLEweORGGQysvBB8KpGtehS9nNHSCW4S1a9SwmitLO50m0mkk3O7zWRtZZymQcIFKnec7sZH3sxFeyntHFZX89vNG9oUeRJJ7ASXP4w8kVlPb221uoO0AHdnGRwRXqsDXlikyWzXNutw8ckqRNKgkZI2VWYLnOASAfjUbDY9qUmt3m162lhSVGmiXSUjaSMHLIH784z0zg1zya20uCSfT4LnSGikFy8OoSafdb7KOF1jjt3i7ho3Zg7lt27eUJJyBtIuqy3ljBJFFNc28ckySSRJLKiM6RlQzKGPIG5c/EedfHvtOjiM73lqkIfuzK88Sx78Z27y2M+7NVibsfYX3oNxBfSiBNP0+0t0khWVUtoIgiCHeQyqR7RBzyc+4QFy1o3Z3SLJIoYrzTtV1CbUi8NxHbxXtpbSxO8hzkkmWLaA5zkKM4wCLoVvqekXZuBa39nOLZBJcNBPHIkSndy7KSo6Hx8K+Q6totxJDDb6lYSyzZ7mOG5hd5MKXOxVbJ4BPHgK59o9sbGLtBBJLeW8TaLqVzF6dFcwTjv76Uo3duuwiRe6L4QlS5XIORUH2bWRNe0UPLLDHb31vGkndzKNkloUKxs8eBliIz09kke+iLsHyhpu94/TLUukkUTqJkJWSWZ7dEOD1LI6geakeFfJ9S0m1kMV1f2UEojWUpcXEMbiNywV9rsDg4bB9x8q5Xqd1pjXmsJ6ObiEz6gYRLcXCr6T6VqNwtw0Q0942KtIwjBLLh1zknKzGrSxy2+lLYx3DRJYaVMiQ26pbxekW84aOzghg7wewC8wDYAA9nLYJFfze2AyfSYOJYYDh1OJZgCiHB6tkEfH31gttY0O8laG01OwnlWNpSkFzDIwjVmRnwrZwCCCfdXPJLK5OnQwI1qRbdrNOluLgO0kEOy3jkAXaUBySA+WAUA9D0xdmLa5W7vxJa6kwutBvobUBxay6onfo/pEErTLg7i54YcSbs4k5Iuox3VpKYRFPE5ng9KhCOGMkB2/hVweV5HPvrNXKItPvItQ0SaSC0gg0saTpd5qIgvr17e/gnjkED3BlQuMxrG7hNqd8E5Cbl6vREpSlESlVT140b81v/0YPvKevGjfmt/+jB95V/k6q6hWdynSfUCtdKqnrxo35rf/AKMH3lPXjR/zW/8A0YPvKcm1XUKcp0n1ArXSqp68aN+a3/6MH3lPXjR/zW//AEYPvKcnVXUKcp0n1ArXSqp68aN+a3/6MH3lPXjRvzW//Rg+8pybVdQpynSfUCtdKqnrxo35rf8A6MH3lPXjRvzW/wD0YPvKcm1XUKcp0n1ArXSqp68aN+a3/wCjB95T130f81v/ANGD7ynJ1V1CnKdJ9QK10qoXnb3QrG1F5c298kTZEQxbmSY+Hdp3nQ+B9x8s1ZNO1HT9Vs7a/sJ0ntbhN8bp9hVgeQwPBB6VVlhfCcsgsVbimZMM0ZuFt0pSolMlKUoiUpSiJSlKIlKUoiUpSiLiRIGSeg5qTfRNTjYpJ6FG4xuSTULJHXIBGVaTNRjA7Xx1IIHxPFS3aEhta1XocTKn1pEiH+FfpEjn8RrGG1wTtfa3aOlfmkTY+G57wTYgb23v2HoWtNpt5CqFjauZJUhRLe7tp5GdzhQEhct+6tqHs9r0rsrWM8WIpXVplwrMilggIJ5PQVGQlhLCUcROJIykmWHdsGGHygLcHngE1bLazEiSWrQWMupXEPeWkt1pkKZZTlpHhePvtjcgySbckjCnOaqVU8sAGo17D++ZW6SniqCdDp2j9KuT6Vq9tGZrixuIYgUUvIoVQWOACc+NZrfRr6e4ht+8skaQsMm+spCMKX+ZFKXPTwH8KzaoRbx29ujxE3Ecd1M9jawWtnPE2GjCCNQ7bTuGWxg5GB4yUEi21lojRSQwyNYJKSLqytpC7SSqW/C2cr5I4zv+rz4kqZhEHC1ze2/5K7ZSwmUtN7NtdV9rC7SN5WNptRdzd3fWMrY9yxSlj9QrLHpOoyw2E8cRMd60gidg6xrtful7yVl7sbzwntc8efMlqndPpCygQs41RY98cttMwX0Utt329vDgeOMGtq2is7n1dkuDp08s80sEmBfOZY7WMLHEluwEPsjG4bRnAxycnw1kgjDz0kaC+wv0+/8APW0UZkLB0Dn6T3KBOmXojSQqoBtrm5m7wlPR0gme3KylwAGLKQo8ScfDSq2qTPFNFLbxmOPTtQaNW7PvZrGUhkmUrMzkL7WWHHU+ZqpVZpZ3S5s/N6qrWU7YcuTn9ErI721nB6Zecx/9ng/LuX5A4HO3+PwBIM1rZwem3v8ARf8AAh/KuG6Dgc7f4/AEiPRbm+n9Ovvn/wDAh42wr0HA4z08Pd0HEkkhceHHv79+9OIog0cSTb/ffvtiNQsO0OtTm7uJLdAR+ChZ3AiTwUBUx5f/AMGBN9kLjtJ2WvCwltp9MuHX02072Tnw72HKYDj9/Q+BXYrbXTr9kWRYkMbAMrd/bhWBAOVJcfA+/jqMDOkwulvmlcbnpK0YsWqrZYmiw6Ar167aF9DqH6qH72nrtoX0OofqofvaoqaffuZwIRmCXuJcvH7MuM7c7sH6q+fJ993rQ90gkWEXDbpoEVYiN28u7hcY5PNR8l0PW81JytXdXyV79dtC+h1D9VD95T120L6HUP1UP3tUEWl2e4AgfM8vcwrtO6R9qONq9cEMCD/hWU6bqirO7WVyFhfZITE/B9vkcdPZOT/jXpwmiHP5oMXrjzeSvPrtoX0Oofqofvaeu2hfQ6h+qh+9qjDTdTMSzeiy92zBEyFBbK78qCc4xjJ9486JpmpOHK2+Njsjh5IkZSgBbKswbA8TiueS6Ef9ea95Wrj/AM+SvPrtoX0Oofqofvaeu2hfQ6h+qh+9qhG0uhLbQd2GluQhgVGVu83sUGCDjqD9lYzFMO4JTicZhOQQ43mPgg46giuxhFGdifuuDjNYNwPsug+u2hfQ6h+qh+8p67aF9DqH6qH72qP8l6oeBbAnnAE1uScDPA7ytL7KNwijf8pv4o7GK1nzADwXRfXbQvodQ/VQ/e09dtC+h1D9VD95XOs+6ld8iUvb91xy5Vdn2We0mS3ura4eFZhBKsoidiqOy8rux4A4OPHGPGscsss8k00rFpZZHlkY9Wd2LE14IOTStjIM2bnWNnOXJzL3E/dyRSe1+DkR/Ycxt7LA+y68g+RHSpeHWoImDGx5juku4kguZY0eZCGR7xnDSyEHnJkHwFQtOailp2TfOFLFUSQ/IVti+nNs1pKsc0Bl75BIgLwsXDydw45Xf0bH8eakPl0LHbQxW1zDFbwrBElvql9Eu0MzZYIQCeTk/wCFQmDX3Brx9LE/cL1lXKzYqWudZS6tWtZbWVx3pnjkn1C7neOXuzGCO8J4HlXiy1drNNPjFrA/ok1xL3hH4w3fZyqSNnaM4zgc4+2MxTBrz4SLLktp3le/GSl2e+vcFI22pLbwTh0u57mSC5t1kkvZO4VJ4zESYCpyQCce1/CtFmtrSA3l5/RYzBDzuuG5AOBzt8Pf7gCR9j7lN8kyl1jQsIx812HOHOQceY8emRnIi4ml1Sb5Qum3KGPo0X5MYHGSAMZ6fDGBwKieMjssY1d79+yJmHiMzynRv59+9l7Vbm+nF9e/O6wQn5sS4AGQOM/V7ugxW5SlWY4hGLBVJZTKblfD4/CrDBc6dEZ0uZVuCtuJQ8byRsLmOGIbw0bIjEHIj8eCSwJ5r9Oa5mgEwsTZdwzmE3AurBaXNsiXebqBDLeTXLGL2UMWUiBVZ2D5+cwXrg++vQvoILyaf0hZjJpjRoyMqxZCMdpKkPuHzUyAcnyAzXeac1WNA0kkndWBXvAAA2U2LjTZF03ZvDJqhci5mihiSMJBud1hAIBwTww5B45wMj3Vo9vfJ3unCa4a7ljjWBFQhmYxySzd0SJUBfYN3iMkEYeA5pzXZomm2uy8Fa4c3vZWOzv9P7rSYCLeELvaRNg7mMekMSZHkmX2mABPBzkfAeLS6sY12d9Em+71SSESDbDGNjCN5mU7wpDFQAhznPBWq/TmuDQMJOp19f2uhXv0uBp6fpTjz2kt1bmK4t0gaykheWRnWeKIOzvDHlTtZgSgb2sqc5GSo1pnEMUXdXNq0b3bTSQ2pY+iPu3A2zOqyBSuFJH9XnwqM5pUraQNtqo3VZcDorGt/YPMGW6CRxXffjvUmhzbCOUCML3su5slcZA6e/iudAo9wpSu4acQ3sd1HNUGa2YbJSlfVUnirCrL/9k=;" vertex="1" parent="1">
          <mxGeometry x="2970" y="1509.15" width="190" height="190" as="geometry" />
        </mxCell>
        <mxCell id="zTCvv12B_XUvZwemzXdV-31" value="&lt;font style=&quot;font-size: 50px;&quot;&gt;&lt;b&gt;外部器件&lt;/b&gt;&lt;/font&gt;" style="text;html=1;align=center;verticalAlign=middle;whiteSpace=wrap;rounded=0;" vertex="1" parent="1">
          <mxGeometry x="2550" y="1280" width="320" height="70" as="geometry" />
        </mxCell>
        <mxCell id="zTCvv12B_XUvZwemzXdV-32" value="" style="endArrow=classic;startArrow=classic;html=1;rounded=0;strokeWidth=5;" edge="1" parent="1">
          <mxGeometry width="50" height="50" relative="1" as="geometry">
            <mxPoint x="970" y="1060" as="sourcePoint" />
            <mxPoint x="970" y="590" as="targetPoint" />
          </mxGeometry>
        </mxCell>
        <mxCell id="zTCvv12B_XUvZwemzXdV-33" value="" style="endArrow=classic;startArrow=classic;html=1;rounded=0;strokeWidth=5;" edge="1" parent="1">
          <mxGeometry width="50" height="50" relative="1" as="geometry">
            <mxPoint x="1090" y="1060" as="sourcePoint" />
            <mxPoint x="1090" y="590" as="targetPoint" />
          </mxGeometry>
        </mxCell>
        <mxCell id="zTCvv12B_XUvZwemzXdV-34" value="" style="endArrow=classic;html=1;rounded=0;strokeWidth=5;" edge="1" parent="1">
          <mxGeometry width="50" height="50" relative="1" as="geometry">
            <mxPoint x="1590" y="750" as="sourcePoint" />
            <mxPoint x="1590" y="570" as="targetPoint" />
          </mxGeometry>
        </mxCell>
        <mxCell id="zTCvv12B_XUvZwemzXdV-36" value="&lt;font style=&quot;font-size: 50px;&quot;&gt;外设库&lt;/font&gt;" style="text;html=1;align=center;verticalAlign=middle;whiteSpace=wrap;rounded=0;" vertex="1" parent="1">
          <mxGeometry x="1610" y="1595.13" width="230" height="70.85" as="geometry" />
        </mxCell>
        <mxCell id="zTCvv12B_XUvZwemzXdV-37" value="&lt;span style=&quot;font-size: 50px;&quot;&gt;IO控制&lt;/span&gt;" style="text;html=1;align=center;verticalAlign=middle;whiteSpace=wrap;rounded=0;" vertex="1" parent="1">
          <mxGeometry x="1620" y="1280" width="230" height="70.85" as="geometry" />
        </mxCell>
        <mxCell id="zTCvv12B_XUvZwemzXdV-38" value="&lt;span style=&quot;font-size: 50px;&quot;&gt;IIC、UART等&lt;/span&gt;" style="text;html=1;align=center;verticalAlign=middle;whiteSpace=wrap;rounded=0;" vertex="1" parent="1">
          <mxGeometry x="2120" y="1388.29" width="320" height="70.85" as="geometry" />
        </mxCell>
        <mxCell id="zTCvv12B_XUvZwemzXdV-39" value="&lt;span style=&quot;font-size: 50px;&quot;&gt;算法支持&lt;/span&gt;" style="text;html=1;align=center;verticalAlign=middle;whiteSpace=wrap;rounded=0;" vertex="1" parent="1">
          <mxGeometry x="1600" y="640" width="230" height="70.85" as="geometry" />
        </mxCell>
        <mxCell id="zTCvv12B_XUvZwemzXdV-40" value="&lt;span style=&quot;font-size: 50px;&quot;&gt;任务调度&lt;/span&gt;" style="text;html=1;align=center;verticalAlign=middle;whiteSpace=wrap;rounded=0;" vertex="1" parent="1">
          <mxGeometry x="1100" y="610" width="90" height="440" as="geometry" />
        </mxCell>
        <mxCell id="zTCvv12B_XUvZwemzXdV-41" value="&lt;span style=&quot;font-size: 50px;&quot;&gt;进程间通信&lt;/span&gt;" style="text;html=1;align=center;verticalAlign=middle;whiteSpace=wrap;rounded=0;" vertex="1" parent="1">
          <mxGeometry x="970" y="600" width="90" height="440" as="geometry" />
        </mxCell>
        <mxCell id="zTCvv12B_XUvZwemzXdV-42" value="&lt;span style=&quot;font-size: 50px;&quot;&gt;CPU&lt;br&gt;控&lt;br&gt;制&lt;/span&gt;" style="text;html=1;align=center;verticalAlign=middle;whiteSpace=wrap;rounded=0;" vertex="1" parent="1">
          <mxGeometry x="1100" y="1250" width="90" height="440" as="geometry" />
        </mxCell>
        <mxCell id="zTCvv12B_XUvZwemzXdV-43" value="&lt;span style=&quot;font-size: 45px;&quot;&gt;MCU外&lt;br&gt;设&lt;br&gt;控&lt;br&gt;制&lt;/span&gt;" style="text;html=1;align=center;verticalAlign=middle;whiteSpace=wrap;rounded=0;" vertex="1" parent="1">
          <mxGeometry x="980" y="1250" width="90" height="440" as="geometry" />
        </mxCell>
      </root>
    </mxGraphModel>
  </diagram>
</mxfile>
